g lever
v -0.016456127 -0.061840057 -0.013929397
v -0.043799877 -0.061843872 -0.013937026
v -0.043799877 -0.037078857 0.05138585
v -0.016456127 -0.037082672 0.05137822
v -0.016456127 0.29956436 -0.15093806
v -0.016456127 0.32432175 -0.08563045
v -0.043799877 0.32432556 -0.08562282
v -0.043799877 0.29956055 -0.1509457
v -0.043799877 -0.061843872 -0.013937026
v -0.043799877 0.29956055 -0.1509457
v -0.043799877 0.32432556 -0.08562282
v -0.043799877 -0.037078857 0.05138585
v -0.043799877 -0.037078857 0.05138585
v -0.043799877 0.32432556 -0.08562282
v -0.016456127 0.32432175 -0.08563045
v -0.016456127 -0.037082672 0.05137822
v -0.016456127 -0.061840057 -0.013929397
v -0.016456127 0.29956436 -0.15093806
v -0.043799877 0.29956055 -0.1509457
v -0.043799877 -0.061843872 -0.013937026
v -0.41526747 -0.061840057 -0.013929397
v -0.44261122 -0.061843872 -0.013937026
v -0.44261122 -0.037078857 0.05138585
v -0.41526747 -0.037082672 0.05137822
v -0.41526747 0.29956436 -0.15093806
v -0.41526747 0.32432175 -0.08563045
v -0.44261122 0.32432556 -0.08562282
v -0.44261122 0.29956055 -0.1509457
v -0.44261122 -0.061843872 -0.013937026
v -0.44261122 0.29956055 -0.1509457
v -0.44261122 0.32432556 -0.08562282
v -0.44261122 -0.037078857 0.05138585
v -0.44261122 -0.037078857 0.05138585
v -0.44261122 0.32432556 -0.08562282
v -0.41526747 0.32432175 -0.08563045
v -0.41526747 -0.037082672 0.05137822
v -0.41526747 -0.061840057 -0.013929397
v -0.41526747 0.29956436 -0.15093806
v -0.44261122 0.29956055 -0.1509457
v -0.44261122 -0.061843872 -0.013937026
v -0.016456127 -0.037082672 0.05137822
v -0.016456127 0.32432175 -0.08563045
v -0.016456127 0.29956436 -0.15093806
v -0.016456127 -0.061840057 -0.013929397
v -0.41526747 -0.037082672 0.05137822
v -0.41526747 0.32432175 -0.08563045
v -0.41526747 0.29956436 -0.15093806
v -0.41526747 -0.061840057 -0.013929397
v -0.043792248 0.23444557 -0.121610664
v -0.043792248 0.22694016 -0.104940444
v -0.043792248 0.22877502 -0.08675197
v -0.043792248 0.23945999 -0.071920425
v -0.043792248 0.24928093 -0.13229945
v -0.043792248 0.25613022 -0.0644131
v -0.043792248 0.2674713 -0.13413051
v -0.043792248 0.2743206 -0.066244155
v -0.043792248 0.28414154 -0.12663081
v -0.043792248 0.28915596 -0.07693294
v -0.043792248 0.2948265 -0.11179164
v -0.043792248 0.29666138 -0.093603164
v -0.41737318 0.22877502 -0.08669856
v -0.41737318 0.22694016 -0.10488704
v -0.41737318 0.23444557 -0.12155726
v -0.41737318 0.23945999 -0.07186702
v -0.41737318 0.24928093 -0.13224605
v -0.41737318 0.25613022 -0.064359695
v -0.41737318 0.2674713 -0.1340771
v -0.41737318 0.2743206 -0.06619075
v -0.41737318 0.28414154 -0.1265774
v -0.41737318 0.28915596 -0.07687953
v -0.41737318 0.2948265 -0.111738235
v -0.41737318 0.29666138 -0.09354976
v -0.043792248 0.23444557 -0.121610664
v -0.41737318 0.23444557 -0.12155726
v -0.41737318 0.22694016 -0.10488704
v -0.043792248 0.22694016 -0.104940444
v -0.41737318 0.22877502 -0.08669856
v -0.043792248 0.22877502 -0.08675197
v -0.41737318 0.23945999 -0.07186702
v -0.043792248 0.23945999 -0.071920425
v -0.043792248 0.28414154 -0.12663081
v -0.41737318 0.28414154 -0.1265774
v -0.41737318 0.2674713 -0.1340771
v -0.043792248 0.2674713 -0.13413051
v -0.41737318 0.24928093 -0.13224605
v -0.043792248 0.24928093 -0.13229945
v -0.41737318 0.23444557 -0.12155726
v -0.043792248 0.23444557 -0.121610664
v -0.043792248 0.2743206 -0.066244155
v -0.41737318 0.28915596 -0.07687953
v -0.043792248 0.28915596 -0.07693294
v -0.41737318 0.2743206 -0.06619075
v -0.043792248 0.25613022 -0.0644131
v -0.41737318 0.25613022 -0.064359695
v -0.043792248 0.23945999 -0.071920425
v -0.41737318 0.23945999 -0.07186702
v -0.043792248 0.28915596 -0.07693294
v -0.41737318 0.28915596 -0.07687953
v -0.41737318 0.29666138 -0.09354976
v -0.043792248 0.29666138 -0.093603164
v -0.41737318 0.2948265 -0.111738235
v -0.043792248 0.2948265 -0.11179164
v -0.41737318 0.28414154 -0.1265774
v -0.043792248 0.28414154 -0.12663081
v -1.4781952E-05 -0.027353287 -0.022352247
v -1.4781952E-05 -0.034858704 -0.0056820214
v -1.4781952E-05 -0.033023834 0.012506455
v -1.4781952E-05 -0.022338867 0.027337998
v -1.4781952E-05 -0.012517929 -0.033041026
v -1.4781952E-05 -0.00566864 0.034845322
v -1.4781952E-05 0.005672455 -0.03487208
v -1.4781952E-05 0.012521744 0.033014268
v -1.4781952E-05 0.022342682 -0.027372388
v -1.4781952E-05 0.027357101 0.022325486
v -1.4781952E-05 0.03302765 -0.012533218
v -1.4781952E-05 0.03486252 0.005655259
v -0.46115065 -0.033023834 0.012559861
v -0.46115065 -0.034858704 -0.0056286156
v -0.46115065 -0.027353287 -0.02229884
v -0.46115065 -0.022338867 0.027391404
v -0.46115065 -0.012517929 -0.03298762
v -0.46115065 -0.00566864 0.034898728
v -0.46115065 0.005672455 -0.034818675
v -0.46115065 0.012521744 0.033067673
v -0.46115065 0.022342682 -0.027318982
v -0.46115065 0.027357101 0.022378892
v -0.46115065 0.03302765 -0.012479812
v -0.46115065 0.03486252 0.0057086647
v -1.4781952E-05 -0.027353287 -0.022352247
v -0.46115065 -0.027353287 -0.02229884
v -0.46115065 -0.034858704 -0.0056286156
v -1.4781952E-05 -0.034858704 -0.0056820214
v -1.4781952E-05 0.03486252 0.005655259
v -0.46115065 0.03486252 0.0057086647
v -0.46115065 0.03302765 -0.012479812
v -1.4781952E-05 0.03302765 -0.012533218
v -1.4781952E-05 0.022342682 -0.027372388
v -0.46115065 0.022342682 -0.027318982
v -0.46115065 0.005672455 -0.034818675
v -1.4781952E-05 0.005672455 -0.03487208
v -1.4781952E-05 -0.00566864 0.034845322
v -0.46115065 -0.00566864 0.034898728
v -0.46115065 0.012521744 0.033067673
v -1.4781952E-05 0.012521744 0.033014268
v -1.4781952E-05 -0.034858704 -0.0056820214
v -0.46115065 -0.034858704 -0.0056286156
v -0.46115065 -0.033023834 0.012559861
v -1.4781952E-05 -0.033023834 0.012506455
v -1.4781952E-05 0.005672455 -0.03487208
v -0.46115065 0.005672455 -0.034818675
v -0.46115065 -0.012517929 -0.03298762
v -1.4781952E-05 -0.012517929 -0.033041026
v -1.4781952E-05 0.012521744 0.033014268
v -0.46115065 0.012521744 0.033067673
v -0.46115065 0.027357101 0.022378892
v -1.4781952E-05 0.027357101 0.022325486
v -1.4781952E-05 -0.033023834 0.012506455
v -0.46115065 -0.033023834 0.012559861
v -0.46115065 -0.022338867 0.027391404
v -1.4781952E-05 -0.022338867 0.027337998
v -1.4781952E-05 -0.012517929 -0.033041026
v -0.46115065 -0.012517929 -0.03298762
v -0.46115065 -0.027353287 -0.02229884
v -1.4781952E-05 -0.027353287 -0.022352247
v -1.4781952E-05 0.027357101 0.022325486
v -0.46115065 0.027357101 0.022378892
v -0.46115065 0.03486252 0.0057086647
v -1.4781952E-05 0.03486252 0.005655259
v -1.4781952E-05 0.03302765 -0.012533218
v -0.46115065 0.03302765 -0.012479812
v -0.46115065 0.022342682 -0.027318982
v -1.4781952E-05 0.022342682 -0.027372388
v -1.4781952E-05 -0.022338867 0.027337998
v -0.46115065 -0.022338867 0.027391404
v -0.46115065 -0.00566864 0.034898728
v -1.4781952E-05 -0.00566864 0.034845322
vt 0.54589844 0.5366211
vt 0.5366211 0.5366211
vt 0.5366211 0.5136719
vt 0.54589844 0.5136719
vt 0.54589844 0.58496094
vt 0.54589844 0.5620117
vt 0.5366211 0.5620117
vt 0.5366211 0.58496094
vt 0.4716797 0.5917969
vt 0.52001953 0.71875
vt 0.49682617 0.72753906
vt 0.4489746 0.60058594
vt 0.5366211 0.60058594
vt 0.5366211 0.72753906
vt 0.54589844 0.72753906
vt 0.54589844 0.60058594
vt 0.54589844 0.5917969
vt 0.54589844 0.71875
vt 0.5366211 0.71875
vt 0.5366211 0.5917969
vt 0.40625 0.5366211
vt 0.39648438 0.5366211
vt 0.39648438 0.5136719
vt 0.40625 0.5136719
vt 0.40625 0.58496094
vt 0.40625 0.5620117
vt 0.39648438 0.5620117
vt 0.39648438 0.58496094
vt 0.4716797 0.5917969
vt 0.52001953 0.71875
vt 0.49682617 0.72753906
vt 0.4489746 0.60058594
vt 0.39648438 0.60058594
vt 0.39648438 0.72753906
vt 0.40625 0.72753906
vt 0.40625 0.60058594
vt 0.40625 0.5917969
vt 0.40625 0.71875
vt 0.39648438 0.71875
vt 0.39648438 0.5917969
vt 0.4506836 0.5942383
vt 0.48999023 0.6977539
vt 0.50878906 0.69091797
vt 0.46923828 0.58691406
vt 0.4506836 0.5942383
vt 0.48999023 0.6977539
vt 0.50878906 0.69091797
vt 0.46923828 0.58691406
vt 0.5566406 0.74560547
vt 0.5473633 0.7416992
vt 0.53759766 0.7426758
vt 0.5292969 0.74853516
vt 0.5625 0.75390625
vt 0.5253906 0.7578125
vt 0.56347656 0.7636719
vt 0.5263672 0.7675781
vt 0.5595703 0.7729492
vt 0.53222656 0.7758789
vt 0.55126953 0.7788086
vt 0.5415039 0.77978516
vt 0.53759766 0.7426758
vt 0.5473633 0.7416992
vt 0.5566406 0.74560547
vt 0.5292969 0.74853516
vt 0.5625 0.75390625
vt 0.5253906 0.7578125
vt 0.56347656 0.7636719
vt 0.5263672 0.7675781
vt 0.5595703 0.7729492
vt 0.53222656 0.7758789
vt 0.55126953 0.7788086
vt 0.5415039 0.77978516
vt 0.5986328 0.5566406
vt 0.39404297 0.5566406
vt 0.39404297 0.5473633
vt 0.5986328 0.5473633
vt 0.39404297 0.53759766
vt 0.5986328 0.53759766
vt 0.39404297 0.5292969
vt 0.5986328 0.5292969
vt 0.5986328 0.7729492
vt 0.39404297 0.7729492
vt 0.39404297 0.7636719
vt 0.5986328 0.7636719
vt 0.39404297 0.75390625
vt 0.5986328 0.75390625
vt 0.39404297 0.74560547
vt 0.5986328 0.74560547
vt 0.5986328 0.7675781
vt 0.39404297 0.7758789
vt 0.5986328 0.7758789
vt 0.39404297 0.7675781
vt 0.5986328 0.7578125
vt 0.39404297 0.7578125
vt 0.5986328 0.74853516
vt 0.39404297 0.74853516
vt 0.5986328 0.53222656
vt 0.39404297 0.53222656
vt 0.39404297 0.5415039
vt 0.5986328 0.5415039
vt 0.39404297 0.55126953
vt 0.5986328 0.55126953
vt 0.39404297 0.5595703
vt 0.5986328 0.5595703
vt 0.5024414 0.60253906
vt 0.49316406 0.59814453
vt 0.4831543 0.5991211
vt 0.47509766 0.60498047
vt 0.5083008 0.61035156
vt 0.47094727 0.6142578
vt 0.50927734 0.62060547
vt 0.47192383 0.62402344
vt 0.5048828 0.62939453
vt 0.4777832 0.6323242
vt 0.49682617 0.6352539
vt 0.4868164 0.63623047
vt 0.4831543 0.5991211
vt 0.49316406 0.59814453
vt 0.5024414 0.60253906
vt 0.47509766 0.60498047
vt 0.5083008 0.61035156
vt 0.47094727 0.6142578
vt 0.50927734 0.62060547
vt 0.47192383 0.62402344
vt 0.5048828 0.62939453
vt 0.4777832 0.6323242
vt 0.49682617 0.6352539
vt 0.4868164 0.63623047
vt 0.6225586 0.45776367
vt 0.3701172 0.45776367
vt 0.3701172 0.44848633
vt 0.6225586 0.44848633
vt 0.6225586 0.5019531
vt 0.36987305 0.5019531
vt 0.36987305 0.51171875
vt 0.6225586 0.51171875
vt 0.6225586 0.6743164
vt 0.36987305 0.6743164
vt 0.36987305 0.66503906
vt 0.6225586 0.66503906
vt 0.6225586 0.61035156
vt 0.3701172 0.61035156
vt 0.3701172 0.6201172
vt 0.6225586 0.6201172
vt 0.6225586 0.5078125
vt 0.36987305 0.5078125
vt 0.36987305 0.49804688
vt 0.6225586 0.49804688
vt 0.6225586 0.6166992
vt 0.36987305 0.6166992
vt 0.36987305 0.6064453
vt 0.6225586 0.6064453
vt 0.6225586 0.64746094
vt 0.3701172 0.64746094
vt 0.3701172 0.6557617
vt 0.6225586 0.6557617
vt 0.6225586 0.5698242
vt 0.36987305 0.5698242
vt 0.36987305 0.56152344
vt 0.6225586 0.56152344
vt 0.6225586 0.63378906
vt 0.36987305 0.63378906
vt 0.36987305 0.6254883
vt 0.6225586 0.6254883
vt 0.6225586 0.4333496
vt 0.36987305 0.4333496
vt 0.36987305 0.4423828
vt 0.6225586 0.4423828
vt 0.6225586 0.5834961
vt 0.36987305 0.5834961
vt 0.36987305 0.5917969
vt 0.6225586 0.5917969
vt 0.6225586 0.64990234
vt 0.36987305 0.64990234
vt 0.36987305 0.6586914
vt 0.6225586 0.6586914
vn 1.1920929E-07 -0.9350586 0.3544922
vn 1.1920929E-07 -0.9350586 0.3544922
vn 1.1920929E-07 -0.9350586 0.3544922
vn 1.1920929E-07 -0.9350586 0.3544922
vn 5.364418E-07 0.9350586 -0.3544922
vn 5.364418E-07 0.9350586 -0.3544922
vn 5.364418E-07 0.9350586 -0.3544922
vn 5.364418E-07 0.9350586 -0.3544922
vn -1 0 0
vn -1 0 0
vn -1 0 0
vn -1 0 0
vn 0.000310421 0.3544922 0.9350586
vn 0.000310421 0.3544922 0.9350586
vn 0.000310421 0.3544922 0.9350586
vn 0.000310421 0.3544922 0.9350586
vn 0.000310421 -0.3544922 -0.9350586
vn 0.000310421 -0.3544922 -0.9350586
vn 0.000310421 -0.3544922 -0.9350586
vn 0.000310421 -0.3544922 -0.9350586
vn 1.1920929E-07 -0.9350586 0.3544922
vn 1.1920929E-07 -0.9350586 0.3544922
vn 1.1920929E-07 -0.9350586 0.3544922
vn 1.1920929E-07 -0.9350586 0.3544922
vn 5.364418E-07 0.9350586 -0.3544922
vn 5.364418E-07 0.9350586 -0.3544922
vn 5.364418E-07 0.9350586 -0.3544922
vn 5.364418E-07 0.9350586 -0.3544922
vn -1 0 -1.7881393E-07
vn -1 0 -1.7881393E-07
vn -1 0 -1.7881393E-07
vn -1 0 -1.7881393E-07
vn 0.000310421 0.3544922 0.9350586
vn 0.000310421 0.3544922 0.9350586
vn 0.000310421 0.3544922 0.9350586
vn 0.000310421 0.3544922 0.9350586
vn 0.000310421 -0.3544922 -0.9350586
vn 0.000310421 -0.3544922 -0.9350586
vn 0.000310421 -0.3544922 -0.9350586
vn 0.000310421 -0.3544922 -0.9350586
vn 1 0 0
vn 1 0 0
vn 1 0 0
vn 1 0 0
vn 1 0 0
vn 1 0 0
vn 1 0 0
vn 1 0 0
vn 1 0 0
vn 1 0 0
vn 1 0 0
vn 1 0 0
vn 1 0 0
vn 1 0 0
vn 1 0 0
vn 1 0 0
vn 1 0 0
vn 1 0 0
vn 1 0 0
vn 1 0 0
vn -1 0 -3.5762787E-07
vn -1 0 -3.5762787E-07
vn -1 0 -3.5762787E-07
vn -1 0 -3.5762787E-07
vn -1 0 -3.5762787E-07
vn -1 0 -3.5762787E-07
vn -1 0 -3.5762787E-07
vn -1 0 -3.5762787E-07
vn -1 0 -3.5762787E-07
vn -1 0 -3.5762787E-07
vn -1 0 -3.5762787E-07
vn -1 0 -3.5762787E-07
vn -9.0420246E-05 -0.77441406 -0.6323242
vn -9.0420246E-05 -0.77441406 -0.6323242
vn -2.2947788E-05 -0.9868164 -0.16052246
vn -2.2947788E-05 -0.9868164 -0.16052246
vn 5.0663948E-05 -0.9350586 0.3544922
vn 5.0663948E-05 -0.9350586 0.3544922
vn 0.000110685825 -0.6323242 0.77441406
vn 0.000110685825 -0.6323242 0.77441406
vn -0.000110685825 0.6323242 -0.77441406
vn -0.000110685825 0.6323242 -0.77441406
vn -0.0001411438 0.16052246 -0.9868164
vn -0.0001411438 0.16052246 -0.9868164
vn -0.00013363361 -0.3544922 -0.9350586
vn -0.00013363361 -0.3544922 -0.9350586
vn -9.0420246E-05 -0.77441406 -0.6323242
vn -9.0420246E-05 -0.77441406 -0.6323242
vn 0.00013363361 0.3544922 0.9350586
vn 9.0420246E-05 0.77441406 0.6323242
vn 9.0420246E-05 0.77441406 0.6323242
vn 0.00013363361 0.3544922 0.9350586
vn 0.0001411438 -0.1607666 0.9868164
vn 0.0001411438 -0.16064453 0.9868164
vn 0.000110685825 -0.6323242 0.77441406
vn 0.000110685825 -0.6323242 0.77441406
vn 9.0420246E-05 0.77441406 0.6323242
vn 9.0420246E-05 0.77441406 0.6323242
vn 2.2947788E-05 0.9868164 0.16052246
vn 2.2947788E-05 0.9868164 0.16052246
vn -5.0663948E-05 0.9350586 -0.3544922
vn -5.0663948E-05 0.9350586 -0.3544922
vn -0.000110685825 0.6323242 -0.77441406
vn -0.000110685825 0.6323242 -0.77441406
vn 1 0 0
vn 1 0 0
vn 1 0 0
vn 1 0 0
vn 1 0 0
vn 1 0 0
vn 1 0 0
vn 1 0 0
vn 1 0 0
vn 1 0 0
vn 1 0 0
vn 1 0 0
vn -1 0 0
vn -1 0 0
vn -1 0 0
vn -1 0 0
vn -1 0 0
vn -1 0 0
vn -1 0 0
vn -1 0 0
vn -1 0 0
vn -1 0 0
vn -1 0 0
vn -1 0 0
vn -7.325411E-05 -0.77441406 -0.6323242
vn -7.325411E-05 -0.77441406 -0.6323242
vn -1.859665E-05 -0.9868164 -0.16052246
vn -1.859665E-05 -0.9868164 -0.16052246
vn 1.859665E-05 0.9868164 0.16052246
vn 1.859665E-05 0.9868164 0.16052246
vn -4.10676E-05 0.9350586 -0.3544922
vn -4.10676E-05 0.9350586 -0.3544922
vn -8.970499E-05 0.6323242 -0.77441406
vn -8.970499E-05 0.6323242 -0.77441406
vn -0.00011432171 0.16052246 -0.9868164
vn -0.00011432171 0.16052246 -0.9868164
vn 0.00011432171 -0.1607666 0.9868164
vn 0.00011432171 -0.16064453 0.9868164
vn 0.00010830164 0.3544922 0.9350586
vn 0.00010830164 0.3544922 0.9350586
vn -1.859665E-05 -0.9868164 -0.16052246
vn -1.859665E-05 -0.9868164 -0.16052246
vn 4.10676E-05 -0.9350586 0.3544922
vn 4.10676E-05 -0.9350586 0.3544922
vn -0.00011432171 0.16052246 -0.9868164
vn -0.00011432171 0.16052246 -0.9868164
vn -0.00010830164 -0.3544922 -0.9350586
vn -0.00010830164 -0.3544922 -0.9350586
vn 0.00010830164 0.3544922 0.9350586
vn 0.00010830164 0.3544922 0.9350586
vn 7.325411E-05 0.77441406 0.6323242
vn 7.325411E-05 0.77441406 0.6323242
vn 4.10676E-05 -0.9350586 0.3544922
vn 4.10676E-05 -0.9350586 0.3544922
vn 8.970499E-05 -0.6323242 0.77441406
vn 8.970499E-05 -0.6323242 0.77441406
vn -0.00010830164 -0.3544922 -0.9350586
vn -0.00010830164 -0.3544922 -0.9350586
vn -7.325411E-05 -0.77441406 -0.6323242
vn -7.325411E-05 -0.77441406 -0.6323242
vn 7.325411E-05 0.77441406 0.6323242
vn 7.325411E-05 0.77441406 0.6323242
vn 1.859665E-05 0.9868164 0.16052246
vn 1.859665E-05 0.9868164 0.16052246
vn -4.10676E-05 0.9350586 -0.3544922
vn -4.10676E-05 0.9350586 -0.3544922
vn -8.970499E-05 0.6323242 -0.77441406
vn -8.970499E-05 0.6323242 -0.77441406
vn 8.970499E-05 -0.6323242 0.77441406
vn 8.970499E-05 -0.6323242 0.77441406
vn 0.00011432171 -0.16064453 0.9868164
vn 0.00011432171 -0.1607666 0.9868164
g lever_0
f 3/3/3 2/2/2 1/1/1
f 4/4/4 3/3/3 1/1/1
f 7/7/7 6/6/6 5/5/5
f 8/8/8 7/7/7 5/5/5
f 11/11/11 10/10/10 9/9/9
f 12/12/12 11/11/11 9/9/9
f 15/15/15 14/14/14 13/13/13
f 16/16/16 15/15/15 13/13/13
f 19/19/19 18/18/18 17/17/17
f 20/20/20 19/19/19 17/17/17
f 23/23/23 22/22/22 21/21/21
f 24/24/24 23/23/23 21/21/21
f 27/27/27 26/26/26 25/25/25
f 28/28/28 27/27/27 25/25/25
f 31/31/31 30/30/30 29/29/29
f 32/32/32 31/31/31 29/29/29
f 35/35/35 34/34/34 33/33/33
f 36/36/36 35/35/35 33/33/33
f 39/39/39 38/38/38 37/37/37
f 40/40/40 39/39/39 37/37/37
g lever_1
f 43/43/43 42/42/42 41/41/41
f 44/44/44 43/43/43 41/41/41
f 47/47/47 46/46/46 45/45/45
f 48/48/48 47/47/47 45/45/45
g lever_2
f 51/51/51 50/50/50 49/49/49
f 49/49/49 52/52/52 51/51/51
f 49/49/49 53/53/53 52/52/52
f 53/53/53 54/54/54 52/52/52
f 53/53/53 55/55/55 54/54/54
f 55/55/55 56/56/56 54/54/54
f 55/55/55 57/57/57 56/56/56
f 57/57/57 58/58/58 56/56/56
f 57/57/57 59/59/59 58/58/58
f 59/59/59 60/60/60 58/58/58
f 63/63/63 62/62/62 61/61/61
f 61/61/61 64/64/64 63/63/63
f 64/64/64 65/65/65 63/63/63
f 64/64/64 66/66/66 65/65/65
f 66/66/66 67/67/67 65/65/65
f 66/66/66 68/68/68 67/67/67
f 68/68/68 69/69/69 67/67/67
f 68/68/68 70/70/70 69/69/69
f 70/70/70 71/71/71 69/69/69
f 70/70/70 72/72/72 71/71/71
f 75/75/75 74/74/74 73/73/73
f 76/76/76 75/75/75 73/73/73
f 77/77/77 75/75/75 76/76/76
f 78/78/78 77/77/77 76/76/76
f 79/79/79 77/77/77 78/78/78
f 80/80/80 79/79/79 78/78/78
f 83/83/83 82/82/82 81/81/81
f 84/84/84 83/83/83 81/81/81
f 85/85/85 83/83/83 84/84/84
f 86/86/86 85/85/85 84/84/84
f 87/87/87 85/85/85 86/86/86
f 88/88/88 87/87/87 86/86/86
f 91/91/91 90/90/90 89/89/89
f 90/90/90 92/92/92 89/89/89
f 89/89/89 92/92/92 93/93/93
f 92/92/92 94/94/94 93/93/93
f 93/93/93 94/94/94 95/95/95
f 94/94/94 96/96/96 95/95/95
f 99/99/99 98/98/98 97/97/97
f 100/100/100 99/99/99 97/97/97
f 101/101/101 99/99/99 100/100/100
f 102/102/102 101/101/101 100/100/100
f 103/103/103 101/101/101 102/102/102
f 104/104/104 103/103/103 102/102/102
f 107/107/107 106/106/106 105/105/105
f 105/105/105 108/108/108 107/107/107
f 105/105/105 109/109/109 108/108/108
f 109/109/109 110/110/110 108/108/108
f 109/109/109 111/111/111 110/110/110
f 111/111/111 112/112/112 110/110/110
f 111/111/111 113/113/113 112/112/112
f 113/113/113 114/114/114 112/112/112
f 113/113/113 115/115/115 114/114/114
f 115/115/115 116/116/116 114/114/114
f 119/119/119 118/118/118 117/117/117
f 117/117/117 120/120/120 119/119/119
f 120/120/120 121/121/121 119/119/119
f 120/120/120 122/122/122 121/121/121
f 122/122/122 123/123/123 121/121/121
f 122/122/122 124/124/124 123/123/123
f 124/124/124 125/125/125 123/123/123
f 124/124/124 126/126/126 125/125/125
f 126/126/126 127/127/127 125/125/125
f 126/126/126 128/128/128 127/127/127
f 131/131/131 130/130/130 129/129/129
f 132/132/132 131/131/131 129/129/129
f 135/135/135 134/134/134 133/133/133
f 136/136/136 135/135/135 133/133/133
f 139/139/139 138/138/138 137/137/137
f 140/140/140 139/139/139 137/137/137
f 143/143/143 142/142/142 141/141/141
f 144/144/144 143/143/143 141/141/141
f 147/147/147 146/146/146 145/145/145
f 148/148/148 147/147/147 145/145/145
f 151/151/151 150/150/150 149/149/149
f 152/152/152 151/151/151 149/149/149
f 155/155/155 154/154/154 153/153/153
f 156/156/156 155/155/155 153/153/153
f 159/159/159 158/158/158 157/157/157
f 160/160/160 159/159/159 157/157/157
f 163/163/163 162/162/162 161/161/161
f 164/164/164 163/163/163 161/161/161
f 167/167/167 166/166/166 165/165/165
f 168/168/168 167/167/167 165/165/165
f 171/171/171 170/170/170 169/169/169
f 172/172/172 171/171/171 169/169/169
f 175/175/175 174/174/174 173/173/173
f 176/176/176 175/175/175 173/173/173
