g SM_A_Pigeon00_Wing01
v -0.6074272 -0.016701013 -0.1003289
v -0.7143732 -0.019607961 -0.13043478
v -0.70935845 -0.028502254 -0.13575342
v -0.021366812 -0.033788554 0.13699962
v -0.10926616 -0.041679367 0.15359803
v -0.08697339 -0.015371487 0.07207958
v -0.008963586 -0.012162946 0.068350725
v 0.057033375 -0.04265298 0.08614299
v 0.0744584 -0.029406115 0.04406463
v 9.555329E-07 -6.814876E-07 8.74322E-07
v 0.07535065 -0.020370139 -0.009628044
v -0.0661985 -0.0006818585 -0.006954579
v 0.006061072 -0.0042939913 -0.06481102
v 0.07087592 -0.023877896 -0.060542967
v 0.010051409 -0.01818559 -0.12576868
v 0.059802778 -0.03257568 -0.09727176
v -0.031226179 -0.021648172 -0.15425777
v -0.047953393 -0.005355898 -0.08184831
v -0.13863172 -0.0011616275 -0.019869437
v -0.10938414 -0.006120119 -0.09794526
v -0.08180194 -0.023825554 -0.17329545
v -0.031226179 -0.021648172 -0.15425777
v -0.14706802 -0.026359808 -0.17766683
v -0.17897265 -0.008478022 -0.10894529
v -0.23013921 -0.030028185 -0.17507832
v -0.1706548 -0.017448053 0.06274904
v -0.10926616 -0.041679367 0.15359803
v -0.20434329 -0.046481445 0.14809313
v -0.21254256 -0.0033431575 -0.037498105
v -0.26025647 -0.011631891 -0.114433914
v -0.3172472 -0.03424537 -0.16553959
v -0.2488881 -0.019453213 0.038491778
v -0.28689894 -0.048310176 0.11720724
v -0.29203907 -0.0059824735 -0.051063903
v -0.34232038 -0.015138358 -0.11403886
v -0.3967736 -0.03838575 -0.1514865
v -0.32659712 -0.021578059 0.016848836
v -0.36282068 -0.0499205 0.08748714
v -0.41656002 -0.01850465 -0.11010641
v -0.48352492 -0.04269853 -0.13990957
v -0.369059 -0.008778274 -0.05981252
v -0.3985732 -0.023663117 -0.0010434762
v -0.42975268 -0.05129486 0.06045114
v -0.49738264 -0.021942524 -0.110003345
v -0.5876076 -0.04626098 -0.13647673
v -0.4380118 -0.01137045 -0.066000804
v -0.46223912 -0.025481224 -0.017352369
v -0.48813194 -0.05233884 0.034021568
v -0.5984685 -0.025527267 -0.11983982
v -0.6745736 -0.042746007 -0.13704014
v -0.70935845 -0.028502254 -0.13575342
v -0.6074272 -0.016701013 -0.1003289
v -0.5129058 -0.013933599 -0.07737155
v -0.5312045 -0.027169436 -0.040197134
v -0.55116874 -0.053152323 -0.0002970323
v -0.6176013 -0.028724879 -0.07591644
v -0.7143732 -0.019607961 -0.13043478
v -0.6267661 -0.05275604 -0.047490604
v -0.7128011 -0.029589713 -0.11841956
v -0.6893265 -0.0458003 -0.09233136
vt 0.2524414 0.19067383
vt 0.18945312 0.15856934
vt 0.18762207 0.16662598
vt 0.63134766 0.26782227
vt 0.58203125 0.22058105
vt 0.5673828 0.31347656
vt 0.61035156 0.3544922
vt 0.67871094 0.32592773
vt 0.6513672 0.40405273
vt 0.58935547 0.44140625
vt 0.62402344 0.48242188
vt 0.55322266 0.40649414
vt 0.56884766 0.5283203
vt 0.5966797 0.5605469
vt 0.54785156 0.6152344
vt 0.5698242 0.6386719
vt 0.5239258 0.59228516
vt 0.5385742 0.49951172
vt 0.5131836 0.3803711
vt 0.5048828 0.47460938
vt 0.49609375 0.56884766
vt 0.5239258 0.59228516
vt 0.46191406 0.5361328
vt 0.4663086 0.44555664
vt 0.4206543 0.48632812
vt 0.52197266 0.2861328
vt 0.58203125 0.22058105
vt 0.5307617 0.19189453
vt 0.47070312 0.3552246
vt 0.42358398 0.40454102
vt 0.37963867 0.42749023
vt 0.4753418 0.26489258
vt 0.47973633 0.17443848
vt 0.42651367 0.32299805
vt 0.38232422 0.35766602
vt 0.34350586 0.36889648
vt 0.42944336 0.24133301
vt 0.43237305 0.15966797
vt 0.34594727 0.31152344
vt 0.30322266 0.30859375
vt 0.38500977 0.28759766
vt 0.3876953 0.2175293
vt 0.390625 0.14746094
vt 0.30517578 0.26538086
vt 0.24890137 0.24316406
vt 0.34838867 0.2541504
vt 0.35083008 0.19689941
vt 0.35302734 0.13952637
vt 0.25073242 0.21691895
vt 0.18579102 0.17480469
vt 0.18762207 0.16662598
vt 0.2524414 0.19067383
vt 0.3071289 0.22241211
vt 0.30908203 0.17944336
vt 0.31103516 0.13647461
vt 0.2541504 0.16442871
vt 0.18945312 0.15856934
vt 0.25610352 0.1381836
vt 0.19128418 0.1505127
vt 0.19299316 0.14245605
vn -0.054504395 0.99853516 -0.017059326
vn -0.054748535 0.9975586 -0.04336548
vn 0.08972168 0.78759766 -0.6098633
vn 0.080078125 0.9433594 0.32226562
vn -0.048187256 0.9536133 0.29663086
vn -0.039398193 0.97021484 0.23925781
vn 0.13513184 0.95458984 0.26538086
vn 0.30932617 0.8798828 0.36035156
vn 0.28125 0.9267578 0.24890137
vn 0.12805176 0.9892578 0.06781006
vn 0.27001953 0.9614258 0.05682373
vn -0.01751709 0.9980469 0.05871582
vn 0.16552734 0.9765625 -0.13830566
vn 0.30151367 0.9433594 -0.1373291
vn 0.15905762 0.96191406 -0.22277832
vn 0.33764648 0.9116211 -0.23522949
vn 0.04675293 0.9760742 -0.21228027
vn 0.02520752 0.9897461 -0.13928223
vn -0.032165527 0.9980469 0.05444336
vn 0.005004883 0.98828125 -0.15112305
vn 0.018829346 0.9736328 -0.22631836
vn 0.04675293 0.9760742 -0.21228027
vn -0.017608643 0.9658203 -0.25854492
vn -0.021972656 0.9838867 -0.17797852
vn -0.044281006 0.9511719 -0.30541992
vn -0.07434082 0.9692383 0.23486328
vn -0.048187256 0.9536133 0.29663086
vn -0.09411621 0.9526367 0.28881836
vn -0.046722412 0.9980469 0.042663574
vn -0.04067993 0.97558594 -0.21557617
vn -0.07293701 0.92626953 -0.37036133
vn -0.09661865 0.96777344 0.23352051
vn -0.12182617 0.9482422 0.29248047
vn -0.049835205 0.9980469 0.038635254
vn -0.059692383 0.96191406 -0.26733398
vn -0.087646484 0.8852539 -0.4567871
vn -0.09765625 0.96240234 0.2529297
vn -0.12695312 0.9399414 0.3161621
vn -0.058135986 0.94189453 -0.3310547
vn -0.04949951 0.8149414 -0.5776367
vn -0.053466797 0.9980469 0.03451538
vn -0.10449219 0.9536133 0.28173828
vn -0.14050293 0.92626953 0.34936523
vn -0.020233154 0.90283203 -0.42993164
vn 0.023742676 0.67089844 -0.74121094
vn -0.055603027 0.9980469 0.03274536
vn -0.12780762 0.93847656 0.3203125
vn -0.17370605 0.9033203 0.39160156
vn 0.046783447 0.79248047 -0.60839844
vn 0.071899414 0.52783203 -0.8466797
vn 0.08972168 0.78759766 -0.6098633
vn -0.054504395 0.99853516 -0.017059326
vn -0.056121826 0.9980469 0.022857666
vn -0.17077637 0.90966797 0.3786621
vn -0.22753906 0.86083984 0.45507812
vn -0.22546387 0.84472656 0.48510742
vn -0.054748535 0.9975586 -0.04336548
vn -0.28295898 0.7871094 0.54785156
vn -0.21716309 0.83203125 0.5102539
vn -0.31298828 0.72314453 0.61572266
g SM_A_Pigeon00_Wing01_0
f 3/3/3 2/2/2 1/1/1
f 6/6/6 5/5/5 4/4/4
f 7/7/7 6/6/6 4/4/4
f 7/7/7 4/4/4 8/8/8
f 9/9/9 7/7/7 8/8/8
f 10/10/10 7/7/7 9/9/9
f 11/11/11 10/10/10 9/9/9
f 12/12/12 6/6/6 7/7/7
f 10/10/10 12/12/12 7/7/7
f 13/13/13 10/10/10 11/11/11
f 14/14/14 13/13/13 11/11/11
f 15/15/15 13/13/13 14/14/14
f 16/16/16 15/15/15 14/14/14
f 15/15/15 17/17/17 13/13/13
f 17/17/17 18/18/18 13/13/13
f 13/13/13 18/18/18 10/10/10
f 18/18/18 12/12/12 10/10/10
f 12/12/12 19/19/19 6/6/6
f 18/18/18 20/20/20 12/12/12
f 20/20/20 19/19/19 12/12/12
f 21/21/21 20/20/20 18/18/18
f 22/22/22 21/21/21 18/18/18
f 21/21/21 23/23/23 20/20/20
f 23/23/23 24/24/24 20/20/20
f 20/20/20 24/24/24 19/19/19
f 23/23/23 25/25/25 24/24/24
f 19/19/19 26/26/26 6/6/6
f 6/6/6 26/26/26 27/27/27
f 26/26/26 28/28/28 27/27/27
f 24/24/24 29/29/29 19/19/19
f 19/19/19 29/29/29 26/26/26
f 25/25/25 30/30/30 24/24/24
f 24/24/24 30/30/30 29/29/29
f 25/25/25 31/31/31 30/30/30
f 26/26/26 32/32/32 28/28/28
f 29/29/29 32/32/32 26/26/26
f 32/32/32 33/33/33 28/28/28
f 30/30/30 34/34/34 29/29/29
f 29/29/29 34/34/34 32/32/32
f 31/31/31 35/35/35 30/30/30
f 30/30/30 35/35/35 34/34/34
f 31/31/31 36/36/36 35/35/35
f 32/32/32 37/37/37 33/33/33
f 34/34/34 37/37/37 32/32/32
f 37/37/37 38/38/38 33/33/33
f 36/36/36 39/39/39 35/35/35
f 36/36/36 40/40/40 39/39/39
f 35/35/35 41/41/41 34/34/34
f 34/34/34 41/41/41 37/37/37
f 35/35/35 39/39/39 41/41/41
f 37/37/37 42/42/42 38/38/38
f 41/41/41 42/42/42 37/37/37
f 42/42/42 43/43/43 38/38/38
f 40/40/40 44/44/44 39/39/39
f 40/40/40 45/45/45 44/44/44
f 39/39/39 46/46/46 41/41/41
f 41/41/41 46/46/46 42/42/42
f 39/39/39 44/44/44 46/46/46
f 42/42/42 47/47/47 43/43/43
f 46/46/46 47/47/47 42/42/42
f 47/47/47 48/48/48 43/43/43
f 45/45/45 49/49/49 44/44/44
f 45/45/45 50/50/50 49/49/49
f 50/50/50 51/51/51 49/49/49
f 49/49/49 51/51/51 52/52/52
f 44/44/44 53/53/53 46/46/46
f 44/44/44 49/49/49 53/53/53
f 46/46/46 53/53/53 47/47/47
f 49/49/49 52/52/52 53/53/53
f 47/47/47 54/54/54 48/48/48
f 53/53/53 54/54/54 47/47/47
f 53/53/53 52/52/52 54/54/54
f 54/54/54 55/55/55 48/48/48
f 52/52/52 56/56/56 54/54/54
f 54/54/54 56/56/56 55/55/55
f 52/52/52 57/57/57 56/56/56
f 56/56/56 58/58/58 55/55/55
f 57/57/57 59/59/59 56/56/56
f 56/56/56 59/59/59 58/58/58
f 59/59/59 60/60/60 58/58/58
