g SM_BaseballBat00
v 0.0043624043 0.21109985 -0.040038824
v 0.0043624043 0.24410224 -0.040038824
v -0.048168 0.24410224 -0.00046920776
v -0.048168 0.21109985 -0.00046920776
v 0.0038363338 0.1529522 -0.03283882
v -0.0030953288 0.21109985 0.051534653
v -0.0030953288 0.24410224 0.051534653
v -0.0030953288 0.1529522 0.037807703
v -0.035595596 0.1529522 -0.00046920776
v 0.0038363338 -0.30594194 -0.03283882
v -0.00019699335 -0.30594194 0.043926954
v -0.035595596 -0.30594194 -0.00046920776
v 0.0043624043 -0.55707645 -0.055618525
v -0.00019699335 -0.55707645 0.05920261
v -0.057954967 -0.55707645 -0.00046920776
v 0.0043624043 -0.8304565 -0.0673303
v -0.067073226 -0.8304565 -0.00046920776
v -0.0030953288 -0.8304565 0.06688862
v 0.0043623447 -1.0471429 -0.07132208
v -0.067073226 -1.0471429 -0.00046920776
v -0.0030953288 -1.0471429 0.06460059
v 0.0043623447 -1.2638294 -0.0751493
v -0.067073286 -1.2638294 -0.00046920776
v -0.0030953288 -1.2638294 0.061638534
v 0.0036056042 -1.2892163 -0.05333209
v -0.0021768212 -1.2892163 0.0399763
v -0.05458355 -1.2892163 -0.0005465746
v 0.04989469 -1.2865674 -0.0005465746
v 0.0043623447 -1.2638294 -0.0751493
v 0.0036056042 -1.2892163 -0.05333209
v 0.04989469 -1.2865674 -0.0005465746
v 0.06254625 -1.2611136 -0.00046920776
v -0.0021768212 -1.2892163 0.0399763
v -0.0030953288 -1.2638294 0.061638534
v 0.06254625 -1.0444274 -0.00046920776
v 0.0043623447 -1.0471429 -0.07132208
v -0.0030953288 -1.0471429 0.06460059
v 0.057312906 -0.8277409 -0.00046920776
v 0.0043624043 -0.8304565 -0.0673303
v 0.048095703 -0.55707645 -0.00046920776
v -0.0030953288 -0.8304565 0.06688862
v 0.0043624043 -0.55707645 -0.055618525
v -0.00019699335 -0.55707645 0.05920261
v 0.0038363338 -0.30594194 -0.03283882
v -0.00019699335 -0.30594194 0.043926954
v 0.038303316 -0.30594194 -0.00046920776
v 0.0038363338 0.1529522 -0.03283882
v -0.0030953288 0.1529522 0.037807703
v 0.038303316 0.1529522 -0.00046920776
v 0.0043624043 0.21109985 -0.040038824
v -0.0030953288 0.21109985 0.051534653
v 0.054018915 0.21109985 -0.00046920776
v 0.0043624043 0.24410224 -0.040038824
v -0.0030953288 0.24410224 0.051534653
v 0.054018915 0.24410224 -0.00046920776
v -0.048168 0.24410224 -0.00046920776
vt 0.9423828 0.48046875
vt 0.95654297 0.4831543
vt 0.95996094 0.5004883
vt 0.9423828 0.5004883
vt 0.9111328 0.48706055
vt 0.9423828 0.5209961
vt 0.95654297 0.51953125
vt 0.9111328 0.51416016
vt 0.9111328 0.5004883
vt 0.5810547 0.48486328
vt 0.5810547 0.5126953
vt 0.5810547 0.4975586
vt 0.44604492 0.47387695
vt 0.44604492 0.5209961
vt 0.44604492 0.4975586
vt 0.29882812 0.4675293
vt 0.29882812 0.4975586
vt 0.29882812 0.52734375
vt 0.18225098 0.46533203
vt 0.18225098 0.4975586
vt 0.18225098 0.5292969
vt 0.06561279 0.4633789
vt 0.06561279 0.4975586
vt 0.06561279 0.5317383
vt 0.05380249 0.47436523
vt 0.05380249 0.5205078
vt 0.05380249 0.4975586
vt 0.05380249 0.4975586
vt 0.06561279 0.4633789
vt 0.05380249 0.47436523
vt 0.05380249 0.4975586
vt 0.06561279 0.4975586
vt 0.05380249 0.5205078
vt 0.06561279 0.5317383
vt 0.18225098 0.4975586
vt 0.18225098 0.46533203
vt 0.18225098 0.5292969
vt 0.29882812 0.4975586
vt 0.29882812 0.4675293
vt 0.44604492 0.4975586
vt 0.29882812 0.52734375
vt 0.44604492 0.47387695
vt 0.44604492 0.5209961
vt 0.5810547 0.48486328
vt 0.5810547 0.5126953
vt 0.5810547 0.4975586
vt 0.9111328 0.48706055
vt 0.9111328 0.51416016
vt 0.9111328 0.5004883
vt 0.9423828 0.48046875
vt 0.9423828 0.5209961
vt 0.9423828 0.5004883
vt 0.95654297 0.4831543
vt 0.95654297 0.51953125
vt 0.95996094 0.5004883
vt 0.95996094 0.5004883
vn 0.0184021 -0.07751465 -0.99658203
vn 0.010955811 0.5917969 -0.80615234
vn -0.8144531 0.57373047 -0.08630371
vn -0.99072266 -0.09301758 -0.09777832
vn 0.025665283 -0.083496094 -0.99609375
vn -0.05633545 -0.1126709 0.9921875
vn -0.048217773 0.5761719 0.81591797
vn -0.055664062 -0.124694824 0.99072266
vn -0.9897461 -0.099853516 -0.103393555
vn 0.049713135 0.037597656 -0.9980469
vn -0.00970459 0.037109375 0.99902344
vn -0.99560547 0.042633057 -0.08312988
vn 0.072631836 0.05734253 -0.99560547
vn 0.02532959 0.04916382 0.99853516
vn -0.9970703 0.05960083 -0.048187256
vn 0.070617676 0.027526855 -0.9970703
vn -0.9995117 0.019622803 -0.025299072
vn 0.01272583 0.016357422 1
vn 0.056396484 0.012390137 -0.99853516
vn -1 0.0014953613 -0.0057678223
vn -0.0015563965 -0.0029907227 1
vn 0.047912598 -0.25756836 -0.96533203
vn -0.9609375 -0.27685547 0.010437012
vn -0.007293701 -0.25585938 0.9667969
vn 0.044403076 -0.8046875 -0.59228516
vn 0.018341064 -0.8076172 0.58984375
vn -0.6040039 -0.796875 0.016143799
vn 0.6303711 -0.7739258 0.061431885
vn 0.047912598 -0.25756836 -0.96533203
vn 0.044403076 -0.8046875 -0.59228516
vn 0.6303711 -0.7739258 0.061431885
vn 0.96484375 -0.25561523 0.061767578
vn 0.018341064 -0.8076172 0.58984375
vn -0.007293701 -0.25585938 0.9667969
vn 0.99853516 0.007080078 0.051452637
vn 0.056396484 0.012390137 -0.99853516
vn -0.0015563965 -0.0029907227 1
vn 0.9995117 0.021362305 0.029510498
vn 0.070617676 0.027526855 -0.9970703
vn 0.99902344 0.04055786 0.0014038086
vn 0.01272583 0.016357422 1
vn 0.072631836 0.05734253 -0.99560547
vn 0.02532959 0.04916382 0.99853516
vn 0.049713135 0.037597656 -0.9980469
vn -0.00970459 0.037109375 0.99902344
vn 0.9995117 0.029937744 -0.020751953
vn 0.025665283 -0.083496094 -0.99609375
vn -0.055664062 -0.124694824 0.99072266
vn 0.9926758 -0.118652344 -0.022003174
vn 0.0184021 -0.07751465 -0.99658203
vn -0.05633545 -0.1126709 0.9921875
vn 0.99365234 -0.11102295 -0.024810791
vn 0.010955811 0.5917969 -0.80615234
vn -0.048217773 0.5761719 0.81591797
vn 0.82177734 0.56933594 -0.027008057
vn -0.8144531 0.57373047 -0.08630371
g SM_BaseballBat00_0
f 3/3/3 2/2/2 1/1/1
f 4/4/4 3/3/3 1/1/1
f 4/4/4 1/1/1 5/5/5
f 3/3/3 4/4/4 6/6/6
f 7/7/7 3/3/3 6/6/6
f 6/6/6 4/4/4 8/8/8
f 9/9/9 4/4/4 5/5/5
f 4/4/4 9/9/9 8/8/8
f 9/9/9 5/5/5 10/10/10
f 8/8/8 9/9/9 11/11/11
f 12/12/12 9/9/9 10/10/10
f 9/9/9 12/12/12 11/11/11
f 12/12/12 10/10/10 13/13/13
f 11/11/11 12/12/12 14/14/14
f 15/15/15 12/12/12 13/13/13
f 12/12/12 15/15/15 14/14/14
f 15/15/15 13/13/13 16/16/16
f 14/14/14 15/15/15 17/17/17
f 17/17/17 15/15/15 16/16/16
f 18/18/18 14/14/14 17/17/17
f 17/17/17 16/16/16 19/19/19
f 18/18/18 17/17/17 20/20/20
f 20/20/20 17/17/17 19/19/19
f 21/21/21 18/18/18 20/20/20
f 20/20/20 19/19/19 22/22/22
f 21/21/21 20/20/20 23/23/23
f 23/23/23 20/20/20 22/22/22
f 24/24/24 21/21/21 23/23/23
f 23/23/23 22/22/22 25/25/25
f 26/26/26 24/24/24 23/23/23
f 27/27/27 23/23/23 25/25/25
f 27/27/27 26/26/26 23/23/23
f 27/27/27 25/25/25 28/28/28
f 26/26/26 27/27/27 28/28/28
f 31/31/31 30/30/30 29/29/29
f 32/32/32 31/31/31 29/29/29
f 33/33/33 31/31/31 32/32/32
f 34/34/34 33/33/33 32/32/32
f 35/35/35 32/32/32 29/29/29
f 34/34/34 32/32/32 35/35/35
f 36/36/36 35/35/35 29/29/29
f 37/37/37 34/34/34 35/35/35
f 38/38/38 35/35/35 36/36/36
f 37/37/37 35/35/35 38/38/38
f 39/39/39 38/38/38 36/36/36
f 40/40/40 38/38/38 39/39/39
f 41/41/41 37/37/37 38/38/38
f 41/41/41 38/38/38 40/40/40
f 42/42/42 40/40/40 39/39/39
f 43/43/43 41/41/41 40/40/40
f 42/42/42 44/44/44 40/40/40
f 45/45/45 43/43/43 40/40/40
f 44/44/44 46/46/46 40/40/40
f 46/46/46 45/45/45 40/40/40
f 44/44/44 47/47/47 46/46/46
f 48/48/48 45/45/45 46/46/46
f 47/47/47 49/49/49 46/46/46
f 49/49/49 48/48/48 46/46/46
f 47/47/47 50/50/50 49/49/49
f 51/51/51 48/48/48 49/49/49
f 50/50/50 52/52/52 49/49/49
f 52/52/52 51/51/51 49/49/49
f 50/50/50 53/53/53 52/52/52
f 54/54/54 51/51/51 52/52/52
f 53/53/53 55/55/55 52/52/52
f 55/55/55 54/54/54 52/52/52
f 56/56/56 55/55/55 53/53/53
f 56/56/56 54/54/54 55/55/55
