g SM_Clopes01
v 0.028826488 -0.051274247 0.009556992
v -0.028826488 -0.051274247 0.009556992
v -0.028826488 0.051274247 0.009556992
v 0.028826488 0.051274247 0.009556992
v -0.028826488 -0.051274247 0.009556992
v -0.028826503 -0.051274247 -0.009556992
v -0.028826503 0.051274247 -0.009556992
v -0.028826488 0.051274247 0.009556992
v -0.028826503 -0.051274247 -0.009556992
v 0.028826488 -0.051274247 -0.009556996
v 0.028826488 0.051274247 -0.009556996
v -0.028826503 0.051274247 -0.009556992
v 0.028826488 -0.051274247 -0.009556996
v 0.028826488 -0.051274247 0.009556992
v 0.028826488 0.051274247 0.009556992
v 0.028826488 0.051274247 -0.009556996
v -0.028826488 -0.051274247 0.009556992
v 0.028826488 -0.051274247 0.009556992
v 0.028826488 -0.051274247 -0.009556996
v -0.028826503 -0.051274247 -0.009556992
v -0.028826503 0.051274247 -0.009556992
v 0.028826488 0.051274247 -0.009556996
v 0.028826488 0.051274247 0.009556992
v -0.028826488 0.051274247 0.009556992
vt 0.7216797 0.1694336
vt 0.33642578 0.124572754
vt 0.33642578 0.8642578
vt 0.73095703 0.83203125
vt 0.26123047 0.13708496
vt 0.32202148 0.12817383
vt 0.33276367 0.8588867
vt 0.27392578 0.86083984
vt 0.7265625 0.1694336
vt 0.32299805 0.12097168
vt 0.33032227 0.8642578
vt 0.73535156 0.8339844
vt 0.32202148 0.12097168
vt 0.2631836 0.14257812
vt 0.2722168 0.8588867
vt 0.3293457 0.86083984
vt 0.703125 0.64990234
vt 0.3605957 0.6826172
vt 0.3713379 0.79589844
vt 0.7138672 0.7636719
vt 0.26464844 0.61816406
vt 0.67871094 0.61816406
vt 0.67871094 0.4802246
vt 0.26464844 0.4802246
vn -0 0 1
vn -0 0 1
vn -0 0 1
vn -0 0 1
vn -1 0 8.34465E-07
vn -1 0 8.34465E-07
vn -1 0 8.34465E-07
vn -1 0 8.34465E-07
vn -0 0 -1
vn -0 0 -1
vn -0 0 -1
vn -0 0 -1
vn 1 0 0
vn 1 0 0
vn 1 0 0
vn 1 0 0
vn 1.1920929E-07 -1 0
vn 1.1920929E-07 -1 0
vn 1.1920929E-07 -1 0
vn 1.1920929E-07 -1 0
vn 1.1920929E-07 1 0
vn 1.1920929E-07 1 0
vn 1.1920929E-07 1 0
vn 1.1920929E-07 1 0
g SM_Clopes01_0
f 3/3/3 2/2/2 1/1/1
f 4/4/4 3/3/3 1/1/1
f 7/7/7 6/6/6 5/5/5
f 8/8/8 7/7/7 5/5/5
f 11/11/11 10/10/10 9/9/9
f 12/12/12 11/11/11 9/9/9
f 15/15/15 14/14/14 13/13/13
f 16/16/16 15/15/15 13/13/13
f 19/19/19 18/18/18 17/17/17
f 20/20/20 19/19/19 17/17/17
f 23/23/23 22/22/22 21/21/21
f 24/24/24 23/23/23 21/21/21
