g SM_Clopes03
v 0.028826488 0.022957208 0.009556992
v -0.028826488 0.051274247 0.009556992
v 0.028826488 0.051274247 0.009556992
v -0.028826488 0.022957208 0.009556992
v 0.028826488 -0.051274247 0.009556992
v -0.028826488 -0.051274247 0.009556992
v -0.028826488 0.022957208 0.009556992
v -0.028826503 0.051274247 -0.009556992
v -0.028826488 0.051274247 0.009556992
v -0.028826503 0.022957208 -0.009556992
v -0.028826488 -0.051274247 0.009556992
v -0.028826503 -0.051274247 -0.009556992
v -0.028826503 0.022957208 -0.009556992
v 0.028826488 0.051274247 -0.009556996
v -0.028826503 0.051274247 -0.009556992
v 0.028826488 0.022957208 -0.009556996
v -0.028826503 -0.051274247 -0.009556992
v 0.028826488 -0.051274247 -0.009556996
v -0.028826503 0.022957208 -0.009556992
v 0.028826488 0.022957208 -0.009556996
v 0.028826488 0.051274247 0.009556992
v 0.028826488 0.051274247 -0.009556996
v 0.028826488 0.022957208 0.009556992
v 0.028826488 -0.051274247 -0.009556996
v 0.028826488 -0.051274247 0.009556992
v -0.028826488 -0.051274247 0.009556992
v 0.028826488 -0.051274247 0.009556992
v 0.028826488 -0.051274247 -0.009556996
v -0.028826503 -0.051274247 -0.009556992
v -0.028826503 0.051274247 -0.009556992
v 0.028826488 0.051274247 -0.009556996
v 0.028826488 0.051274247 0.009556992
v -0.028826488 0.051274247 0.009556992
vt 0.67578125 0.67089844
vt 0.16394043 0.9091797
vt 0.67529297 0.92089844
vt 0.16467285 0.6904297
vt 0.6772461 0.014862061
vt 0.16638184 0.11553955
vt 0.6816406 0.67089844
vt 0.7470703 0.921875
vt 0.6816406 0.9194336
vt 0.7495117 0.6796875
vt 0.6821289 0.019378662
vt 0.7553711 0.04425049
vt 0.6826172 0.6699219
vt 0.16027832 0.9067383
vt 0.6821289 0.9199219
vt 0.16259766 0.6850586
vt 0.68359375 0.01473999
vt 0.1685791 0.10479736
vt 0.6826172 0.6699219
vt 0.7519531 0.67626953
vt 0.6958008 0.92529297
vt 0.7495117 0.9160156
vt 0.6958008 0.67333984
vt 0.7583008 0.047424316
vt 0.6958008 0.012016296
vt 0.7314453 0.7680664
vt 0.3232422 0.77246094
vt 0.32470703 0.90771484
vt 0.73339844 0.9033203
vt 0.28735352 0.33642578
vt 0.7055664 0.3022461
vt 0.6845703 0.18591309
vt 0.26660156 0.22021484
vn -0 0 1
vn -0 0 1
vn -0 0 1
vn -0 0 1
vn -0 0 1
vn -0 0 1
vn -1 0 7.748604E-07
vn -1 0 7.748604E-07
vn -1 0 7.748604E-07
vn -1 0 7.748604E-07
vn -1 0 6.556511E-07
vn -1 0 6.556511E-07
vn -0 0 -1
vn -0 0 -1
vn -0 0 -1
vn -0 0 -1
vn -0 0 -1
vn -0 0 -1
vn -0 0 -1
vn 1 0 0
vn 1 0 0
vn 1 0 0
vn 1 0 0
vn 1 0 0
vn 1 0 0
vn 1.1920929E-07 -1 0
vn 1.1920929E-07 -1 0
vn 1.1920929E-07 -1 0
vn 1.1920929E-07 -1 0
vn 1.1920929E-07 1 0
vn 1.1920929E-07 1 0
vn 1.1920929E-07 1 0
vn 1.1920929E-07 1 0
g SM_Clopes03_0
f 3/3/3 2/2/2 1/1/1
f 2/2/2 4/4/4 1/1/1
f 1/1/1 4/4/4 5/5/5
f 4/4/4 6/6/6 5/5/5
f 9/9/9 8/8/8 7/7/7
f 8/8/8 10/10/10 7/7/7
f 7/7/7 10/10/10 11/11/11
f 10/10/10 12/12/12 11/11/11
f 15/15/15 14/14/14 13/13/13
f 14/14/14 16/16/16 13/13/13
f 16/16/16 18/18/18 17/17/17
f 19/19/19 16/16/16 17/17/17
f 22/22/22 21/21/21 20/20/20
f 21/21/21 23/23/23 20/20/20
f 20/20/20 23/23/23 24/24/24
f 23/23/23 25/25/25 24/24/24
f 28/28/28 27/27/27 26/26/26
f 29/29/29 28/28/28 26/26/26
f 32/32/32 31/31/31 30/30/30
f 33/33/33 32/32/32 30/30/30
