g SM_Clopes07
v 0.028826494 -0.051274247 0.009556994
v -0.028826486 -0.051274247 0.009556994
v -0.028826486 0.051274247 0.009556994
v 0.028826494 0.051274247 0.009556994
v -0.028826486 -0.051274247 0.009556994
v -0.028826501 -0.051274247 -0.009556992
v -0.028826501 0.051274247 -0.009556992
v -0.028826486 0.051274247 0.009556994
v -0.028826501 -0.051274247 -0.009556992
v 0.028826494 -0.051274247 -0.009556996
v 0.028826494 0.051274247 -0.009556996
v -0.028826501 0.051274247 -0.009556992
v -0.028826486 -0.051274247 0.009556994
v 0.028826494 -0.051274247 0.009556994
v 0.028826494 -0.051274247 -0.009556996
v -0.028826501 -0.051274247 -0.009556992
v -0.028826501 0.051274247 -0.009556992
v 0.028826494 0.051274247 -0.009556996
v 0.028826494 0.051274247 0.009556994
v -0.028826486 0.051274247 0.009556994
v 0.028826494 -0.051274247 -0.009556996
v 0.028826494 -0.051274247 0.009556994
v 0.028826494 0.051274247 0.009556994
v 0.028826494 0.051274247 -0.009556996
vt 0.6816406 0.00016844273
vt 0.2548828 0.060577393
vt 0.22644043 0.91015625
vt 0.70458984 0.8569336
vt 0.7133789 0.01474762
vt 0.8066406 0.05960083
vt 0.8173828 0.8901367
vt 0.7133789 0.8417969
vt 0.70410156 -0.001077652
vt 0.24987793 0.07086182
vt 0.22131348 0.9042969
vt 0.70458984 0.8588867
vt 0.7314453 0.7680664
vt 0.3232422 0.77246094
vt 0.32470703 0.90771484
vt 0.73339844 0.9033203
vt 0.36987305 0.9770508
vt 0.80078125 0.9121094
vt 0.6953125 0.86376953
vt 0.23071289 0.9160156
vt 0.80078125 0.054626465
vt 0.7207031 -0.0027675629
vt 0.7114258 0.84814453
vt 0.81884766 0.9003906
vn -0 0 1
vn -0 0 1
vn -0 0 1
vn -0 0 1
vn -1 0 7.1525574E-07
vn -1 0 7.1525574E-07
vn -1 0 7.1525574E-07
vn -1 0 7.1525574E-07
vn -0 0 -1
vn -0 0 -1
vn -0 0 -1
vn -0 0 -1
vn -0 -1 0
vn -0 -1 0
vn -0 -1 0
vn -0 -1 0
vn -0 1 0
vn -0 1 0
vn -0 1 0
vn -0 1 0
vn 1 0 0
vn 1 0 0
vn 1 0 0
vn 1 0 0
g SM_Clopes07_0
f 3/3/3 2/2/2 1/1/1
f 4/4/4 3/3/3 1/1/1
f 7/7/7 6/6/6 5/5/5
f 8/8/8 7/7/7 5/5/5
f 11/11/11 10/10/10 9/9/9
f 12/12/12 11/11/11 9/9/9
f 15/15/15 14/14/14 13/13/13
f 16/16/16 15/15/15 13/13/13
f 19/19/19 18/18/18 17/17/17
f 20/20/20 19/19/19 17/17/17
f 23/23/23 22/22/22 21/21/21
f 24/24/24 23/23/23 21/21/21
