g SM_Clopes06
v 0.028826488 -0.051274247 0.009556992
v -0.028826488 -0.051274247 0.009556992
v -0.028826488 0.051274247 0.009556992
v 0.028826488 0.051274247 0.009556992
v -0.028826488 -0.051274247 0.009556992
v -0.028826503 -0.051274247 -0.009556992
v -0.028826503 0.051274247 -0.009556992
v -0.028826488 0.051274247 0.009556992
v -0.028826503 -0.051274247 -0.009556992
v 0.028826488 -0.051274247 -0.009556996
v 0.028826488 0.051274247 -0.009556996
v -0.028826503 0.051274247 -0.009556992
v 0.028826488 -0.051274247 -0.009556996
v 0.028826488 -0.051274247 0.009556992
v 0.028826488 0.051274247 0.009556992
v 0.028826488 0.051274247 -0.009556996
v -0.028826488 -0.051274247 0.009556992
v 0.028826488 -0.051274247 0.009556992
v 0.028826488 -0.051274247 -0.009556996
v -0.028826503 -0.051274247 -0.009556992
v -0.028826503 0.051274247 -0.009556992
v 0.028826488 0.051274247 -0.009556996
v 0.028826488 0.051274247 0.009556992
v -0.028826488 0.051274247 0.009556992
vt 0.72802734 0.0027332306
vt 0.31958008 0.00076818466
vt 0.32128906 0.91259766
vt 0.7294922 0.90283203
vt 0.22338867 0.0075683594
vt 0.32055664 0.0012454987
vt 0.32104492 0.91259766
vt 0.22290039 0.90771484
vt 0.72802734 0.00081920624
vt 0.32299805 0.0044059753
vt 0.32666016 0.9165039
vt 0.7246094 0.9111328
vt 0.31323242 0.0026130676
vt 0.22363281 0.0079956055
vt 0.22363281 0.9111328
vt 0.32202148 0.9111328
vt 0.7314453 0.7680664
vt 0.3232422 0.77246094
vt 0.32470703 0.90771484
vt 0.73339844 0.9033203
vt 0.2915039 0.1373291
vt 0.70947266 0.17675781
vt 0.70947266 0.058654785
vt 0.2915039 0.019180298
vn -0 0 1
vn -0 0 1
vn -0 0 1
vn -0 0 1
vn -1 0 8.34465E-07
vn -1 0 8.34465E-07
vn -1 0 8.34465E-07
vn -1 0 8.34465E-07
vn -0 0 -1
vn -0 0 -1
vn -0 0 -1
vn -0 0 -1
vn 1 0 0
vn 1 0 0
vn 1 0 0
vn 1 0 0
vn 1.1920929E-07 -1 0
vn 1.1920929E-07 -1 0
vn 1.1920929E-07 -1 0
vn 1.1920929E-07 -1 0
vn 1.1920929E-07 1 0
vn 1.1920929E-07 1 0
vn 1.1920929E-07 1 0
vn 1.1920929E-07 1 0
g SM_Clopes06_0
f 3/3/3 2/2/2 1/1/1
f 4/4/4 3/3/3 1/1/1
f 7/7/7 6/6/6 5/5/5
f 8/8/8 7/7/7 5/5/5
f 11/11/11 10/10/10 9/9/9
f 12/12/12 11/11/11 9/9/9
f 15/15/15 14/14/14 13/13/13
f 16/16/16 15/15/15 13/13/13
f 19/19/19 18/18/18 17/17/17
f 20/20/20 19/19/19 17/17/17
f 23/23/23 22/22/22 21/21/21
f 24/24/24 23/23/23 21/21/21
