g SM_Crate00
v 0.6195822 1.8138754 0.7000137
v 0.6957739 1.8138754 0.6187476
v 0.6957675 1.8138754 0.7000202
v 0.6195885 1.8138754 0.6187409
v 0.69586986 1.8138754 -0.6186384
v -0.6196779 1.8138754 0.6186436
v 0.61968446 1.8138754 -0.61864483
v -0.6196842 1.8138754 0.6999161
v -0.696359 1.8138754 0.6999107
v -0.6963526 1.8138754 0.6186379
v 0.6958761 1.8138754 -0.6992095
v 0.6196909 1.8138754 -0.6992161
v -0.6195819 1.8138754 -0.61874235
v -0.61957556 1.8138754 -0.69931364
v -0.6962567 1.8138754 -0.6187479
v -0.6962504 1.8138754 -0.6993191
v -0.6962504 1.6822916 -0.6993191
v -0.61957556 1.8138754 -0.69931364
v -0.6962504 1.8138754 -0.6993191
v -0.61957556 1.6822916 -0.69931364
v -0.6962504 0.081222855 -0.6993191
v 0.6196909 1.8138754 -0.6992161
v -0.61957556 0.081222855 -0.69931364
v -0.6962504 1.7732382E-06 -0.6993191
v -0.61957556 1.7732382E-06 -0.69931364
v 0.6196909 1.6822916 -0.6992161
v 0.6958761 1.8138754 -0.6992095
v 0.6958761 1.6822916 -0.6992095
v 0.6196909 0.081222855 -0.6992161
v 0.6196909 1.7732382E-06 -0.6992161
v 0.6958761 0.081222855 -0.6992095
v 0.6958761 1.7732382E-06 -0.6992095
v -0.6962567 1.6822916 -0.6187479
v -0.64186376 1.6822916 -0.6187437
v -0.64186376 0.081222855 -0.6187437
v -0.6962567 0.081222855 -0.6187479
v -0.6196842 1.7732382E-06 0.6999161
v -0.696359 1.7732382E-06 0.6999107
v -0.696359 0.081222855 0.6999107
v -0.6196842 0.081222855 0.6999161
v 0.6195822 1.7732382E-06 0.7000137
v -0.696359 1.6822916 0.6999107
v 0.6195822 0.081222855 0.7000137
v 0.6957675 1.7732382E-06 0.7000202
v 0.6957675 0.081222855 0.7000202
v -0.6196842 1.6822916 0.6999161
v -0.696359 1.8138754 0.6999107
v -0.6196842 1.8138754 0.6999161
v 0.6195822 1.6822916 0.7000137
v 0.6957675 1.6822916 0.7000202
v 0.6195822 1.8138754 0.7000137
v 0.6957675 1.8138754 0.7000202
v -0.696359 1.6822916 0.6999107
v -0.6963526 1.8138754 0.6186379
v -0.696359 1.8138754 0.6999107
v -0.6963526 1.6822916 0.6186379
v -0.696359 0.081222855 0.6999107
v -0.6962567 1.8138754 -0.6187479
v -0.6963526 0.081222855 0.6186379
v -0.696359 1.7732382E-06 0.6999107
v -0.6963526 1.7732382E-06 0.6186379
v -0.6962567 1.6822916 -0.6187479
v -0.6962504 1.8138754 -0.6993191
v -0.6962504 1.6822916 -0.6993191
v -0.6962567 0.081222855 -0.6187479
v -0.6962567 1.7732382E-06 -0.6187479
v -0.6962504 0.081222855 -0.6993191
v -0.6962504 1.7732382E-06 -0.6993191
v 0.6958761 1.6822916 -0.6992095
v 0.69586986 1.8138754 -0.6186384
v 0.6958761 1.8138754 -0.6992095
v 0.69586986 1.6822916 -0.6186384
v 0.6958761 0.081222855 -0.6992095
v 0.6957739 1.8138754 0.6187476
v 0.69586986 0.081222855 -0.6186384
v 0.6958761 1.7732382E-06 -0.6992095
v 0.69586986 1.7732382E-06 -0.6186384
v 0.6957739 1.6822916 0.6187476
v 0.6957675 1.8138754 0.7000202
v 0.6957675 1.6822916 0.7000202
v 0.6957739 0.081222855 0.6187476
v 0.6957739 1.7732382E-06 0.6187476
v 0.6957675 0.081222855 0.7000202
v 0.6957675 1.7732382E-06 0.7000202
v -0.6963526 1.6822916 0.6186379
v -0.6419597 1.6822916 0.6186422
v -0.64186376 1.6822916 -0.6187437
v -0.6962567 1.6822916 -0.6187479
v 0.69586986 1.7732382E-06 -0.6186384
v 0.6958761 1.7732382E-06 -0.6992095
v 0.6196909 1.7732382E-06 -0.6992161
v 0.61968446 1.7732382E-06 -0.61864483
v 0.6957739 1.7732382E-06 0.6187476
v -0.6195819 1.7732382E-06 -0.61874235
v -0.61957556 1.7732382E-06 -0.69931364
v -0.6962504 1.7732382E-06 -0.6993191
v -0.6962567 1.7732382E-06 -0.6187479
v -0.6196779 1.7732382E-06 0.6186436
v -0.6963526 1.7732382E-06 0.6186379
v 0.6195885 1.7732382E-06 0.6187409
v 0.6957675 1.7732382E-06 0.7000202
v 0.6195822 1.7732382E-06 0.7000137
v -0.6196842 1.7732382E-06 0.6999161
v -0.696359 1.7732382E-06 0.6999107
v -0.6195819 1.8138754 -0.61874235
v -0.6195819 1.7594819 -0.61874235
v -0.6196779 1.7594819 0.6186436
v -0.6196779 1.8138754 0.6186436
v 0.6196909 0.081222855 -0.6992161
v 0.61968654 0.081222855 -0.6448231
v -0.61958 0.081222855 -0.64492065
v -0.61957556 0.081222855 -0.69931364
v -0.6196842 1.6822916 0.6999161
v -0.6196799 1.6822916 0.6455232
v -0.6196799 0.081222855 0.6455232
v -0.6196842 0.081222855 0.6999161
v 0.64147687 0.081222855 -0.61864257
v 0.6413809 0.081222855 0.61874336
v 0.6413809 1.6822916 0.61874336
v 0.64147687 1.6822916 -0.61864257
v -0.6419597 0.081222855 0.6186422
v -0.64186376 0.081222855 -0.6187437
v -0.64186376 1.6822916 -0.6187437
v -0.6419597 1.6822916 0.6186422
v 0.6195885 1.7594819 0.6187409
v -0.6196779 1.7594819 0.6186436
v -0.6195819 1.7594819 -0.61874235
v 0.61968446 1.7594819 -0.61864483
v -0.6196799 1.6822916 0.6455232
v 0.6195862 1.6822916 0.64562064
v 0.6195862 0.081222855 0.64562064
v -0.6196799 0.081222855 0.6455232
v 0.61968654 1.6822916 -0.6448231
v -0.61958 1.6822916 -0.64492065
v -0.61958 0.081222855 -0.64492065
v 0.61968654 0.081222855 -0.6448231
v 0.69586986 1.6822916 -0.6186384
v 0.64147687 1.6822916 -0.61864257
v 0.6413809 1.6822916 0.61874336
v 0.6957739 1.6822916 0.6187476
v 0.6195822 0.081222855 0.7000137
v 0.6195862 0.081222855 0.64562064
v 0.6195862 1.6822916 0.64562064
v 0.6195822 1.6822916 0.7000137
v -0.6962567 0.081222855 -0.6187479
v -0.64186376 0.081222855 -0.6187437
v -0.6419597 0.081222855 0.6186422
v -0.6963526 0.081222855 0.6186379
v -0.61957556 1.6822916 -0.69931364
v -0.61958 1.6822916 -0.64492065
v 0.61968654 1.6822916 -0.6448231
v 0.6196909 1.6822916 -0.6992161
v 0.6196909 1.6822916 -0.6992161
v 0.61968654 1.6822916 -0.6448231
v 0.61968654 0.081222855 -0.6448231
v 0.6196909 0.081222855 -0.6992161
v -0.61957556 0.081222855 -0.69931364
v -0.61958 0.081222855 -0.64492065
v -0.61958 1.6822916 -0.64492065
v -0.61957556 1.6822916 -0.69931364
v -0.6196842 0.081222855 0.6999161
v -0.6196799 0.081222855 0.6455232
v 0.6195862 0.081222855 0.64562064
v 0.6195822 0.081222855 0.7000137
v 0.6957739 0.081222855 0.6187476
v 0.6413809 0.081222855 0.61874336
v 0.64147687 0.081222855 -0.61864257
v 0.69586986 0.081222855 -0.6186384
v -0.6196779 1.8138754 0.6186436
v -0.6196779 1.7594819 0.6186436
v 0.6195885 1.7594819 0.6187409
v 0.6195885 1.8138754 0.6187409
v 0.6957739 1.6822916 0.6187476
v 0.6413809 1.6822916 0.61874336
v 0.6413809 0.081222855 0.61874336
v 0.6957739 0.081222855 0.6187476
v 0.6195885 1.8138754 0.6187409
v 0.6195885 1.7594819 0.6187409
v 0.61968446 1.7594819 -0.61864483
v 0.61968446 1.8138754 -0.61864483
v -0.6963526 0.081222855 0.6186379
v -0.6419597 0.081222855 0.6186422
v -0.6419597 1.6822916 0.6186422
v -0.6963526 1.6822916 0.6186379
v 0.6195822 1.6822916 0.7000137
v 0.6195862 1.6822916 0.64562064
v -0.6196799 1.6822916 0.6455232
v -0.6196842 1.6822916 0.6999161
v 0.61968446 1.8138754 -0.61864483
v 0.61968446 1.7594819 -0.61864483
v -0.6195819 1.7594819 -0.61874235
v -0.6195819 1.8138754 -0.61874235
v 0.69586986 0.081222855 -0.6186384
v 0.64147687 0.081222855 -0.61864257
v 0.64147687 1.6822916 -0.61864257
v 0.69586986 1.6822916 -0.6186384
vt 0.87158203 -0.0016117096
vt 0.9223633 0.04321289
vt 0.9223633 -0.0016155243
vt 0.87158203 0.04321289
vt 0.9223633 0.92529297
vt 0.05984497 0.043273926
vt 0.8720703 0.92529297
vt 0.05984497 -0.0015583038
vt 0.009086609 -0.0015544891
vt 0.009094238 0.043273926
vt 0.9223633 0.95166016
vt 0.8720703 0.95166016
vt 0.059906006 0.92529297
vt 0.059936523 0.95166016
vt 0.009155273 0.92529297
vt 0.009155273 0.95166016
vt 0.0023555756 0.9277344
vt 0.053131104 1
vt 0.0023555756 1
vt 0.053131104 0.9277344
vt 0.0023555756 0.044677734
vt 0.87353516 1
vt 0.053131104 0.044677734
vt 0.0023555756 -0.00012803078
vt 0.053131104 -0.00012803078
vt 0.87353516 0.9277344
vt 0.9243164 1
vt 0.9243164 0.9277344
vt 0.87353516 0.044677734
vt 0.87353516 -0.00012803078
vt 0.9243164 0.044677734
vt 0.9243164 -0.00012803078
vt 0.0038070679 0.9301758
vt 0.035186768 0.9301758
vt 0.035186768 -0.13989258
vt 0.0038070679 -0.13989258
vt 0.05303955 -0.00012803078
vt 0.002275467 -0.00012803078
vt 0.002275467 0.044677734
vt 0.05303955 0.044677734
vt 0.87353516 -0.00012803078
vt 0.002275467 0.9277344
vt 0.87353516 0.044677734
vt 0.9238281 -0.00012803078
vt 0.9238281 0.044677734
vt 0.05303955 0.9277344
vt 0.002275467 1
vt 0.05303955 1
vt 0.87353516 0.9277344
vt 0.9238281 0.9277344
vt 0.87353516 1
vt 0.9238281 1
vt 6.353855E-05 0.9277344
vt 0.053863525 1
vt 6.353855E-05 1
vt 0.053863525 0.9277344
vt 6.347895E-05 0.044677734
vt 0.8730469 1
vt 0.053863525 0.044677734
vt 6.347895E-05 -0.00012803078
vt 0.053863525 -0.00012803078
vt 0.8730469 0.9277344
vt 0.92626953 1
vt 0.92626953 0.9277344
vt 0.8730469 0.044677734
vt 0.8730469 -0.00012803078
vt 0.92626953 0.044677734
vt 0.92626953 -0.00012803078
vt 0.92626953 0.9277344
vt 0.8730469 1
vt 0.92626953 1
vt 0.8730469 0.9277344
vt 0.92626953 0.044677734
vt 0.05380249 1
vt 0.8730469 0.044677734
vt 0.92626953 -0.00012803078
vt 0.8730469 -0.00012803078
vt 0.05380249 0.9277344
vt 3.2186508E-06 1
vt 3.2186508E-06 0.9277344
vt 0.05380249 0.044677734
vt 0.05380249 -0.00012803078
vt 3.2186508E-06 0.044677734
vt 3.2186508E-06 -0.00012803078
vt 0.0037517548 0.03463745
vt 0.03515625 0.03463745
vt 0.035186768 0.9296875
vt 0.0038070679 0.9296875
vt 0.9238281 0.50439453
vt 0.9238281 0.5488281
vt 0.87353516 0.5488281
vt 0.87353516 0.50439453
vt 0.9238281 -0.17810059
vt 0.053100586 0.50439453
vt 0.053100586 0.5488281
vt 0.0023460388 0.5488281
vt 0.0023422241 0.50439453
vt 0.05303955 -0.17797852
vt 0.0022792816 -0.17797852
vt 0.87353516 -0.17810059
vt 0.9238281 -0.22290039
vt 0.87353516 -0.22290039
vt 0.05303955 -0.22290039
vt 0.002275467 -0.22290039
vt 0.89160156 0.99316406
vt 0.89160156 0.96728516
vt 0.048614502 0.96728516
vt 0.048614502 0.99316406
vt 0.89208984 0.9682617
vt 0.89208984 0.9423828
vt 0.048065186 0.9423828
vt 0.048065186 0.96875
vt 0.0017213821 0.9301758
vt 0.033111572 0.9301758
vt 0.033111572 -0.13989258
vt 0.0017213821 -0.13989258
vt 0.8730469 0.044677734
vt 0.05380249 0.044677734
vt 0.05380249 0.9277344
vt 0.8730469 0.9277344
vt 0.053863525 0.044677734
vt 0.8730469 0.044677734
vt 0.8730469 0.9277344
vt 0.053863525 0.9277344
vt 0.87158203 0.04321289
vt 0.05984497 0.043273926
vt 0.059906006 0.92529297
vt 0.8720703 0.92529297
vt 0.05303955 0.9277344
vt 0.87353516 0.9277344
vt 0.87353516 0.044677734
vt 0.05303955 0.044677734
vt 0.87353516 0.9277344
vt 0.053131104 0.9277344
vt 0.053131104 0.044677734
vt 0.87353516 0.044677734
vt 0.93603516 0.9296875
vt 0.90478516 0.9296875
vt 0.90478516 0.034606934
vt 0.93603516 0.034606934
vt 0.0016651154 -0.13989258
vt 0.033050537 -0.13989258
vt 0.033050537 0.9301758
vt 0.0016651154 0.9301758
vt 0.0038070679 0.9296875
vt 0.035186768 0.9296875
vt 0.03515625 0.03463745
vt 0.0037517548 0.03463745
vt 0.048065186 0.96875
vt 0.048065186 0.9423828
vt 0.89208984 0.9423828
vt 0.89208984 0.9682617
vt 0.9379883 0.9301758
vt 0.9067383 0.9301758
vt 0.9067383 -0.13989258
vt 0.9379883 -0.13989258
vt 0.9379883 -0.13989258
vt 0.9067383 -0.13989258
vt 0.9067383 0.9301758
vt 0.9379883 0.9301758
vt 0.04800415 -0.004432678
vt 0.04800415 0.021713257
vt 0.89208984 0.02166748
vt 0.89208984 -0.0044784546
vt 0.93603516 0.034606934
vt 0.90478516 0.034606934
vt 0.90478516 0.9296875
vt 0.93603516 0.9296875
vt 0.04800415 0.99316406
vt 0.04800415 0.96728516
vt 0.89208984 0.96728516
vt 0.89208984 0.99316406
vt 0.93603516 0.9301758
vt 0.90478516 0.9301758
vt 0.90478516 -0.13989258
vt 0.93603516 -0.13989258
vt 0.048583984 0.99316406
vt 0.048583984 0.96728516
vt 0.89160156 0.96728516
vt 0.89160156 0.99316406
vt 0.0037517548 -0.13989258
vt 0.03515625 -0.13989258
vt 0.03515625 0.9301758
vt 0.0037517548 0.9301758
vt 0.89208984 -0.0044784546
vt 0.89208984 0.02166748
vt 0.04800415 0.021713257
vt 0.04800415 -0.004432678
vt 0.89208984 0.99316406
vt 0.89208984 0.96728516
vt 0.048065186 0.96728516
vt 0.048065186 0.99316406
vt 0.93603516 -0.13989258
vt 0.90478516 -0.13989258
vt 0.90478516 0.9301758
vt 0.93603516 0.9301758
vn -1.4901161E-06 1 0
vn -1.4901161E-06 1 0
vn -1.4901161E-06 1 0
vn -1.4901161E-06 1 0
vn 1.5497208E-06 1 0
vn -0 1 0
vn 1.5497208E-06 1 0
vn -0 1 0
vn -0 1 0
vn -0 1 0
vn 1.5497208E-06 1 0
vn 1.5497208E-06 1 0
vn 5.9604645E-07 1 0
vn 5.9604645E-07 1 0
vn 5.9604645E-07 1 0
vn 5.9604645E-07 1 0
vn 7.2300434E-05 0 -1
vn 7.2300434E-05 0 -1
vn 7.2300434E-05 0 -1
vn 7.2300434E-05 0 -1
vn 7.2300434E-05 0 -1
vn 8.684397E-05 0 -1
vn 7.2300434E-05 0 -1
vn 7.2300434E-05 0 -1
vn 7.2300434E-05 0 -1
vn 8.684397E-05 0 -1
vn 8.684397E-05 0 -1
vn 8.684397E-05 0 -1
vn 8.684397E-05 0 -1
vn 8.684397E-05 0 -1
vn 8.684397E-05 0 -1
vn 8.684397E-05 0 -1
vn -7.671118E-05 0 1
vn -7.671118E-05 0 1
vn -7.671118E-05 0 1
vn -7.671118E-05 0 1
vn -7.1525574E-05 0 1
vn -7.1525574E-05 0 1
vn -7.1525574E-05 0 1
vn -7.1525574E-05 0 1
vn -8.606911E-05 0 1
vn -7.1525574E-05 0 1
vn -8.606911E-05 0 1
vn -8.606911E-05 0 1
vn -8.606911E-05 0 1
vn -7.1525574E-05 0 1
vn -7.1525574E-05 0 1
vn -7.1525574E-05 0 1
vn -8.606911E-05 0 1
vn -8.606911E-05 0 1
vn -8.606911E-05 0 1
vn -8.606911E-05 0 1
vn -1 0 -7.879734E-05
vn -1 0 -7.8737736E-05
vn -1 0 -7.8737736E-05
vn -1 0 -7.879734E-05
vn -1 0 -7.879734E-05
vn -1 0 -7.8737736E-05
vn -1 0 -7.879734E-05
vn -1 0 -7.903576E-05
vn -1 0 -7.748604E-05
vn -1 0 -7.8737736E-05
vn -1 0 -7.8737736E-05
vn -1 0 -7.8737736E-05
vn -1 0 -7.855892E-05
vn -1 0 -7.748604E-05
vn -1 0 -7.855892E-05
vn -1 0 -7.855892E-05
vn 1 0 7.7307224E-05
vn 1 0 7.754564E-05
vn 1 0 7.7307224E-05
vn 1 0 7.754564E-05
vn 1 0 7.760525E-05
vn 1 0 7.8737736E-05
vn 1 0 7.760525E-05
vn 1 0 7.742643E-05
vn 1 0 7.742643E-05
vn 1 0 7.8737736E-05
vn 1 0 7.8737736E-05
vn 1 0 7.8737736E-05
vn 1 0 7.879734E-05
vn 1 0 7.754564E-05
vn 1 0 7.879734E-05
vn 1 0 7.903576E-05
vn -0 -1 0
vn -0 -1 0
vn -0 -1 0
vn -0 -1 0
vn -0 -1 0
vn -0 -1 0
vn -0 -1 0
vn -0 -1 0
vn -0 -1 0
vn -0 -1 0
vn -0 -1 0
vn -0 -1 0
vn -0 -1 0
vn -0 -1 0
vn -0 -1 0
vn -0 -1 0
vn -0 -1 0
vn -0 -1 0
vn -0 -1 0
vn -0 -1 0
vn 1 0 7.760525E-05
vn 1 0 7.760525E-05
vn 1 0 7.760525E-05
vn 1 0 7.760525E-05
vn -0 1 0
vn -0 1 0
vn -0 1 0
vn -0 1 0
vn 1 0 7.8737736E-05
vn 1 0 7.8737736E-05
vn 1 0 7.8737736E-05
vn 1 0 7.8737736E-05
vn 1 0 7.748604E-05
vn 1 0 7.748604E-05
vn 1 0 7.748604E-05
vn 1 0 7.748604E-05
vn -1 0 -7.754564E-05
vn -1 0 -7.754564E-05
vn -1 0 -7.754564E-05
vn -1 0 -7.754564E-05
vn 1.7881393E-07 1 0
vn 1.7881393E-07 1 0
vn 1.7881393E-07 1 0
vn 1.7881393E-07 1 0
vn -7.861853E-05 0 1
vn -7.861853E-05 0 1
vn -7.861853E-05 0 1
vn -7.861853E-05 0 1
vn 7.8737736E-05 0 -1
vn 7.8737736E-05 0 -1
vn 7.8737736E-05 0 -1
vn 7.8737736E-05 0 -1
vn -3.516674E-06 -1 0
vn -3.516674E-06 -1 0
vn -3.516674E-06 -1 0
vn -3.516674E-06 -1 0
vn -1 0 -7.4625015E-05
vn -1 0 -7.4625015E-05
vn -1 0 -7.4625015E-05
vn -1 0 -7.4625015E-05
vn -1.1920929E-07 1 0
vn -1.1920929E-07 1 0
vn -1.1920929E-07 1 0
vn -1.1920929E-07 1 0
vn -0 -1 0
vn -0 -1 0
vn -0 -1 0
vn -0 -1 0
vn -1 0 -7.8737736E-05
vn -1 0 -7.8737736E-05
vn -1 0 -7.8737736E-05
vn -1 0 -7.8737736E-05
vn 1 0 8.1419945E-05
vn 1 0 8.1419945E-05
vn 1 0 8.1419945E-05
vn 1 0 8.1419945E-05
vn -0 1 0
vn -0 1 0
vn -0 1 0
vn -0 1 0
vn 2.3841858E-07 1 0
vn 2.3841858E-07 1 0
vn 2.3841858E-07 1 0
vn 2.3841858E-07 1 0
vn 7.861853E-05 0 -1
vn 7.861853E-05 0 -1
vn 7.861853E-05 0 -1
vn 7.861853E-05 0 -1
vn 7.891655E-05 0 -1
vn 7.891655E-05 0 -1
vn 7.891655E-05 0 -1
vn 7.891655E-05 0 -1
vn -1 0 -7.754564E-05
vn -1 0 -7.754564E-05
vn -1 0 -7.754564E-05
vn -1 0 -7.754564E-05
vn 7.778406E-05 0 -1
vn 7.778406E-05 0 -1
vn 7.778406E-05 0 -1
vn 7.778406E-05 0 -1
vn -0 -1 0
vn -0 -1 0
vn -0 -1 0
vn -0 -1 0
vn -7.867813E-05 0 1
vn -7.867813E-05 0 1
vn -7.867813E-05 0 1
vn -7.867813E-05 0 1
vn -7.671118E-05 0 1
vn -7.671118E-05 0 1
vn -7.671118E-05 0 1
vn -7.671118E-05 0 1
g SM_Crate00_0
f 3/3/3 2/2/2 1/1/1
f 2/2/2 4/4/4 1/1/1
f 2/2/2 5/5/5 4/4/4
f 4/4/4 6/6/6 1/1/1
f 5/5/5 7/7/7 4/4/4
f 6/6/6 8/8/8 1/1/1
f 8/8/8 6/6/6 9/9/9
f 6/6/6 10/10/10 9/9/9
f 5/5/5 11/11/11 7/7/7
f 11/11/11 12/12/12 7/7/7
f 6/6/6 13/13/13 10/10/10
f 12/12/12 14/14/14 7/7/7
f 14/14/14 13/13/13 7/7/7
f 13/13/13 15/15/15 10/10/10
f 13/13/13 14/14/14 15/15/15
f 14/14/14 16/16/16 15/15/15
f 19/19/19 18/18/18 17/17/17
f 18/18/18 20/20/20 17/17/17
f 17/17/17 20/20/20 21/21/21
f 20/20/20 18/18/18 22/22/22
f 20/20/20 23/23/23 21/21/21
f 21/21/21 23/23/23 24/24/24
f 23/23/23 25/25/25 24/24/24
f 26/26/26 20/20/20 22/22/22
f 22/22/22 27/27/27 26/26/26
f 27/27/27 28/28/28 26/26/26
f 25/25/25 23/23/23 29/29/29
f 26/26/26 28/28/28 29/29/29
f 30/30/30 25/25/25 29/29/29
f 28/28/28 31/31/31 29/29/29
f 29/29/29 31/31/31 30/30/30
f 31/31/31 32/32/32 30/30/30
f 35/35/35 34/34/34 33/33/33
f 36/36/36 35/35/35 33/33/33
f 39/39/39 38/38/38 37/37/37
f 40/40/40 39/39/39 37/37/37
f 37/37/37 41/41/41 40/40/40
f 42/42/42 39/39/39 40/40/40
f 41/41/41 43/43/43 40/40/40
f 43/43/43 41/41/41 44/44/44
f 45/45/45 43/43/43 44/44/44
f 46/46/46 42/42/42 40/40/40
f 47/47/47 42/42/42 46/46/46
f 48/48/48 47/47/47 46/46/46
f 49/49/49 43/43/43 45/45/45
f 46/46/46 49/49/49 48/48/48
f 50/50/50 49/49/49 45/45/45
f 49/49/49 51/51/51 48/48/48
f 51/51/51 49/49/49 50/50/50
f 52/52/52 51/51/51 50/50/50
f 55/55/55 54/54/54 53/53/53
f 54/54/54 56/56/56 53/53/53
f 53/53/53 56/56/56 57/57/57
f 54/54/54 58/58/58 56/56/56
f 56/56/56 59/59/59 57/57/57
f 57/57/57 59/59/59 60/60/60
f 59/59/59 61/61/61 60/60/60
f 58/58/58 62/62/62 56/56/56
f 58/58/58 63/63/63 62/62/62
f 63/63/63 64/64/64 62/62/62
f 59/59/59 65/65/65 61/61/61
f 62/62/62 64/64/64 65/65/65
f 65/65/65 66/66/66 61/61/61
f 64/64/64 67/67/67 65/65/65
f 65/65/65 67/67/67 66/66/66
f 67/67/67 68/68/68 66/66/66
f 71/71/71 70/70/70 69/69/69
f 70/70/70 72/72/72 69/69/69
f 69/69/69 72/72/72 73/73/73
f 70/70/70 74/74/74 72/72/72
f 72/72/72 75/75/75 73/73/73
f 73/73/73 75/75/75 76/76/76
f 75/75/75 77/77/77 76/76/76
f 74/74/74 78/78/78 72/72/72
f 74/74/74 79/79/79 78/78/78
f 79/79/79 80/80/80 78/78/78
f 75/75/75 81/81/81 77/77/77
f 78/78/78 80/80/80 81/81/81
f 81/81/81 82/82/82 77/77/77
f 80/80/80 83/83/83 81/81/81
f 81/81/81 83/83/83 82/82/82
f 83/83/83 84/84/84 82/82/82
f 87/87/87 86/86/86 85/85/85
f 88/88/88 87/87/87 85/85/85
f 91/91/91 90/90/90 89/89/89
f 92/92/92 91/91/91 89/89/89
f 92/92/92 89/89/89 93/93/93
f 91/91/91 92/92/92 94/94/94
f 95/95/95 91/91/91 94/94/94
f 96/96/96 95/95/95 94/94/94
f 97/97/97 96/96/96 94/94/94
f 97/97/97 94/94/94 98/98/98
f 94/94/94 92/92/92 98/98/98
f 99/99/99 97/97/97 98/98/98
f 100/100/100 92/92/92 93/93/93
f 92/92/92 100/100/100 98/98/98
f 100/100/100 93/93/93 101/101/101
f 102/102/102 100/100/100 101/101/101
f 100/100/100 102/102/102 103/103/103
f 98/98/98 100/100/100 103/103/103
f 99/99/99 98/98/98 103/103/103
f 104/104/104 99/99/99 103/103/103
f 107/107/107 106/106/106 105/105/105
f 108/108/108 107/107/107 105/105/105
f 111/111/111 110/110/110 109/109/109
f 112/112/112 111/111/111 109/109/109
f 115/115/115 114/114/114 113/113/113
f 116/116/116 115/115/115 113/113/113
f 119/119/119 118/118/118 117/117/117
f 120/120/120 119/119/119 117/117/117
f 123/123/123 122/122/122 121/121/121
f 124/124/124 123/123/123 121/121/121
f 127/127/127 126/126/126 125/125/125
f 128/128/128 127/127/127 125/125/125
f 131/131/131 130/130/130 129/129/129
f 132/132/132 131/131/131 129/129/129
f 135/135/135 134/134/134 133/133/133
f 136/136/136 135/135/135 133/133/133
f 139/139/139 138/138/138 137/137/137
f 140/140/140 139/139/139 137/137/137
f 143/143/143 142/142/142 141/141/141
f 144/144/144 143/143/143 141/141/141
f 147/147/147 146/146/146 145/145/145
f 148/148/148 147/147/147 145/145/145
f 151/151/151 150/150/150 149/149/149
f 152/152/152 151/151/151 149/149/149
f 155/155/155 154/154/154 153/153/153
f 156/156/156 155/155/155 153/153/153
f 159/159/159 158/158/158 157/157/157
f 160/160/160 159/159/159 157/157/157
f 163/163/163 162/162/162 161/161/161
f 164/164/164 163/163/163 161/161/161
f 167/167/167 166/166/166 165/165/165
f 168/168/168 167/167/167 165/165/165
f 171/171/171 170/170/170 169/169/169
f 172/172/172 171/171/171 169/169/169
f 175/175/175 174/174/174 173/173/173
f 176/176/176 175/175/175 173/173/173
f 179/179/179 178/178/178 177/177/177
f 180/180/180 179/179/179 177/177/177
f 183/183/183 182/182/182 181/181/181
f 184/184/184 183/183/183 181/181/181
f 187/187/187 186/186/186 185/185/185
f 188/188/188 187/187/187 185/185/185
f 191/191/191 190/190/190 189/189/189
f 192/192/192 191/191/191 189/189/189
f 195/195/195 194/194/194 193/193/193
f 196/196/196 195/195/195 193/193/193
