g SM_Clopes08
v 0.01684407 -0.0082381535 0.009768446
v -0.0287771 0.051613916 0.009768446
v 0.01684407 0.051613916 0.009768446
v -0.0287771 -0.0082381535 0.009768446
v 0.01684407 -0.05271509 0.009768446
v -0.0287771 -0.05271509 0.009768446
v -0.0287771 -0.0082381535 0.009768446
v -0.028777108 0.051613916 -0.0095127905
v -0.0287771 0.051613916 0.009768446
v -0.028777108 -0.0082381535 -0.0095127905
v -0.0287771 -0.05271509 0.009768446
v -0.028777108 -0.05271509 -0.0095127905
v -0.028777108 -0.0082381535 -0.0095127905
v 0.01684407 0.051613916 -0.009512793
v -0.028777108 0.051613916 -0.0095127905
v 0.01684407 -0.0082381535 -0.009512793
v -0.028777108 -0.05271509 -0.0095127905
v 0.01684407 -0.05271509 -0.009512793
v 0.01684407 -0.0082381535 -0.009512793
v 0.01684407 0.051613916 0.009768446
v 0.01684407 0.051613916 -0.009512793
v 0.01684407 -0.0082381535 0.009768446
v 0.01684407 -0.05271509 -0.009512793
v 0.01684407 -0.05271509 0.009768446
v -0.0287771 -0.05271509 0.009768446
v 0.01684407 -0.05271509 0.009768446
v 0.01684407 -0.05271509 -0.009512793
v -0.028777108 -0.05271509 -0.0095127905
v -0.028777108 0.051613916 -0.0095127905
v 0.01684407 0.051613916 -0.009512793
v 0.01684407 0.051613916 0.009768446
v -0.0287771 0.051613916 0.009768446
vt 0.62060547 0.4104004
vt 0.32788086 0.9477539
vt 0.6274414 0.9248047
vt 0.32080078 0.45092773
vt 0.61572266 0.028244019
vt 0.3154297 0.081726074
vt 0.6176758 0.4116211
vt 0.73535156 0.9316406
vt 0.62109375 0.92626953
vt 0.72998047 0.42041016
vt 0.62060547 0.029129028
vt 0.7285156 0.04168701
vt 0.61279297 0.41015625
vt 0.32202148 0.94970703
vt 0.6201172 0.9248047
vt 0.31640625 0.45507812
vt 0.6074219 0.027740479
vt 0.31225586 0.08770752
vt 0.73291016 0.4165039
vt 0.6274414 0.9267578
vt 0.73583984 0.93115234
vt 0.62646484 0.40844727
vt 0.72998047 0.047607422
vt 0.6254883 0.023422241
vt 0.30615234 0.41186523
vt 0.7416992 0.38305664
vt 0.7416992 0.5678711
vt 0.30615234 0.5966797
vt 0.6826172 0.70166016
vt 0.71191406 0.4128418
vt 0.6879883 0.5410156
vt 0.66308594 0.8305664
vn -0 0 1
vn -0 0 1
vn -0 0 1
vn -0 0 1
vn -0 0 1
vn -0 0 1
vn -1 0 4.172325E-07
vn -1 0 4.172325E-07
vn -1 0 4.172325E-07
vn -1 0 4.172325E-07
vn -1 0 4.172325E-07
vn -1 0 4.172325E-07
vn -0 0 -1
vn -0 0 -1
vn -0 0 -1
vn -0 0 -1
vn -0 0 -1
vn -0 0 -1
vn 1 0 0
vn 1 0 0
vn 1 0 0
vn 1 0 0
vn 1 0 0
vn 1 0 0
vn -0 -1 0
vn -0 -1 0
vn -0 -1 0
vn -0 -1 0
vn -0 1 0
vn -0 1 0
vn -0 1 0
vn -0 1 0
g SM_Clopes08_0
f 3/3/3 2/2/2 1/1/1
f 2/2/2 4/4/4 1/1/1
f 1/1/1 4/4/4 5/5/5
f 4/4/4 6/6/6 5/5/5
f 9/9/9 8/8/8 7/7/7
f 8/8/8 10/10/10 7/7/7
f 7/7/7 10/10/10 11/11/11
f 10/10/10 12/12/12 11/11/11
f 15/15/15 14/14/14 13/13/13
f 14/14/14 16/16/16 13/13/13
f 13/13/13 16/16/16 17/17/17
f 16/16/16 18/18/18 17/17/17
f 21/21/21 20/20/20 19/19/19
f 20/20/20 22/22/22 19/19/19
f 19/19/19 22/22/22 23/23/23
f 22/22/22 24/24/24 23/23/23
f 27/27/27 26/26/26 25/25/25
f 28/28/28 27/27/27 25/25/25
f 31/31/31 30/30/30 29/29/29
f 32/32/32 31/31/31 29/29/29
