g SM_Clopes02
v 0.028826488 -0.051274247 0.009556992
v -0.028826488 -0.051274247 0.009556992
v -0.028826488 0.051274247 0.009556992
v 0.028826488 0.051274247 0.009556992
v -0.028826488 -0.051274247 0.009556992
v -0.028826503 -0.051274247 -0.009556992
v -0.028826503 0.051274247 -0.009556992
v -0.028826488 0.051274247 0.009556992
v -0.028826503 -0.051274247 -0.009556992
v 0.028826488 -0.051274247 -0.009556996
v 0.028826488 0.051274247 -0.009556996
v -0.028826503 0.051274247 -0.009556992
v 0.028826488 -0.051274247 -0.009556996
v 0.028826488 -0.051274247 0.009556992
v 0.028826488 0.051274247 0.009556992
v 0.028826488 0.051274247 -0.009556996
v -0.028826488 -0.051274247 0.009556992
v 0.028826488 -0.051274247 0.009556992
v 0.028826488 -0.051274247 -0.009556996
v -0.028826503 -0.051274247 -0.009556992
v -0.028826503 0.051274247 -0.009556992
v 0.028826488 0.051274247 -0.009556996
v 0.028826488 0.051274247 0.009556992
v -0.028826488 0.051274247 0.009556992
vt 0.7080078 0.05834961
vt 0.2944336 0.025878906
vt 0.2944336 0.9165039
vt 0.71728516 0.9082031
vt 0.20007324 0.02909851
vt 0.27929688 0.01739502
vt 0.27978516 0.91796875
vt 0.20141602 0.92041016
vt 0.71728516 0.056427002
vt 0.2854004 0.020553589
vt 0.2890625 0.9145508
vt 0.71728516 0.9057617
vt 0.27905273 0.016967773
vt 0.1986084 0.024139404
vt 0.20751953 0.921875
vt 0.28442383 0.921875
vt 0.703125 0.64990234
vt 0.3605957 0.6826172
vt 0.3713379 0.79589844
vt 0.7138672 0.7636719
vt 0.2915039 0.1373291
vt 0.70947266 0.17675781
vt 0.70947266 0.058654785
vt 0.2915039 0.019180298
vn -0 0 1
vn -0 0 1
vn -0 0 1
vn -0 0 1
vn -1 0 8.34465E-07
vn -1 0 8.34465E-07
vn -1 0 8.34465E-07
vn -1 0 8.34465E-07
vn -0 0 -1
vn -0 0 -1
vn -0 0 -1
vn -0 0 -1
vn 1 0 0
vn 1 0 0
vn 1 0 0
vn 1 0 0
vn 1.1920929E-07 -1 0
vn 1.1920929E-07 -1 0
vn 1.1920929E-07 -1 0
vn 1.1920929E-07 -1 0
vn 1.1920929E-07 1 0
vn 1.1920929E-07 1 0
vn 1.1920929E-07 1 0
vn 1.1920929E-07 1 0
g SM_Clopes02_0
f 3/3/3 2/2/2 1/1/1
f 4/4/4 3/3/3 1/1/1
f 7/7/7 6/6/6 5/5/5
f 8/8/8 7/7/7 5/5/5
f 11/11/11 10/10/10 9/9/9
f 12/12/12 11/11/11 9/9/9
f 15/15/15 14/14/14 13/13/13
f 16/16/16 15/15/15 13/13/13
f 19/19/19 18/18/18 17/17/17
f 20/20/20 19/19/19 17/17/17
f 23/23/23 22/22/22 21/21/21
f 24/24/24 23/23/23 21/21/21
