g SM_DoubleDoor_00_Right
v -0.09420967 0 -0.5189639
v -0.09420967 0 0
v 0.09421158 0 0
v 0.09421158 0 -0.5189639
v -0.09420967 0 -0.6306397
v 0.09421158 0 -0.6306397
v -0.09420967 0 -1.5300288
v 0.09421158 0 -1.5300288
v -0.09420967 0 -1.647145
v 0.09421158 0 -1.647145
v -0.09420967 0 -2.085247
v 0.09421158 0 -2.085247
v -0.09420967 4.0418415 -1.647145
v -0.09420967 4.0418415 -2.085247
v 0.09421158 4.0418415 -2.085247
v 0.09421158 4.0418415 -1.647145
v -0.09420967 4.0418415 -1.5300288
v 0.09421158 4.0418415 -1.5300288
v -0.09420967 4.0418415 -0.6306397
v 0.09421158 4.0418415 -0.6306397
v -0.09420967 4.0418415 -0.5189639
v 0.09421158 4.0418415 -0.5189639
v -0.09420967 4.0418415 0
v 0.09421158 4.0418415 0
v -0.09420967 3.5858502 0
v -0.09420967 4.0418415 0
v 0.09421158 4.0418415 0
v 0.09421158 3.5858502 0
v -0.09420967 3.4895034 0
v 0.09421158 3.4895034 0
v -0.09420967 2.6889548 0
v 0.09421158 2.6889548 0
v -0.09420967 2.5842896 0
v 0.09421158 2.5842896 0
v -0.09420967 0 0
v 0.09421158 0 0
v -0.09420967 2.5842896 -2.085247
v -0.09420967 0 -2.085247
v 0.09421158 0 -2.085247
v 0.09421158 2.5842896 -2.085247
v -0.09420967 2.6889548 -2.085247
v 0.09421158 2.6889548 -2.085247
v -0.09420967 3.4895034 -2.085247
v 0.09421158 3.4895034 -2.085247
v -0.09420967 3.5858502 -2.085247
v 0.09421158 3.5858502 -2.085247
v -0.09420967 4.0418415 -2.085247
v 0.09421158 4.0418415 -2.085247
v -0.09420967 3.5858502 -2.085247
v -0.09420967 4.0418415 -2.085247
v -0.09420967 4.0418415 -1.647145
v -0.09420967 3.5858502 -1.647145
v -0.09420967 3.4895034 -2.085247
v -0.09420967 4.0418415 -1.5300288
v -0.09420967 3.4895034 -1.647145
v -0.09420967 3.5858502 -1.5300288
v -0.09420967 2.6889548 -2.085247
v -0.09420967 4.0418415 -0.6306397
v -0.09420967 2.6889548 -1.647145
v -0.09420967 3.5858502 -0.6306397
v -0.09420967 2.5842896 -2.085247
v -0.09420967 4.0418415 -0.5189639
v -0.09420967 2.5842896 -1.647145
v -0.09420967 0 -2.085247
v -0.09420967 0 -1.647145
v -0.09420967 2.5842896 -1.5300288
v -0.09420967 0 -1.5300288
v -0.09420967 2.5842896 -0.6306397
v -0.09420967 0 -0.6306397
v -0.09420967 3.5858502 -0.5189639
v -0.09420967 4.0418415 0
v -0.09420967 3.5858502 0
v -0.09420967 3.4895034 -0.5189639
v -0.09420967 3.4895034 0
v -0.09420967 2.6889548 -0.5189639
v -0.09420967 2.6889548 0
v -0.09420967 2.5842896 -0.5189639
v -0.09420967 0 -0.5189639
v -0.09420967 2.5842896 0
v -0.09420967 0 0
v 0.09421158 3.5858502 -2.085247
v 0.09421158 4.0418415 -1.647145
v 0.09421158 4.0418415 -2.085247
v 0.09421158 3.5858502 -1.647145
v 0.09421158 3.4895034 -2.085247
v 0.09421158 4.0418415 -1.5300288
v 0.09421158 3.4895034 -1.647145
v 0.09421158 3.5858502 -1.5300288
v 0.09421158 2.6889548 -2.085247
v 0.09421158 4.0418415 -0.6306397
v 0.09421158 2.6889548 -1.647145
v 0.09421158 3.5858502 -0.6306397
v 0.09421158 2.5842896 -2.085247
v 0.09421158 4.0418415 -0.5189639
v 0.09421158 2.5842896 -1.647145
v 0.09421158 0 -2.085247
v 0.09421158 0 -1.647145
v 0.09421158 2.5842896 -1.5300288
v 0.09421158 0 -1.5300288
v 0.09421158 2.5842896 -0.6306397
v 0.09421158 0 -0.6306397
v 0.09421158 3.5858502 -0.5189639
v 0.09421158 4.0418415 0
v 0.09421158 3.5858502 0
v 0.09421158 3.4895034 -0.5189639
v 0.09421158 3.4895034 0
v 0.09421158 2.6889548 -0.5189639
v 0.09421158 2.6889548 0
v 0.09421158 2.5842896 -0.5189639
v 0.09421158 0 -0.5189639
v 0.09421158 2.5842896 0
v 0.09421158 0 0
v 0.09421158 2.5842896 -1.5300288
v 0.14649507 2.5842896 -1.647145
v 0.09421158 2.5842896 -1.647145
v 0.14649507 2.5842896 -1.5300288
v 0.09421158 2.5842896 -0.6306397
v 0.14649509 2.5842896 -0.6306397
v 0.09421158 2.5842896 -0.5189639
v 0.14649509 2.5842896 -0.5189639
v 0.09421158 2.6889548 -0.6306397
v 0.14649507 2.6889548 -0.6306397
v 0.14649507 3.4895034 -0.6306397
v 0.09421158 3.4895034 -0.6306397
v -0.09420967 2.6889548 -0.6306397
v -0.09420967 3.4895034 -0.6306397
v -0.14649317 2.6889548 -0.6306397
v -0.14649317 3.4895034 -0.6306397
v 0.09421158 3.5858502 -1.647145
v 0.14649507 3.5858502 -1.647145
v 0.14649507 3.5858502 -1.5300288
v 0.09421158 3.5858502 -1.5300288
v 0.14649507 3.5858502 -0.6306397
v 0.09421158 3.5858502 -0.6306397
v 0.14649507 3.5858502 -0.5189639
v 0.09421158 3.5858502 -0.5189639
v 0.09421158 3.4895034 -0.6306397
v 0.14649507 3.4895034 -0.6306397
v 0.14649507 3.4895034 -1.5300288
v 0.09421158 3.4895034 -1.5300288
v -0.09420967 3.4895034 -0.6306397
v -0.09420967 3.4895034 -1.5300288
v -0.14649317 3.4895034 -0.6306397
v -0.14649317 3.4895034 -1.5300288
v 0.09421158 3.4895034 -1.5300288
v 0.14649507 3.4895034 -1.5300288
v 0.14649507 2.6889548 -1.5300288
v 0.09421158 2.6889548 -1.5300288
v -0.09420967 3.4895034 -1.5300288
v -0.09420967 2.6889548 -1.5300288
v -0.14649317 3.4895034 -1.5300288
v -0.14649317 2.6889548 -1.5300288
v -0.09420967 3.5858502 -1.5300288
v -0.14649317 3.5858502 -1.647145
v -0.09420967 3.5858502 -1.647145
v -0.14649317 3.5858502 -1.5300288
v -0.09420967 3.5858502 -0.6306397
v -0.14649317 3.5858502 -0.6306397
v -0.09420967 3.5858502 -0.5189639
v -0.14649317 3.5858502 -0.5189639
v 0.09421158 3.5858502 -0.5189639
v 0.14649507 3.5858502 -0.5189639
v 0.14649507 3.4895034 -0.5189639
v 0.09421158 3.4895034 -0.5189639
v 0.14649509 2.6889548 -0.5189639
v 0.09421158 2.6889548 -0.5189639
v 0.14649509 2.5842896 -0.5189639
v 0.09421158 2.5842896 -0.5189639
v -0.09420967 3.4895034 -0.5189639
v -0.14649317 3.5858502 -0.5189639
v -0.09420967 3.5858502 -0.5189639
v -0.14649317 3.4895034 -0.5189639
v -0.09420967 2.6889548 -0.5189639
v -0.14649318 2.6889548 -0.5189639
v -0.09420967 2.5842896 -0.5189639
v -0.14649318 2.5842896 -0.5189639
v -0.14649317 3.4895034 -1.647145
v -0.14649317 3.5858502 -1.647145
v -0.14649317 3.5858502 -1.5300288
v -0.14649317 3.4895034 -1.5300288
v -0.14649317 2.6889548 -1.647145
v -0.14649317 3.5858502 -0.6306397
v -0.14649317 2.6889548 -1.5300288
v -0.14649317 2.5842896 -1.647145
v -0.14649317 2.5842896 -1.5300288
v -0.14649317 3.4895034 -0.6306397
v -0.14649317 3.5858502 -0.5189639
v -0.14649317 3.4895034 -0.5189639
v -0.14649317 2.6889548 -0.6306397
v -0.14649318 2.5842896 -0.6306397
v -0.14649318 2.6889548 -0.5189639
v -0.14649318 2.5842896 -0.5189639
v 0.14649507 3.4895034 -1.647145
v 0.14649507 3.5858502 -1.5300288
v 0.14649507 3.5858502 -1.647145
v 0.14649507 3.4895034 -1.5300288
v 0.14649507 2.6889548 -1.647145
v 0.14649507 3.5858502 -0.6306397
v 0.14649507 2.6889548 -1.5300288
v 0.14649507 2.5842896 -1.647145
v 0.14649507 2.5842896 -1.5300288
v 0.14649507 3.4895034 -0.6306397
v 0.14649507 3.5858502 -0.5189639
v 0.14649507 3.4895034 -0.5189639
v 0.14649507 2.6889548 -0.6306397
v 0.14649509 2.5842896 -0.6306397
v 0.14649509 2.6889548 -0.5189639
v 0.14649509 2.5842896 -0.5189639
v -0.09420967 2.5842896 -1.647145
v -0.14649317 2.5842896 -1.647145
v -0.14649317 2.5842896 -1.5300288
v -0.09420967 2.5842896 -1.5300288
v -0.14649318 2.5842896 -0.6306397
v -0.09420967 2.5842896 -0.6306397
v -0.14649318 2.5842896 -0.5189639
v -0.09420967 2.5842896 -0.5189639
v -0.09420967 2.6889548 -0.6306397
v -0.14649317 2.6889548 -0.6306397
v -0.14649317 2.6889548 -1.5300288
v -0.09420967 2.6889548 -1.5300288
v 0.09421158 2.6889548 -0.6306397
v 0.09421158 2.6889548 -1.5300288
v 0.14649507 2.6889548 -0.6306397
v 0.14649507 2.6889548 -1.5300288
v -0.09420967 3.5858502 -1.647145
v -0.14649317 3.5858502 -1.647145
v -0.14649317 3.4895034 -1.647145
v -0.09420967 3.4895034 -1.647145
v -0.14649317 2.6889548 -1.647145
v -0.09420967 2.6889548 -1.647145
v -0.14649317 2.5842896 -1.647145
v -0.09420967 2.5842896 -1.647145
v 0.09421158 3.4895034 -1.647145
v 0.14649507 3.5858502 -1.647145
v 0.09421158 3.5858502 -1.647145
v 0.14649507 3.4895034 -1.647145
v 0.09421158 2.6889548 -1.647145
v 0.14649507 2.6889548 -1.647145
v 0.09421158 2.5842896 -1.647145
v 0.14649507 2.5842896 -1.647145
vt 0.87939453 0.08502197
vt 0.8798828 0.04046631
vt 0.8964844 0.040649414
vt 0.8959961 0.08514404
vt 0.87939453 0.09460449
vt 0.8955078 0.09472656
vt 0.87890625 0.17175293
vt 0.89404297 0.171875
vt 0.87890625 0.1817627
vt 0.89404297 0.18200684
vt 0.87890625 0.21936035
vt 0.8930664 0.21948242
vt 0.87597656 0.49658203
vt 0.8754883 0.55029297
vt 0.9013672 0.55029297
vt 0.9033203 0.49682617
vt 0.87597656 0.48217773
vt 0.9038086 0.48242188
vt 0.87646484 0.3720703
vt 0.9082031 0.37231445
vt 0.87646484 0.35839844
vt 0.9086914 0.35864258
vt 0.8769531 0.29492188
vt 0.91064453 0.29516602
vt 0.8774414 0.26635742
vt 0.8769531 0.29492188
vt 0.91064453 0.29516602
vt 0.9091797 0.26660156
vt 0.8774414 0.2602539
vt 0.9086914 0.26049805
vt 0.8779297 0.2097168
vt 0.90625 0.20996094
vt 0.8779297 0.203125
vt 0.9057617 0.20336914
vt 0.8798828 0.04046631
vt 0.8964844 0.040649414
vt 0.8769531 0.4309082
vt 0.87890625 0.21936035
vt 0.8930664 0.21948242
vt 0.8984375 0.43115234
vt 0.8769531 0.43945312
vt 0.8989258 0.43969727
vt 0.87597656 0.5048828
vt 0.9003906 0.5053711
vt 0.87597656 0.5131836
vt 0.9003906 0.5131836
vt 0.8754883 0.55029297
vt 0.9013672 0.55029297
vt 0.4958496 0.8647461
vt 0.4958496 0.9736328
vt 0.5957031 0.9736328
vt 0.5957031 0.8647461
vt 0.4958496 0.8417969
vt 0.6225586 0.9736328
vt 0.5957031 0.8417969
vt 0.6225586 0.8647461
vt 0.4958496 0.6513672
vt 0.8276367 0.9736328
vt 0.5957031 0.6513672
vt 0.8276367 0.8647461
vt 0.4958496 0.62646484
vt 0.85302734 0.9736328
vt 0.5957031 0.62646484
vt 0.4958496 0.011856079
vt 0.5957031 0.011856079
vt 0.6225586 0.62646484
vt 0.6225586 0.011856079
vt 0.8276367 0.62646484
vt 0.8276367 0.011856079
vt 0.85302734 0.8647461
vt 0.9716797 0.9736328
vt 0.9716797 0.8647461
vt 0.85302734 0.8417969
vt 0.9716797 0.8417969
vt 0.85302734 0.6513672
vt 0.9716797 0.6513672
vt 0.85302734 0.62646484
vt 0.85302734 0.011856079
vt 0.9716797 0.62646484
vt 0.9716797 0.011856079
vt 0.4958496 0.8647461
vt 0.5957031 0.9736328
vt 0.4958496 0.9736328
vt 0.5957031 0.8647461
vt 0.4958496 0.8417969
vt 0.6225586 0.9736328
vt 0.5957031 0.8417969
vt 0.6225586 0.8647461
vt 0.4958496 0.6513672
vt 0.8276367 0.9736328
vt 0.5957031 0.6513672
vt 0.8276367 0.8647461
vt 0.4958496 0.62646484
vt 0.85302734 0.9736328
vt 0.5957031 0.62646484
vt 0.4958496 0.011856079
vt 0.5957031 0.011856079
vt 0.6225586 0.62646484
vt 0.6225586 0.011856079
vt 0.8276367 0.62646484
vt 0.8276367 0.011856079
vt 0.85302734 0.8647461
vt 0.9716797 0.9736328
vt 0.9716797 0.8647461
vt 0.85302734 0.8417969
vt 0.9716797 0.8417969
vt 0.85302734 0.6513672
vt 0.9716797 0.6513672
vt 0.85302734 0.62646484
vt 0.85302734 0.011856079
vt 0.9716797 0.62646484
vt 0.9716797 0.011856079
vt 0.3100586 0.44970703
vt 0.31567383 0.46142578
vt 0.30932617 0.46118164
vt 0.3166504 0.44995117
vt 0.31640625 0.34448242
vt 0.32421875 0.3449707
vt 0.3173828 0.32910156
vt 0.3251953 0.32958984
vt 0.31445312 0.32299805
vt 0.3244629 0.3239746
vt 0.32714844 0.44506836
vt 0.3154297 0.4440918
vt 0.27905273 0.31958008
vt 0.27294922 0.4404297
vt 0.26904297 0.31860352
vt 0.26098633 0.43945312
vt 0.30737305 0.57910156
vt 0.3149414 0.57958984
vt 0.31591797 0.5683594
vt 0.3083496 0.5683594
vt 0.32470703 0.46655273
vt 0.31567383 0.46606445
vt 0.32617188 0.45092773
vt 0.31689453 0.45043945
vt 0.3154297 0.4440918
vt 0.32714844 0.44506836
vt 0.3071289 0.5756836
vt 0.29760742 0.5751953
vt 0.27294922 0.4404297
vt 0.26342773 0.5727539
vt 0.26098633 0.43945312
vt 0.25390625 0.5722656
vt 0.29760742 0.5751953
vt 0.3071289 0.5756836
vt 0.30737305 0.45776367
vt 0.2993164 0.45703125
vt 0.26342773 0.5727539
vt 0.2697754 0.45483398
vt 0.25390625 0.5722656
vt 0.2614746 0.45410156
vt 0.28051758 0.56689453
vt 0.27294922 0.5776367
vt 0.28051758 0.578125
vt 0.27294922 0.56689453
vt 0.28271484 0.46435547
vt 0.27368164 0.4638672
vt 0.28320312 0.44873047
vt 0.27368164 0.4482422
vt 0.31689453 0.45043945
vt 0.32617188 0.45092773
vt 0.32592773 0.43725586
vt 0.31689453 0.43676758
vt 0.32543945 0.34033203
vt 0.3173828 0.33984375
vt 0.3251953 0.32958984
vt 0.3173828 0.32910156
vt 0.2836914 0.4350586
vt 0.27368164 0.4482422
vt 0.28320312 0.44873047
vt 0.2746582 0.4345703
vt 0.28857422 0.3383789
vt 0.28076172 0.33789062
vt 0.28930664 0.32739258
vt 0.28149414 0.3269043
vt 0.5957031 0.8417969
vt 0.5957031 0.8647461
vt 0.6225586 0.8647461
vt 0.6225586 0.8417969
vt 0.5957031 0.6513672
vt 0.8276367 0.8647461
vt 0.6225586 0.6513672
vt 0.5957031 0.62646484
vt 0.6225586 0.62646484
vt 0.8276367 0.8417969
vt 0.85302734 0.8647461
vt 0.85302734 0.8417969
vt 0.8276367 0.6513672
vt 0.8276367 0.62646484
vt 0.85302734 0.6513672
vt 0.85302734 0.62646484
vt 0.5957031 0.8417969
vt 0.6225586 0.8647461
vt 0.5957031 0.8647461
vt 0.6225586 0.8417969
vt 0.5957031 0.6513672
vt 0.8276367 0.8647461
vt 0.6225586 0.6513672
vt 0.5957031 0.62646484
vt 0.6225586 0.62646484
vt 0.8276367 0.8417969
vt 0.85302734 0.8647461
vt 0.85302734 0.8417969
vt 0.8276367 0.6513672
vt 0.8276367 0.62646484
vt 0.85302734 0.6513672
vt 0.85302734 0.62646484
vt 0.28588867 0.45996094
vt 0.27929688 0.4597168
vt 0.27954102 0.44799805
vt 0.2861328 0.44848633
vt 0.28125 0.3425293
vt 0.28881836 0.34301758
vt 0.28149414 0.3269043
vt 0.28930664 0.32739258
vt 0.27905273 0.31958008
vt 0.26904297 0.31860352
vt 0.2614746 0.45410156
vt 0.2697754 0.45483398
vt 0.31445312 0.32299805
vt 0.2993164 0.45703125
vt 0.3244629 0.3239746
vt 0.30737305 0.45776367
vt 0.28051758 0.578125
vt 0.27294922 0.5776367
vt 0.27368164 0.5649414
vt 0.28100586 0.5649414
vt 0.2788086 0.47045898
vt 0.2854004 0.47094727
vt 0.27929688 0.4597168
vt 0.28588867 0.45996094
vt 0.3076172 0.56640625
vt 0.3149414 0.57958984
vt 0.30737305 0.57910156
vt 0.3149414 0.56640625
vt 0.30908203 0.47192383
vt 0.31567383 0.4724121
vt 0.30932617 0.46118164
vt 0.31567383 0.46142578
vn -0 -1 0
vn -0 -1 0
vn -0 -1 0
vn -0 -1 0
vn -0 -1 0
vn -0 -1 0
vn -0 -1 0
vn -0 -1 0
vn -0 -1 0
vn -0 -1 0
vn -0 -1 0
vn -0 -1 0
vn -0 1 0
vn -0 1 0
vn -0 1 0
vn -0 1 0
vn -0 1 0
vn -0 1 0
vn -0 1 0
vn -0 1 0
vn -0 1 0
vn -0 1 0
vn -0 1 0
vn -0 1 0
vn -0 0 1
vn -0 0 1
vn -0 0 1
vn -0 0 1
vn -0 0 1
vn -0 0 1
vn -0 0 1
vn -0 0 1
vn -0 0 1
vn -0 0 1
vn -0 0 1
vn -0 0 1
vn -0 0 -1
vn -0 0 -1
vn -0 0 -1
vn -0 0 -1
vn -0 0 -1
vn -0 0 -1
vn -0 0 -1
vn -0 0 -1
vn -0 0 -1
vn -0 0 -1
vn -0 0 -1
vn -0 0 -1
vn -1 0 0
vn -1 0 0
vn -1 0 0
vn -1 0 0
vn -1 0 0
vn -1 0 0
vn -1 0 0
vn -1 0 0
vn -1 0 0
vn -1 0 0
vn -1 0 0
vn -1 0 0
vn -1 0 0
vn -1 0 0
vn -1 0 0
vn -1 0 0
vn -1 0 0
vn -1 0 0
vn -1 0 0
vn -1 0 0
vn -1 0 0
vn -1 0 0
vn -1 0 0
vn -1 0 0
vn -1 0 0
vn -1 0 0
vn -1 0 0
vn -1 0 0
vn -1 0 0
vn -1 0 0
vn -1 0 0
vn -1 0 0
vn 1 0 0
vn 1 0 0
vn 1 0 0
vn 1 0 0
vn 1 0 0
vn 1 0 0
vn 1 0 0
vn 1 0 0
vn 1 0 0
vn 1 0 0
vn 1 0 0
vn 1 0 0
vn 1 0 0
vn 1 0 0
vn 1 0 0
vn 1 0 0
vn 1 0 0
vn 1 0 0
vn 1 0 0
vn 1 0 0
vn 1 0 0
vn 1 0 0
vn 1 0 0
vn 1 0 0
vn 1 0 0
vn 1 0 0
vn 1 0 0
vn 1 0 0
vn 1 0 0
vn 1 0 0
vn 1 0 0
vn 1 0 0
vn -0 -1 0
vn -0 -1 0
vn -0 -1 0
vn -0 -1 0
vn -0 -1 0
vn -0 -1 0
vn -0 -1 0
vn -0 -1 0
vn -0 0 -1
vn -0 0 -1
vn -0 0 -1
vn -0 0 -1
vn -0 0 -1
vn -0 0 -1
vn -0 0 -1
vn -0 0 -1
vn -0 1 0
vn -0 1 0
vn -0 1 0
vn -0 1 0
vn -0 1 0
vn -0 1 0
vn -0 1 0
vn -0 1 0
vn -0 -1 0
vn -0 -1 0
vn -0 -1 0
vn -0 -1 0
vn -0 -1 0
vn -0 -1 0
vn -0 -1 0
vn -0 -1 0
vn -0 0 1
vn -0 0 1
vn -0 0 1
vn -0 0 1
vn -0 0 1
vn -0 0 1
vn -0 0 1
vn -0 0 1
vn -0 1 0
vn -0 1 0
vn -0 1 0
vn -0 1 0
vn -0 1 0
vn -0 1 0
vn -0 1 0
vn -0 1 0
vn -0 0 1
vn -0 0 1
vn -0 0 1
vn -0 0 1
vn -0 0 1
vn -0 0 1
vn -0 0 1
vn -0 0 1
vn -0 0 1
vn -0 0 1
vn -0 0 1
vn -0 0 1
vn -0 0 1
vn -0 0 1
vn -0 0 1
vn -0 0 1
vn -1 0 0
vn -1 0 0
vn -1 0 0
vn -1 0 0
vn -1 0 0
vn -1 0 0
vn -1 0 0
vn -1 0 0
vn -1 0 0
vn -1 0 0
vn -1 0 0
vn -1 0 0
vn -1 0 0
vn -1 0 0
vn -1 0 -1.7881393E-07
vn -1 0 -1.7881393E-07
vn 1 0 0
vn 1 0 0
vn 1 0 0
vn 1 0 0
vn 1 0 0
vn 1 0 0
vn 1 0 0
vn 1 0 0
vn 1 0 0
vn 1 0 0
vn 1 0 0
vn 1 0 0
vn 1 0 0
vn 1 0 0
vn 1 0 -1.7881393E-07
vn 1 0 -1.7881393E-07
vn -0 -1 0
vn -0 -1 0
vn -0 -1 0
vn -0 -1 0
vn -0 -1 0
vn -0 -1 0
vn -0 -1 0
vn -0 -1 0
vn -0 1 0
vn -0 1 0
vn -0 1 0
vn -0 1 0
vn -0 1 0
vn -0 1 0
vn -0 1 0
vn -0 1 0
vn -0 0 -1
vn -0 0 -1
vn -0 0 -1
vn -0 0 -1
vn -0 0 -1
vn -0 0 -1
vn -0 0 -1
vn -0 0 -1
vn -0 0 -1
vn -0 0 -1
vn -0 0 -1
vn -0 0 -1
vn -0 0 -1
vn -0 0 -1
vn -0 0 -1
vn -0 0 -1
g SM_DoubleDoor_00_Right_0
f 3/3/3 2/2/2 1/1/1
f 4/4/4 3/3/3 1/1/1
f 4/4/4 1/1/1 5/5/5
f 6/6/6 4/4/4 5/5/5
f 6/6/6 5/5/5 7/7/7
f 8/8/8 6/6/6 7/7/7
f 8/8/8 7/7/7 9/9/9
f 10/10/10 8/8/8 9/9/9
f 10/10/10 9/9/9 11/11/11
f 12/12/12 10/10/10 11/11/11
f 15/15/15 14/14/14 13/13/13
f 16/16/16 15/15/15 13/13/13
f 16/16/16 13/13/13 17/17/17
f 18/18/18 16/16/16 17/17/17
f 18/18/18 17/17/17 19/19/19
f 20/20/20 18/18/18 19/19/19
f 20/20/20 19/19/19 21/21/21
f 22/22/22 20/20/20 21/21/21
f 22/22/22 21/21/21 23/23/23
f 24/24/24 22/22/22 23/23/23
f 27/27/27 26/26/26 25/25/25
f 28/28/28 27/27/27 25/25/25
f 28/28/28 25/25/25 29/29/29
f 30/30/30 28/28/28 29/29/29
f 30/30/30 29/29/29 31/31/31
f 32/32/32 30/30/30 31/31/31
f 32/32/32 31/31/31 33/33/33
f 34/34/34 32/32/32 33/33/33
f 34/34/34 33/33/33 35/35/35
f 36/36/36 34/34/34 35/35/35
f 39/39/39 38/38/38 37/37/37
f 40/40/40 39/39/39 37/37/37
f 40/40/40 37/37/37 41/41/41
f 42/42/42 40/40/40 41/41/41
f 42/42/42 41/41/41 43/43/43
f 44/44/44 42/42/42 43/43/43
f 44/44/44 43/43/43 45/45/45
f 46/46/46 44/44/44 45/45/45
f 46/46/46 45/45/45 47/47/47
f 48/48/48 46/46/46 47/47/47
f 51/51/51 50/50/50 49/49/49
f 52/52/52 51/51/51 49/49/49
f 52/52/52 49/49/49 53/53/53
f 54/54/54 51/51/51 52/52/52
f 55/55/55 52/52/52 53/53/53
f 56/56/56 54/54/54 52/52/52
f 55/55/55 53/53/53 57/57/57
f 58/58/58 54/54/54 56/56/56
f 59/59/59 55/55/55 57/57/57
f 60/60/60 58/58/58 56/56/56
f 59/59/59 57/57/57 61/61/61
f 62/62/62 58/58/58 60/60/60
f 63/63/63 59/59/59 61/61/61
f 63/63/63 61/61/61 64/64/64
f 65/65/65 63/63/63 64/64/64
f 66/66/66 63/63/63 65/65/65
f 67/67/67 66/66/66 65/65/65
f 68/68/68 66/66/66 67/67/67
f 69/69/69 68/68/68 67/67/67
f 70/70/70 62/62/62 60/60/60
f 71/71/71 62/62/62 70/70/70
f 72/72/72 71/71/71 70/70/70
f 72/72/72 70/70/70 73/73/73
f 74/74/74 72/72/72 73/73/73
f 74/74/74 73/73/73 75/75/75
f 76/76/76 74/74/74 75/75/75
f 77/77/77 68/68/68 69/69/69
f 76/76/76 75/75/75 77/77/77
f 78/78/78 77/77/77 69/69/69
f 79/79/79 76/76/76 77/77/77
f 79/79/79 77/77/77 78/78/78
f 80/80/80 79/79/79 78/78/78
f 83/83/83 82/82/82 81/81/81
f 82/82/82 84/84/84 81/81/81
f 81/81/81 84/84/84 85/85/85
f 82/82/82 86/86/86 84/84/84
f 84/84/84 87/87/87 85/85/85
f 86/86/86 88/88/88 84/84/84
f 85/85/85 87/87/87 89/89/89
f 86/86/86 90/90/90 88/88/88
f 87/87/87 91/91/91 89/89/89
f 90/90/90 92/92/92 88/88/88
f 89/89/89 91/91/91 93/93/93
f 90/90/90 94/94/94 92/92/92
f 91/91/91 95/95/95 93/93/93
f 93/93/93 95/95/95 96/96/96
f 95/95/95 97/97/97 96/96/96
f 95/95/95 98/98/98 97/97/97
f 98/98/98 99/99/99 97/97/97
f 98/98/98 100/100/100 99/99/99
f 100/100/100 101/101/101 99/99/99
f 94/94/94 102/102/102 92/92/92
f 94/94/94 103/103/103 102/102/102
f 103/103/103 104/104/104 102/102/102
f 102/102/102 104/104/104 105/105/105
f 104/104/104 106/106/106 105/105/105
f 105/105/105 106/106/106 107/107/107
f 106/106/106 108/108/108 107/107/107
f 100/100/100 109/109/109 101/101/101
f 107/107/107 108/108/108 109/109/109
f 109/109/109 110/110/110 101/101/101
f 108/108/108 111/111/111 109/109/109
f 109/109/109 111/111/111 110/110/110
f 111/111/111 112/112/112 110/110/110
f 115/115/115 114/114/114 113/113/113
f 114/114/114 116/116/116 113/113/113
f 113/113/113 116/116/116 117/117/117
f 116/116/116 118/118/118 117/117/117
f 117/117/117 118/118/118 119/119/119
f 118/118/118 120/120/120 119/119/119
f 123/123/123 122/122/122 121/121/121
f 124/124/124 123/123/123 121/121/121
f 121/121/121 125/125/125 124/124/124
f 125/125/125 126/126/126 124/124/124
f 125/125/125 127/127/127 126/126/126
f 127/127/127 128/128/128 126/126/126
f 131/131/131 130/130/130 129/129/129
f 132/132/132 131/131/131 129/129/129
f 133/133/133 131/131/131 132/132/132
f 134/134/134 133/133/133 132/132/132
f 135/135/135 133/133/133 134/134/134
f 136/136/136 135/135/135 134/134/134
f 139/139/139 138/138/138 137/137/137
f 140/140/140 139/139/139 137/137/137
f 137/137/137 141/141/141 140/140/140
f 141/141/141 142/142/142 140/140/140
f 141/141/141 143/143/143 142/142/142
f 143/143/143 144/144/144 142/142/142
f 147/147/147 146/146/146 145/145/145
f 148/148/148 147/147/147 145/145/145
f 145/145/145 149/149/149 148/148/148
f 149/149/149 150/150/150 148/148/148
f 149/149/149 151/151/151 150/150/150
f 151/151/151 152/152/152 150/150/150
f 155/155/155 154/154/154 153/153/153
f 154/154/154 156/156/156 153/153/153
f 153/153/153 156/156/156 157/157/157
f 156/156/156 158/158/158 157/157/157
f 157/157/157 158/158/158 159/159/159
f 158/158/158 160/160/160 159/159/159
f 163/163/163 162/162/162 161/161/161
f 164/164/164 163/163/163 161/161/161
f 165/165/165 163/163/163 164/164/164
f 166/166/166 165/165/165 164/164/164
f 167/167/167 165/165/165 166/166/166
f 168/168/168 167/167/167 166/166/166
f 171/171/171 170/170/170 169/169/169
f 170/170/170 172/172/172 169/169/169
f 169/169/169 172/172/172 173/173/173
f 172/172/172 174/174/174 173/173/173
f 173/173/173 174/174/174 175/175/175
f 174/174/174 176/176/176 175/175/175
f 179/179/179 178/178/178 177/177/177
f 180/180/180 179/179/179 177/177/177
f 180/180/180 177/177/177 181/181/181
f 182/182/182 179/179/179 180/180/180
f 183/183/183 180/180/180 181/181/181
f 183/183/183 181/181/181 184/184/184
f 185/185/185 183/183/183 184/184/184
f 186/186/186 182/182/182 180/180/180
f 187/187/187 182/182/182 186/186/186
f 188/188/188 187/187/187 186/186/186
f 189/189/189 183/183/183 185/185/185
f 188/188/188 186/186/186 189/189/189
f 190/190/190 189/189/189 185/185/185
f 191/191/191 188/188/188 189/189/189
f 191/191/191 189/189/189 190/190/190
f 192/192/192 191/191/191 190/190/190
f 195/195/195 194/194/194 193/193/193
f 194/194/194 196/196/196 193/193/193
f 193/193/193 196/196/196 197/197/197
f 194/194/194 198/198/198 196/196/196
f 196/196/196 199/199/199 197/197/197
f 197/197/197 199/199/199 200/200/200
f 199/199/199 201/201/201 200/200/200
f 198/198/198 202/202/202 196/196/196
f 198/198/198 203/203/203 202/202/202
f 203/203/203 204/204/204 202/202/202
f 199/199/199 205/205/205 201/201/201
f 202/202/202 204/204/204 205/205/205
f 205/205/205 206/206/206 201/201/201
f 204/204/204 207/207/207 205/205/205
f 205/205/205 207/207/207 206/206/206
f 207/207/207 208/208/208 206/206/206
f 211/211/211 210/210/210 209/209/209
f 212/212/212 211/211/211 209/209/209
f 213/213/213 211/211/211 212/212/212
f 214/214/214 213/213/213 212/212/212
f 215/215/215 213/213/213 214/214/214
f 216/216/216 215/215/215 214/214/214
f 219/219/219 218/218/218 217/217/217
f 220/220/220 219/219/219 217/217/217
f 220/220/220 217/217/217 221/221/221
f 222/222/222 220/220/220 221/221/221
f 221/221/221 223/223/223 222/222/222
f 223/223/223 224/224/224 222/222/222
f 227/227/227 226/226/226 225/225/225
f 228/228/228 227/227/227 225/225/225
f 229/229/229 227/227/227 228/228/228
f 230/230/230 229/229/229 228/228/228
f 231/231/231 229/229/229 230/230/230
f 232/232/232 231/231/231 230/230/230
f 235/235/235 234/234/234 233/233/233
f 234/234/234 236/236/236 233/233/233
f 233/233/233 236/236/236 237/237/237
f 236/236/236 238/238/238 237/237/237
f 237/237/237 238/238/238 239/239/239
f 238/238/238 240/240/240 239/239/239
