g SM_DoubleDoor_00_Left
v -0.09420967 0 1.6819624
v -0.09420967 0 2.085247
v 0.09421158 0 2.085247
v 0.09421158 0 1.6819624
v -0.09420967 0 1.5863018
v 0.09421158 0 1.5863018
v -0.09420967 0 0.64543355
v 0.09421158 0 0.64543355
v -0.09420967 0 0.5214171
v 0.09421158 0 0.5214171
v -0.09420967 0 0
v 0.09421158 0 0
v -0.09420967 4.0418415 0.5214171
v -0.09420967 4.0418415 0
v 0.09421158 4.0418415 0
v 0.09421158 4.0418415 0.5214171
v -0.09420967 4.0418415 0.64543355
v 0.09421158 4.0418415 0.64543355
v -0.09420967 4.0418415 1.5863018
v 0.09421158 4.0418415 1.5863018
v -0.09420967 4.0418415 1.6819624
v 0.09421158 4.0418415 1.6819624
v -0.09420967 4.0418415 2.085247
v 0.09421158 4.0418415 2.085247
v -0.09420967 3.5839145 2.085247
v -0.09420967 4.0418415 2.085247
v 0.09421158 4.0418415 2.085247
v 0.09421158 3.5839145 2.085247
v -0.09420967 3.469483 2.085247
v 0.09421158 3.469483 2.085247
v -0.09420967 2.6906195 2.085247
v 0.09421158 2.6906195 2.085247
v -0.09420967 2.5889757 2.085247
v 0.09421158 2.5889757 2.085247
v -0.09420967 0 2.085247
v 0.09421158 0 2.085247
v -0.09420967 2.5889757 0
v -0.09420967 0 0
v 0.09421158 0 0
v 0.09421158 2.5889757 0
v -0.09420967 2.6906195 0
v 0.09421158 2.6906195 0
v -0.09420967 3.469483 0
v 0.09421158 3.469483 0
v -0.09420967 3.5839145 0
v 0.09421158 3.5839145 0
v -0.09420967 4.0418415 0
v 0.09421158 4.0418415 0
v -0.09420967 2.5889757 1.5863018
v -0.15151408 2.5889757 1.6819624
v -0.09420967 2.5889757 1.6819624
v -0.15151408 2.5889757 1.5863018
v -0.09420967 2.5889757 0.64543355
v -0.15151408 2.5889757 0.64543355
v -0.09420967 2.5889757 0.5214171
v -0.15151408 2.5889757 0.5214171
v 0.09421158 3.469483 1.5863017
v -0.09420967 2.6906195 1.5863018
v 0.09421158 2.6906195 1.5863017
v -0.09420967 3.469483 1.5863018
v -0.15151408 2.6906195 1.5863018
v -0.1515141 3.469483 1.5863018
v 0.09421158 3.469483 0.64543355
v -0.09420967 3.469483 1.5863018
v 0.09421158 3.469483 1.5863017
v -0.09420967 3.469483 0.64543355
v -0.1515141 3.469483 1.5863018
v -0.1515141 3.469483 0.64543355
v -0.09420967 3.469483 1.6819624
v -0.15151408 3.5839145 1.6819624
v -0.09420967 3.5839145 1.6819624
v -0.15151408 3.469483 1.6819624
v -0.09420967 2.6906195 1.6819624
v -0.15151408 2.6906195 1.6819624
v -0.09420967 2.5889757 1.6819624
v -0.15151408 2.5889757 1.6819624
v 0.09421158 2.6906195 1.5863017
v -0.09420967 2.6906195 0.64543355
v 0.09421158 2.6906195 0.64543355
v -0.09420967 2.6906195 1.5863018
v -0.15151408 2.6906195 0.64543355
v -0.15151408 2.6906195 1.5863018
v 0.09421158 2.6906195 0.64543355
v -0.09420967 3.469483 0.64543355
v 0.09421158 3.469483 0.64543355
v -0.09420967 2.6906195 0.64543355
v -0.1515141 3.469483 0.64543355
v -0.15151408 2.6906195 0.64543355
v -0.09420967 3.5839145 0.5214171
v -0.15151408 3.5839145 0.5214171
v -0.15151408 3.469483 0.5214171
v -0.09420967 3.469483 0.5214171
v -0.1515141 2.6906195 0.5214171
v -0.09420967 2.6906195 0.5214171
v -0.15151408 2.5889757 0.5214171
v -0.09420967 2.5889757 0.5214171
v -0.09420967 3.5839145 0.64543355
v -0.15151408 3.5839145 0.5214171
v -0.09420967 3.5839145 0.5214171
v -0.1515141 3.5839145 0.64543355
v -0.09420967 3.5839145 1.5863018
v -0.15151408 3.5839145 1.5863018
v -0.09420967 3.5839145 1.6819624
v -0.15151408 3.5839145 1.6819624
v -0.09420967 3.5839145 0
v -0.09420967 4.0418415 0
v -0.09420967 4.0418415 0.5214171
v -0.09420967 3.5839145 0.5214171
v -0.09420967 3.469483 0
v -0.09420967 4.0418415 0.64543355
v -0.09420967 3.469483 0.5214171
v -0.09420967 3.5839145 0.64543355
v -0.09420967 2.6906195 0
v -0.09420967 4.0418415 1.5863018
v -0.09420967 2.6906195 0.5214171
v -0.09420967 3.5839145 1.5863018
v -0.09420967 2.5889757 0
v -0.09420967 4.0418415 1.6819624
v -0.09420967 2.5889757 0.5214171
v -0.09420967 0 0
v -0.09420967 0 0.5214171
v -0.09420967 2.5889757 0.64543355
v -0.09420967 0 0.64543355
v -0.09420967 2.5889757 1.5863018
v -0.09420967 0 1.5863018
v -0.09420967 3.5839145 1.6819624
v -0.09420967 4.0418415 2.085247
v -0.09420967 3.5839145 2.085247
v -0.09420967 3.469483 1.6819624
v -0.09420967 3.469483 2.085247
v -0.09420967 2.6906195 1.6819624
v -0.09420967 2.6906195 2.085247
v -0.09420967 2.5889757 1.6819624
v -0.09420967 0 1.6819624
v -0.09420967 2.5889757 2.085247
v -0.09420967 0 2.085247
v 0.09421158 3.5839145 0
v 0.09421158 4.0418415 0.5214171
v 0.09421158 4.0418415 0
v 0.09421158 3.5839145 0.5214171
v 0.09421158 3.469483 0
v 0.09421158 4.0418415 0.64543355
v 0.09421158 3.469483 0.5214171
v 0.09421158 2.6906195 0
v 0.09421158 3.5839145 0.64543355
v 0.09421158 4.0418415 1.5863018
v 0.09421158 2.6906195 0.5214171
v 0.09421158 2.5889757 0
v 0.09421158 3.5839145 1.5863017
v 0.09421158 4.0418415 1.6819624
v 0.09421158 3.469483 0.64543355
v 0.09421158 2.5889757 0.5214171
v 0.09421158 0 0
v 0.09421158 0 0.5214171
v 0.09421158 2.6906195 0.64543355
v 0.09421158 3.469483 1.5863017
v 0.09421158 3.5839145 1.6819624
v 0.09421158 4.0418415 2.085247
v 0.09421158 3.5839145 2.085247
v 0.09421158 2.5889757 0.64543355
v 0.09421158 0 0.64543355
v 0.09421158 2.6906195 1.5863017
v 0.09421158 3.469483 1.6819624
v 0.09421158 3.469483 2.085247
v 0.09421158 2.5889757 1.5863017
v 0.09421158 0 1.5863018
v 0.09421158 2.6906195 1.6819624
v 0.09421158 2.6906195 2.085247
v 0.09421158 2.5889757 1.6819624
v 0.09421158 0 1.6819624
v 0.09421158 2.5889757 2.085247
v 0.09421158 0 2.085247
v -0.15151408 2.5889757 1.5863018
v -0.15151408 2.6906195 1.6819624
v -0.15151408 2.5889757 1.6819624
v -0.15151408 2.6906195 1.5863018
v -0.15151408 2.5889757 0.64543355
v -0.15151408 3.469483 1.6819624
v -0.15151408 2.6906195 0.64543355
v -0.15151408 2.5889757 0.5214171
v -0.1515141 2.6906195 0.5214171
v -0.1515141 3.469483 1.5863018
v -0.15151408 3.5839145 1.6819624
v -0.15151408 3.5839145 1.5863018
v -0.1515141 3.469483 0.64543355
v -0.15151408 3.469483 0.5214171
v -0.1515141 3.5839145 0.64543355
v -0.15151408 3.5839145 0.5214171
vt 0.87939453 0.07507324
vt 0.8798828 0.04046631
vt 0.8964844 0.040649414
vt 0.8959961 0.07525635
vt 0.87939453 0.08331299
vt 0.8959961 0.08343506
vt 0.87890625 0.1640625
vt 0.89453125 0.16418457
vt 0.87890625 0.17468262
vt 0.89404297 0.17480469
vt 0.87890625 0.21936035
vt 0.8930664 0.21948242
vt 0.87597656 0.48632812
vt 0.8754883 0.55029297
vt 0.9013672 0.55029297
vt 0.9038086 0.48657227
vt 0.87597656 0.4711914
vt 0.9042969 0.47143555
vt 0.87646484 0.35595703
vt 0.9086914 0.35620117
vt 0.8769531 0.34423828
vt 0.9091797 0.34448242
vt 0.8769531 0.29492188
vt 0.91064453 0.29516602
vt 0.8774414 0.26611328
vt 0.8769531 0.29492188
vt 0.91064453 0.29516602
vt 0.9091797 0.26635742
vt 0.8774414 0.2590332
vt 0.9086914 0.25927734
vt 0.8779297 0.20983887
vt 0.90625 0.21008301
vt 0.8779297 0.20349121
vt 0.9057617 0.20373535
vt 0.8798828 0.04046631
vt 0.8964844 0.040649414
vt 0.8769531 0.43139648
vt 0.87890625 0.21936035
vt 0.8930664 0.21948242
vt 0.8984375 0.43139648
vt 0.8769531 0.43969727
vt 0.8989258 0.43969727
vt 0.87597656 0.50341797
vt 0.9003906 0.50341797
vt 0.87597656 0.5126953
vt 0.9003906 0.5131836
vt 0.8754883 0.55029297
vt 0.9013672 0.55029297
vt 0.5053711 0.23632812
vt 0.49389648 0.22143555
vt 0.5058594 0.22167969
vt 0.49389648 0.23608398
vt 0.50390625 0.35058594
vt 0.4946289 0.3503418
vt 0.50390625 0.36254883
vt 0.4946289 0.3623047
vt 0.30810547 0.4663086
vt 0.27490234 0.30932617
vt 0.31469727 0.31030273
vt 0.2644043 0.4658203
vt 0.2626953 0.30908203
vt 0.25146484 0.4658203
vt 0.30932617 0.58447266
vt 0.2644043 0.4658203
vt 0.30810547 0.4663086
vt 0.27075195 0.58447266
vt 0.25146484 0.4658203
vt 0.25854492 0.58447266
vt 0.5029297 0.41552734
vt 0.4873047 0.4477539
vt 0.5029297 0.44799805
vt 0.48828125 0.4152832
vt 0.5053711 0.23999023
vt 0.4934082 0.2397461
vt 0.5058594 0.22167969
vt 0.49389648 0.22143555
vt 0.31469727 0.31030273
vt 0.27954102 0.4350586
vt 0.31518555 0.43554688
vt 0.27490234 0.30932617
vt 0.2685547 0.4350586
vt 0.2631836 0.30908203
vt 0.31518555 0.43554688
vt 0.27075195 0.58447266
vt 0.30932617 0.58447266
vt 0.27954102 0.4350586
vt 0.25927734 0.58447266
vt 0.2685547 0.4350586
vt 0.50146484 0.55615234
vt 0.49023438 0.55615234
vt 0.49072266 0.52978516
vt 0.50146484 0.52978516
vt 0.49438477 0.37890625
vt 0.50390625 0.3791504
vt 0.4946289 0.3623047
vt 0.50390625 0.36254883
vt 0.50146484 0.54785156
vt 0.49023438 0.55615234
vt 0.50146484 0.55615234
vt 0.48999023 0.5473633
vt 0.5024414 0.45996094
vt 0.48754883 0.4597168
vt 0.5029297 0.44799805
vt 0.4873047 0.4477539
vt 0.03491211 0.8642578
vt 0.03491211 0.9736328
vt 0.14733887 0.9736328
vt 0.14733887 0.8642578
vt 0.03491211 0.83740234
vt 0.17419434 0.9736328
vt 0.14733887 0.83740234
vt 0.17419434 0.8642578
vt 0.03491211 0.65185547
vt 0.37719727 0.9736328
vt 0.14733887 0.65185547
vt 0.37719727 0.8642578
vt 0.03491211 0.6279297
vt 0.39770508 0.9736328
vt 0.14733887 0.6279297
vt 0.03491211 0.011856079
vt 0.14733887 0.011856079
vt 0.17419434 0.6279297
vt 0.17419434 0.011856079
vt 0.37719727 0.6279297
vt 0.37719727 0.011856079
vt 0.39770508 0.8642578
vt 0.48461914 0.9736328
vt 0.48461914 0.8642578
vt 0.39770508 0.83740234
vt 0.48461914 0.83740234
vt 0.39770508 0.65185547
vt 0.48461914 0.65185547
vt 0.39770508 0.6279297
vt 0.39770508 0.011856079
vt 0.48461914 0.6279297
vt 0.48461914 0.011856079
vt 0.03491211 0.8642578
vt 0.14733887 0.9736328
vt 0.03491211 0.9736328
vt 0.14733887 0.8642578
vt 0.03491211 0.83740234
vt 0.17419434 0.9736328
vt 0.14733887 0.83740234
vt 0.03491211 0.65185547
vt 0.17419434 0.8642578
vt 0.37719727 0.9736328
vt 0.14733887 0.65185547
vt 0.03491211 0.6279297
vt 0.37719727 0.8642578
vt 0.39770508 0.9736328
vt 0.17419434 0.83740234
vt 0.14733887 0.6279297
vt 0.03491211 0.011856079
vt 0.14733887 0.011856079
vt 0.17419434 0.65185547
vt 0.37719727 0.83740234
vt 0.39770508 0.8642578
vt 0.48461914 0.9736328
vt 0.48461914 0.8642578
vt 0.17419434 0.6279297
vt 0.17419434 0.011856079
vt 0.37719727 0.65185547
vt 0.39770508 0.83740234
vt 0.48461914 0.83740234
vt 0.37719727 0.6279297
vt 0.37719727 0.011856079
vt 0.39770508 0.65185547
vt 0.48461914 0.65185547
vt 0.39770508 0.6279297
vt 0.39770508 0.011856079
vt 0.48461914 0.6279297
vt 0.48461914 0.011856079
vt 0.37719727 0.6279297
vt 0.39770508 0.65185547
vt 0.39770508 0.6279297
vt 0.37719727 0.65185547
vt 0.17419434 0.6279297
vt 0.39770508 0.83740234
vt 0.17419434 0.65185547
vt 0.14733887 0.6279297
vt 0.14733887 0.65185547
vt 0.37719727 0.83740234
vt 0.39770508 0.8642578
vt 0.37719727 0.8642578
vt 0.17419434 0.83740234
vt 0.14733887 0.83740234
vt 0.17419434 0.8642578
vt 0.14733887 0.8642578
vn -0 -1 0
vn -0 -1 0
vn -0 -1 0
vn -0 -1 0
vn -0 -1 0
vn -0 -1 0
vn -0 -1 0
vn -0 -1 0
vn -0 -1 0
vn -0 -1 0
vn -0 -1 0
vn -0 -1 0
vn -0 1 0
vn -0 1 0
vn -0 1 0
vn -0 1 0
vn -0 1 0
vn -0 1 0
vn -0 1 0
vn -0 1 0
vn -0 1 0
vn -0 1 0
vn -0 1 0
vn -0 1 0
vn -0 0 1
vn -0 0 1
vn -0 0 1
vn -0 0 1
vn -0 0 1
vn -0 0 1
vn -0 0 1
vn -0 0 1
vn -0 0 1
vn -0 0 1
vn -0 0 1
vn -0 0 1
vn -0 0 -1
vn -0 0 -1
vn -0 0 -1
vn -0 0 -1
vn -0 0 -1
vn -0 0 -1
vn -0 0 -1
vn -0 0 -1
vn -0 0 -1
vn -0 0 -1
vn -0 0 -1
vn -0 0 -1
vn -0 -1 0
vn -0 -1 0
vn -0 -1 0
vn -0 -1 0
vn -0 -1 0
vn -0 -1 0
vn -0 -1 0
vn -0 -1 0
vn -6.556511E-07 0 -1
vn -6.556511E-07 0 -1
vn -6.556511E-07 0 -1
vn -6.556511E-07 0 -1
vn -0 0 -1
vn -0 0 -1
vn -0 -1 0
vn -0 -1 0
vn -0 -1 0
vn -0 -1 0
vn -0 -1 0
vn -0 -1 0
vn -0 0 1
vn -0 0 1
vn -0 0 1
vn -0 0 1
vn -0 0 1
vn -0 0 1
vn -0 0 1
vn -0 0 1
vn -0 1 0
vn -0 1 0
vn -0 1 0
vn -0 1 0
vn -0 1 0
vn -0 1 0
vn -0 0 1
vn -0 0 1
vn -0 0 1
vn -0 0 1
vn -0 0 1
vn -0 0 1
vn -0 0 -1
vn -0 0 -1
vn -0 0 -1
vn -0 0 -1
vn -0 0 -1
vn -0 0 -1
vn -0 0 -1
vn -0 0 -1
vn -0 1 0
vn -0 1 0
vn -0 1 0
vn -0 1 0
vn -0 1 0
vn -0 1 0
vn -0 1 0
vn -0 1 0
vn -1 0 0
vn -1 0 0
vn -1 0 0
vn -1 0 0
vn -1 0 0
vn -1 0 0
vn -1 0 0
vn -1 0 0
vn -1 0 0
vn -1 0 0
vn -1 0 0
vn -1 0 0
vn -1 0 0
vn -1 0 0
vn -1 0 0
vn -1 0 0
vn -1 0 0
vn -1 0 0
vn -1 0 0
vn -1 0 0
vn -1 0 0
vn -1 0 0
vn -1 0 0
vn -1 0 0
vn -1 0 0
vn -1 0 0
vn -1 0 0
vn -1 0 0
vn -1 0 0
vn -1 0 0
vn -1 0 0
vn -1 0 0
vn 1 0 0
vn 1 0 0
vn 1 0 0
vn 1 0 0
vn 1 0 0
vn 1 0 0
vn 1 0 0
vn 1 0 0
vn 1 0 0
vn 1 0 0
vn 1 0 0
vn 1 0 0
vn 1 0 0
vn 1 0 0
vn 1 0 0
vn 1 0 0
vn 1 0 0
vn 1 0 0
vn 1 0 0
vn 1 0 0
vn 1 0 0
vn 1 0 0
vn 1 0 0
vn 1 0 0
vn 1 0 0
vn 1 0 0
vn 1 0 0
vn 1 0 0
vn 1 0 0
vn 1 0 0
vn 1 0 0
vn 1 0 0
vn 1 0 0
vn 1 0 0
vn 1 0 0
vn 1 0 0
vn -1 0 0
vn -1 0 0
vn -1 0 0
vn -1 0 0
vn -1 0 0
vn -1 0 0
vn -1 0 0
vn -1 0 0
vn -1 0 0
vn -1 0 0
vn -1 0 0
vn -1 0 0
vn -1 0 0
vn -1 0 0
vn -1 0 0
vn -1 0 -1.1920929E-07
g SM_DoubleDoor_00_Left_0
f 3/3/3 2/2/2 1/1/1
f 4/4/4 3/3/3 1/1/1
f 4/4/4 1/1/1 5/5/5
f 6/6/6 4/4/4 5/5/5
f 6/6/6 5/5/5 7/7/7
f 8/8/8 6/6/6 7/7/7
f 8/8/8 7/7/7 9/9/9
f 10/10/10 8/8/8 9/9/9
f 10/10/10 9/9/9 11/11/11
f 12/12/12 10/10/10 11/11/11
f 15/15/15 14/14/14 13/13/13
f 16/16/16 15/15/15 13/13/13
f 16/16/16 13/13/13 17/17/17
f 18/18/18 16/16/16 17/17/17
f 18/18/18 17/17/17 19/19/19
f 20/20/20 18/18/18 19/19/19
f 20/20/20 19/19/19 21/21/21
f 22/22/22 20/20/20 21/21/21
f 22/22/22 21/21/21 23/23/23
f 24/24/24 22/22/22 23/23/23
f 27/27/27 26/26/26 25/25/25
f 28/28/28 27/27/27 25/25/25
f 28/28/28 25/25/25 29/29/29
f 30/30/30 28/28/28 29/29/29
f 30/30/30 29/29/29 31/31/31
f 32/32/32 30/30/30 31/31/31
f 32/32/32 31/31/31 33/33/33
f 34/34/34 32/32/32 33/33/33
f 34/34/34 33/33/33 35/35/35
f 36/36/36 34/34/34 35/35/35
f 39/39/39 38/38/38 37/37/37
f 40/40/40 39/39/39 37/37/37
f 40/40/40 37/37/37 41/41/41
f 42/42/42 40/40/40 41/41/41
f 42/42/42 41/41/41 43/43/43
f 44/44/44 42/42/42 43/43/43
f 44/44/44 43/43/43 45/45/45
f 46/46/46 44/44/44 45/45/45
f 46/46/46 45/45/45 47/47/47
f 48/48/48 46/46/46 47/47/47
f 51/51/51 50/50/50 49/49/49
f 50/50/50 52/52/52 49/49/49
f 49/49/49 52/52/52 53/53/53
f 52/52/52 54/54/54 53/53/53
f 53/53/53 54/54/54 55/55/55
f 54/54/54 56/56/56 55/55/55
f 59/59/59 58/58/58 57/57/57
f 58/58/58 60/60/60 57/57/57
f 58/58/58 61/61/61 60/60/60
f 61/61/61 62/62/62 60/60/60
f 65/65/65 64/64/64 63/63/63
f 64/64/64 66/66/66 63/63/63
f 64/64/64 67/67/67 66/66/66
f 67/67/67 68/68/68 66/66/66
f 71/71/71 70/70/70 69/69/69
f 70/70/70 72/72/72 69/69/69
f 69/69/69 72/72/72 73/73/73
f 72/72/72 74/74/74 73/73/73
f 73/73/73 74/74/74 75/75/75
f 74/74/74 76/76/76 75/75/75
f 79/79/79 78/78/78 77/77/77
f 78/78/78 80/80/80 77/77/77
f 78/78/78 81/81/81 80/80/80
f 81/81/81 82/82/82 80/80/80
f 85/85/85 84/84/84 83/83/83
f 84/84/84 86/86/86 83/83/83
f 84/84/84 87/87/87 86/86/86
f 87/87/87 88/88/88 86/86/86
f 91/91/91 90/90/90 89/89/89
f 92/92/92 91/91/91 89/89/89
f 93/93/93 91/91/91 92/92/92
f 94/94/94 93/93/93 92/92/92
f 95/95/95 93/93/93 94/94/94
f 96/96/96 95/95/95 94/94/94
f 99/99/99 98/98/98 97/97/97
f 98/98/98 100/100/100 97/97/97
f 97/97/97 100/100/100 101/101/101
f 100/100/100 102/102/102 101/101/101
f 101/101/101 102/102/102 103/103/103
f 102/102/102 104/104/104 103/103/103
f 107/107/107 106/106/106 105/105/105
f 108/108/108 107/107/107 105/105/105
f 108/108/108 105/105/105 109/109/109
f 110/110/110 107/107/107 108/108/108
f 111/111/111 108/108/108 109/109/109
f 112/112/112 110/110/110 108/108/108
f 111/111/111 109/109/109 113/113/113
f 114/114/114 110/110/110 112/112/112
f 115/115/115 111/111/111 113/113/113
f 116/116/116 114/114/114 112/112/112
f 115/115/115 113/113/113 117/117/117
f 118/118/118 114/114/114 116/116/116
f 119/119/119 115/115/115 117/117/117
f 119/119/119 117/117/117 120/120/120
f 121/121/121 119/119/119 120/120/120
f 122/122/122 119/119/119 121/121/121
f 123/123/123 122/122/122 121/121/121
f 124/124/124 122/122/122 123/123/123
f 125/125/125 124/124/124 123/123/123
f 126/126/126 118/118/118 116/116/116
f 127/127/127 118/118/118 126/126/126
f 128/128/128 127/127/127 126/126/126
f 128/128/128 126/126/126 129/129/129
f 130/130/130 128/128/128 129/129/129
f 130/130/130 129/129/129 131/131/131
f 132/132/132 130/130/130 131/131/131
f 133/133/133 124/124/124 125/125/125
f 132/132/132 131/131/131 133/133/133
f 134/134/134 133/133/133 125/125/125
f 135/135/135 132/132/132 133/133/133
f 135/135/135 133/133/133 134/134/134
f 136/136/136 135/135/135 134/134/134
f 139/139/139 138/138/138 137/137/137
f 138/138/138 140/140/140 137/137/137
f 137/137/137 140/140/140 141/141/141
f 138/138/138 142/142/142 140/140/140
f 140/140/140 143/143/143 141/141/141
f 141/141/141 143/143/143 144/144/144
f 142/142/142 145/145/145 140/140/140
f 140/140/140 145/145/145 143/143/143
f 142/142/142 146/146/146 145/145/145
f 143/143/143 147/147/147 144/144/144
f 144/144/144 147/147/147 148/148/148
f 146/146/146 149/149/149 145/145/145
f 146/146/146 150/150/150 149/149/149
f 145/145/145 151/151/151 143/143/143
f 143/143/143 151/151/151 147/147/147
f 145/145/145 149/149/149 151/151/151
f 147/147/147 152/152/152 148/148/148
f 148/148/148 152/152/152 153/153/153
f 152/152/152 154/154/154 153/153/153
f 151/151/151 155/155/155 147/147/147
f 147/147/147 155/155/155 152/152/152
f 149/149/149 156/156/156 151/151/151
f 150/150/150 157/157/157 149/149/149
f 149/149/149 157/157/157 156/156/156
f 150/150/150 158/158/158 157/157/157
f 158/158/158 159/159/159 157/157/157
f 152/152/152 160/160/160 154/154/154
f 155/155/155 160/160/160 152/152/152
f 160/160/160 161/161/161 154/154/154
f 155/155/155 162/162/162 160/160/160
f 157/157/157 163/163/163 156/156/156
f 157/157/157 159/159/159 163/163/163
f 156/156/156 163/163/163 162/162/162
f 159/159/159 164/164/164 163/163/163
f 160/160/160 165/165/165 161/161/161
f 162/162/162 165/165/165 160/160/160
f 165/165/165 166/166/166 161/161/161
f 163/163/163 164/164/164 167/167/167
f 163/163/163 167/167/167 162/162/162
f 162/162/162 167/167/167 165/165/165
f 164/164/164 168/168/168 167/167/167
f 165/165/165 169/169/169 166/166/166
f 167/167/167 169/169/169 165/165/165
f 167/167/167 168/168/168 169/169/169
f 169/169/169 170/170/170 166/166/166
f 168/168/168 171/171/171 169/169/169
f 169/169/169 171/171/171 170/170/170
f 171/171/171 172/172/172 170/170/170
f 175/175/175 174/174/174 173/173/173
f 174/174/174 176/176/176 173/173/173
f 173/173/173 176/176/176 177/177/177
f 174/174/174 178/178/178 176/176/176
f 176/176/176 179/179/179 177/177/177
f 177/177/177 179/179/179 180/180/180
f 179/179/179 181/181/181 180/180/180
f 178/178/178 182/182/182 176/176/176
f 178/178/178 183/183/183 182/182/182
f 183/183/183 184/184/184 182/182/182
f 179/179/179 185/185/185 181/181/181
f 182/182/182 184/184/184 185/185/185
f 185/185/185 186/186/186 181/181/181
f 184/184/184 187/187/187 185/185/185
f 185/185/185 187/187/187 186/186/186
f 187/187/187 188/188/188 186/186/186
