g SM_DoorSimple00
v 0.08321619 0.89720726 -1.6527977
v 0.08321619 2.8942165 -1.6527977
v -0.08321667 2.8942165 -1.6527977
v -0.08321667 0.89720726 -1.6527977
v 0.08321619 0 -1.6527977
v -0.08321667 0 -1.6527977
v 0.08321619 0.89720726 0
v -0.08321667 2.8942165 0
v 0.08321619 2.8942165 0
v -0.08321667 0.89720726 0
v 0.08321619 0 0
v -0.08321667 0 0
v -0.08321667 2.8942165 -1.6527977
v -0.08321667 2.8942165 0
v -0.08321667 0.89720726 0
v -0.08321667 0.89720726 -1.6527977
v -0.08321667 0 0
v -0.08321667 0 -1.6527977
v -0.08321667 0 -1.6527977
v -0.08321667 0 0
v 0.08321619 0 0
v 0.08321619 0 -1.6527977
v 0.08321619 2.8942165 -1.6527977
v 0.08321619 2.8942165 0
v -0.08321667 2.8942165 0
v -0.08321667 2.8942165 -1.6527977
v 0.08321619 0 -1.6527977
v 0.08321619 0 0
v 0.08321619 0.89720726 0
v 0.08321619 0.89720726 -1.6527977
v 0.08321619 2.8942165 0
v 0.08321619 2.8942165 -1.6527977
vt 0.82714844 0.47753906
vt 0.82714844 0.96728516
vt 0.82714844 0.96728516
vt 0.82714844 0.47753906
vt 0.82714844 0.25756836
vt 0.82714844 0.25756836
vt 0.19482422 0.47753906
vt 0.19482422 0.96728516
vt 0.19482422 0.96728516
vt 0.19482422 0.47753906
vt 0.19482422 0.25756836
vt 0.19482422 0.25756836
vt 0.82714844 0.96728516
vt 0.19482422 0.96728516
vt 0.19482422 0.47753906
vt 0.82714844 0.47753906
vt 0.19482422 0.25756836
vt 0.82714844 0.25756836
vt 0.82714844 0.25756836
vt 0.19482422 0.25756836
vt 0.19482422 0.25756836
vt 0.82714844 0.25756836
vt 0.82714844 0.96728516
vt 0.19482422 0.96728516
vt 0.19482422 0.96728516
vt 0.82714844 0.96728516
vt 0.82714844 0.25756836
vt 0.19482422 0.25756836
vt 0.19482422 0.47753906
vt 0.82714844 0.47753906
vt 0.19482422 0.96728516
vt 0.82714844 0.96728516
vn -0 0 -1
vn -0 0 -1
vn -0 0 -1
vn -0 0 -1
vn -0 0 -1
vn -0 0 -1
vn -0 0 1
vn -0 0 1
vn -0 0 1
vn -0 0 1
vn -0 0 1
vn -0 0 1
vn -1 0 0
vn -1 0 0
vn -1 0 0
vn -1 0 0
vn -1 0 0
vn -1 0 0
vn -0 -1 0
vn -0 -1 0
vn -0 -1 0
vn -0 -1 0
vn -0 1 0
vn -0 1 0
vn -0 1 0
vn -0 1 0
vn 1 0 0
vn 1 0 0
vn 1 0 0
vn 1 0 0
vn 1 0 0
vn 1 0 0
g SM_DoorSimple00_0
f 3/3/3 2/2/2 1/1/1
f 4/4/4 3/3/3 1/1/1
f 4/4/4 1/1/1 5/5/5
f 6/6/6 4/4/4 5/5/5
f 9/9/9 8/8/8 7/7/7
f 8/8/8 10/10/10 7/7/7
f 7/7/7 10/10/10 11/11/11
f 10/10/10 12/12/12 11/11/11
f 15/15/15 14/14/14 13/13/13
f 16/16/16 15/15/15 13/13/13
f 17/17/17 15/15/15 16/16/16
f 18/18/18 17/17/17 16/16/16
f 21/21/21 20/20/20 19/19/19
f 22/22/22 21/21/21 19/19/19
f 25/25/25 24/24/24 23/23/23
f 26/26/26 25/25/25 23/23/23
f 29/29/29 28/28/28 27/27/27
f 30/30/30 29/29/29 27/27/27
f 31/31/31 29/29/29 30/30/30
f 32/32/32 31/31/31 30/30/30
