g SM_elevator02
v 1.555954 5.6929965 -2.1455383
v 1.5578766 6.5538044 -2.1462708
v 1.1899567 6.5553164 -2.0058746
v 1.188034 5.694494 -2.0051422
v 1.5540543 0.81168365 -2.144806
v 0.6005762 5.696884 -1.780969
v 0.6024989 6.5577316 -1.7817014
v -1.625677 5.705942 -0.9314333
v -1.6237544 6.5668826 -0.93216574
v 1.1861343 0.8129387 -2.0044098
v -2.2131348 5.7083316 -0.70726013
v 1.5516129 -0.0070610046 -2.1438751
v 1.1836929 -0.0058059692 -2.003479
v -2.2112122 6.569298 -0.70799255
v -2.579132 6.5708103 -0.56759644
v -2.5810547 5.709829 -0.566864
v -2.217476 0.0058021545 -0.70562744
v -2.2150345 0.8245468 -0.7065582
v -2.5829544 0.82580185 -0.5661621
v -2.5853958 0.00705719 -0.5652313
v 2.5878448 0.81168747 0.5643158
v 2.5854034 -0.00705719 0.5652466
v 2.2174835 -0.0058021545 0.7056427
v 2.219925 0.8129425 0.7047119
v 2.2218246 5.694494 0.70399475
v -1.1812439 0.8245506 2.0025635
v -1.1836853 0.0058059692 2.0034943
v -1.5516052 0.0070610046 2.1438904
v -1.5491638 0.82580566 2.1429596
v -1.5472565 5.709829 2.1422577
v -1.1793442 5.7083316 2.0018616
v -1.5453339 6.5708103 2.1415253
v -1.1774216 6.569298 2.0011292
v -0.591888 5.705942 1.7776916
v -0.5899654 6.5668826 1.7769592
v 1.6343685 5.696884 0.9281647
v 1.6362911 6.5577316 0.9274323
v 2.5897446 5.6929965 0.56359863
v 2.2237473 6.5553164 0.7032623
v 2.5916672 6.5538044 0.5628662
v -2.39844 6.5708103 -0.09408312
v -2.579132 6.5708103 -0.56759644
v -2.2112122 6.569298 -0.70799255
v -2.0305216 6.569298 -0.23447995
v -1.7260259 6.5708103 1.6680119
v -1.4430636 6.5668826 -0.45865184
v -1.6237544 6.5668826 -0.93216574
v -1.358112 6.569298 1.5276165
v -1.5453339 6.5708103 2.1415253
v -1.1774216 6.569298 2.0011292
v -0.5899654 6.5668826 1.7769592
v 0.78319114 6.5577316 -1.3081831
v -0.77065593 6.5668826 1.3034452
v 1.6362911 6.5577316 0.9274323
v 1.4555988 6.5577316 0.45391417
v 0.6024989 6.5577316 -1.7817014
v 2.2237473 6.5553164 0.7032623
v 1.3706487 6.5553164 -1.532355
v 1.1899567 6.5553164 -2.0058746
v 1.5578766 6.5538044 -2.1462708
v 1.7385687 6.5538044 -1.6727511
v 2.043055 6.5553164 0.22974277
v 2.410975 6.5538044 0.08934665
v 2.5916672 6.5538044 0.5628662
v -2.2150345 0.8245468 -0.7065582
v -2.0732763 5.7083316 -0.34075087
v -2.2131348 5.7083316 -0.70726013
v -2.075176 0.82454735 -0.34004897
v -1.3192027 5.7083316 1.6353523
v -1.3211024 0.8245501 1.6360542
v -1.1793442 5.7083316 2.0018616
v -1.1812439 0.8245506 2.0025635
v -1.5491638 0.82580566 2.1429596
v -1.5516052 0.0070610046 2.1438904
v -1.7322956 0.0070603373 1.6703777
v -1.7298542 0.82580495 1.669447
v -1.7279485 5.709829 1.6687443
v -1.5472565 5.709829 2.1422577
v -2.4022639 0.8258025 -0.09264951
v -2.4047053 0.007057857 -0.091718726
v -2.5853958 0.00705719 -0.5652313
v -2.5829544 0.82580185 -0.5661621
v -2.5810547 5.709829 -0.566864
v -2.4003625 5.709829 -0.0933507
v -2.579132 6.5708103 -0.56759644
v -2.39844 6.5708103 -0.09408312
v -1.7260259 6.5708103 1.6680119
v -1.5453339 6.5708103 2.1415253
v -1.1836853 0.0058059692 2.0034943
v -1.7322956 0.0070603373 1.6703777
v -1.5516052 0.0070610046 2.1438904
v -1.3643757 0.005805302 1.5299816
v -2.4047053 0.007057857 -0.091718726
v 2.036793 -0.0058028214 0.2321301
v 2.2174835 -0.0058021545 0.7056427
v 2.5854034 -0.00705719 0.5652466
v 2.404713 -0.007057857 0.091733985
v -2.0367854 0.0058028214 -0.23211484
v -2.5853958 0.00705719 -0.5652313
v -2.217476 0.0058021545 -0.70562744
v 1.1836929 -0.0058059692 -2.003479
v 1.3643833 -0.005805302 -1.5299664
v 1.7323033 -0.0070603373 -1.6703625
v 1.5516129 -0.0070610046 -2.1438751
v 1.1861343 0.8129387 -2.0044098
v -2.075176 0.82454735 -0.34004897
v -2.2150345 0.8245468 -0.7065582
v 1.3259928 0.8129392 -1.6379005
v -1.3211024 0.8245501 1.6360542
v 2.0800664 0.81294197 0.33820266
v -1.1812439 0.8245506 2.0025635
v 2.219925 0.8129425 0.7047119
v -1.3192027 5.7083316 1.6353523
v -1.1793442 5.7083316 2.0018616
v -0.591888 5.705942 1.7776916
v -0.7317467 5.705942 1.411181
v -2.0732763 5.7083316 -0.34075087
v 1.4945081 5.696884 0.56164986
v -1.4858183 5.705942 -0.5649229
v 1.6343685 5.696884 0.9281647
v 2.2218246 5.694494 0.70399475
v 2.0819643 5.694494 0.33747864
v -2.2131348 5.7083316 -0.70726013
v -1.625677 5.705942 -0.9314333
v 0.74043643 5.696884 -1.4144541
v 0.6005762 5.696884 -1.780969
v 1.3278944 5.694494 -1.6386261
v 1.188034 5.694494 -2.0051422
v 1.7385687 6.5538044 -1.6727511
v 1.5578766 6.5538044 -2.1462708
v 1.555954 5.6929965 -2.1455383
v 1.736646 5.6929965 -1.6720186
v 2.410975 6.5538044 0.08934665
v 1.5540543 0.81168365 -2.144806
v 2.4090524 5.6929965 0.09007907
v 2.5916672 6.5538044 0.5628662
v 2.5897446 5.6929965 0.56359863
v 1.7347447 0.8116843 -1.6712933
v 2.4071543 0.81168675 0.0908032
v 2.5878448 0.81168747 0.5643158
v 2.5854034 -0.00705719 0.5652466
v 2.404713 -0.007057857 0.091733985
v 1.7323033 -0.0070603373 -1.6703625
v 1.5516129 -0.0070610046 -2.1438751
v 0.74043643 5.696884 -1.4144541
v 0.78319114 6.5577316 -1.3081831
v 1.4555988 6.5577316 0.45391417
v 1.4945081 5.696884 0.56164986
v 1.188034 5.694494 -2.0051422
v 1.3259928 0.8129392 -1.6379005
v 1.1861343 0.8129387 -2.0044098
v 1.3278944 5.694494 -1.6386261
v 2.0800664 0.81294197 0.33820266
v 2.0819643 5.694494 0.33747864
v 2.219925 0.8129425 0.7047119
v 2.2218246 5.694494 0.70399475
v 1.4945081 5.696884 0.56164986
v 1.4555988 6.5577316 0.45391417
v -0.77065593 6.5668826 1.3034452
v -0.7317467 5.705942 1.411181
v -1.4858183 5.705942 -0.5649229
v -1.4430636 6.5668826 -0.45865184
v 0.78319114 6.5577316 -1.3081831
v 0.74043643 5.696884 -1.4144541
v -0.7317467 5.705942 1.411181
v -0.77065593 6.5668826 1.3034452
v -1.4430636 6.5668826 -0.45865184
v -1.4858183 5.705942 -0.5649229
v 1.4823456 3.1353836 -1.0929718
v 1.47892 2.539566 -1.093811
v 1.3972702 2.540474 -1.3939209
v 1.4006805 3.1362915 -1.3930817
v 1.5162201 3.135231 -1.1038055
v 1.434555 3.136139 -1.4039154
v 1.4311295 2.5403214 -1.4047546
v 1.5127945 2.5394135 -1.1046448
v 1.4006805 3.1362915 -1.3930817
v 1.434555 3.136139 -1.4039154
v 1.5162201 3.135231 -1.1038055
v 1.4823456 3.1353836 -1.0929718
v 1.4823456 3.1353836 -1.0929718
v 1.5162201 3.135231 -1.1038055
v 1.5127945 2.5394135 -1.1046448
v 1.47892 2.539566 -1.093811
v 1.47892 2.539566 -1.093811
v 1.5127945 2.5394135 -1.1046448
v 1.4311295 2.5403214 -1.4047546
v 1.3972702 2.540474 -1.3939209
v 1.3972702 2.540474 -1.3939209
v 1.4311295 2.5403214 -1.4047546
v 1.434555 3.136139 -1.4039154
v 1.4006805 3.1362915 -1.3930817
vt 0.37280273 0.23449707
vt 0.37280273 0.24194336
vt 0.37963867 0.24194336
vt 0.37963867 0.23449707
vt 0.37280273 0.1920166
vt 0.390625 0.23449707
vt 0.39038086 0.24194336
vt 0.43188477 0.23449707
vt 0.43188477 0.24206543
vt 0.37963867 0.19213867
vt 0.4428711 0.23461914
vt 0.37280273 0.18493652
vt 0.37963867 0.18493652
vt 0.4428711 0.24206543
vt 0.44970703 0.24206543
vt 0.44970703 0.23461914
vt 0.4428711 0.1850586
vt 0.4428711 0.19213867
vt 0.44970703 0.19213867
vt 0.44970703 0.1850586
vt 0.44970703 0.23022461
vt 0.44970703 0.23730469
vt 0.45654297 0.23730469
vt 0.45654297 0.23010254
vt 0.45654297 0.18774414
vt 0.51953125 0.23010254
vt 0.51953125 0.23718262
vt 0.5263672 0.23718262
vt 0.5263672 0.23010254
vt 0.5263672 0.18762207
vt 0.51953125 0.18762207
vt 0.5263672 0.18017578
vt 0.51953125 0.18017578
vt 0.50878906 0.18774414
vt 0.50878906 0.18017578
vt 0.4675293 0.18774414
vt 0.4675293 0.18029785
vt 0.44970703 0.18774414
vt 0.45654297 0.18029785
vt 0.44970703 0.18029785
vt 0.5859375 0.18493652
vt 0.57714844 0.18493652
vt 0.57714844 0.18835449
vt 0.5859375 0.18835449
vt 0.61865234 0.18493652
vt 0.5859375 0.19384766
vt 0.57714844 0.19384766
vt 0.61865234 0.18835449
vt 0.6274414 0.18493652
vt 0.6274414 0.18835449
vt 0.6274414 0.19384766
vt 0.5859375 0.21447754
vt 0.61865234 0.19384766
vt 0.6274414 0.21447754
vt 0.61865234 0.21447754
vt 0.57714844 0.21447754
vt 0.6274414 0.2199707
vt 0.5859375 0.2199707
vt 0.57714844 0.2199707
vt 0.57714844 0.22338867
vt 0.5859375 0.22338867
vt 0.61865234 0.2199707
vt 0.61865234 0.22338867
vt 0.6274414 0.22338867
vt 0.4230957 0.23730469
vt 0.41625977 0.27978516
vt 0.4230957 0.27978516
vt 0.41625977 0.23730469
vt 0.37963867 0.27978516
vt 0.37963867 0.23730469
vt 0.37280273 0.27978516
vt 0.37280273 0.23730469
vt 0.5263672 0.23010254
vt 0.5263672 0.23718262
vt 0.53515625 0.23718262
vt 0.53515625 0.23010254
vt 0.53515625 0.18762207
vt 0.5263672 0.18762207
vt 0.5683594 0.23010254
vt 0.5683594 0.23718262
vt 0.57714844 0.23718262
vt 0.57714844 0.23010254
vt 0.57714844 0.18762207
vt 0.5683594 0.18762207
vt 0.57714844 0.18017578
vt 0.5683594 0.18017578
vt 0.53515625 0.18017578
vt 0.5263672 0.18017578
vt 0.57714844 0.24060059
vt 0.5859375 0.23718262
vt 0.57714844 0.23718262
vt 0.5859375 0.24060059
vt 0.61865234 0.23718262
vt 0.5859375 0.2722168
vt 0.57714844 0.2722168
vt 0.57714844 0.27563477
vt 0.5859375 0.27563477
vt 0.61865234 0.24060059
vt 0.6274414 0.23718262
vt 0.6274414 0.24060059
vt 0.6274414 0.2722168
vt 0.61865234 0.2722168
vt 0.61865234 0.27563477
vt 0.6274414 0.27563477
vt 0.4230957 0.27978516
vt 0.41625977 0.3112793
vt 0.4230957 0.3112793
vt 0.41625977 0.27978516
vt 0.37963867 0.3112793
vt 0.37963867 0.27978516
vt 0.37280273 0.3112793
vt 0.37280273 0.27978516
vt 0.45654297 0.27954102
vt 0.44970703 0.27954102
vt 0.44970703 0.28515625
vt 0.45654297 0.28515625
vt 0.49316406 0.27954102
vt 0.45654297 0.3059082
vt 0.49316406 0.28515625
vt 0.44970703 0.3059082
vt 0.44970703 0.3112793
vt 0.45654297 0.3112793
vt 0.5 0.27954102
vt 0.5 0.28515625
vt 0.49316406 0.3059082
vt 0.5 0.3059082
vt 0.49316406 0.3112793
vt 0.5 0.3112793
vt 0.5683594 0.29418945
vt 0.57714844 0.29418945
vt 0.57714844 0.2866211
vt 0.5683594 0.2866211
vt 0.53515625 0.29418945
vt 0.57714844 0.2442627
vt 0.53515625 0.2866211
vt 0.5263672 0.29418945
vt 0.5263672 0.2866211
vt 0.5683594 0.2442627
vt 0.53515625 0.2442627
vt 0.5263672 0.2442627
vt 0.5263672 0.23718262
vt 0.53515625 0.23718262
vt 0.5683594 0.23718262
vt 0.57714844 0.23718262
vt 0.9741211 0.42700195
vt 0.93847656 0.57128906
vt 0.34692383 0.57128906
vt 0.31079102 0.42700195
vt 0.44970703 0.27954102
vt 0.45654297 0.23730469
vt 0.44970703 0.23730469
vt 0.45654297 0.27954102
vt 0.49316406 0.23730469
vt 0.49316406 0.27954102
vt 0.5 0.23730469
vt 0.5 0.27954102
vt 0.9995117 0.42700195
vt 0.9868164 0.57128906
vt 0.23962402 0.5727539
vt 0.25268555 0.4284668
vt -0.00032258034 0.4284668
vt 0.014022827 0.5727539
vt 0.76123047 0.57128906
vt 0.74658203 0.42700195
vt 0.02583313 0.4284668
vt 0.0619812 0.5727539
vt 0.6533203 0.5727539
vt 0.68896484 0.4284668
vt -0.030822754 0.99658203
vt -0.030822754 -0.0067749023
vt -1.0429688 -0.0067749023
vt -1.0429688 0.99658203
vt -0.030822754 0.99658203
vt 0.98095703 0.99658203
vt 0.98095703 -0.0067825317
vt -0.030822754 -0.0067825317
vt -1.2158203 -0.048706055
vt -1.3027344 -0.048706055
vt -1.3027344 0.47387695
vt -1.2158203 0.47387695
vt -1.0185547 0.99658203
vt -0.9326172 0.99658203
vt -0.9326172 -0.0067749023
vt -1.0185547 -0.0067749023
vt -1.3027344 0.99658203
vt -1.2158203 0.99658203
vt -1.2158203 0.47387695
vt -1.3027344 0.47387695
vt -1.1289062 -0.006790161
vt -1.2158203 -0.006790161
vt -1.2158203 0.99658203
vt -1.1289062 0.99658203
vn -0.3564453 1.2516975E-06 -0.93408203
vn -0.3564453 1.2516975E-06 -0.93408203
vn -0.3564453 1.2516975E-06 -0.93408203
vn -0.3564453 1.2516975E-06 -0.93408203
vn -0.3564453 7.1525574E-07 -0.93408203
vn -0.3564453 1.3113022E-06 -0.93408203
vn -0.3564453 1.3113022E-06 -0.93408203
vn -0.3564453 1.3709068E-06 -0.93408203
vn -0.3564453 1.3709068E-06 -0.93408203
vn -0.3564453 7.1525574E-07 -0.93408203
vn -0.3564453 4.4107437E-06 -0.93408203
vn -0.3564453 7.1525574E-07 -0.93408203
vn -0.3564453 7.1525574E-07 -0.93408203
vn -0.3564453 1.3709068E-06 -0.93408203
vn -0.3564453 1.3709068E-06 -0.93408203
vn -0.3564453 4.4107437E-06 -0.93408203
vn -0.3564453 9.536743E-07 -0.93408203
vn -0.3564453 4.4107437E-06 -0.93408203
vn -0.3564453 4.4107437E-06 -0.93408203
vn -0.3564453 9.536743E-07 -0.93408203
vn 0.3564453 -9.536743E-07 0.93408203
vn 0.3564453 -9.536743E-07 0.93408203
vn 0.3564453 -9.536743E-07 0.93408203
vn 0.3564453 -9.536743E-07 0.93408203
vn 0.3564453 -1.4901161E-06 0.93408203
vn 0.3564453 -4.6491623E-06 0.93408203
vn 0.3564453 -9.536743E-07 0.93408203
vn 0.3564453 -9.536743E-07 0.93408203
vn 0.3564453 -4.6491623E-06 0.93408203
vn 0.3564453 -4.6491623E-06 0.93408203
vn 0.3564453 -4.6491623E-06 0.93408203
vn 0.3564453 -1.3709068E-06 0.93408203
vn 0.3564453 -1.3709068E-06 0.93408203
vn 0.3564453 -1.3113022E-06 0.93408203
vn 0.3564453 -1.3113022E-06 0.93408203
vn 0.3564453 -1.3113022E-06 0.93408203
vn 0.3564453 -1.3113022E-06 0.93408203
vn 0.3564453 -1.4901161E-06 0.93408203
vn 0.3564453 -1.3709068E-06 0.93408203
vn 0.3564453 -1.3709068E-06 0.93408203
vn 0.0035877228 1 -0.0013694763
vn 0.0035877228 1 -0.0013694763
vn 0.0035877228 1 -0.0013694763
vn 0.0035877228 1 -0.0013694763
vn 0.0035896301 1 -0.0013694763
vn 0.0035896301 1 -0.0013694763
vn 0.0035896301 1 -0.0013694763
vn 0.0035877228 1 -0.0013694763
vn 0.0035896301 1 -0.0013694763
vn 0.0035877228 1 -0.0013694763
vn 0.0035877228 1 -0.0013694763
vn 0.0035896301 1 -0.0013694763
vn 0.0035877228 1 -0.0013694763
vn 0.0035877228 1 -0.0013694763
vn 0.0035877228 1 -0.0013694763
vn 0.0035896301 1 -0.0013694763
vn 0.0035877228 1 -0.0013694763
vn 0.0035877228 1 -0.0013694763
vn 0.0035877228 1 -0.0013694763
vn 0.0035877228 1 -0.0013694763
vn 0.0035877228 1 -0.0013694763
vn 0.0035877228 1 -0.0013694763
vn 0.0035877228 1 -0.0013694763
vn 0.0035877228 1 -0.0013694763
vn 0.93408203 -0.0004146099 -0.3564453
vn 0.93408203 -0.0004146099 -0.3564453
vn 0.93408203 -0.0004146099 -0.3564453
vn 0.93408203 -0.0004146099 -0.3564453
vn 0.93408203 -0.0004146099 -0.3564453
vn 0.93408203 -0.0004146099 -0.3564453
vn 0.93408203 -0.0004146099 -0.3564453
vn 0.93408203 -0.0004146099 -0.3564453
vn -0.93408203 0.00041604042 0.3564453
vn -0.93408203 0.0031909943 0.3564453
vn -0.93408203 0.0031909943 0.3564453
vn -0.93408203 0.00041604042 0.3564453
vn -0.93408203 0.00041604042 0.3564453
vn -0.93408203 0.00041604042 0.3564453
vn -0.93408203 0.00041484833 0.3564453
vn -0.93408203 0.0031909943 0.3564453
vn -0.93408203 0.0031909943 0.3564453
vn -0.93408203 0.00041484833 0.3564453
vn -0.93408203 0.00041484833 0.3564453
vn -0.93408203 0.00041484833 0.3564453
vn -0.93408203 0.0023899078 0.3564453
vn -0.93408203 0.0023899078 0.3564453
vn -0.93408203 0.0023899078 0.3564453
vn -0.93408203 0.0023899078 0.3564453
vn -0.0029773712 -1 0.0011377335
vn -0.0029773712 -1 0.0011377335
vn -0.0029773712 -1 0.0011377335
vn -0.0029773712 -1 0.0011377335
vn -0.0029773712 -1 0.0011377335
vn -0.0029792786 -1 0.0011377335
vn -0.0029792786 -1 0.0011377335
vn -0.0029773712 -1 0.0011377335
vn -0.0029773712 -1 0.0011377335
vn -0.0029792786 -1 0.0011377335
vn -0.0029773712 -1 0.0011377335
vn -0.0029792786 -1 0.0011377335
vn -0.0029792786 -1 0.0011377335
vn -0.0029792786 -1 0.0011377335
vn -0.0029773712 -1 0.0011377335
vn -0.0029773712 -1 0.0011377335
vn 0.0029792786 1 -0.0011377335
vn 0.0029792786 1 -0.0011377335
vn 0.0029792786 1 -0.0011377335
vn 0.0029792786 1 -0.0011377335
vn 0.0029792786 1 -0.0011377335
vn 0.0029792786 1 -0.0011377335
vn 0.0029792786 1 -0.0011377335
vn 0.0029792786 1 -0.0011377335
vn -0.0035514832 -1 0.0013551712
vn -0.0035514832 -1 0.0013551712
vn -0.0035514832 -1 0.0013551712
vn -0.0035514832 -1 0.0013551712
vn -0.0035514832 -1 0.0013551712
vn -0.0035514832 -1 0.0013551712
vn -0.0035514832 -1 0.0013551712
vn -0.0035514832 -1 0.0013551712
vn -0.0035514832 -1 0.0013551712
vn -0.0035514832 -1 0.0013551712
vn -0.0035514832 -1 0.0013551712
vn -0.0035514832 -1 0.0013551712
vn -0.0035514832 -1 0.0013551712
vn -0.0035514832 -1 0.0013551712
vn -0.0035514832 -1 0.0013551712
vn -0.0035514832 -1 0.0013551712
vn 0.93408203 -0.0023899078 -0.3564453
vn 0.93408203 -0.0023899078 -0.3564453
vn 0.93408203 -0.0004169941 -0.3564453
vn 0.93408203 -0.0004169941 -0.3564453
vn 0.93408203 -0.0023899078 -0.3564453
vn 0.93408203 -0.0004169941 -0.3564453
vn 0.93408203 -0.0023899078 -0.3564453
vn 0.93408203 -0.0023899078 -0.3564453
vn 0.93408203 -0.0023899078 -0.3564453
vn 0.93408203 -0.0004169941 -0.3564453
vn 0.93408203 -0.0031909943 -0.3564453
vn 0.93408203 -0.0031909943 -0.3564453
vn 0.93408203 -0.0031909943 -0.3564453
vn 0.93408203 -0.0031909943 -0.3564453
vn 0.93408203 -0.0031909943 -0.3564453
vn 0.93408203 -0.0031909943 -0.3564453
vn -0.93408203 0.0023899078 0.3564453
vn -0.93408203 0.0023899078 0.3564453
vn -0.93408203 0.0023899078 0.3564453
vn -0.93408203 0.0023899078 0.3564453
vn -0.93408203 0.0004169941 0.3564453
vn -0.93408203 0.0004169941 0.3564453
vn -0.93408203 0.0004169941 0.3564453
vn -0.93408203 0.0004169941 0.3564453
vn -0.93408203 0.00041604042 0.3564453
vn -0.93408203 0.00041604042 0.3564453
vn -0.93408203 0.00041604042 0.3564453
vn -0.93408203 0.00041604042 0.3564453
vn -0.35375977 -0.13183594 -0.92578125
vn -0.35375977 -0.13183594 -0.92578125
vn -0.35375977 -0.13183594 -0.92578125
vn -0.35375977 -0.13183594 -0.92578125
vn 0.35302734 -0.13183594 0.92626953
vn 0.35302734 -0.13183594 0.92626953
vn 0.35302734 -0.13183594 0.92626953
vn 0.35302734 -0.13183594 0.92626953
vn 0.93408203 -0.0023899078 -0.3564453
vn 0.93408203 -0.0023899078 -0.3564453
vn 0.93408203 -0.0023899078 -0.3564453
vn 0.93408203 -0.0023899078 -0.3564453
vn -0.96484375 0.0051651 0.26245117
vn -0.96484375 0.0051651 0.26245117
vn -0.96484375 0.0051651 0.26245117
vn -0.96484375 0.0051651 0.26245117
vn 0.96484375 -0.005176544 -0.2626953
vn 0.96484375 -0.005176544 -0.2626953
vn 0.96484375 -0.005176544 -0.2626953
vn 0.96484375 -0.005176544 -0.2626953
vn 0.005039215 1 0.0016555786
vn 0.005039215 1 0.0016555786
vn 0.005039215 1 0.0016555786
vn 0.005039215 1 0.0016555786
vn 0.3046875 -0.0030937195 0.9526367
vn 0.3046875 -0.0030937195 0.9526367
vn 0.3046875 -0.0030937195 0.9526367
vn 0.3046875 -0.0030937195 0.9526367
vn -0.0050315857 -1 -0.0016555786
vn -0.0050315857 -1 -0.0016555786
vn -0.0050315857 -1 -0.0016555786
vn -0.0050315857 -1 -0.0016555786
vn -0.3046875 0.0030899048 -0.9526367
vn -0.3046875 0.0030899048 -0.9526367
vn -0.3046875 0.0030899048 -0.9526367
vn -0.3046875 0.0030899048 -0.9526367
g SM_elevator02_0
f 3/3/3 2/2/2 1/1/1
f 4/4/4 3/3/3 1/1/1
f 4/4/4 1/1/1 5/5/5
f 3/3/3 4/4/4 6/6/6
f 7/7/7 3/3/3 6/6/6
f 6/6/6 8/8/8 7/7/7
f 8/8/8 9/9/9 7/7/7
f 10/10/10 4/4/4 5/5/5
f 9/9/9 8/8/8 11/11/11
f 5/5/5 12/12/12 10/10/10
f 12/12/12 13/13/13 10/10/10
f 14/14/14 9/9/9 11/11/11
f 15/15/15 14/14/14 11/11/11
f 16/16/16 15/15/15 11/11/11
f 13/13/13 17/17/17 10/10/10
f 16/16/16 11/11/11 18/18/18
f 17/17/17 18/18/18 10/10/10
f 19/19/19 16/16/16 18/18/18
f 18/18/18 17/17/17 19/19/19
f 17/17/17 20/20/20 19/19/19
f 23/23/23 22/22/22 21/21/21
f 24/24/24 23/23/23 21/21/21
f 25/25/25 24/24/24 21/21/21
f 23/23/23 24/24/24 26/26/26
f 27/27/27 23/23/23 26/26/26
f 28/28/28 27/27/27 26/26/26
f 29/29/29 28/28/28 26/26/26
f 30/30/30 29/29/29 26/26/26
f 31/31/31 30/30/30 26/26/26
f 32/32/32 30/30/30 31/31/31
f 33/33/33 32/32/32 31/31/31
f 31/31/31 34/34/34 33/33/33
f 34/34/34 35/35/35 33/33/33
f 35/35/35 34/34/34 36/36/36
f 37/37/37 35/35/35 36/36/36
f 36/36/36 25/25/25 37/37/37
f 38/38/38 25/25/25 21/21/21
f 25/25/25 39/39/39 37/37/37
f 39/39/39 25/25/25 38/38/38
f 40/40/40 39/39/39 38/38/38
f 43/43/43 42/42/42 41/41/41
f 44/44/44 43/43/43 41/41/41
f 41/41/41 45/45/45 44/44/44
f 43/43/43 44/44/44 46/46/46
f 47/47/47 43/43/43 46/46/46
f 45/45/45 48/48/48 44/44/44
f 44/44/44 48/48/48 46/46/46
f 48/48/48 45/45/45 49/49/49
f 50/50/50 48/48/48 49/49/49
f 48/48/48 50/50/50 51/51/51
f 46/46/46 52/52/52 47/47/47
f 48/48/48 53/53/53 46/46/46
f 53/53/53 48/48/48 51/51/51
f 51/51/51 54/54/54 53/53/53
f 54/54/54 55/55/55 53/53/53
f 52/52/52 56/56/56 47/47/47
f 55/55/55 54/54/54 57/57/57
f 56/56/56 52/52/52 58/58/58
f 52/52/52 55/55/55 58/58/58
f 59/59/59 56/56/56 58/58/58
f 60/60/60 59/59/59 58/58/58
f 61/61/61 60/60/60 58/58/58
f 55/55/55 62/62/62 58/58/58
f 58/58/58 62/62/62 61/61/61
f 62/62/62 55/55/55 57/57/57
f 62/62/62 63/63/63 61/61/61
f 63/63/63 62/62/62 57/57/57
f 64/64/64 63/63/63 57/57/57
f 67/67/67 66/66/66 65/65/65
f 66/66/66 68/68/68 65/65/65
f 68/68/68 66/66/66 69/69/69
f 70/70/70 68/68/68 69/69/69
f 69/69/69 71/71/71 70/70/70
f 71/71/71 72/72/72 70/70/70
f 75/75/75 74/74/74 73/73/73
f 76/76/76 75/75/75 73/73/73
f 77/77/77 76/76/76 73/73/73
f 78/78/78 77/77/77 73/73/73
f 75/75/75 76/76/76 79/79/79
f 80/80/80 75/75/75 79/79/79
f 81/81/81 80/80/80 79/79/79
f 82/82/82 81/81/81 79/79/79
f 83/83/83 82/82/82 79/79/79
f 79/79/79 76/76/76 84/84/84
f 84/84/84 83/83/83 79/79/79
f 76/76/76 77/77/77 84/84/84
f 85/85/85 83/83/83 84/84/84
f 86/86/86 85/85/85 84/84/84
f 84/84/84 77/77/77 86/86/86
f 77/77/77 87/87/87 86/86/86
f 87/87/87 77/77/77 78/78/78
f 88/88/88 87/87/87 78/78/78
f 91/91/91 90/90/90 89/89/89
f 90/90/90 92/92/92 89/89/89
f 92/92/92 90/90/90 93/93/93
f 92/92/92 94/94/94 89/89/89
f 94/94/94 95/95/95 89/89/89
f 95/95/95 94/94/94 96/96/96
f 94/94/94 97/97/97 96/96/96
f 98/98/98 92/92/92 93/93/93
f 94/94/94 92/92/92 98/98/98
f 93/93/93 99/99/99 98/98/98
f 99/99/99 100/100/100 98/98/98
f 100/100/100 101/101/101 98/98/98
f 97/97/97 94/94/94 102/102/102
f 102/102/102 94/94/94 98/98/98
f 101/101/101 102/102/102 98/98/98
f 103/103/103 97/97/97 102/102/102
f 102/102/102 101/101/101 103/103/103
f 101/101/101 104/104/104 103/103/103
f 107/107/107 106/106/106 105/105/105
f 106/106/106 108/108/108 105/105/105
f 108/108/108 106/106/106 109/109/109
f 110/110/110 108/108/108 109/109/109
f 109/109/109 111/111/111 110/110/110
f 111/111/111 112/112/112 110/110/110
f 115/115/115 114/114/114 113/113/113
f 116/116/116 115/115/115 113/113/113
f 113/113/113 117/117/117 116/116/116
f 115/115/115 116/116/116 118/118/118
f 117/117/117 119/119/119 116/116/116
f 120/120/120 115/115/115 118/118/118
f 121/121/121 120/120/120 118/118/118
f 122/122/122 121/121/121 118/118/118
f 119/119/119 117/117/117 123/123/123
f 124/124/124 119/119/119 123/123/123
f 118/118/118 125/125/125 122/122/122
f 119/119/119 124/124/124 126/126/126
f 125/125/125 119/119/119 126/126/126
f 125/125/125 127/127/127 122/122/122
f 127/127/127 125/125/125 126/126/126
f 128/128/128 127/127/127 126/126/126
f 131/131/131 130/130/130 129/129/129
f 132/132/132 131/131/131 129/129/129
f 129/129/129 133/133/133 132/132/132
f 134/134/134 131/131/131 132/132/132
f 133/133/133 135/135/135 132/132/132
f 135/135/135 133/133/133 136/136/136
f 137/137/137 135/135/135 136/136/136
f 138/138/138 134/134/134 132/132/132
f 132/132/132 135/135/135 138/138/138
f 139/139/139 135/135/135 137/137/137
f 135/135/135 139/139/139 138/138/138
f 140/140/140 139/139/139 137/137/137
f 140/140/140 141/141/141 139/139/139
f 141/141/141 142/142/142 139/139/139
f 142/142/142 143/143/143 139/139/139
f 143/143/143 138/138/138 139/139/139
f 138/138/138 143/143/143 134/134/134
f 143/143/143 144/144/144 134/134/134
f 147/147/147 146/146/146 145/145/145
f 148/148/148 147/147/147 145/145/145
f 151/151/151 150/150/150 149/149/149
f 150/150/150 152/152/152 149/149/149
f 152/152/152 150/150/150 153/153/153
f 154/154/154 152/152/152 153/153/153
f 153/153/153 155/155/155 154/154/154
f 155/155/155 156/156/156 154/154/154
f 159/159/159 158/158/158 157/157/157
f 160/160/160 159/159/159 157/157/157
f 163/163/163 162/162/162 161/161/161
f 164/164/164 163/163/163 161/161/161
f 167/167/167 166/166/166 165/165/165
f 168/168/168 167/167/167 165/165/165
g SM_elevator02_1
f 171/171/171 170/170/170 169/169/169
f 172/172/172 171/171/171 169/169/169
f 175/175/175 174/174/174 173/173/173
f 176/176/176 175/175/175 173/173/173
f 179/179/179 178/178/178 177/177/177
f 180/180/180 179/179/179 177/177/177
f 183/183/183 182/182/182 181/181/181
f 184/184/184 183/183/183 181/181/181
f 187/187/187 186/186/186 185/185/185
f 188/188/188 187/187/187 185/185/185
f 191/191/191 190/190/190 189/189/189
f 192/192/192 191/191/191 189/189/189
