g SM_Fish00
v 3.0116348 -0.60827637 -0.056388855
v 3.0105438 -0.60479736 0.03730011
v 3.1230392 -0.44071198 0.039527893
v 3.0116348 -0.60827637 -0.056388855
v 2.851265 -0.7102928 0.035354614
v 3.0105438 -0.60479736 0.03730011
v 3.1230392 -0.44071198 0.039527893
v 3.0719182 -0.22176361 0.11391449
v 3.0964239 -0.089271545 0.03730011
v 3.0273705 -0.47698975 0.14663696
v 3.0105438 -0.60479736 0.03730011
v 3.0089226 -0.60806274 0.11932373
v 3.0300522 -0.47745895 -0.06989288
v 3.0964239 -0.089271545 0.03730011
v 3.0745964 -0.222229 -0.053703308
v 3.1230392 -0.44071198 0.039527893
v 3.0116348 -0.60827637 -0.056388855
v 3.0300522 -0.47745895 -0.06989288
v 2.8601189 -0.62939453 -0.13022614
v 3.0116348 -0.60827637 -0.056388855
v 2.8828888 -0.4517746 -0.16088867
v 3.0745964 -0.222229 -0.053703308
v 2.41156 -0.7639122 -0.22775269
v 2.9330978 -0.16410065 -0.12414551
v 3.0964239 -0.089271545 0.03730011
v 2.9683838 0.052516937 0.035354614
v 2.4527664 -0.37670135 -0.28108215
v 1.6432266 -0.780365 -0.4017563
v 2.5320778 0.077732086 -0.21717834
v 2.5826187 0.39012527 0.029670715
v 1.6027603 -0.12817383 -0.49552155
v -0.13056183 -0.886322 -0.42053223
v 1.6027603 0.44742584 -0.3831787
v 1.5962753 0.8293228 0.01877594
v -0.13056183 -0.12817383 -0.5186615
v -1.8706093 -0.6102638 -0.4393158
v -0.13056183 0.59622955 -0.40109253
v -0.137043 1.0633583 -0.0037002563
v -1.8638802 -0.12817383 -0.54180145
v -2.6627386 -0.43249893 -0.33193207
v -1.8638802 0.44742584 -0.41900635
v -1.8703613 0.8293228 -0.026176453
v -2.6668205 -0.12817383 -0.4094696
v -2.9304962 -0.2831993 -0.20949554
v -2.9447098 -0.12817383 -0.25858307
v -2.6668205 0.28750992 -0.31656647
v -2.6715012 0.66778183 -0.036567688
v -2.9447098 0.114681244 -0.19976807
v -3.158344 -0.075984955 -0.044189453
v -2.947445 0.50803757 -0.040145874
v 3.0116348 -0.60827637 -0.056388855
v 2.8601189 -0.62939453 -0.13022614
v 2.851265 -0.7102928 0.035354614
v 2.3936653 -0.9413605 0.029670715
v 2.41156 -0.7639122 -0.22775269
v 1.6597176 -1.0236702 0.01877594
v 1.6432266 -0.780365 -0.4017563
v -0.137043 -1.215332 -0.0037002563
v -0.13056183 -0.886322 -0.42053223
v -1.8903275 -0.79193115 -0.026176453
v -1.8706093 -0.6102638 -0.4393158
v -2.675682 -0.5458565 -0.036567688
v -2.6627386 -0.43249893 -0.33193207
v -2.936115 -0.3227272 -0.040145874
v -2.9304962 -0.2831993 -0.20949554
v -2.9447098 -0.12817383 -0.25858307
v -3.158344 -0.075984955 -0.044189453
v 3.0719182 -0.22176361 0.11391449
v 2.9683838 0.052516937 0.035354614
v 3.0964239 -0.089271545 0.03730011
v 2.9282036 -0.16324615 0.1812439
v 3.0273705 -0.47698975 0.14663696
v 2.5826187 0.39012527 0.029670715
v 2.8779943 -0.4509201 0.23361969
v 3.0089226 -0.60806274 0.11932373
v 2.5243492 0.07908249 0.26522827
v 1.5962753 0.8293228 0.01877594
v 2.8551712 -0.62900543 0.18990326
v 3.0105438 -0.60479736 0.03730011
v 2.851265 -0.7102928 0.035354614
v 1.589798 0.44742584 0.41384125
v -0.137043 1.0633583 -0.0037002563
v 2.445034 -0.37535477 0.3421173
v 2.40374 -0.76329803 0.27794647
v 2.3936653 -0.9413605 0.029670715
v -0.14352417 0.59622955 0.39592743
v -1.8703613 0.8293228 -0.026176453
v 1.589798 -0.12817383 0.5341034
v 1.6303215 -0.7815857 0.43373108
v 1.6597176 -1.0236702 0.01877594
v -1.8768463 0.44742584 0.37800598
v -2.6715012 0.66778183 -0.036567688
v -0.14352417 -0.12817383 0.51096344
v -0.14352417 -0.886322 0.4149475
v -0.137043 -1.215332 -0.0037002563
v -1.8835449 -0.6093178 0.39616394
v -1.8768463 -0.12817383 0.48780823
v -2.6761856 0.28750992 0.25901794
v -2.947445 0.50803757 -0.040145874
v -2.6761856 -0.12817383 0.3340912
v -2.672077 -0.43181992 0.27143097
v -2.95018 0.114681244 0.13650513
v -2.95018 -0.12817383 0.17582703
v -3.158344 -0.075984955 -0.044189453
v -2.9359512 -0.28280258 0.14300537
v -2.675682 -0.5458565 -0.036567688
v -1.8835449 -0.6093178 0.39616394
v -0.137043 -1.215332 -0.0037002563
v -1.8903275 -0.79193115 -0.026176453
v -2.672077 -0.43181992 0.27143097
v -2.675682 -0.5458565 -0.036567688
v -2.936115 -0.3227272 -0.040145874
v -2.9359512 -0.28280258 0.14300537
v -3.158344 -0.075984955 -0.044189453
v 1.036026 -0.058940887 0.7400055
v 0.13341522 -0.18535233 0.93663025
v -0.16820526 1.316452 1.1762772
v 1.0487366 0.51229095 0.6975403
v 1.5490875 -0.06509018 0.33177185
v 1.036026 -0.058940887 0.7400055
v 1.0487366 0.51229095 0.6975403
v 1.6039047 0.17238998 0.4848404
v 1.4942703 -0.30256653 0.17871094
v 1.036026 -0.058940887 0.7400055
v 1.5490875 -0.06509018 0.33177185
v 0.82380295 -0.4976921 0.5002899
v 0.13341522 -0.18535233 0.93663025
v -0.38406754 -0.7092476 0.6438751
v 1.5570564 -0.06509018 -0.28285217
v 1.6158257 0.17238998 -0.43444824
v 1.0663567 0.51229095 -0.66147614
v 1.0547562 -0.058940887 -0.70425415
v 1.4982872 -0.30256653 -0.13126373
v -0.13776398 1.316452 -1.1716003
v 0.8363838 -0.4976921 -0.47011566
v 0.15754318 -0.18535233 -0.9242096
v -0.36735535 -0.7092476 -0.64497375
v 1.6422997 0.48663712 0.0181427
v 1.7527351 0.73314285 0.0181427
v 0.82427216 1.5019913 0.007537842
v 0.82427216 0.60852814 0.007537842
v 0.19754791 1.775917 0.0022354126
v 0.055561066 0.82092667 0.0022354126
v -0.35345078 1.7753334 -0.0030670166
v -0.35345078 0.8818741 -0.0030670166
v -0.84251785 0.8660965 -0.0030670166
v -0.7873001 1.6333466 -0.0030670166
v -1.1974869 0.4590683 -0.0030670166
v -1.5931206 0.83800125 -0.0030670166
v -2.8865814 0.23358536 -0.059020996
v -2.947445 0.5362549 -0.01764679
v -4.613426 1.4837761 0.10975647
v -3.729038 0.34851074 -0.043571472
v -2.825714 -0.094623566 -0.041511536
v -3.5261877 -0.11828613 -0.041511536
v -2.7509344 -0.2938118 -0.05001068
v -3.596939 -0.31189346 -0.059684753
v -2.706768 -0.5254822 -0.078437805
v -4.1179385 -0.8759308 -0.13346863
vt 0.02523723 0.65803486
vt 0.025417889 0.6586686
vt 0.020946702 0.6999899
vt 0.02523723 0.65803486
vt 0.035186682 0.6260361
vt 0.025417889 0.6586686
vt 0.020946702 0.6999899
vt 0.030935299 0.7410917
vt 0.032584153 0.7698305
vt 0.027548559 0.685916
vt 0.025417889 0.6586686
vt 0.025457961 0.6578895
vt 0.02732313 0.6860066
vt 0.032584153 0.7698305
vt 0.03071049 0.741183
vt 0.020946702 0.6999899
vt 0.02523723 0.65803486
vt 0.02732313 0.6860066
vt 0.036677763 0.64315724
vt 0.02523723 0.65803486
vt 0.039687585 0.6809823
vt 0.03071049 0.741183
vt 0.068596125 0.58442664
vt 0.043505408 0.7431719
vt 0.032584153 0.7698305
vt 0.04657992 0.7898255
vt 0.07582596 0.66629547
vt 0.1378398 0.4946736
vt 0.08185675 0.7645353
vt 0.08631853 0.831792
vt 0.15035322 0.6488588
vt 0.30090496 0.3454548
vt 0.15844704 0.7863914
vt 0.16435277 0.8773761
vt 0.31343165 0.55361974
vt 0.6560421 0.3908165
vt 0.32540113 0.7525211
vt 0.33374852 0.8804769
vt 0.6544689 0.55327684
vt 0.7501437 0.45431837
vt 0.6535479 0.74728864
vt 0.65370876 0.8760388
vt 0.7501433 0.55691123
vt 0.78180987 0.5058519
vt 0.7832555 0.5581692
vt 0.7494783 0.69702214
vt 0.7494274 0.82521677
vt 0.78286684 0.64002675
vt 0.80862737 0.5767277
vt 0.7825635 0.7726219
vt 0.02523723 0.65803486
vt 0.036677763 0.64315724
vt 0.035186682 0.6260361
vt 0.065204345 0.54697734
vt 0.068596125 0.58442664
vt 0.13305634 0.43720973
vt 0.1378398 0.4946736
vt 0.29609793 0.25481457
vt 0.30090496 0.3454548
vt 0.6586825 0.32967302
vt 0.6560421 0.3908165
vt 0.75186765 0.41616878
vt 0.7501437 0.45431837
vt 0.7825428 0.49255466
vt 0.78180987 0.5058519
vt 0.7832555 0.5581692
vt 0.80862737 0.5767277
vt 0.030935299 0.7410917
vt 0.04657992 0.7898255
vt 0.032584153 0.7698305
vt 0.04391654 0.7430049
vt 0.027548559 0.685916
vt 0.08631853 0.831792
vt 0.040098723 0.6808153
vt 0.025457961 0.6578895
vt 0.08250632 0.7642717
vt 0.16435277 0.8773761
vt 0.037080728 0.6428921
vt 0.025417889 0.6586686
vt 0.035186682 0.6260361
vt 0.15951774 0.78586423
vt 0.33374852 0.8804769
vt 0.07647566 0.6660308
vt 0.069232605 0.58400613
vt 0.065204345 0.54697734
vt 0.3266592 0.7519154
vt 0.65370876 0.8760388
vt 0.15142392 0.64833164
vt 0.13888861 0.49385664
vt 0.13305634 0.43720973
vt 0.65509284 0.7473475
vt 0.7494274 0.82521677
vt 0.31468982 0.553014
vt 0.30216298 0.34484905
vt 0.29609793 0.25481457
vt 0.6575819 0.39119318
vt 0.6560138 0.5533358
vt 0.7505945 0.69706464
vt 0.7825635 0.7726219
vt 0.75125957 0.55695355
vt 0.75125587 0.45458993
vt 0.7835186 0.64005136
vt 0.783907 0.55819374
vt 0.80862737 0.5767277
vt 0.7824589 0.50601065
vt 0.75186765 0.41616878
vt 0.6575819 0.39119318
vt 0.29609793 0.25481457
vt 0.6586825 0.32967302
vt 0.75125587 0.45458993
vt 0.75186765 0.41616878
vt 0.7825428 0.49255466
vt 0.7824589 0.50601065
vt 0.80862737 0.5767277
vt 0.32206684 0.5192659
vt 0.3901468 0.5947403
vt 0.44641808 0.7884943
vt 0.32115218 0.593949
vt 0.28221986 0.4717389
vt 0.32206684 0.5192659
vt 0.32115218 0.593949
vt 0.27381486 0.5025464
vt 0.29062486 0.4409329
vt 0.32206684 0.5192659
vt 0.28221986 0.4717389
vt 0.34664837 0.46541268
vt 0.3901468 0.5947403
vt 0.42763418 0.58109033
vt 0.28731808 0.4869635
vt 0.29104528 0.51463586
vt 0.33025312 0.61069584
vt 0.33299324 0.54172003
vt 0.28838092 0.44845316
vt 0.4535145 0.79037637
vt 0.34562197 0.4750659
vt 0.41596153 0.62502605
vt 0.43776715 0.5855964
vt 0.690125 0.6898782
vt 0.6920777 0.7777326
vt 0.78380084 0.84509
vt 0.75740373 0.648353
vt 0.8406804 0.8530295
vt 0.82351774 0.63087714
vt 0.8835542 0.8068512
vt 0.8571571 0.61011475
vt 0.89476156 0.5657671
vt 0.9131311 0.7393276
vt 0.931659 0.5454208
vt 0.97234446 0.6151392
vt 0.63825935 0.49572968
vt 0.6382143 0.56844187
vt 0.758467 0.865176
vt 0.70509934 0.5617136
vt 0.63872683 0.4171222
vt 0.696276 0.44446713
vt 0.63592285 0.36764324
vt 0.70525485 0.40309355
vt 0.6361548 0.3120999
vt 0.75710636 0.29730377
vn 0.63781875 -0.56551903 -0.5228533
vn 0.71015316 -0.70377463 0.019593379
vn 0.9853432 -0.1674589 0.032502957
vn 0.63781875 -0.56551903 -0.5228533
vn 0.42467272 -0.9051648 0.018158842
vn 0.71015316 -0.70377463 0.019593379
vn 0.9853432 -0.1674589 0.032502957
vn 0.66800964 0.13101998 0.73252773
vn 0.87087023 0.49053785 0.030946644
vn 0.6795509 -0.18217187 0.7106504
vn 0.71015316 -0.70377463 0.019593379
vn 0.61337924 -0.582463 0.53338784
vn 0.71229553 -0.17960751 -0.67851037
vn 0.87087023 0.49053785 0.030946644
vn 0.70139706 0.11969713 -0.7026484
vn 0.9853432 -0.1674589 0.032502957
vn 0.63781875 -0.56551903 -0.5228533
vn 0.71229553 -0.17960751 -0.67851037
vn 0.4086471 -0.5351781 -0.73931855
vn 0.63781875 -0.56551903 -0.5228533
vn 0.37077343 -0.06860636 -0.92618585
vn 0.70139706 0.11969713 -0.7026484
vn 0.26115316 -0.5617373 -0.78501606
vn 0.43880168 0.24894321 -0.863412
vn 0.87087023 0.49053785 0.030946644
vn 0.70602703 0.70773613 0.025208715
vn 0.24881965 -0.024537103 -0.968239
vn 0.11725443 -0.5158035 -0.8486449
vn 0.3467279 0.36043102 -0.86595
vn 0.54253346 0.8399091 0.01449645
vn 0.12601498 0.024293516 -0.99173087
vn -0.022187375 -0.55914015 -0.82877624
vn 0.17923748 0.44408047 -0.87787604
vn 0.2678022 0.96344703 0.00720243
vn 0.009643985 0.015656214 -0.99983096
vn -0.15915836 -0.5798065 -0.7990575
vn 0.010559692 0.46126932 -0.88719726
vn -0 0.99999917 -0.0013123349
vn -0.082555 0.0033876547 -0.9965808
vn -0.39888543 -0.59735155 -0.6957453
vn -0.10077421 0.44893658 -0.88786286
vn -0.18293186 0.98308325 -0.00912523
vn -0.32893467 -0.015229022 -0.94422984
vn -0.65417546 -0.52779615 -0.5417433
vn -0.64379454 -0.10318412 -0.7582095
vn -0.30867195 0.39430904 -0.86558765
vn -0.44502637 0.895363 -0.01663279
vn -0.5817818 0.26591116 -0.76864904
vn -0.99690706 -0.07336796 -0.028169151
vn -0.77421606 0.63254505 -0.021821372
vn 0.63781875 -0.56551903 -0.5228533
vn 0.4086471 -0.5351781 -0.73931855
vn 0.42467272 -0.9051648 0.018158842
vn 0.26252523 -0.96486115 0.01110895
vn 0.26115316 -0.5617373 -0.78501606
vn 0.10861845 -0.9940771 0.003570767
vn 0.11725443 -0.5158035 -0.8486449
vn -0.056063224 -0.99842584 -0.0016480207
vn -0.022187375 -0.55914015 -0.82877624
vn -0.24153192 -0.9703699 -0.006683787
vn -0.15915836 -0.5798065 -0.7990575
vn -0.4481727 -0.89387333 -0.011475174
vn -0.39888543 -0.59735155 -0.6957453
vn -0.7268411 -0.68664753 -0.014740688
vn -0.65417546 -0.52779615 -0.5417433
vn -0.64379454 -0.10318412 -0.7582095
vn -0.99690706 -0.07336796 -0.028169151
vn 0.66800964 0.13101998 0.73252773
vn 0.70602703 0.70773613 0.025208715
vn 0.87087023 0.49053785 0.030946644
vn 0.41328546 0.25879934 0.87305105
vn 0.6795509 -0.18217187 0.7106504
vn 0.54253346 0.8399091 0.01449645
vn 0.3531114 -0.07169046 0.9328305
vn 0.61337924 -0.582463 0.53338784
vn 0.32438838 0.36485687 0.8727266
vn 0.2678022 0.96344703 0.00720243
vn 0.38228434 -0.55053717 0.74213713
vn 0.71015316 -0.70377463 0.019593379
vn 0.42467272 -0.9051648 0.018158842
vn 0.15854594 0.44469157 0.8815398
vn -0 0.99999917 -0.0013123349
vn 0.23032889 -0.023377756 0.972832
vn 0.23829497 -0.56427205 0.7904508
vn 0.26252523 -0.96486115 0.01110895
vn -0.010559749 0.46096665 0.8873547
vn -0.18293186 0.98308325 -0.00912523
vn 0.10419187 0.02713139 0.994187
vn 0.095371 -0.51866573 0.8496412
vn 0.10861845 -0.9940771 0.003570767
vn -0.12256646 0.4466229 0.88628745
vn -0.44502637 0.895363 -0.01663279
vn -0.0137947835 0.015412314 0.9997861
vn -0.04239055 -0.55898154 0.8280959
vn -0.056063224 -0.99842584 -0.0016480207
vn -0.17927031 -0.57480025 0.7984152
vn -0.10449675 0.0032960426 0.99451977
vn -0.3320806 0.38994518 0.8588744
vn -0.77421606 0.63254505 -0.021821372
vn -0.3453291 -0.013428616 0.9383856
vn -0.41894117 -0.585303 0.69419646
vn -0.61513627 0.2508948 0.74743515
vn -0.6713015 -0.10303299 0.73398805
vn -0.99690706 -0.07336796 -0.028169151
vn -0.6746041 -0.5087303 0.53488564
vn -0.4481727 -0.89387333 -0.011475174
vn -0.17927031 -0.57480025 0.7984152
vn -0.056063224 -0.99842584 -0.0016480207
vn -0.24153192 -0.9703699 -0.006683787
vn -0.41894117 -0.585303 0.69419646
vn -0.4481727 -0.89387333 -0.011475174
vn -0.7268411 -0.68664753 -0.014740688
vn -0.6746041 -0.5087303 0.53488564
vn -0.99690706 -0.07336796 -0.028169151
vn 0.28843564 -0.050748773 0.9561535
vn 0.28843564 -0.050748773 0.9561535
vn 0.28843564 -0.050748773 0.9561535
vn 0.28843564 -0.050748773 0.9561535
vn 0.45751232 -0.1578819 0.87507474
vn 0.45751232 -0.1578819 0.87507474
vn 0.45751232 -0.1578819 0.87507474
vn 0.45751232 -0.1578819 0.87507474
vn 0.49416715 -0.57424957 0.6527145
vn 0.38927233 -0.33632153 0.8575283
vn 0.49184975 -0.40264168 0.7719868
vn 0.3243611 -0.5932988 0.7367404
vn 0.25962725 -0.38063607 0.8875302
vn 0.2198635 -0.5944921 0.77345926
vn 0.5116802 -0.40266657 -0.75897497
vn 0.48003438 -0.15787512 -0.8629266
vn 0.3729471 -0.08832315 -0.92363924
vn 0.41136777 -0.33632115 -0.84715086
vn 0.5109326 -0.5742613 -0.6396653
vn 0.31312764 -0.050723016 -0.94835556
vn 0.34334788 -0.5933051 -0.7280806
vn 0.2825449 -0.38063303 -0.8805037
vn 0.23985156 -0.5944864 -0.7675006
vn 0.011566794 -0.0010986928 -0.9999325
vn 0.011566794 -0.0010986928 -0.9999325
vn 0.008667458 -0.0007324612 -0.9999622
vn 0.00976605 -0.0008545294 -0.99995196
vn 0.009247275 -0.0007019384 -0.99995697
vn 0.009125209 -0.0006714201 -0.99995816
vn 0.0061037736 -0.00045778306 -0.9999813
vn 0.0056765242 -0.00042726524 -0.9999838
vn -0 0 -1
vn -0 0 -1
vn -0 0 -1
vn -0 0 -1
vn -0.0068668304 0.0361653 -0.9993222
vn 0.0005493356 0.1345262 -0.9909099
vn 0.0005493356 0.1345262 -0.9909099
vn -0.0031435012 0.08545439 -0.9963372
vn -0.0024720253 0.026551384 -0.9996444
vn -0.0036317466 0.019745715 -0.9997985
vn 0.0067752884 0.09973712 -0.99499077
vn 0.0070804837 0.103887804 -0.9945639
vn 0.00845373 0.12241122 -0.9924435
vn 0.00845373 0.12241122 -0.9924435
g SM_Fish00_0
f 3/3/3 2/2/2 1/1/1
f 6/6/6 5/5/5 4/4/4
f 9/9/9 8/8/8 7/7/7
f 8/8/8 10/10/10 7/7/7
f 7/7/7 10/10/10 11/11/11
f 10/10/10 12/12/12 11/11/11
f 15/15/15 14/14/14 13/13/13
f 14/14/14 16/16/16 13/13/13
f 13/13/13 16/16/16 17/17/17
f 20/20/20 19/19/19 18/18/18
f 19/19/19 21/21/21 18/18/18
f 18/18/18 21/21/21 22/22/22
f 21/21/21 19/19/19 23/23/23
f 21/21/21 24/24/24 22/22/22
f 22/22/22 24/24/24 25/25/25
f 24/24/24 26/26/26 25/25/25
f 27/27/27 21/21/21 23/23/23
f 24/24/24 21/21/21 27/27/27
f 27/27/27 23/23/23 28/28/28
f 26/26/26 24/24/24 29/29/29
f 29/29/29 24/24/24 27/27/27
f 30/30/30 26/26/26 29/29/29
f 31/31/31 27/27/27 28/28/28
f 29/29/29 27/27/27 31/31/31
f 31/31/31 28/28/28 32/32/32
f 30/30/30 29/29/29 33/33/33
f 33/33/33 29/29/29 31/31/31
f 34/34/34 30/30/30 33/33/33
f 35/35/35 31/31/31 32/32/32
f 33/33/33 31/31/31 35/35/35
f 35/35/35 32/32/32 36/36/36
f 34/34/34 33/33/33 37/37/37
f 37/37/37 33/33/33 35/35/35
f 38/38/38 34/34/34 37/37/37
f 39/39/39 35/35/35 36/36/36
f 37/37/37 35/35/35 39/39/39
f 36/36/36 40/40/40 39/39/39
f 38/38/38 37/37/37 41/41/41
f 41/41/41 37/37/37 39/39/39
f 42/42/42 38/38/38 41/41/41
f 40/40/40 43/43/43 39/39/39
f 39/39/39 43/43/43 41/41/41
f 40/40/40 44/44/44 43/43/43
f 44/44/44 45/45/45 43/43/43
f 41/41/41 46/46/46 42/42/42
f 43/43/43 46/46/46 41/41/41
f 43/43/43 45/45/45 46/46/46
f 46/46/46 47/47/47 42/42/42
f 45/45/45 48/48/48 46/46/46
f 46/46/46 48/48/48 47/47/47
f 48/48/48 45/45/45 49/49/49
f 48/48/48 50/50/50 47/47/47
f 50/50/50 48/48/48 49/49/49
f 53/53/53 52/52/52 51/51/51
f 52/52/52 53/53/53 54/54/54
f 55/55/55 52/52/52 54/54/54
f 55/55/55 54/54/54 56/56/56
f 57/57/57 55/55/55 56/56/56
f 57/57/57 56/56/56 58/58/58
f 59/59/59 57/57/57 58/58/58
f 59/59/59 58/58/58 60/60/60
f 61/61/61 59/59/59 60/60/60
f 60/60/60 62/62/62 61/61/61
f 62/62/62 63/63/63 61/61/61
f 62/62/62 64/64/64 63/63/63
f 64/64/64 65/65/65 63/63/63
f 66/66/66 65/65/65 64/64/64
f 67/67/67 66/66/66 64/64/64
f 70/70/70 69/69/69 68/68/68
f 69/69/69 71/71/71 68/68/68
f 68/68/68 71/71/71 72/72/72
f 71/71/71 69/69/69 73/73/73
f 71/71/71 74/74/74 72/72/72
f 72/72/72 74/74/74 75/75/75
f 76/76/76 71/71/71 73/73/73
f 74/74/74 71/71/71 76/76/76
f 76/76/76 73/73/73 77/77/77
f 74/74/74 78/78/78 75/75/75
f 75/75/75 78/78/78 79/79/79
f 78/78/78 80/80/80 79/79/79
f 81/81/81 76/76/76 77/77/77
f 81/81/81 77/77/77 82/82/82
f 83/83/83 74/74/74 76/76/76
f 78/78/78 74/74/74 83/83/83
f 83/83/83 76/76/76 81/81/81
f 80/80/80 78/78/78 84/84/84
f 84/84/84 78/78/78 83/83/83
f 85/85/85 80/80/80 84/84/84
f 86/86/86 81/81/81 82/82/82
f 86/86/86 82/82/82 87/87/87
f 88/88/88 83/83/83 81/81/81
f 84/84/84 83/83/83 88/88/88
f 81/81/81 86/86/86 88/88/88
f 85/85/85 84/84/84 89/89/89
f 89/89/89 84/84/84 88/88/88
f 90/90/90 85/85/85 89/89/89
f 91/91/91 86/86/86 87/87/87
f 87/87/87 92/92/92 91/91/91
f 86/86/86 93/93/93 88/88/88
f 88/88/88 93/93/93 89/89/89
f 86/86/86 91/91/91 93/93/93
f 90/90/90 89/89/89 94/94/94
f 93/93/93 94/94/94 89/89/89
f 95/95/95 90/90/90 94/94/94
f 95/95/95 94/94/94 96/96/96
f 93/93/93 97/97/97 94/94/94
f 91/91/91 97/97/97 93/93/93
f 97/97/97 96/96/96 94/94/94
f 92/92/92 98/98/98 91/91/91
f 91/91/91 98/98/98 97/97/97
f 92/92/92 99/99/99 98/98/98
f 97/97/97 100/100/100 96/96/96
f 98/98/98 100/100/100 97/97/97
f 100/100/100 101/101/101 96/96/96
f 99/99/99 102/102/102 98/98/98
f 98/98/98 102/102/102 100/100/100
f 102/102/102 99/99/99 103/103/103
f 102/102/102 103/103/103 100/100/100
f 100/100/100 103/103/103 101/101/101
f 99/99/99 104/104/104 103/103/103
f 103/103/103 104/104/104 105/105/105
f 103/103/103 105/105/105 101/101/101
f 101/101/101 105/105/105 106/106/106
f 109/109/109 108/108/108 107/107/107
f 107/107/107 110/110/110 109/109/109
f 110/110/110 111/111/111 109/109/109
f 113/113/113 112/112/112 111/111/111
f 114/114/114 112/112/112 113/113/113
f 117/117/117 116/116/116 115/115/115
f 118/118/118 117/117/117 115/115/115
f 121/121/121 120/120/120 119/119/119
f 122/122/122 121/121/121 119/119/119
f 125/125/125 124/124/124 123/123/123
f 124/124/124 126/126/126 123/123/123
f 124/124/124 127/127/127 126/126/126
f 127/127/127 128/128/128 126/126/126
f 131/131/131 130/130/130 129/129/129
f 132/132/132 131/131/131 129/129/129
f 132/132/132 129/129/129 133/133/133
f 134/134/134 131/131/131 132/132/132
f 135/135/135 132/132/132 133/133/133
f 136/136/136 134/134/134 132/132/132
f 136/136/136 132/132/132 135/135/135
f 137/137/137 136/136/136 135/135/135
f 140/140/140 139/139/139 138/138/138
f 141/141/141 140/140/140 138/138/138
f 142/142/142 140/140/140 141/141/141
f 143/143/143 142/142/142 141/141/141
f 144/144/144 142/142/142 143/143/143
f 145/145/145 144/144/144 143/143/143
f 145/145/145 146/146/146 144/144/144
f 146/146/146 147/147/147 144/144/144
f 146/146/146 148/148/148 147/147/147
f 148/148/148 149/149/149 147/147/147
f 152/152/152 151/151/151 150/150/150
f 153/153/153 152/152/152 150/150/150
f 153/153/153 150/150/150 154/154/154
f 155/155/155 153/153/153 154/154/154
f 155/155/155 154/154/154 156/156/156
f 157/157/157 155/155/155 156/156/156
f 157/157/157 156/156/156 158/158/158
f 159/159/159 157/157/157 158/158/158
