g SM_Fork00
v -0.008948451 -0.006411314 -0.207179
v -0.014914084 -0.006411314 -0.207179
v -0.014914084 -0.006411314 0.012869179
v -0.008948451 -0.006411314 0.012869179
v -0.0029828171 -0.006411314 -0.207179
v -0.014710169 -0.006411314 0.04748869
v -0.02451695 -0.006411314 0.04748869
v -0.017894775 -0.006411314 0.1468252
v -0.021332333 -0.006411314 0.1468252
v -0.00490339 -0.006411314 0.04748869
v -0.0029828171 -0.006411314 0.012869179
v 0.0029828167 -0.006411314 -0.207179
v 0.0029828167 -0.006411314 0.012869179
v 0.008948451 -0.006411314 -0.207179
v 0.0049033896 -0.006411314 0.04748869
v 0.0017570377 -0.006411314 0.1468252
v -0.0017570386 -0.006411314 0.1468252
v 0.014710168 -0.006411314 0.04748869
v 0.008948451 -0.006411314 0.012869179
v 0.014914084 -0.006411314 -0.207179
v 0.014914084 -0.006411314 0.012869179
v 0.02451695 -0.006411314 0.04748869
v 0.021280106 -0.006411314 0.1468252
v 0.017947001 -0.006411314 0.1468252
v -0.008948451 0.006411433 -0.207179
v -0.014914084 0.006411433 0.012869179
v -0.014914084 0.006411433 -0.207179
v -0.008948451 0.006411433 0.012869179
v -0.0029828171 0.006411433 -0.207179
v -0.02451695 0.006411433 0.04748869
v -0.0029828171 0.006411433 0.012869179
v 0.0029828167 0.006411433 -0.207179
v -0.014710169 0.006411433 0.04748869
v -0.021332333 0.006411433 0.1468252
v -0.017894775 0.006411433 0.1468252
v -0.00490339 0.006411433 0.04748869
v 0.0029828167 0.006411433 0.012869179
v 0.008948451 0.006411433 -0.207179
v 0.0049033896 0.006411433 0.04748869
v -0.0017570386 0.006411433 0.1468252
v 0.0017570377 0.006411433 0.1468252
v 0.008948451 0.006411433 0.012869179
v 0.014914084 0.006411433 -0.207179
v 0.014914084 0.006411433 0.012869179
v 0.014710168 0.006411433 0.04748869
v 0.02451695 0.006411433 0.04748869
v 0.017947001 0.006411433 0.1468252
v 0.021280106 0.006411433 0.1468252
v 0.014914084 -0.006411314 0.012869179
v 0.014914084 0.006411433 -0.207179
v 0.014914084 -0.006411314 -0.207179
v 0.014914084 0.006411433 0.012869179
v 0.02451695 0.006411433 0.04748869
v 0.02451695 -0.006411314 0.04748869
v 0.021280106 0.006411433 0.1468252
v 0.021280106 -0.006411314 0.1468252
v -0.008948451 -0.006411314 -0.207179
v -0.014914084 0.006411433 -0.207179
v -0.014914084 -0.006411314 -0.207179
v -0.008948451 0.006411433 -0.207179
v -0.0029828171 -0.006411314 -0.207179
v -0.0029828171 0.006411433 -0.207179
v 0.0029828167 -0.006411314 -0.207179
v 0.0029828167 0.006411433 -0.207179
v 0.008948451 -0.006411314 -0.207179
v 0.008948451 0.006411433 -0.207179
v 0.014914084 -0.006411314 -0.207179
v 0.014914084 0.006411433 -0.207179
v -0.014914084 -0.006411314 -0.207179
v -0.014914084 0.006411433 -0.207179
v -0.014914084 0.006411433 0.012869179
v -0.014914084 -0.006411314 0.012869179
v -0.02451695 -0.006411314 0.04748869
v -0.02451695 0.006411433 0.04748869
v -0.021332333 -0.006411314 0.1468252
v -0.021332333 0.006411433 0.1468252
v -0.014710169 -0.006411314 0.04748869
v -0.014710169 0.006411433 0.04748869
v -0.00490339 0.006411433 0.04748869
v -0.00490339 -0.006411314 0.04748869
v -0.014710169 -0.006411314 0.04748869
v -0.017894775 -0.006411314 0.1468252
v -0.017894775 0.006411433 0.1468252
v -0.014710169 0.006411433 0.04748869
v 0.0049033896 -0.006411314 0.04748869
v 0.0049033896 0.006411433 0.04748869
v 0.014710168 0.006411433 0.04748869
v 0.014710168 -0.006411314 0.04748869
v 0.017947001 -0.006411314 0.1468252
v 0.017947001 0.006411433 0.1468252
v 0.021280106 0.006411433 0.1468252
v 0.021280106 -0.006411314 0.1468252
v -0.021332333 -0.006411314 0.1468252
v -0.021332333 0.006411433 0.1468252
v -0.017894775 0.006411433 0.1468252
v -0.017894775 -0.006411314 0.1468252
v -0.0017570386 -0.006411314 0.1468252
v -0.0017570386 0.006411433 0.1468252
v 0.0017570377 0.006411433 0.1468252
v 0.0017570377 -0.006411314 0.1468252
v -0.00490339 0.006411433 0.04748869
v -0.0017570386 0.006411433 0.1468252
v -0.0017570386 -0.006411314 0.1468252
v -0.00490339 -0.006411314 0.04748869
v 0.0049033896 -0.006411314 0.04748869
v 0.0017570377 -0.006411314 0.1468252
v 0.0017570377 0.006411433 0.1468252
v 0.0049033896 0.006411433 0.04748869
v 0.014710168 0.006411433 0.04748869
v 0.017947001 0.006411433 0.1468252
v 0.017947001 -0.006411314 0.1468252
v 0.014710168 -0.006411314 0.04748869
vt 0.5600586 0.65966797
vt 0.5571289 0.65966797
vt 0.5571289 0.5566406
vt 0.5600586 0.5566406
vt 0.5625 0.65966797
vt 0.5571289 0.54052734
vt 0.5527344 0.54052734
vt 0.55566406 0.49389648
vt 0.5541992 0.49389648
vt 0.56152344 0.54052734
vt 0.5625 0.5566406
vt 0.5654297 0.65966797
vt 0.5654297 0.5566406
vt 0.5683594 0.65966797
vt 0.56640625 0.54052734
vt 0.5649414 0.49389648
vt 0.5629883 0.49389648
vt 0.5708008 0.54052734
vt 0.5683594 0.5566406
vt 0.5708008 0.65966797
vt 0.5708008 0.5566406
vt 0.5756836 0.54052734
vt 0.57421875 0.49389648
vt 0.5722656 0.49389648
vt 0.5600586 0.65966797
vt 0.5571289 0.5566406
vt 0.5571289 0.65966797
vt 0.5600586 0.5566406
vt 0.5625 0.65966797
vt 0.5527344 0.54052734
vt 0.5625 0.5566406
vt 0.5654297 0.65966797
vt 0.5571289 0.54052734
vt 0.5541992 0.49389648
vt 0.55566406 0.49389648
vt 0.56152344 0.54052734
vt 0.5654297 0.5566406
vt 0.5683594 0.65966797
vt 0.56640625 0.54052734
vt 0.5629883 0.49389648
vt 0.5649414 0.49389648
vt 0.5683594 0.5566406
vt 0.5708008 0.65966797
vt 0.5708008 0.5566406
vt 0.5708008 0.54052734
vt 0.5756836 0.54052734
vt 0.5722656 0.49389648
vt 0.57421875 0.49389648
vt 0.5566406 0.56103516
vt 0.65966797 0.56689453
vt 0.65966797 0.56103516
vt 0.5566406 0.56689453
vt 0.54052734 0.56689453
vt 0.54052734 0.56103516
vt 0.49389648 0.56689453
vt 0.49389648 0.56103516
vt 0.5600586 0.56103516
vt 0.5571289 0.56689453
vt 0.5571289 0.56103516
vt 0.5600586 0.56689453
vt 0.5625 0.56103516
vt 0.5625 0.56689453
vt 0.5654297 0.56103516
vt 0.5654297 0.56689453
vt 0.5683594 0.56103516
vt 0.5683594 0.56689453
vt 0.5708008 0.56103516
vt 0.5708008 0.56689453
vt 0.65966797 0.56103516
vt 0.65966797 0.56689453
vt 0.5566406 0.56689453
vt 0.5566406 0.56103516
vt 0.54052734 0.56103516
vt 0.54052734 0.56689453
vt 0.49389648 0.56103516
vt 0.49389648 0.56689453
vt 0.5571289 0.56103516
vt 0.5571289 0.56689453
vt 0.56152344 0.56689453
vt 0.56152344 0.56103516
vt 0.54052734 0.56103516
vt 0.49389648 0.56103516
vt 0.49389648 0.56689453
vt 0.54052734 0.56689453
vt 0.56640625 0.56103516
vt 0.56640625 0.56689453
vt 0.5708008 0.56689453
vt 0.5708008 0.56103516
vt 0.5722656 0.56103516
vt 0.5722656 0.56689453
vt 0.57421875 0.56689453
vt 0.57421875 0.56103516
vt 0.5541992 0.56103516
vt 0.5541992 0.56689453
vt 0.55566406 0.56689453
vt 0.55566406 0.56103516
vt 0.5629883 0.56103516
vt 0.5629883 0.56689453
vt 0.5649414 0.56689453
vt 0.5649414 0.56103516
vt 0.54052734 0.56689453
vt 0.49389648 0.56689453
vt 0.49389648 0.56103516
vt 0.54052734 0.56103516
vt 0.54052734 0.56103516
vt 0.49389648 0.56103516
vt 0.49389648 0.56689453
vt 0.54052734 0.56689453
vt 0.54052734 0.56689453
vt 0.49389648 0.56689453
vt 0.49389648 0.56103516
vt 0.54052734 0.56103516
vn -0 -1 0
vn -0 -1 0
vn -0 -1 0
vn -0 -1 0
vn -0 -1 0
vn -0 -1 0
vn -0 -1 0
vn -0 -1 0
vn -0 -1 0
vn -0 -1 0
vn -0 -1 0
vn -0 -1 0
vn -0 -1 0
vn -0 -1 0
vn -0 -1 0
vn -0 -1 0
vn -0 -1 0
vn -0 -1 0
vn -0 -1 0
vn -0 -1 0
vn -0 -1 0
vn -0 -1 0
vn -0 -1 0
vn -0 -1 0
vn -0 1 0
vn -0 1 0
vn -0 1 0
vn -0 1 0
vn -0 1 0
vn -0 1 0
vn -0 1 0
vn -0 1 0
vn -0 1 0
vn -0 1 0
vn -0 1 0
vn -0 1 0
vn -0 1 0
vn -0 1 0
vn -0 1 0
vn -0 1 0
vn -0 1 0
vn -0 1 0
vn -0 1 0
vn -0 1 0
vn -0 1 0
vn -0 1 0
vn -0 1 0
vn -0 1 0
vn 0.99072266 0 -0.1348877
vn 1 0 0
vn 1 0 0
vn 0.99072266 0 -0.1348877
vn 0.99316406 0 -0.11871338
vn 0.99316406 0 -0.11871338
vn 0.9995117 0 0.032562256
vn 0.9995117 0 0.032562256
vn -0 0 -1
vn -0 0 -1
vn -0 0 -1
vn -0 0 -1
vn -0 0 -1
vn -0 0 -1
vn -0 0 -1
vn -0 0 -1
vn -0 0 -1
vn -0 0 -1
vn -0 0 -1
vn -0 0 -1
vn -1 0 0
vn -1 0 0
vn -0.99072266 0 -0.1348877
vn -0.99072266 0 -0.1348877
vn -0.9926758 0 -0.11895752
vn -0.9926758 0 -0.11895752
vn -0.9995117 0 0.032043457
vn -0.9995117 0 0.032043457
vn -0 0 1
vn -0 0 1
vn -0 0 1
vn -0 0 1
vn 0.9995117 0 0.032043457
vn 0.9995117 0 0.032043457
vn 0.9995117 0 0.032043457
vn 0.9995117 0 0.032043457
vn -0 0 1
vn -0 0 1
vn -0 0 1
vn -0 0 1
vn -0 0 1
vn -0 0 1
vn -0 0 1
vn -0 0 1
vn -0 0 1
vn -0 0 1
vn -0 0 1
vn -0 0 1
vn -0 0 1
vn -0 0 1
vn -0 0 1
vn -0 0 1
vn -0.9995117 0 0.03164673
vn -0.9995117 0 0.03164673
vn -0.9995117 0 0.03164673
vn -0.9995117 0 0.03164673
vn 0.9995117 0 0.03164673
vn 0.9995117 0 0.03164673
vn 0.9995117 0 0.03164673
vn 0.9995117 0 0.03164673
vn -0.9995117 0 0.032562256
vn -0.9995117 0 0.032562256
vn -0.9995117 0 0.032562256
vn -0.9995117 0 0.032562256
g SM_Fork00_0
f 3/3/3 2/2/2 1/1/1
f 4/4/4 3/3/3 1/1/1
f 4/4/4 1/1/1 5/5/5
f 4/4/4 6/6/6 3/3/3
f 6/6/6 7/7/7 3/3/3
f 6/6/6 8/8/8 7/7/7
f 8/8/8 9/9/9 7/7/7
f 10/10/10 6/6/6 4/4/4
f 11/11/11 4/4/4 5/5/5
f 11/11/11 10/10/10 4/4/4
f 11/11/11 5/5/5 12/12/12
f 13/13/13 11/11/11 12/12/12
f 13/13/13 12/12/12 14/14/14
f 15/15/15 10/10/10 11/11/11
f 13/13/13 15/15/15 11/11/11
f 15/15/15 16/16/16 10/10/10
f 16/16/16 17/17/17 10/10/10
f 18/18/18 15/15/15 13/13/13
f 19/19/19 13/13/13 14/14/14
f 19/19/19 18/18/18 13/13/13
f 19/19/19 14/14/14 20/20/20
f 21/21/21 19/19/19 20/20/20
f 21/21/21 22/22/22 19/19/19
f 22/22/22 18/18/18 19/19/19
f 22/22/22 23/23/23 18/18/18
f 23/23/23 24/24/24 18/18/18
f 27/27/27 26/26/26 25/25/25
f 26/26/26 28/28/28 25/25/25
f 25/25/25 28/28/28 29/29/29
f 26/26/26 30/30/30 28/28/28
f 28/28/28 31/31/31 29/29/29
f 29/29/29 31/31/31 32/32/32
f 30/30/30 33/33/33 28/28/28
f 28/28/28 33/33/33 31/31/31
f 30/30/30 34/34/34 33/33/33
f 34/34/34 35/35/35 33/33/33
f 33/33/33 36/36/36 31/31/31
f 31/31/31 37/37/37 32/32/32
f 31/31/31 36/36/36 37/37/37
f 32/32/32 37/37/37 38/38/38
f 36/36/36 39/39/39 37/37/37
f 36/36/36 40/40/40 39/39/39
f 40/40/40 41/41/41 39/39/39
f 37/37/37 42/42/42 38/38/38
f 37/37/37 39/39/39 42/42/42
f 38/38/38 42/42/42 43/43/43
f 42/42/42 44/44/44 43/43/43
f 39/39/39 45/45/45 42/42/42
f 42/42/42 45/45/45 44/44/44
f 45/45/45 46/46/46 44/44/44
f 45/45/45 47/47/47 46/46/46
f 47/47/47 48/48/48 46/46/46
f 51/51/51 50/50/50 49/49/49
f 50/50/50 52/52/52 49/49/49
f 52/52/52 53/53/53 49/49/49
f 53/53/53 54/54/54 49/49/49
f 53/53/53 55/55/55 54/54/54
f 55/55/55 56/56/56 54/54/54
f 59/59/59 58/58/58 57/57/57
f 58/58/58 60/60/60 57/57/57
f 57/57/57 60/60/60 61/61/61
f 60/60/60 62/62/62 61/61/61
f 61/61/61 62/62/62 63/63/63
f 62/62/62 64/64/64 63/63/63
f 63/63/63 64/64/64 65/65/65
f 64/64/64 66/66/66 65/65/65
f 65/65/65 66/66/66 67/67/67
f 66/66/66 68/68/68 67/67/67
f 71/71/71 70/70/70 69/69/69
f 72/72/72 71/71/71 69/69/69
f 72/72/72 73/73/73 71/71/71
f 73/73/73 74/74/74 71/71/71
f 73/73/73 75/75/75 74/74/74
f 75/75/75 76/76/76 74/74/74
f 79/79/79 78/78/78 77/77/77
f 80/80/80 79/79/79 77/77/77
f 83/83/83 82/82/82 81/81/81
f 84/84/84 83/83/83 81/81/81
f 87/87/87 86/86/86 85/85/85
f 88/88/88 87/87/87 85/85/85
f 91/91/91 90/90/90 89/89/89
f 92/92/92 91/91/91 89/89/89
f 95/95/95 94/94/94 93/93/93
f 96/96/96 95/95/95 93/93/93
f 99/99/99 98/98/98 97/97/97
f 100/100/100 99/99/99 97/97/97
f 103/103/103 102/102/102 101/101/101
f 104/104/104 103/103/103 101/101/101
f 107/107/107 106/106/106 105/105/105
f 108/108/108 107/107/107 105/105/105
f 111/111/111 110/110/110 109/109/109
f 112/112/112 111/111/111 109/109/109
