g SM_Map00#
v -0.24732278 0.047661174 0.025506318
v -0.2823188 0.047661174 0.33981124
v -0.33689177 0.011426458 0.3363125
v -0.29606307 0.011426458 0.022007598
v -0.2823188 0.047661174 -0.33281386
v -0.33689177 0.011426458 -0.3363126
v 0.306472 0.012705551 0.019393474
v 0.36167717 0.013940189 0.33148882
v 0.30999714 0.039350867 0.33664742
v 0.25987157 0.04432144 0.024361253
v 0.33052245 0.016088944 -0.34040663
v 0.27739936 0.055618323 -0.33765846
v 0.25987157 0.04432144 0.024361253
v 0.30999714 0.039350867 0.33664742
v 0.26585025 0.008662365 0.3358941
v 0.22225857 0.008067358 0.023264885
v 0.27739936 0.055618323 -0.33765846
v 0.23469554 0.010811122 -0.3360013
v 0.22225857 0.008067358 0.023264885
v 0.26585025 0.008662365 0.3358941
v 0.21272713 0.04819174 0.3386423
v 0.17494217 0.047916554 0.025746107
v 0.23469554 0.010811122 -0.3360013
v 0.18157244 0.050340503 -0.33325318
v 0.17494217 0.047916554 0.025746107
v 0.21272713 0.04819174 0.3386423
v 0.17002334 0.0033845417 0.3402994
v 0.13804513 0.003429167 0.027136296
v 0.18157244 0.050340503 -0.33325318
v 0.13886863 0.005533298 -0.33159602
v 0.13804513 0.003429167 0.027136296
v 0.17002334 0.0033845417 0.3402994
v 0.116900206 0.038675733 0.33535594
v 0.09072874 0.039040174 0.037309155
v 0.13886863 0.005533298 -0.33159602
v 0.08574551 0.040824488 -0.30356267
v 0.09072874 0.039040174 0.037309155
v 0.116900206 0.038675733 0.33535594
v 0.048127428 0.010605898 0.31777263
v 0.04229474 0.010605898 0.015282199
v 0.08574551 0.040824488 -0.30356267
v 0.048127428 0.010605898 -0.32956898
v 0.04229474 0.010605898 0.015282199
v 0.048127428 0.010605898 0.31777263
v 0.0097887665 0.05291829 0.31321824
v 0.0097887665 0.05291829 0.020753173
v 0.048127428 0.010605898 -0.32956898
v 0.0097887665 0.04440542 -0.31266862
v 0.0097887665 0.05291829 0.020753173
v 0.0097887665 0.05291829 0.31321824
v -0.04812737 0.010605898 0.31276765
v -0.04229471 0.010605898 0.020302624
v 0.0097887665 0.04440542 -0.31266862
v -0.04812737 0.010605898 -0.3131192
v -0.04229471 0.010605898 0.020302624
v -0.04812737 0.010605898 0.31276765
v -0.09994352 0.05219142 0.31802648
v -0.088278174 0.05219142 0.015536084
v -0.04812737 0.010605898 -0.3131192
v -0.09994352 0.05219142 -0.3293151
v -0.088278174 0.05219142 0.015536084
v -0.09994352 0.05219142 0.31802648
v -0.14438218 0.010605898 0.3363125
v -0.12688416 0.010605898 0.022007598
v -0.09994352 0.05219142 -0.3293151
v -0.14438218 0.010605898 -0.3363126
v -0.12688416 0.010605898 0.022007598
v -0.14438218 0.010605898 0.3363125
v -0.19250958 0.05291829 0.3363125
v -0.16917889 0.05291829 0.022007598
v -0.14438218 0.010605898 -0.3363126
v -0.19250958 0.05291829 -0.3363126
v -0.16917889 0.05291829 0.022007598
v -0.19250958 0.05291829 0.3363125
v -0.24063697 0.011426458 0.3363125
v -0.21147361 0.011426458 0.022007598
v -0.19250958 0.05291829 -0.3363126
v -0.24063697 0.011426458 -0.3363126
v -0.21147361 0.011426458 0.022007598
v -0.24063697 0.011426458 0.3363125
v -0.2823188 0.047661174 0.33981124
v -0.24732278 0.047661174 0.025506318
v -0.24063697 0.011426458 -0.3363126
v -0.2823188 0.047661174 -0.33281386
vt 0.9213867 0.5
vt 0.9213867 0.9838867
vt 0.9916992 0.9838867
vt 0.9916992 0.5
vt 0.9213867 0.01625061
vt 0.9916992 0.01625061
vt 0.008338928 0.5
vt 0.008338928 0.9838867
vt 0.078552246 0.9838867
vt 0.078552246 0.5
vt 0.008338928 0.01625061
vt 0.078552246 0.01625061
vt 0.078552246 0.5
vt 0.078552246 0.9838867
vt 0.14880371 0.9838867
vt 0.14880371 0.5
vt 0.078552246 0.01625061
vt 0.14880371 0.01625061
vt 0.14880371 0.5
vt 0.14880371 0.9838867
vt 0.21899414 0.9838867
vt 0.21899414 0.5
vt 0.14880371 0.01625061
vt 0.21899414 0.01625061
vt 0.21899414 0.5
vt 0.21899414 0.9838867
vt 0.28930664 0.9838867
vt 0.28930664 0.5
vt 0.21899414 0.01625061
vt 0.28930664 0.01625061
vt 0.28930664 0.5
vt 0.28930664 0.9838867
vt 0.35961914 0.9838867
vt 0.35961914 0.5
vt 0.28930664 0.01625061
vt 0.35961914 0.01625061
vt 0.35961914 0.5
vt 0.35961914 0.9838867
vt 0.4296875 0.9838867
vt 0.4296875 0.5
vt 0.35961914 0.01625061
vt 0.4296875 0.01625061
vt 0.4296875 0.5
vt 0.4296875 0.9838867
vt 0.5 0.9838867
vt 0.5 0.5
vt 0.4296875 0.01625061
vt 0.5 0.01625061
vt 0.5 0.5
vt 0.5 0.9838867
vt 0.5703125 0.9838867
vt 0.5703125 0.5
vt 0.5 0.01625061
vt 0.5703125 0.01625061
vt 0.5703125 0.5
vt 0.5703125 0.9838867
vt 0.640625 0.9838867
vt 0.640625 0.5
vt 0.5703125 0.01625061
vt 0.640625 0.01625061
vt 0.640625 0.5
vt 0.640625 0.9838867
vt 0.7109375 0.9838867
vt 0.7109375 0.5
vt 0.640625 0.01625061
vt 0.7109375 0.01625061
vt 0.7109375 0.5
vt 0.7109375 0.9838867
vt 0.7807617 0.9838867
vt 0.7807617 0.5
vt 0.7109375 0.01625061
vt 0.7807617 0.01625061
vt 0.7807617 0.5
vt 0.7807617 0.9838867
vt 0.8510742 0.9838867
vt 0.8510742 0.5
vt 0.7807617 0.01625061
vt 0.8510742 0.01625061
vt 0.8510742 0.5
vt 0.8510742 0.9838867
vt 0.9213867 0.9838867
vt 0.9213867 0.5
vt 0.8510742 0.01625061
vt 0.9213867 0.01625061
vn -0.57373047 0.81884766 -0.006175995
vn -0.5698242 0.81884766 -0.068725586
vn -0.5698242 0.81884766 -0.068725586
vn -0.57421875 0.81884766 -0.001912117
vn -0.5761719 0.8154297 0.060943604
vn -0.5761719 0.8154297 0.060943604
vn 0.5415039 0.8408203 -0.012519836
vn 0.49438477 0.86572266 -0.078186035
vn 0.49438477 0.86572266 -0.078186035
vn 0.5395508 0.8417969 -0.015365601
vn 0.58251953 0.81103516 0.050048828
vn 0.58251953 0.81103516 0.050048828
vn -0.671875 0.7392578 0.04385376
vn -0.63183594 0.7685547 0.100097656
vn -0.63183594 0.7685547 0.100097656
vn -0.6743164 0.7373047 0.040100098
vn -0.7104492 0.7036133 -0.015808105
vn -0.7104492 0.7036133 -0.015808105
vn 0.61865234 0.78515625 -0.02960205
vn 0.6152344 0.7841797 -0.08117676
vn 0.6152344 0.7841797 -0.08117676
vn 0.61865234 0.78515625 -0.029525757
vn 0.62060547 0.7836914 0.022109985
vn 0.62060547 0.7836914 0.022109985
vn -0.7451172 0.66552734 0.03967285
vn -0.7426758 0.6645508 0.08251953
vn -0.7426758 0.6645508 0.08251953
vn -0.7451172 0.66552734 0.039367676
vn -0.74658203 0.66552734 -0.0035552979
vn -0.74658203 0.66552734 -0.0035552979
vn 0.5756836 0.8173828 -0.024291992
vn 0.57421875 0.81689453 -0.05404663
vn 0.57421875 0.81689453 -0.05404663
vn 0.5756836 0.8173828 -0.028762817
vn 0.57714844 0.81689453 0.0011091232
vn 0.57714844 0.81689453 0.0011091232
vn -0.48754883 0.8730469 0.015701294
vn -0.44067383 0.89746094 0.024032593
vn -0.44067383 0.89746094 0.024032593
vn -0.5185547 0.85498047 0.010047913
vn -0.56396484 0.8261719 0.0014505386
vn -0.56396484 0.8261719 0.0014505386
vn 0.74853516 0.66308594 -0.004722595
vn 0.76660156 0.64208984 -0.0075149536
vn 0.76660156 0.64208984 -0.0075149536
vn 0.7504883 0.66064453 -0.0050811768
vn 0.7314453 0.6816406 -0.0022640228
vn 0.7314453 0.6816406 -0.0022640228
vn -0.58984375 0.8076172 -0.0058059692
vn -0.6098633 0.79248047 -0.0060806274
vn -0.6098633 0.79248047 -0.0060806274
vn -0.58935547 0.8076172 -0.0058021545
vn -0.56884766 0.8222656 -0.005519867
vn -0.56884766 0.8222656 -0.005519867
vn 0.6489258 0.7607422 0.0020160675
vn 0.6479492 0.76171875 0.019058228
vn 0.6479492 0.76171875 0.019058228
vn 0.6489258 0.7607422 0.00030350685
vn 0.64990234 0.7597656 -0.01676941
vn 0.64990234 0.7597656 -0.01676941
vn -0.70996094 0.70410156 0.00017809868
vn -0.71240234 0.7011719 -0.03366089
vn -0.71240234 0.7011719 -0.03366089
vn -0.7104492 0.7036133 -0.0044403076
vn -0.70751953 0.7060547 0.029342651
vn -0.70751953 0.7060547 0.029342651
vn 0.68310547 0.72998047 0.0026550293
vn 0.6826172 0.7294922 0.04434204
vn 0.6826172 0.7294922 0.04434204
vn 0.68310547 0.72998047 0.0028038025
vn 0.6826172 0.7294922 -0.038909912
vn 0.6826172 0.7294922 -0.038909912
vn -0.67626953 0.7368164 -0.0033454895
vn -0.67529297 0.73535156 -0.056365967
vn -0.67529297 0.73535156 -0.056365967
vn -0.67626953 0.7368164 -0.0035896301
vn -0.67529297 0.73583984 0.049468994
vn -0.67529297 0.73583984 0.049468994
vn 0.68310547 0.73046875 0.0014266968
vn 0.6845703 0.72558594 0.069885254
vn 0.6845703 0.72558594 0.069885254
vn 0.68310547 0.72998047 0.007472992
vn 0.67871094 0.7319336 -0.060760498
vn 0.67871094 0.7319336 -0.060760498
g SM_Map00#_0
f 3/3/3 2/2/2 1/1/1
f 4/4/4 3/3/3 1/1/1
f 4/4/4 1/1/1 5/5/5
f 6/6/6 4/4/4 5/5/5
f 9/9/9 8/8/8 7/7/7
f 10/10/10 9/9/9 7/7/7
f 10/10/10 7/7/7 11/11/11
f 12/12/12 10/10/10 11/11/11
f 15/15/15 14/14/14 13/13/13
f 16/16/16 15/15/15 13/13/13
f 16/16/16 13/13/13 17/17/17
f 18/18/18 16/16/16 17/17/17
f 21/21/21 20/20/20 19/19/19
f 22/22/22 21/21/21 19/19/19
f 22/22/22 19/19/19 23/23/23
f 24/24/24 22/22/22 23/23/23
f 27/27/27 26/26/26 25/25/25
f 28/28/28 27/27/27 25/25/25
f 28/28/28 25/25/25 29/29/29
f 30/30/30 28/28/28 29/29/29
f 33/33/33 32/32/32 31/31/31
f 34/34/34 33/33/33 31/31/31
f 34/34/34 31/31/31 35/35/35
f 36/36/36 34/34/34 35/35/35
f 39/39/39 38/38/38 37/37/37
f 40/40/40 39/39/39 37/37/37
f 40/40/40 37/37/37 41/41/41
f 42/42/42 40/40/40 41/41/41
f 45/45/45 44/44/44 43/43/43
f 46/46/46 45/45/45 43/43/43
f 46/46/46 43/43/43 47/47/47
f 48/48/48 46/46/46 47/47/47
f 51/51/51 50/50/50 49/49/49
f 52/52/52 51/51/51 49/49/49
f 52/52/52 49/49/49 53/53/53
f 54/54/54 52/52/52 53/53/53
f 57/57/57 56/56/56 55/55/55
f 58/58/58 57/57/57 55/55/55
f 58/58/58 55/55/55 59/59/59
f 60/60/60 58/58/58 59/59/59
f 63/63/63 62/62/62 61/61/61
f 64/64/64 63/63/63 61/61/61
f 64/64/64 61/61/61 65/65/65
f 66/66/66 64/64/64 65/65/65
f 69/69/69 68/68/68 67/67/67
f 70/70/70 69/69/69 67/67/67
f 70/70/70 67/67/67 71/71/71
f 72/72/72 70/70/70 71/71/71
f 75/75/75 74/74/74 73/73/73
f 76/76/76 75/75/75 73/73/73
f 76/76/76 73/73/73 77/77/77
f 78/78/78 76/76/76 77/77/77
f 81/81/81 80/80/80 79/79/79
f 82/82/82 81/81/81 79/79/79
f 82/82/82 79/79/79 83/83/83
f 84/84/84 82/82/82 83/83/83
