g SM_Piano
v 0.21272063 -0.04988885 0.20346938
v 0.21272063 -0.04988885 -0.20346938
v -0.21272063 -0.04988885 -0.20346938
v -0.21272063 -0.04988885 0.20346938
v 0.21272063 0.04988897 0.20346938
v -0.21272063 0.04988897 0.20346938
v -0.21272063 0.04988897 -0.20346938
v 0.21272063 0.04988897 -0.20346938
v -0.21272063 -0.04988885 0.20346938
v -0.21272063 0.04988897 0.20346938
v 0.21272063 0.04988897 0.20346938
v 0.21272063 -0.04988885 0.20346938
v 0.21272063 -0.04988885 0.20346938
v 0.21272063 0.04988897 0.20346938
v 0.21272063 0.04988897 -0.20346938
v 0.21272063 -0.04988885 -0.20346938
v 0.21272063 -0.04988885 -0.20346938
v 0.21272063 0.04988897 -0.20346938
v -0.21272063 0.04988897 -0.20346938
v -0.21272063 -0.04988885 -0.20346938
v -0.21272063 -0.04988885 -0.20346938
v -0.21272063 0.04988897 -0.20346938
v -0.21272063 0.04988897 0.20346938
v -0.21272063 -0.04988885 0.20346938
vt 0.35180664 0.5371094
vt 0.25708008 0.5283203
vt 0.31689453 0.5214844
vt 0.41186523 0.53027344
vt 0.35180664 0.5371094
vt 0.41186523 0.53027344
vt 0.31689453 0.5214844
vt 0.25708008 0.5283203
vt 0.37451172 0.52685547
vt 0.37451172 0.52685547
vt 0.31445312 0.5336914
vt 0.31445312 0.5336914
vt 0.36889648 0.53515625
vt 0.36889648 0.53515625
vt 0.27416992 0.5263672
vt 0.27416992 0.5263672
vt 0.2849121 0.5307617
vt 0.2849121 0.5307617
vt 0.3449707 0.5239258
vt 0.3449707 0.5239258
vt 0.31396484 0.52197266
vt 0.31396484 0.52197266
vt 0.40893555 0.5307617
vt 0.40893555 0.5307617
vn -0 -1 0
vn -0 -1 0
vn -0 -1 0
vn -0 -1 0
vn -0 1 0
vn -0 1 0
vn -0 1 0
vn -0 1 0
vn -0 0 1
vn -0 0 1
vn -0 0 1
vn -0 0 1
vn 1 0 0
vn 1 0 0
vn 1 0 0
vn 1 0 0
vn -0 0 -1
vn -0 0 -1
vn -0 0 -1
vn -0 0 -1
vn -1 0 0
vn -1 0 0
vn -1 0 0
vn -1 0 0
g SM_Piano_0
f 3/3/3 2/2/2 1/1/1
f 4/4/4 3/3/3 1/1/1
f 7/7/7 6/6/6 5/5/5
f 8/8/8 7/7/7 5/5/5
f 11/11/11 10/10/10 9/9/9
f 12/12/12 11/11/11 9/9/9
f 15/15/15 14/14/14 13/13/13
f 16/16/16 15/15/15 13/13/13
f 19/19/19 18/18/18 17/17/17
f 20/20/20 19/19/19 17/17/17
f 23/23/23 22/22/22 21/21/21
f 24/24/24 23/23/23 21/21/21
