g SM_Piano.006
v 0.21272063 -0.060669184 0.102911524
v 0.21272063 -0.060669184 -0.102911524
v -0.21272063 -0.060669184 -0.102911524
v -0.21272063 -0.060669184 0.102911524
v 0.21272063 0.060669184 0.102911524
v -0.21272063 0.060669184 0.102911524
v -0.21272063 0.060669184 -0.102911524
v 0.21272063 0.060669184 -0.102911524
v -0.21272063 -0.060669184 0.102911524
v -0.21272063 0.060669184 0.102911524
v 0.21272063 0.060669184 0.102911524
v 0.21272063 -0.060669184 0.102911524
v 0.21272063 -0.060669184 0.102911524
v 0.21272063 0.060669184 0.102911524
v 0.21272063 0.060669184 -0.102911524
v 0.21272063 -0.060669184 -0.102911524
v 0.21272063 -0.060669184 -0.102911524
v 0.21272063 0.060669184 -0.102911524
v -0.21272063 0.060669184 -0.102911524
v -0.21272063 -0.060669184 -0.102911524
v -0.21272063 -0.060669184 -0.102911524
v -0.21272063 0.060669184 -0.102911524
v -0.21272063 0.060669184 0.102911524
v -0.21272063 -0.060669184 0.102911524
vt 0.6894531 0.5698242
vt 0.64160156 0.5654297
vt 0.70166016 0.55859375
vt 0.7495117 0.56347656
vt 0.6894531 0.5698242
vt 0.7495117 0.56347656
vt 0.70166016 0.55859375
vt 0.64160156 0.5654297
vt 0.36914062 0.52734375
vt 0.36914062 0.52734375
vt 0.30908203 0.5341797
vt 0.30908203 0.5341797
vt 0.71191406 0.5673828
vt 0.71191406 0.5673828
vt 0.6640625 0.5629883
vt 0.6640625 0.5629883
vt 0.27929688 0.53125
vt 0.27929688 0.53125
vt 0.33935547 0.52490234
vt 0.33935547 0.52490234
vt 0.70410156 0.55859375
vt 0.70410156 0.55859375
vt 0.7519531 0.5629883
vt 0.7519531 0.5629883
vn -0 -1 0
vn -0 -1 0
vn -0 -1 0
vn -0 -1 0
vn -0 1 0
vn -0 1 0
vn -0 1 0
vn -0 1 0
vn -0 0 1
vn -0 0 1
vn -0 0 1
vn -0 0 1
vn 1 0 0
vn 1 0 0
vn 1 0 0
vn 1 0 0
vn -0 0 -1
vn -0 0 -1
vn -0 0 -1
vn -0 0 -1
vn -1 0 0
vn -1 0 0
vn -1 0 0
vn -1 0 0
g SM_Piano.006_0
f 3/3/3 2/2/2 1/1/1
f 4/4/4 3/3/3 1/1/1
f 7/7/7 6/6/6 5/5/5
f 8/8/8 7/7/7 5/5/5
f 11/11/11 10/10/10 9/9/9
f 12/12/12 11/11/11 9/9/9
f 15/15/15 14/14/14 13/13/13
f 16/16/16 15/15/15 13/13/13
f 19/19/19 18/18/18 17/17/17
f 20/20/20 19/19/19 17/17/17
f 23/23/23 22/22/22 21/21/21
f 24/24/24 23/23/23 21/21/21
