g SM_Scene_A_HotelDoor00
v 0.0532341 -1.5747012 -0.001991272
v 0.12008095 -1.5747012 1.7846146
v 0.12008095 1.5747012 1.7846146
v 0.0532341 1.5747012 -0.001991272
v -0.053232193 -1.5747012 0.001991272
v -0.053232193 1.5747012 0.001991272
v 0.013614655 1.5747012 1.7885971
v 0.013614655 -1.5747012 1.7885971
v 0.0532341 -1.5747012 -0.001991272
v 0.0532341 1.5747012 -0.001991272
v -0.053232193 1.5747012 0.001991272
v -0.053232193 -1.5747012 0.001991272
v 0.12008095 -1.5747012 1.7846146
v 0.0532341 -1.5747012 -0.001991272
v -0.053232193 -1.5747012 0.001991272
v 0.013614655 -1.5747012 1.7885971
v 0.0532341 1.5747012 -0.001991272
v 0.12008095 1.5747012 1.7846146
v 0.013614655 1.5747012 1.7885971
v -0.053232193 1.5747012 0.001991272
v 0.12008095 1.5747012 1.7846146
v 0.12008095 -1.5747012 1.7846146
v 0.013614655 -1.5747012 1.7885971
v 0.013614655 1.5747012 1.7885971
vt 0.7192383 0.011657715
vt 0.27563477 0.011657715
vt 0.27563477 0.7993164
vt 0.7192383 0.7993164
vt 0.7192383 0.011657715
vt 0.7192383 0.7993164
vt 0.27563477 0.7993164
vt 0.27563477 0.011657715
vt 0.7192383 0.011657715
vt 0.7192383 0.7993164
vt 0.7192383 0.7993164
vt 0.7192383 0.011657715
vt 0.27563477 0.011657715
vt 0.7192383 0.011657715
vt 0.7192383 0.011657715
vt 0.27563477 0.011657715
vt 0.7192383 0.7993164
vt 0.27563477 0.7993164
vt 0.27563477 0.7993164
vt 0.7192383 0.7993164
vt 0.27563477 0.7993164
vt 0.27563477 0.011657715
vt 0.27563477 0.011657715
vt 0.27563477 0.7993164
vn 0.9995117 0 -0.037384033
vn 0.9995117 0 -0.037384033
vn 0.9995117 0 -0.037384033
vn 0.9995117 0 -0.037384033
vn -0.9995117 0 0.037384033
vn -0.9995117 0 0.037384033
vn -0.9995117 0 0.037384033
vn -0.9995117 0 0.037384033
vn -0.037384033 0 -0.9995117
vn -0.037384033 0 -0.9995117
vn -0.037384033 0 -0.9995117
vn -0.037384033 0 -0.9995117
vn -2.3841858E-07 -1 0
vn -2.3841858E-07 -1 0
vn -2.3841858E-07 -1 0
vn -2.3841858E-07 -1 0
vn 2.3841858E-07 1 0
vn 2.3841858E-07 1 0
vn 2.3841858E-07 1 0
vn 2.3841858E-07 1 0
vn 0.037384033 0 0.9995117
vn 0.037384033 0 0.9995117
vn 0.037384033 0 0.9995117
vn 0.037384033 0 0.9995117
g SM_Scene_A_HotelDoor00_0
f 3/3/3 2/2/2 1/1/1
f 4/4/4 3/3/3 1/1/1
f 7/7/7 6/6/6 5/5/5
f 8/8/8 7/7/7 5/5/5
f 11/11/11 10/10/10 9/9/9
f 12/12/12 11/11/11 9/9/9
f 15/15/15 14/14/14 13/13/13
f 16/16/16 15/15/15 13/13/13
f 19/19/19 18/18/18 17/17/17
f 20/20/20 19/19/19 17/17/17
f 23/23/23 22/22/22 21/21/21
f 24/24/24 23/23/23 21/21/21
