g SM_Scene_A_Grass00
v 14.27632 -59.670063 36.22734
v 16.266005 -59.670063 36.22734
v 16.266005 -59.670063 50.418743
v 14.27632 -59.670063 50.418743
v -29.58945 -26.516418 -304.19897
v -26.454252 -26.672375 -270.60678
v -214.1837 -26.672375 -253.02965
v -215.65228 -26.516418 -302.01465
v -23.319061 -26.82833 -237.0146
v -209.68187 -26.82833 -233.2773
v -26.454252 -26.672375 -270.60678
v 228.91904 -26.672375 -275.0545
v 228.20052 -26.82833 -242.20085
v 94.2858 -26.82833 -242.1795
v 87.89369 -26.672375 -275.0545
v 87.89369 -26.672375 -275.0545
v 28.592354 -26.672375 -271.42383
v 22.200256 -26.516418 -304.29883
v 81.50159 -26.516418 -307.92953
v 28.592354 -26.672375 -271.42383
v -26.454252 -26.672375 -270.60678
v -29.58945 -26.516418 -304.19897
v 22.200256 -26.516418 -304.29883
v 34.98445 -26.82833 -238.54878
v -23.319061 -26.82833 -237.0146
v -26.454252 -26.672375 -270.60678
v 28.592354 -26.672375 -271.42383
v 94.2858 -26.82833 -242.1795
v 34.98445 -26.82833 -238.54878
v 28.592354 -26.672375 -271.42383
v 87.89369 -26.672375 -275.0545
v 229.63759 -26.516418 -307.90814
v 228.91904 -26.672375 -275.0545
v 87.89369 -26.672375 -275.0545
v 81.50159 -26.516418 -307.92953
v -29.58945 -26.516418 -427.12027
v -26.454252 -26.672375 -393.52808
v -214.1837 -26.672375 -375.95093
v -215.65228 -26.516418 -424.9359
v 228.91904 -26.672375 -397.97577
v 228.20052 -26.82833 -365.12213
v 94.2858 -26.82833 -365.10077
v 87.89369 -26.672375 -397.97577
v 87.89369 -26.672375 -397.97577
v 28.592354 -26.672375 -394.34512
v 22.200256 -26.516418 -427.2201
v 81.50159 -26.516418 -430.8508
v 28.592354 -26.672375 -394.34512
v -26.454252 -26.672375 -393.52808
v -29.58945 -26.516418 -427.12027
v 22.200256 -26.516418 -427.2201
v -23.319061 -26.82833 -359.93588
v -209.68187 -26.82833 -356.19858
v -214.1837 -26.672375 -375.95093
v -26.454252 -26.672375 -393.52808
v 34.98445 -26.82833 -361.47006
v -23.319061 -26.82833 -359.93588
v -26.454252 -26.672375 -393.52808
v 28.592354 -26.672375 -394.34512
v 94.2858 -26.82833 -365.10077
v 34.98445 -26.82833 -361.47006
v 28.592354 -26.672375 -394.34512
v 87.89369 -26.672375 -397.97577
v 229.63759 -26.516418 -430.82944
v 228.91904 -26.672375 -397.97577
v 87.89369 -26.672375 -397.97577
v 81.50159 -26.516418 -430.8508
vt 0.18383789 1.0976562
vt 0.36279297 1.0976562
vt 0.36279297 -0.17810059
vt 0.18383789 -0.17810059
vt -16.890625 0.017471313
vt -15.6328125 -0.01576233
vt -16.375 -3.7636719
vt -18.1875 -3.6542969
vt -14.3828125 -0.04598999
vt -15.625 -3.7304688
vt -15.6328125 -0.012512207
vt -13.8984375 5.078125
vt -12.703125 4.96875
vt -13.6875 2.3359375
vt -14.9375 2.3066406
vt -14.96875 2.2089844
vt -15.2734375 1.03125
vt -16.515625 0.99560547
vt -16.21875 2.1738281
vt -15.2578125 1.0869141
vt -15.6328125 -0.00015830994
vt -16.875 0.034118652
vt -16.5 1.0556641
vt -14.0078125 1.109375
vt -14.3828125 -0.043884277
vt -15.6328125 -0.010215759
vt -15.2578125 1.0761719
vt -13.703125 2.28125
vt -14.0078125 1.0996094
vt -15.2578125 1.0664062
vt -14.953125 2.2480469
vt -15.078125 5.2226562
vt -13.8828125 5.1132812
vt -14.9296875 2.3300781
vt -16.171875 2.3027344
vt -21.375 0.36547852
vt -20.125 0.33203125
vt -20.875 -3.4160156
vt -22.671875 -3.3066406
vt -18.390625 5.4414062
vt -17.1875 5.328125
vt -18.171875 2.6972656
vt -19.421875 2.6679688
vt -19.46875 2.546875
vt -19.765625 1.3691406
vt -21.015625 1.3339844
vt -20.71875 2.5117188
vt -19.75 1.4384766
vt -20.125 0.3515625
vt -21.375 0.3857422
vt -21 1.4072266
vt -18.875 0.30273438
vt -20.125 -3.3828125
vt -20.875 -3.4160156
vt -20.125 0.33618164
vt -18.5 1.4580078
vt -18.875 0.30541992
vt -20.125 0.3388672
vt -19.75 1.4257812
vt -18.203125 2.6289062
vt -18.5 1.4462891
vt -19.75 1.4130859
vt -19.453125 2.59375
vt -19.5625 5.5898438
vt -18.375 5.4765625
vt -19.421875 2.6972656
vt -20.65625 2.6699219
vn -0 1 0
vn -0 1 0
vn -0 1 0
vn -0 1 0
vn 0.00012397766 1 0.0041999817
vn 0.00016593933 1 0.0047340393
vn 0.0002632141 1 0.004760742
vn 0.00019907951 1 0.0037670135
vn 0.00020849705 1 0.005214691
vn 0.00033044815 1 0.00579834
vn 0.00016593933 1 0.0047340393
vn -0 1 0.0047454834
vn 3.5762787E-07 1 0.0047454834
vn 0.00012922287 1 0.0047187805
vn 0.00014352798 1 0.004714966
vn 0.00014352798 1 0.004714966
vn 0.00017940998 1 0.0046844482
vn 0.00015127659 1 0.004688263
vn 0.00015842915 1 0.004714966
vn 0.00017940998 1 0.0046844482
vn 0.00016593933 1 0.0047340393
vn 0.00012397766 1 0.0041999817
vn 0.00015127659 1 0.004688263
vn 0.00020110607 1 0.0046844482
vn 0.00020849705 1 0.005214691
vn 0.00016593933 1 0.0047340393
vn 0.00017940998 1 0.0046844482
vn 0.00012922287 1 0.0047187805
vn 0.00020110607 1 0.0046844482
vn 0.00017940998 1 0.0046844482
vn 0.00014352798 1 0.004714966
vn -3.5762787E-07 1 0.0047454834
vn -0 1 0.0047454834
vn 0.00014352798 1 0.004714966
vn 0.00015842915 1 0.004714966
vn 0.00012397766 1 0.0041999817
vn 0.00016593933 1 0.0047340393
vn 0.0002632141 1 0.004760742
vn 0.00019907951 1 0.0037670135
vn -0 1 0.0047454834
vn 3.5762787E-07 1 0.0047454834
vn 0.00012922287 1 0.0047187805
vn 0.00014352798 1 0.004714966
vn 0.00014352798 1 0.004714966
vn 0.00017940998 1 0.0046844482
vn 0.00015127659 1 0.004688263
vn 0.00015842915 1 0.004714966
vn 0.00017940998 1 0.0046844482
vn 0.00016593933 1 0.0047340393
vn 0.00012397766 1 0.0041999817
vn 0.00015127659 1 0.004688263
vn 0.00020849705 1 0.005214691
vn 0.00033044815 1 0.00579834
vn 0.0002632141 1 0.004760742
vn 0.00016593933 1 0.0047340393
vn 0.00020110607 1 0.0046844482
vn 0.00020849705 1 0.005214691
vn 0.00016593933 1 0.0047340393
vn 0.00017940998 1 0.0046844482
vn 0.00012922287 1 0.0047187805
vn 0.00020110607 1 0.0046844482
vn 0.00017940998 1 0.0046844482
vn 0.00014352798 1 0.004714966
vn -3.5762787E-07 1 0.0047454834
vn -0 1 0.0047454834
vn 0.00014352798 1 0.004714966
vn 0.00015842915 1 0.004714966
g SM_Scene_A_Grass00_0
f 3/3/3 2/2/2 1/1/1
f 4/4/4 3/3/3 1/1/1
f 7/7/7 6/6/6 5/5/5
f 8/8/8 7/7/7 5/5/5
f 7/7/7 10/10/10 9/9/9
f 11/11/11 7/7/7 9/9/9
f 14/14/14 13/13/13 12/12/12
f 15/15/15 14/14/14 12/12/12
f 18/18/18 17/17/17 16/16/16
f 19/19/19 18/18/18 16/16/16
f 22/22/22 21/21/21 20/20/20
f 23/23/23 22/22/22 20/20/20
f 26/26/26 25/25/25 24/24/24
f 27/27/27 26/26/26 24/24/24
f 30/30/30 29/29/29 28/28/28
f 31/31/31 30/30/30 28/28/28
f 34/34/34 33/33/33 32/32/32
f 35/35/35 34/34/34 32/32/32
f 38/38/38 37/37/37 36/36/36
f 39/39/39 38/38/38 36/36/36
f 42/42/42 41/41/41 40/40/40
f 43/43/43 42/42/42 40/40/40
f 46/46/46 45/45/45 44/44/44
f 47/47/47 46/46/46 44/44/44
f 50/50/50 49/49/49 48/48/48
f 51/51/51 50/50/50 48/48/48
f 54/54/54 53/53/53 52/52/52
f 55/55/55 54/54/54 52/52/52
f 58/58/58 57/57/57 56/56/56
f 59/59/59 58/58/58 56/56/56
f 62/62/62 61/61/61 60/60/60
f 63/63/63 62/62/62 60/60/60
f 66/66/66 65/65/65 64/64/64
f 67/67/67 66/66/66 64/64/64
