g SM_Scene_A_Grass00.004
v -6.302902 -49.625618 -171.97855
v -6.320938 -49.625683 -139.74883
v -6.309116 -42.922928 -139.79095
v -6.29108 -42.92287 -172.0207
v -6.320938 -49.625683 -139.74883
v -21.76058 -49.625683 -139.8536
v -21.748756 -42.922928 -139.89574
v -6.309116 -42.922928 -139.79095
v -31.959581 -49.625618 -172.15268
v -31.94776 -42.92287 -172.19482
v -31.960077 -42.92291 -150.18289
v -31.9719 -49.625664 -150.14073
v -31.960077 -42.92291 -150.18289
v -31.94776 -42.92287 -172.19482
v -6.29108 -42.92287 -172.0207
v -6.309116 -42.922928 -139.79095
v -21.748756 -42.922928 -139.89574
v -6.29108 -42.92287 -172.0207
v -31.94776 -42.92287 -172.19482
v -31.959581 -49.625618 -172.15268
v -6.302902 -49.625618 -171.97855
v -21.76058 -49.625683 -139.8536
v -31.9719 -49.625664 -150.14073
v -31.960077 -42.92291 -150.18289
v -21.748756 -42.922928 -139.89574
v -6.302902 -49.625618 -171.97855
v -31.959581 -49.625618 -172.15268
v -31.9719 -49.625664 -150.14073
v -6.320938 -49.625683 -139.74883
v -21.76058 -49.625683 -139.8536
vt 0.25463867 0.46850586
vt 0.25463867 0.93359375
vt 0.35131836 0.93310547
vt 0.35131836 0.46777344
vt 0.35180664 0.46777344
vt 0.35131836 0.69091797
vt 0.4482422 0.69091797
vt 0.44848633 0.46777344
vt 0.8378906 0.53271484
vt 0.74121094 0.53222656
vt 0.74121094 0.85009766
vt 0.8378906 0.85058594
vt 0.37060547 0.3178711
vt 0.37060547 0
vt 0 0.0023078918
vt 5.9604645E-08 0.46777344
vt 0.22302246 0.4663086
vt 0.44848633 0.46777344
vt 0.44848633 0.8383789
vt 0.54541016 0.8383789
vt 0.54541016 0.46801758
vt 0.35131836 0.69091797
vt 0.35180664 0.8413086
vt 0.44848633 0.8408203
vt 0.4482422 0.69091797
vt 0.37060547 0.46557617
vt 0.74121094 0.46777344
vt 0.74121094 0.14990234
vt 0.37060547 0
vt 0.59375 0.0013885498
vn 1 -0.0017604828 0.0005598068
vn 1 -0.0017604828 0.0005598068
vn 1 -0.0017604828 0.0005598068
vn 1 -0.0017604828 0.0005598068
vn -0.0067863464 0.006298065 1
vn -0.0067863464 0.006298065 1
vn -0.0067863464 0.006298065 1
vn -0.0067863464 0.006298065 1
vn -1 0.0017604828 -0.00055933
vn -1 0.0017604828 -0.00055933
vn -1 0.0017604828 -0.00055933
vn -1 0.0017604828 -0.00055933
vn -0 1 1.9073486E-06
vn -0 1 1.9073486E-06
vn -0 1 1.9073486E-06
vn -0 1 1.9073486E-06
vn -0 1 1.9073486E-06
vn 0.0067863464 -0.00630188 -1
vn 0.0067863464 -0.00630188 -1
vn 0.0067863464 -0.00630188 -1
vn 0.0067863464 -0.00630188 -1
vn -0.70947266 0.005680084 0.70458984
vn -0.70947266 0.005680084 0.70458984
vn -0.70947266 0.005680084 0.70458984
vn -0.70947266 0.005680084 0.70458984
vn -1.7881393E-07 -1 -1.9073486E-06
vn -1.7881393E-07 -1 -1.9073486E-06
vn -1.7881393E-07 -1 -1.9073486E-06
vn -1.7881393E-07 -1 -1.9073486E-06
vn -1.7881393E-07 -1 -1.9073486E-06
g SM_Scene_A_Grass00.004_0
f 3/3/3 2/2/2 1/1/1
f 4/4/4 3/3/3 1/1/1
f 7/7/7 6/6/6 5/5/5
f 8/8/8 7/7/7 5/5/5
f 11/11/11 10/10/10 9/9/9
f 12/12/12 11/11/11 9/9/9
f 15/15/15 14/14/14 13/13/13
f 13/13/13 16/16/16 15/15/15
f 13/13/13 17/17/17 16/16/16
f 20/20/20 19/19/19 18/18/18
f 21/21/21 20/20/20 18/18/18
f 24/24/24 23/23/23 22/22/22
f 25/25/25 24/24/24 22/22/22
f 28/28/28 27/27/27 26/26/26
f 26/26/26 29/29/29 28/28/28
f 29/29/29 30/30/30 28/28/28
