g SM_Scene_A_Fence02
v 3.7887437 -69.467384 -60.917526
v -2.0733395 -69.489395 -60.91973
v -2.1100674 -64.757904 -60.88472
v 3.7520177 -64.735886 -60.882523
v 16.721823 -69.467384 -59.396782
v 11.389035 -69.489395 -59.398983
v 11.352307 -64.757904 -59.36397
v 16.685099 -64.735886 -59.361774
v 4.262173 -67.53853 -53.66654
v 4.27926 -65.95244 -53.642403
v 4.2788305 -65.95673 -51.83164
v 4.261743 -67.54282 -51.855774
v 4.2786164 -65.958885 -50.928295
v 4.261743 -67.89219 -51.855774
v 4.262173 -67.88789 -53.66654
v 4.2615285 -67.544975 -50.952435
v 4.2781873 -65.96318 -49.117535
v 4.2610984 -67.54927 -49.14167
v 4.2610984 -67.898636 -49.14167
v 4.2615285 -67.89434 -50.952435
v 4.262173 -67.53853 -58.739643
v 4.27926 -65.95244 -58.715508
v 4.2788305 -65.95673 -56.90474
v 4.261743 -67.54282 -56.92888
v 4.2786164 -65.958885 -56.0014
v 4.261743 -67.89219 -56.92888
v 4.262173 -67.88789 -58.739643
v 4.2615285 -67.544975 -56.025536
v 4.2781873 -65.96318 -54.19064
v 4.2610984 -67.54927 -54.214775
v 4.2610984 -67.898636 -54.214775
v 4.2615285 -67.89434 -56.025536
v 11.165146 -67.53853 -53.90104
v 11.14806 -65.95244 -53.925175
v 11.14849 -65.95673 -55.735935
v 11.165577 -67.54282 -55.7118
v 11.148704 -65.958885 -56.639282
v 11.165791 -67.544975 -56.61514
v 11.149133 -65.96318 -58.450043
v 11.166222 -67.54927 -58.425907
v 11.165146 -67.53853 -53.90104
v 11.165577 -67.54282 -55.7118
v 11.165577 -67.89219 -55.7118
v 11.165146 -67.88789 -53.90104
v 11.165791 -67.544975 -56.61514
v 11.166222 -67.54927 -58.425907
v 11.166222 -67.898636 -58.425907
v 11.165791 -67.89434 -56.61514
v 11.165146 -67.53853 -48.827934
v 11.14806 -65.95244 -48.85207
v 11.14849 -65.95673 -50.66283
v 11.165577 -67.54282 -50.638695
v 11.148704 -65.958885 -51.566177
v 11.165791 -67.544975 -51.542034
v 11.149133 -65.96318 -53.376938
v 11.166222 -67.54927 -53.352802
v 11.165146 -67.53853 -48.827934
v 11.165577 -67.54282 -50.638695
v 11.165577 -67.89219 -50.638695
v 11.165146 -67.88789 -48.827934
v 11.165791 -67.544975 -51.542034
v 11.166222 -67.54927 -53.352802
v 11.166222 -67.898636 -53.352802
v 11.165791 -67.89434 -51.542034
v -2.391314 -67.55741 -54.213394
v -2.408401 -65.97132 -54.23753
v -2.4079716 -65.97562 -56.048294
v -2.390884 -67.56171 -56.024155
v -2.4077575 -65.97777 -56.951633
v -2.390884 -67.91107 -56.024155
v -2.391314 -67.90678 -54.213394
v -2.3906696 -67.56386 -56.927498
v -2.4073286 -65.98206 -58.762398
v -2.3902397 -67.56815 -58.738262
v -2.3902397 -67.91752 -58.738262
v -2.3906696 -67.91322 -56.927498
v -2.3913133 -67.55741 -49.140285
v -2.4084005 -65.97132 -49.16442
v -2.4079711 -65.97562 -50.97519
v -2.3908837 -67.56171 -50.95105
v -2.407757 -65.97777 -51.87853
v -2.3908837 -67.91107 -50.95105
v -2.3913133 -67.90678 -49.140285
v -2.390669 -67.56386 -51.854393
v -2.4073281 -65.98206 -53.68929
v -2.3902392 -67.56815 -53.665154
v -2.3902392 -67.91752 -53.665154
v -2.390669 -67.91322 -51.854393
vt 21.203125 1.4335938
vt 19.890625 1.4365234
vt 19.890625 2.5117188
vt 21.203125 2.5078125
vt 24.078125 1.4169922
vt 22.890625 1.4199219
vt 22.890625 2.4941406
vt 24.078125 2.4921875
vt 19.40625 1.7822266
vt 19.40625 2.5214844
vt 18.578125 2.5234375
vt 18.59375 1.7851562
vt 18.171875 2.5253906
vt 18.578125 1.6230469
vt 19.40625 1.6191406
vt 18.171875 1.7871094
vt 17.34375 2.5292969
vt 17.34375 1.7910156
vt 17.34375 1.6279297
vt 18.171875 1.625
vt 19.40625 1.7822266
vt 19.40625 2.5214844
vt 18.578125 2.5234375
vt 18.59375 1.7851562
vt 18.171875 2.5253906
vt 18.578125 1.6230469
vt 19.40625 1.6191406
vt 18.171875 1.7871094
vt 17.34375 2.5292969
vt 17.34375 1.7910156
vt 17.34375 1.6279297
vt 18.171875 1.625
vt 19.515625 1.8115234
vt 19.53125 2.5507812
vt 20.359375 2.5429688
vt 20.34375 1.8046875
vt 20.78125 2.5390625
vt 20.765625 1.8007812
vt 21.609375 2.53125
vt 21.59375 1.7929688
vt 19.515625 1.78125
vt 20.34375 1.7734375
vt 20.34375 1.6113281
vt 19.515625 1.6181641
vt 20.765625 1.7705078
vt 21.59375 1.7626953
vt 21.578125 1.5996094
vt 20.765625 1.6074219
vt 14.890625 1.8427734
vt 14.90625 2.5800781
vt 15.734375 2.5742188
vt 15.71875 1.8349609
vt 16.140625 2.5703125
vt 16.125 1.8310547
vt 16.96875 2.5625
vt 16.953125 1.8242188
vt 14.890625 1.8125
vt 15.71875 1.8046875
vt 15.71875 1.6416016
vt 14.890625 1.6494141
vt 16.125 1.8007812
vt 16.953125 1.7929688
vt 16.953125 1.6308594
vt 16.125 1.6386719
vt 19.40625 1.7822266
vt 19.40625 2.5214844
vt 18.578125 2.5234375
vt 18.59375 1.7851562
vt 18.171875 2.5253906
vt 18.578125 1.6230469
vt 19.40625 1.6191406
vt 18.171875 1.7871094
vt 17.34375 2.5292969
vt 17.34375 1.7910156
vt 17.34375 1.6279297
vt 18.171875 1.625
vt 19.40625 1.7822266
vt 19.40625 2.5214844
vt 18.578125 2.5234375
vt 18.59375 1.7851562
vt 18.171875 2.5253906
vt 18.578125 1.6230469
vt 19.40625 1.6191406
vt 18.171875 1.7871094
vt 17.34375 2.5292969
vt 17.34375 1.7910156
vt 17.34375 1.6279297
vt 18.171875 1.625
vn -0.00034737587 -0.0074005127 1
vn -0.00034737587 -0.0074005127 1
vn -0.00034737587 -0.0074005127 1
vn -0.00034737587 -0.0074005127 1
vn -0.00038170815 -0.0074005127 1
vn -0.00038170815 -0.0074005127 1
vn -0.00038170815 -0.0074005127 1
vn -0.00038170815 -0.0074005127 1
vn -1 0.010772705 -0.00021183491
vn -1 0.010772705 -0.00021183491
vn -1 0.010772705 -0.00021183491
vn -1 0.010772705 -0.00021183491
vn -1 0.010772705 -0.00021147728
vn -1 0 -0.00023758411
vn -1 0 -0.00023758411
vn -1 0.010772705 -0.00021147728
vn -1 0.0107803345 -0.0002117157
vn -1 0.0107803345 -0.0002117157
vn -1 0 -0.0002374649
vn -1 0 -0.0002374649
vn -1 0.010772705 -0.00021183491
vn -1 0.010772705 -0.00021183491
vn -1 0.010772705 -0.00021183491
vn -1 0.010772705 -0.00021183491
vn -1 0.010772705 -0.00021147728
vn -1 0 -0.00023758411
vn -1 0 -0.00023758411
vn -1 0.010772705 -0.00021147728
vn -1 0.0107803345 -0.0002117157
vn -1 0.0107803345 -0.0002117157
vn -1 0 -0.0002374649
vn -1 0 -0.0002374649
vn 1 0.010772705 0.00021243095
vn 1 0.010772705 0.00021243095
vn 1 0.010772705 0.00021243095
vn 1 0.010772705 0.00021243095
vn 1 0.010772705 0.00021183491
vn 1 0.010772705 0.00021183491
vn 1 0.0107803345 0.00021135807
vn 1 0.0107803345 0.00021135807
vn 1 0 0.0002374649
vn 1 0 0.0002374649
vn 1 0 0.0002374649
vn 1 0 0.0002374649
vn 1 0 0.0002374649
vn 1 0 0.0002374649
vn 1 0 0.0002374649
vn 1 0 0.0002374649
vn 1 0.010772705 0.00021243095
vn 1 0.010772705 0.00021243095
vn 1 0.010772705 0.00021243095
vn 1 0.010772705 0.00021243095
vn 1 0.010772705 0.00021183491
vn 1 0.010772705 0.00021183491
vn 1 0.010772705 0.00021135807
vn 1 0.010772705 0.00021135807
vn 1 0 0.0002374649
vn 1 0 0.0002374649
vn 1 0 0.0002374649
vn 1 0 0.0002374649
vn 1 0 0.0002374649
vn 1 0 0.0002374649
vn 1 0 0.0002374649
vn 1 0 0.0002374649
vn 1 0.010772705 0.0002117157
vn 1 0.010772705 0.0002117157
vn 1 0.010772705 0.0002117157
vn 1 0.010772705 0.0002117157
vn 1 0.010772705 0.00021159649
vn 1 0 0.0002374649
vn 1 0 0.0002374649
vn 1 0.010772705 0.00021159649
vn 1 0.010772705 0.00021159649
vn 1 0.010772705 0.00021159649
vn 1 0 0.0002373457
vn 1 0 0.0002373457
vn 1 0.010772705 0.0002117157
vn 1 0.010772705 0.0002117157
vn 1 0.010772705 0.0002117157
vn 1 0.010772705 0.0002117157
vn 1 0.010772705 0.00021135807
vn 1 0 0.0002374649
vn 1 0 0.0002374649
vn 1 0.010772705 0.00021135807
vn 1 0.0107803345 0.00021159649
vn 1 0.0107803345 0.00021159649
vn 1 0 0.0002374649
vn 1 0 0.0002374649
g SM_Scene_A_Fence02_0
f 3/3/3 2/2/2 1/1/1
f 4/4/4 3/3/3 1/1/1
f 7/7/7 6/6/6 5/5/5
f 8/8/8 7/7/7 5/5/5
f 11/11/11 10/10/10 9/9/9
f 12/12/12 11/11/11 9/9/9
f 11/11/11 12/12/12 13/13/13
f 14/14/14 12/12/12 9/9/9
f 15/15/15 14/14/14 9/9/9
f 12/12/12 16/16/16 13/13/13
f 17/17/17 13/13/13 16/16/16
f 18/18/18 17/17/17 16/16/16
f 19/19/19 18/18/18 16/16/16
f 20/20/20 19/19/19 16/16/16
f 23/23/23 22/22/22 21/21/21
f 24/24/24 23/23/23 21/21/21
f 23/23/23 24/24/24 25/25/25
f 26/26/26 24/24/24 21/21/21
f 27/27/27 26/26/26 21/21/21
f 24/24/24 28/28/28 25/25/25
f 29/29/29 25/25/25 28/28/28
f 30/30/30 29/29/29 28/28/28
f 31/31/31 30/30/30 28/28/28
f 32/32/32 31/31/31 28/28/28
f 35/35/35 34/34/34 33/33/33
f 36/36/36 35/35/35 33/33/33
f 35/35/35 36/36/36 37/37/37
f 36/36/36 38/38/38 37/37/37
f 39/39/39 37/37/37 38/38/38
f 40/40/40 39/39/39 38/38/38
f 43/43/43 42/42/42 41/41/41
f 44/44/44 43/43/43 41/41/41
f 47/47/47 46/46/46 45/45/45
f 48/48/48 47/47/47 45/45/45
f 51/51/51 50/50/50 49/49/49
f 52/52/52 51/51/51 49/49/49
f 51/51/51 52/52/52 53/53/53
f 52/52/52 54/54/54 53/53/53
f 55/55/55 53/53/53 54/54/54
f 56/56/56 55/55/55 54/54/54
f 59/59/59 58/58/58 57/57/57
f 60/60/60 59/59/59 57/57/57
f 63/63/63 62/62/62 61/61/61
f 64/64/64 63/63/63 61/61/61
f 67/67/67 66/66/66 65/65/65
f 68/68/68 67/67/67 65/65/65
f 67/67/67 68/68/68 69/69/69
f 70/70/70 68/68/68 65/65/65
f 71/71/71 70/70/70 65/65/65
f 68/68/68 72/72/72 69/69/69
f 73/73/73 69/69/69 72/72/72
f 74/74/74 73/73/73 72/72/72
f 75/75/75 74/74/74 72/72/72
f 76/76/76 75/75/75 72/72/72
f 79/79/79 78/78/78 77/77/77
f 80/80/80 79/79/79 77/77/77
f 79/79/79 80/80/80 81/81/81
f 82/82/82 80/80/80 77/77/77
f 83/83/83 82/82/82 77/77/77
f 80/80/80 84/84/84 81/81/81
f 85/85/85 81/81/81 84/84/84
f 86/86/86 85/85/85 84/84/84
f 87/87/87 86/86/86 84/84/84
f 88/88/88 87/87/87 84/84/84
