g SM_Scene_A_WaterPlane03.004
v 228.78746 -76.60661 421.29993
v 228.82487 -76.60661 668.08997
v -70.83665 -76.60661 465.04742
v -70.87742 -76.60661 309.98767
v -164.55928 -76.60661 352.11475
v 228.76384 -76.60661 265.60388
v -164.60109 -76.60661 267.9386
v -70.90313 -76.60661 212.16284
v 228.74228 -76.60661 123.2205
v -70.92665 -76.60661 122.70244
v -164.62747 -76.60661 214.83311
v -164.6516 -76.60661 166.2684
v -223.45345 -76.60661 242.22832
v -223.42708 -76.60661 295.33377
vt 3.1757812 1.0537109
vt 4.5742188 0.6303711
vt 2.3964844 0.12927246
vt 1.5175781 0.39501953
vt 1.4345703 0.057403564
vt 2.2929688 1.3203125
vt 0.95751953 0.20166016
vt 0.9628906 0.5629883
vt 1.4863281 1.5644531
vt 0.45581055 0.7163086
vt 0.65625 0.2927246
vt 0.38110352 0.37597656
vt 0.6098633 0.07897949
vt 0.9111328 -0.012031555
vn -0 1 0
vn -0 1 0
vn -0 1 0
vn -0 1 0
vn -0 1 0
vn -0 1 0
vn -0 1 0
vn -0 1 0
vn -0 1 0
vn -0 1 0
vn -0 1 0
vn -0 1 0
vn -0 1 0
vn -0 1 0
g SM_Scene_A_WaterPlane03.004_0
f 3/3/3 2/2/2 1/1/1
f 4/4/4 3/3/3 1/1/1
f 5/5/5 3/3/3 4/4/4
f 4/4/4 1/1/1 6/6/6
f 7/7/7 5/5/5 4/4/4
f 8/8/8 4/4/4 6/6/6
f 7/7/7 4/4/4 8/8/8
f 8/8/8 6/6/6 9/9/9
f 10/10/10 8/8/8 9/9/9
f 11/11/11 8/8/8 10/10/10
f 11/11/11 7/7/7 8/8/8
f 12/12/12 11/11/11 10/10/10
f 11/11/11 13/13/13 7/7/7
f 13/13/13 14/14/14 7/7/7
