g SM_Scene_A_WaterGateControl00
v 0.11167574 -8.34465E-07 -0.6399826
v 0.11167574 1.3133365 -0.6399826
v -0.040547848 1.3133365 -0.6399826
v -0.11167359 -8.34465E-07 -0.6399826
v -0.38636824 -8.34465E-07 -0.6399826
v -0.46953344 1.3133365 -0.6399826
v -0.58293605 1.3133365 -0.6399826
v -0.58293605 -8.34465E-07 -0.6399826
v 0.049812317 1.6702205 0.54746395
v 0.049812317 1.6401283 0.5565048
v 0.049812317 1.566413 0.36206967
v 0.049812317 1.6107475 0.34958798
v 0.049812317 1.4006149 -0.349585
v 0.049812317 1.3075248 -0.3207764
v 0.049812317 1.2338115 -0.51520383
v 0.049812317 1.3411418 -0.5474609
v 0.11167574 -8.34465E-07 0.6399857
v 0.11167574 1.6980258 0.6399857
v 0.11167574 1.6111003 0.3507629
v 0.11167574 -8.34465E-07 0.3519531
v 0.11167574 -8.34465E-07 -0.3519501
v 0.11167574 1.400262 -0.35075992
v 0.11167574 1.3133365 -0.6399826
v 0.11167574 -8.34465E-07 -0.6399826
v -0.58293605 -8.34465E-07 -0.6399826
v -0.58293605 1.3133365 -0.6399826
v -0.58293605 1.400262 -0.35075992
v -0.58293605 -8.34465E-07 -0.3519501
v -0.58293605 -8.34465E-07 0.3519531
v -0.58293605 1.6111003 0.3507629
v -0.58293605 1.6980258 0.6399857
v -0.58293605 -8.34465E-07 0.6399857
v -0.5210726 1.566413 0.36206967
v -0.43530035 1.6401283 0.5565048
v -0.5210726 1.6401283 0.5565048
v -0.43530035 1.5663215 0.36182553
v -0.066281796 1.6401283 0.5565048
v -0.43530035 1.3076164 -0.32053226
v -0.066281796 1.5663081 0.361795
v -0.5210726 1.3075248 -0.3207764
v -0.5210726 1.2338115 -0.51520383
v -0.43530035 1.2338115 -0.51520383
v 0.049812317 1.6401283 0.5565048
v 0.049812317 1.566413 0.36206967
v -0.066281796 1.3076297 -0.32050174
v 0.049812317 1.3075248 -0.3207764
v -0.066281796 1.2338115 -0.51520383
v 0.049812317 1.2338115 -0.51520383
v -0.5210726 1.6702205 0.54746395
v -0.5210726 1.6401283 0.5565048
v -0.43530035 1.6401283 0.5565048
v -0.43530035 1.6702205 0.54746395
v -0.066281796 1.6702205 0.54746395
v -0.066281796 1.6401283 0.5565048
v 0.049812317 1.6401283 0.5565048
v 0.049812317 1.6702205 0.54746395
v 0.049812317 1.3411418 -0.5474609
v 0.049812317 1.2338115 -0.51520383
v -0.066281796 1.2338115 -0.51520383
v -0.066281796 1.3411418 -0.5474609
v -0.43530035 1.3411418 -0.5474609
v -0.43530035 1.2338115 -0.51520383
v -0.5210726 1.2338115 -0.51520383
v -0.5210726 1.3411418 -0.5474609
v -0.58293605 -8.34465E-07 0.3519531
v -0.58293605 -8.34465E-07 0.6399857
v -0.38636824 -8.34465E-07 0.6399857
v -0.38636824 -8.34465E-07 0.35232693
v -0.58293605 -8.34465E-07 -0.3519501
v -0.11167359 -8.34465E-07 0.35238034
v -0.11167359 -8.34465E-07 0.6399857
v 0.11167574 -8.34465E-07 0.6399857
v 0.11167574 -8.34465E-07 0.3519531
v -0.38636824 -8.34465E-07 -0.35232395
v -0.58293605 -8.34465E-07 -0.6399826
v -0.38636824 -8.34465E-07 -0.6399826
v -0.11167359 -8.34465E-07 -0.6399826
v -0.11167359 -8.34465E-07 -0.35237736
v 0.11167574 -8.34465E-07 -0.3519501
v 0.11167574 -8.34465E-07 -0.6399826
v -0.58293605 -8.34465E-07 0.6399857
v -0.58293605 1.6980258 0.6399857
v -0.46953344 1.6980258 0.6399857
v -0.38636824 -8.34465E-07 0.6399857
v -0.11167359 -8.34465E-07 0.6399857
v -0.040547848 1.6980258 0.6399857
v 0.11167574 1.6980258 0.6399857
v 0.11167574 -8.34465E-07 0.6399857
v -0.5210726 1.3411418 -0.5474609
v -0.5210726 1.2338115 -0.51520383
v -0.5210726 1.3075248 -0.3207764
v -0.5210726 1.4006149 -0.349585
v -0.5210726 1.6107475 0.34958798
v -0.5210726 1.566413 0.36206967
v -0.5210726 1.6401283 0.5565048
v -0.5210726 1.6702205 0.54746395
v -0.5210726 1.4006149 -0.349585
v -0.58293605 1.400262 -0.35075992
v -0.58293605 1.3133365 -0.6399826
v -0.58293605 1.6111003 0.3507629
v -0.5210726 1.3411418 -0.5474609
v -0.5210726 1.6107475 0.34958798
v -0.5210726 1.6702205 0.54746395
v -0.58293605 1.6980258 0.6399857
v -0.46953344 1.3133365 -0.6399826
v -0.43530035 1.3411418 -0.5474609
v -0.43530035 1.6702205 0.54746395
v -0.46953344 1.6980258 0.6399857
v -0.066281796 1.3411418 -0.5474609
v -0.040547848 1.3133365 -0.6399826
v 0.11167574 1.3133365 -0.6399826
v 0.049812317 1.3411418 -0.5474609
v -0.040547848 1.6980258 0.6399857
v -0.066281796 1.6702205 0.54746395
v 0.049812317 1.6702205 0.54746395
v 0.11167574 1.6980258 0.6399857
v 0.11167574 1.400262 -0.35075992
v 0.049812317 1.4006149 -0.349585
v 0.049812317 1.6107475 0.34958798
v 0.11167574 1.6111003 0.3507629
v -0.43530035 1.3076164 -0.32053226
v -0.43530035 1.5004054 -0.20019381
v -0.43530035 1.6308719 0.1439224
v -0.43530035 1.5663215 0.36182553
v -0.066281796 1.5004131 -0.20017855
v -0.066281796 1.6308643 0.14390714
v -0.43530035 1.6308719 0.1439224
v -0.43530035 1.5004054 -0.20019381
v -0.43530035 1.5663215 0.36182553
v -0.43530035 1.6308719 0.1439224
v -0.066281796 1.6308643 0.14390714
v -0.066281796 1.5663081 0.361795
v -0.066281796 1.5663081 0.361795
v -0.066281796 1.6308643 0.14390714
v -0.066281796 1.5004131 -0.20017855
v -0.066281796 1.3076297 -0.32050174
v -0.066281796 1.3076297 -0.32050174
v -0.066281796 1.5004131 -0.20017855
v -0.43530035 1.5004054 -0.20019381
v -0.43530035 1.3076164 -0.32053226
vt 0.5732422 0.17407227
vt 0.5732422 0.55078125
vt 0.5292969 0.55078125
vt 0.50927734 0.17407227
vt 0.43017578 0.17407227
vt 0.40649414 0.55078125
vt 0.3737793 0.55078125
vt 0.3737793 0.17407227
vt 0.3071289 0.6533203
vt 0.3046875 0.64453125
vt 0.36035156 0.62353516
vt 0.36401367 0.63623047
vt 0.5644531 0.5761719
vt 0.55615234 0.5493164
vt 0.6123047 0.5283203
vt 0.62158203 0.55908203
vt 0.28076172 0.17407227
vt 0.28076172 0.6611328
vt 0.36376953 0.63623047
vt 0.36328125 0.17407227
vt 0.5654297 0.17407227
vt 0.5649414 0.5756836
vt 0.6479492 0.55078125
vt 0.6479492 0.17407227
vt 0.6479492 0.17407227
vt 0.6479492 0.55078125
vt 0.5649414 0.5756836
vt 0.5654297 0.17407227
vt 0.36328125 0.17407227
vt 0.36376953 0.63623047
vt 0.28076172 0.6611328
vt 0.28076172 0.17407227
vt 0.39160156 0.43310547
vt 0.41625977 0.3774414
vt 0.39160156 0.3774414
vt 0.41625977 0.43310547
vt 0.52197266 0.3774414
vt 0.41625977 0.62890625
vt 0.52197266 0.43310547
vt 0.39160156 0.62890625
vt 0.39160156 0.6850586
vt 0.41625977 0.6850586
vt 0.5551758 0.3774414
vt 0.5551758 0.43310547
vt 0.52197266 0.62890625
vt 0.5551758 0.62890625
vt 0.52197266 0.6850586
vt 0.5551758 0.6850586
vt 0.39160156 0.6533203
vt 0.39160156 0.64453125
vt 0.41625977 0.64453125
vt 0.41625977 0.6533203
vt 0.52197266 0.6533203
vt 0.52197266 0.64453125
vt 0.5551758 0.64453125
vt 0.5551758 0.6533203
vt 0.5551758 0.55908203
vt 0.5551758 0.5283203
vt 0.52197266 0.5283203
vt 0.52197266 0.55908203
vt 0.41625977 0.55908203
vt 0.41625977 0.5283203
vt 0.39160156 0.5283203
vt 0.39160156 0.55908203
vt 0.3737793 0.43603516
vt 0.3737793 0.35327148
vt 0.43017578 0.35327148
vt 0.43017578 0.43603516
vt 0.3737793 0.6381836
vt 0.50927734 0.43579102
vt 0.50927734 0.35327148
vt 0.5732422 0.35327148
vt 0.5732422 0.43603516
vt 0.43017578 0.6381836
vt 0.3737793 0.7207031
vt 0.43017578 0.7207031
vt 0.50927734 0.7207031
vt 0.50927734 0.6381836
vt 0.5732422 0.6381836
vt 0.5732422 0.7207031
vt 0.3737793 0.17407227
vt 0.3737793 0.6611328
vt 0.40649414 0.6611328
vt 0.43017578 0.17407227
vt 0.50927734 0.17407227
vt 0.5292969 0.6611328
vt 0.5732422 0.6611328
vt 0.5732422 0.17407227
vt 0.62158203 0.55908203
vt 0.6123047 0.5283203
vt 0.55615234 0.5493164
vt 0.5644531 0.5761719
vt 0.36401367 0.63623047
vt 0.36035156 0.62353516
vt 0.3046875 0.64453125
vt 0.3071289 0.6533203
vt 0.31762695 0.9321289
vt 0.31323242 0.9321289
vt 0.31323242 0.95214844
vt 0.31323242 0.8833008
vt 0.31762695 0.9458008
vt 0.31762695 0.8833008
vt 0.31762695 0.8696289
vt 0.31323242 0.86328125
vt 0.32104492 0.95214844
vt 0.32348633 0.9458008
vt 0.32348633 0.8696289
vt 0.32104492 0.86328125
vt 0.3491211 0.9458008
vt 0.35107422 0.95214844
vt 0.36157227 0.95214844
vt 0.35717773 0.9458008
vt 0.35107422 0.86328125
vt 0.3491211 0.8696289
vt 0.35717773 0.8696289
vt 0.36157227 0.86328125
vt 0.36157227 0.9321289
vt 0.35717773 0.9321289
vt 0.35717773 0.8833008
vt 0.36157227 0.8833008
vt 0.578125 0.54541016
vt 0.53564453 0.61328125
vt 0.41503906 0.6591797
vt 0.33862305 0.63623047
vt 0.5361328 0.6010742
vt 0.5361328 0.4802246
vt 0.40673828 0.4802246
vt 0.40673828 0.6010742
vt 0.40673828 0.4038086
vt 0.40673828 0.4802246
vt 0.5361328 0.4802246
vt 0.5361328 0.4038086
vt 0.33862305 0.63623047
vt 0.41503906 0.6591797
vt 0.53564453 0.61328125
vt 0.578125 0.54541016
vt 0.5361328 0.54541016
vt 0.5361328 0.61328125
vt 0.40673828 0.61328125
vt 0.40673828 0.54541016
vn -0 0 -1
vn -0 0 -1
vn -0 0 -1
vn -0 0 -1
vn -0 0 -1
vn -0 0 -1
vn -0 0 -1
vn -0 0 -1
vn -1 0 0
vn -1 0 0
vn -1 0 0
vn -1 0 0
vn -1 0 0
vn -1 0 0
vn -1 0 0
vn -1 0 0
vn 1 0 0
vn 1 0 0
vn 1 0 0
vn 1 0 0
vn 1 0 0
vn 1 0 0
vn 1 0 0
vn 1 0 0
vn -1 0 0
vn -1 0 0
vn -1 0 0
vn -1 0 0
vn -1 0 0
vn -1 0 0
vn -1 0 0
vn -1 0 0
vn -5.00679E-06 0.9350586 -0.3544922
vn -5.00679E-06 0.9350586 -0.3544922
vn -5.00679E-06 0.9350586 -0.3544922
vn -5.00679E-06 0.9350586 -0.3544922
vn -3.695488E-06 0.9350586 -0.3544922
vn -2.1457672E-06 0.9350586 -0.3544922
vn -3.695488E-06 0.9350586 -0.3544922
vn 5.00679E-06 0.9350586 -0.3544922
vn 5.00679E-06 0.9350586 -0.3544922
vn -2.1457672E-06 0.9350586 -0.3544922
vn -3.695488E-06 0.9350586 -0.3544922
vn -3.695488E-06 0.9350586 -0.3544922
vn -2.1457672E-06 0.9350586 -0.3544922
vn 2.3841858E-07 0.9350586 -0.3544922
vn -2.1457672E-06 0.9350586 -0.3544922
vn 3.0994415E-06 0.9350586 -0.3544922
vn -0 -0.2878418 -0.95751953
vn -0 -0.2878418 -0.95751953
vn -0 -0.2878418 -0.95751953
vn -0 -0.2878418 -0.95751953
vn -0 -0.2878418 -0.95751953
vn -0 -0.2878418 -0.95751953
vn -0 -0.2878418 -0.95751953
vn -0 -0.2878418 -0.95751953
vn -0 0.2878418 0.95751953
vn -0 0.2878418 0.95751953
vn -0 0.2878418 0.95751953
vn -0 0.2878418 0.95751953
vn -0 0.2878418 0.95751953
vn -0 0.2878418 0.95751953
vn -0 0.2878418 0.95751953
vn -0 0.2878418 0.95751953
vn -0 -1 0
vn -0 -1 0
vn -0 -1 0
vn -0 -1 0
vn -0 -1 0
vn -0 -1 0
vn -0 -1 0
vn -0 -1 0
vn -0 -1 0
vn -0 -1 0
vn -0 -1 0
vn -0 -1 0
vn -0 -1 0
vn -0 -1 0
vn -0 -1 0
vn -0 -1 0
vn -0 0 1
vn -0 0 1
vn -0 0 1
vn -0 0 1
vn -0 0 1
vn -0 0 1
vn -0 0 1
vn -0 0 1
vn 1 0 1.7881393E-07
vn 1 0 1.7881393E-07
vn 1 0 1.7881393E-07
vn 1 0 1.7881393E-07
vn 1 0 -4.7683716E-07
vn 1 0 -4.7683716E-07
vn 1 0 -4.7683716E-07
vn 1 0 -4.7683716E-07
vn 1.8954277E-05 0.95751953 -0.2878418
vn 1.8954277E-05 0.95751953 -0.2878418
vn -0 0.95751953 -0.2878418
vn -2.0861626E-05 0.95751953 -0.2878418
vn -0 0.95751953 -0.2878418
vn -2.0861626E-05 0.95751953 -0.2878418
vn -2.0861626E-05 0.95751953 -0.2878418
vn -2.0861626E-05 0.95751953 -0.2878418
vn -0 0.95751953 -0.2878418
vn -0 0.95751953 -0.2878418
vn -0 0.95751953 -0.2878418
vn -0 0.95751953 -0.2878418
vn -0 0.95751953 -0.2878418
vn -0 0.95751953 -0.2878418
vn -0 0.95751953 -0.2878418
vn -0 0.95751953 -0.2878418
vn -0 0.95751953 -0.2878418
vn -0 0.95751953 -0.2878418
vn -0 0.95751953 -0.2878418
vn -0 0.95751953 -0.2878418
vn -1.8954277E-05 0.95751953 -0.2878418
vn -1.8954277E-05 0.95751953 -0.2878418
vn 2.0861626E-05 0.95751953 -0.2878418
vn 2.0861626E-05 0.95751953 -0.2878418
vn -1 0 0
vn -1 0 0
vn -1 0 0
vn -1 0 0
vn -2.3841858E-07 0.9350586 -0.3544922
vn -2.3841858E-07 0.9350586 -0.3544922
vn -2.3841858E-07 0.9350586 -0.3544922
vn -2.3841858E-07 0.9350586 -0.3544922
vn 4.476309E-05 0.9589844 0.28393555
vn 4.476309E-05 0.9589844 0.28393555
vn 4.476309E-05 0.9589844 0.28393555
vn 4.476309E-05 0.9589844 0.28393555
vn 1 0 0
vn 1 0 0
vn 1 0 0
vn 1 0 0
vn 3.7550926E-05 0.5292969 -0.84814453
vn 3.7550926E-05 0.5292969 -0.84814453
vn 3.7550926E-05 0.5292969 -0.84814453
vn 3.7550926E-05 0.5292969 -0.84814453
g SM_Scene_A_WaterGateControl00_0
f 3/3/3 2/2/2 1/1/1
f 4/4/4 3/3/3 1/1/1
f 3/3/3 4/4/4 5/5/5
f 6/6/6 3/3/3 5/5/5
f 7/7/7 6/6/6 5/5/5
f 8/8/8 7/7/7 5/5/5
f 11/11/11 10/10/10 9/9/9
f 12/12/12 11/11/11 9/9/9
f 11/11/11 12/12/12 13/13/13
f 14/14/14 11/11/11 13/13/13
f 15/15/15 14/14/14 13/13/13
f 16/16/16 15/15/15 13/13/13
f 19/19/19 18/18/18 17/17/17
f 20/20/20 19/19/19 17/17/17
f 19/19/19 20/20/20 21/21/21
f 22/22/22 19/19/19 21/21/21
f 23/23/23 22/22/22 21/21/21
f 24/24/24 23/23/23 21/21/21
f 27/27/27 26/26/26 25/25/25
f 28/28/28 27/27/27 25/25/25
f 27/27/27 28/28/28 29/29/29
f 30/30/30 27/27/27 29/29/29
f 31/31/31 30/30/30 29/29/29
f 32/32/32 31/31/31 29/29/29
f 35/35/35 34/34/34 33/33/33
f 34/34/34 36/36/36 33/33/33
f 36/36/36 34/34/34 37/37/37
f 36/36/36 38/38/38 33/33/33
f 39/39/39 36/36/36 37/37/37
f 38/38/38 40/40/40 33/33/33
f 40/40/40 38/38/38 41/41/41
f 38/38/38 42/42/42 41/41/41
f 37/37/37 43/43/43 39/39/39
f 43/43/43 44/44/44 39/39/39
f 42/42/42 38/38/38 45/45/45
f 44/44/44 46/46/46 39/39/39
f 46/46/46 45/45/45 39/39/39
f 47/47/47 42/42/42 45/45/45
f 45/45/45 46/46/46 47/47/47
f 46/46/46 48/48/48 47/47/47
f 51/51/51 50/50/50 49/49/49
f 52/52/52 51/51/51 49/49/49
f 51/51/51 52/52/52 53/53/53
f 54/54/54 51/51/51 53/53/53
f 55/55/55 54/54/54 53/53/53
f 56/56/56 55/55/55 53/53/53
f 59/59/59 58/58/58 57/57/57
f 60/60/60 59/59/59 57/57/57
f 59/59/59 60/60/60 61/61/61
f 62/62/62 59/59/59 61/61/61
f 63/63/63 62/62/62 61/61/61
f 64/64/64 63/63/63 61/61/61
f 67/67/67 66/66/66 65/65/65
f 68/68/68 67/67/67 65/65/65
f 65/65/65 69/69/69 68/68/68
f 67/67/67 68/68/68 70/70/70
f 71/71/71 67/67/67 70/70/70
f 72/72/72 71/71/71 70/70/70
f 73/73/73 72/72/72 70/70/70
f 69/69/69 74/74/74 68/68/68
f 68/68/68 74/74/74 70/70/70
f 74/74/74 69/69/69 75/75/75
f 76/76/76 74/74/74 75/75/75
f 74/74/74 76/76/76 77/77/77
f 70/70/70 78/78/78 73/73/73
f 74/74/74 78/78/78 70/70/70
f 78/78/78 74/74/74 77/77/77
f 78/78/78 79/79/79 73/73/73
f 79/79/79 78/78/78 77/77/77
f 80/80/80 79/79/79 77/77/77
f 83/83/83 82/82/82 81/81/81
f 84/84/84 83/83/83 81/81/81
f 83/83/83 84/84/84 85/85/85
f 86/86/86 83/83/83 85/85/85
f 87/87/87 86/86/86 85/85/85
f 88/88/88 87/87/87 85/85/85
f 91/91/91 90/90/90 89/89/89
f 92/92/92 91/91/91 89/89/89
f 91/91/91 92/92/92 93/93/93
f 94/94/94 91/91/91 93/93/93
f 95/95/95 94/94/94 93/93/93
f 96/96/96 95/95/95 93/93/93
f 99/99/99 98/98/98 97/97/97
f 98/98/98 100/100/100 97/97/97
f 101/101/101 99/99/99 97/97/97
f 100/100/100 102/102/102 97/97/97
f 102/102/102 100/100/100 103/103/103
f 100/100/100 104/104/104 103/103/103
f 105/105/105 99/99/99 101/101/101
f 106/106/106 105/105/105 101/101/101
f 103/103/103 104/104/104 107/107/107
f 104/104/104 108/108/108 107/107/107
f 105/105/105 106/106/106 109/109/109
f 110/110/110 105/105/105 109/109/109
f 111/111/111 110/110/110 109/109/109
f 112/112/112 111/111/111 109/109/109
f 108/108/108 113/113/113 107/107/107
f 113/113/113 114/114/114 107/107/107
f 114/114/114 113/113/113 115/115/115
f 113/113/113 116/116/116 115/115/115
f 117/117/117 111/111/111 112/112/112
f 118/118/118 117/117/117 112/112/112
f 115/115/115 116/116/116 119/119/119
f 117/117/117 118/118/118 119/119/119
f 116/116/116 120/120/120 119/119/119
f 120/120/120 117/117/117 119/119/119
g SM_Scene_A_WaterGateControl00_1
f 123/123/123 122/122/122 121/121/121
f 124/124/124 123/123/123 121/121/121
f 127/127/127 126/126/126 125/125/125
f 128/128/128 127/127/127 125/125/125
f 131/131/131 130/130/130 129/129/129
f 132/132/132 131/131/131 129/129/129
f 135/135/135 134/134/134 133/133/133
f 136/136/136 135/135/135 133/133/133
f 139/139/139 138/138/138 137/137/137
f 140/140/140 139/139/139 137/137/137
