g SM_Scene_A_WaterPlane04.001
v -871.83374 71.60096 2124.5269
v -973.5293 71.60096 4036.5364
v -1733.394 71.60096 3679.8816
v -376.8849 71.60096 2409.5305
v -441.05356 71.60096 1346.8496
v -78.56268 71.60096 1596.0275
v -54.767548 71.60096 649.4965
v 188.9466 71.60096 866.5491
v -10.273387 71.60096 569.17224
v 219.75952 71.60096 782.52435
v -1272.4755 71.60096 1427.0085
v -1733.394 71.60096 3679.8816
v -2360.2747 71.60096 2523.6943
v -871.83374 71.60096 2124.5269
v -728.57574 71.60096 878.66583
v -441.05356 71.60096 1346.8496
v -240.85419 71.60096 386.95987
v -54.767548 71.60096 649.4965
v -184.67621 71.60096 330.32297
v -10.273387 71.60096 569.17224
v -376.8849 71.60096 2409.5305
v 1266.3142 71.60096 4307.175
v -973.5293 71.60096 4036.5364
v 877.9379 71.60096 2612.3003
v -78.56268 71.60096 1596.0275
v 683.7498 71.60096 1764.8629
v 188.9466 71.60096 866.5491
v 509.61893 71.60096 1004.9552
v 219.75952 71.60096 782.52435
v 489.56174 71.60096 917.42554
vt 9.0703125 -5.2734375
vt 19.578125 -9.6796875
vt 14.8671875 -10.484375
vt 12.4453125 -4.9257812
vt 6.171875 -2.6699219
vt 8.875 -2.5449219
vt 3.5742188 -0.33251953
vt 5.6757812 -0.4104004
vt 3.2734375 -0.06347656
vt 5.3046875 -0.16467285
vt 3.7128906 -4.890625
vt 15.1015625 -10.5390625
vt 6.1796875 -9.8203125
vt 9.1875 -5.3007812
vt 2.4765625 -2.4277344
vt 6.2304688 -2.6816406
vt 1.3701172 -0.21679688
vt 3.5800781 -0.33398438
vt 1.2421875 0.037750244
vt 3.2734375 -0.06347656
vt 12.4375 -4.8671875
vt 29 -5.4375
vt 19.5625 -9.5703125
vt 18.015625 -2.6777344
vt 8.875 -2.515625
vt 12.5234375 -1.2978516
vt 5.6757812 -0.4074707
vt 7.59375 -0.059783936
vt 5.3046875 -0.16467285
vt 7.0273438 0.08282471
vn -0 1 0
vn -0 1 0
vn -0 1 0
vn -0 1 0
vn -0 1 0
vn -0 1 0
vn -0 1 0
vn -0 1 0
vn -0 1 0
vn -0 1 0
vn -0 1 0
vn -0 1 0
vn -0 1 0
vn -0 1 0
vn -0 1 0
vn -0 1 0
vn -0 1 0
vn -0 1 0
vn -0 1 0
vn -0 1 0
vn -0 1 0
vn -0 1 0
vn -0 1 0
vn -0 1 0
vn -0 1 0
vn -0 1 0
vn -0 1 0
vn -0 1 0
vn -0 1 0
vn -0 1 0
g SM_Scene_A_WaterPlane04.001_0
f 3/3/3 2/2/2 1/1/1
f 2/2/2 4/4/4 1/1/1
f 1/1/1 4/4/4 5/5/5
f 4/4/4 6/6/6 5/5/5
f 5/5/5 6/6/6 7/7/7
f 6/6/6 8/8/8 7/7/7
f 7/7/7 8/8/8 9/9/9
f 8/8/8 10/10/10 9/9/9
f 13/13/13 12/12/12 11/11/11
f 12/12/12 14/14/14 11/11/11
f 11/11/11 14/14/14 15/15/15
f 14/14/14 16/16/16 15/15/15
f 15/15/15 16/16/16 17/17/17
f 16/16/16 18/18/18 17/17/17
f 17/17/17 18/18/18 19/19/19
f 18/18/18 20/20/20 19/19/19
f 23/23/23 22/22/22 21/21/21
f 22/22/22 24/24/24 21/21/21
f 21/21/21 24/24/24 25/25/25
f 24/24/24 26/26/26 25/25/25
f 25/25/25 26/26/26 27/27/27
f 26/26/26 28/28/28 27/27/27
f 27/27/27 28/28/28 29/29/29
f 28/28/28 30/30/30 29/29/29
