g SM_Scene_A_Blockout00.031
v 221.92294 -77.84508 850.2135
v 221.92294 -22.580011 850.2135
v 221.92294 -12.180034 850.2135
v 221.92294 -34.21056 850.2135
v 221.92294 -22.580011 850.2135
v 223.36366 -77.84508 313.5221
v 221.92294 -77.84508 850.2135
v 410.4797 -25.269379 850.2135
v 411.9205 -25.269379 313.5221
v 428.26093 99.24558 850.47894
v 493.84067 114.113434 850.47894
v 410.4797 -25.269379 850.2135
v 416.14874 59.15819 850.2981
v 410.4797 20.795397 850.2135
v 415.02948 56.158264 850.2849
v 413.47287 53.102585 850.2719
v 411.5173 50.0664 850.2596
v 409.21085 47.12445 850.2484
v 406.6103 44.349182 850.2383
v 391.59964 35.13129 850.2135
v 221.92294 -77.84508 850.2135
v 221.92294 -12.180034 850.2135
v 394.62296 36.185825 850.2144
v 397.7114 37.67638 850.21765
v 410.4797 20.795397 850.2135
v 400.78894 39.566265 850.22266
v 403.77975 41.808933 850.2296
v 406.6103 44.349182 850.2383
v 417.0264 59.319218 313.5638
v 428.1875 100.68479 313.65497
v 428.26093 99.24558 850.47894
v 416.14874 59.15819 850.2981
v 223.36366 -34.21056 313.5221
v 221.92294 -77.84508 850.2135
v 223.36366 -77.84508 313.5221
v 221.92294 -34.21056 850.2135
v 223.36366 -22.580011 313.5221
v 221.92294 -22.580011 850.2135
v 223.36366 -12.180034 313.5221
v 221.92294 -12.180034 850.2135
v 410.4797 -25.269379 850.2135
v 493.84067 114.113434 850.47894
v 493.7672 115.55265 313.65497
v 411.9205 -25.269379 313.5221
v 493.7672 115.55265 313.65497
v 493.84067 114.113434 850.47894
v 428.26093 99.24558 850.47894
v 428.1875 100.68479 313.65497
v 393.04037 35.13129 313.5221
v 391.59964 35.13129 850.2135
v 221.92294 -12.180034 850.2135
v 223.36366 -12.180034 313.5221
v 416.14874 59.15819 850.2981
v 415.02948 56.158264 850.2849
v 415.99518 56.2941 313.55728
v 417.0264 59.319218 313.5638
v 415.02948 56.158264 850.2849
v 413.47287 53.102585 850.2719
v 414.52448 53.213856 313.55093
v 415.99518 56.2941 313.55728
v 413.47287 53.102585 850.2719
v 411.5173 50.0664 850.2596
v 412.65054 50.15432 313.54486
v 414.52448 53.213856 313.55093
v 411.5173 50.0664 850.2596
v 409.21085 47.12445 850.2484
v 410.41943 47.19083 313.53928
v 412.65054 50.15432 313.54486
v 409.21085 47.12445 850.2484
v 406.6103 44.349182 850.2383
v 407.88608 44.39635 313.5343
v 410.41943 47.19083 313.53928
v 406.6103 44.349182 850.2383
v 403.77975 41.808933 850.2296
v 405.1129 41.839695 313.53006
v 407.88608 44.39635 313.5343
v 403.77975 41.808933 850.2296
v 400.78894 39.566265 850.22266
v 402.16827 39.583813 313.52664
v 405.1129 41.839695 313.53006
v 400.78894 39.566265 850.22266
v 397.7114 37.67638 850.21765
v 399.1245 37.684254 313.52414
v 402.16827 39.583813 313.52664
v 397.7114 37.67638 850.21765
v 394.62296 36.185825 850.2144
v 396.05676 36.18781 313.5226
v 399.1245 37.684254 313.52414
v 394.62296 36.185825 850.2144
v 391.59964 35.13129 850.2135
v 393.04037 35.13129 313.5221
v 396.05676 36.18781 313.5226
vt 0.17126465 0.8120117
vt -0.5698242 0.8120117
vt -0.70947266 0.8120117
vt -0.4140625 0.8120117
vt -0.5698242 0.8120117
vt 1.1582031 -0.45361328
vt 1.1748047 -4.0546875
vt -1.2636719 -4.0546875
vt -1.2802734 -0.45361328
vt -2.203125 2.1953125
vt -2.4042969 2.6347656
vt -0.5336914 2.0761719
vt -1.6660156 2.1152344
vt -1.1513672 2.0761719
vt -1.6259766 2.1074219
vt -1.5849609 2.0957031
vt -1.5439453 2.0839844
vt -1.5048828 2.0683594
vt -1.4052734 2.0585938
vt -1.34375 1.9501953
vt 0.17126465 0.8120117
vt -0.70947266 0.8120117
vt -1.3554688 1.9707031
vt -1.3671875 1.9921875
vt -1.1513672 2.0761719
vt -1.3798828 2.015625
vt -1.3925781 2.0371094
vt -1.4052734 2.0585938
vt 1.8857422 -0.9511719
vt 2.2285156 -0.95166016
vt 2.2128906 -4.5507812
vt 1.8710938 -4.5507812
vt 1.453125 1.1025391
vt 2.0390625 4.703125
vt 2.0390625 1.1025391
vt 1.453125 4.703125
vt 1.296875 1.1025391
vt 1.296875 4.703125
vt 1.1582031 1.1025391
vt 1.1582031 4.703125
vt -1.2636719 -4.0546875
vt -2.7167969 -4.0546875
vt -2.7324219 -0.4543457
vt -1.2802734 -0.45361328
vt -1.9160156 -3.7695312
vt -1.9150391 -7.4453125
vt -2.8203125 -7.4453125
vt -2.8222656 -3.7714844
vt 1.484375 -0.9506836
vt 1.4677734 -4.5507812
vt -0.7265625 -4.5507812
vt -0.70947266 -0.9506836
vt 1.8710938 -4.5507812
vt 1.8457031 -4.5507812
vt 1.8603516 -0.9511719
vt 1.8857422 -0.9511719
vt 1.8457031 -4.5507812
vt 1.8183594 -4.5507812
vt 1.8330078 -0.9511719
vt 1.8603516 -0.9511719
vt 1.8183594 -4.5507812
vt 1.7900391 -4.5507812
vt 1.8056641 -0.9506836
vt 1.8330078 -0.9511719
vt 1.7900391 -4.5507812
vt 1.7617188 -4.5507812
vt 1.7783203 -0.9506836
vt 1.8056641 -0.9506836
vt 1.7617188 -4.5507812
vt 1.7119141 -4.5507812
vt 1.7285156 -0.9506836
vt 1.7783203 -0.9506836
vt 1.7119141 -4.5507812
vt 1.6357422 -4.5507812
vt 1.6523438 -0.9506836
vt 1.7285156 -0.9506836
vt 1.6357422 -4.5507812
vt 1.5927734 -4.5507812
vt 1.609375 -0.9506836
vt 1.6523438 -0.9506836
vt 1.5927734 -4.5507812
vt 1.5488281 -4.5507812
vt 1.5664062 -0.9506836
vt 1.609375 -0.9506836
vt 1.5488281 -4.5507812
vt 1.5068359 -4.5507812
vt 1.5244141 -0.9506836
vt 1.5664062 -0.9506836
vt 1.5068359 -4.5507812
vt 1.4677734 -4.5507812
vt 1.484375 -0.9506836
vt 1.5244141 -0.9506836
vn -0 -2.9802322E-07 1
vn -0 -2.9802322E-07 1
vn -0 -2.9802322E-07 1
vn -0 -2.9802322E-07 1
vn -0 -2.9802322E-07 1
vn 0.2685547 -0.9633789 0.0007209778
vn 0.2685547 -0.9633789 0.0007209778
vn 0.2685547 -0.9633789 0.0007209778
vn 0.2685547 -0.9633789 0.0007209778
vn -0.0013208389 -0.0019435883 1
vn -0.0013208389 -0.0019435883 1
vn -0.0013208389 -0.0019435883 1
vn -0.0013208389 -0.0019435883 1
vn -0.0013208389 -0.0019435883 1
vn -0.009719849 -0.00077199936 1
vn -0.0058174133 -0.0012693405 1
vn -0.004081726 -0.0014333725 1
vn -0.0029945374 -0.0014696121 1
vn -0.0023593903 -0.0014448166 1
vn -0 -2.9802322E-07 1
vn -0 -2.9802322E-07 1
vn -0 -2.9802322E-07 1
vn -0.0006656647 -0.0007686615 1
vn -0.0010070801 -0.001001358 1
vn -0.0018453598 -0.0013532639 1
vn -0.0014133453 -0.001203537 1
vn -0.0018453598 -0.0013532639 1
vn -0.0018453598 -0.0013532639 1
vn -0.9614258 0.2746582 -0.0003106594
vn -0.9614258 0.2746582 -0.0003106594
vn -0.9614258 0.2746582 -0.0003106594
vn -0.9614258 0.2746582 -0.0003106594
vn -1 0 -0.0026836395
vn -1 0 -0.0026836395
vn -1 0 -0.0026836395
vn -1 0 -0.0026836395
vn -1 0 -0.0026836395
vn -1 0 -0.0026836395
vn -1 0 -0.0026836395
vn -1 0 -0.0026836395
vn 0.8613281 -0.5078125 0.00041627884
vn 0.8613281 -0.5078125 0.00041627884
vn 0.8613281 -0.5078125 0.00041627884
vn 0.8613281 -0.5078125 0.00041627884
vn -0.22106934 0.97509766 0.0026454926
vn -0.22106934 0.97509766 0.0026454926
vn -0.22106934 0.97509766 0.0026454926
vn -0.22106934 0.97509766 0.0026454926
vn -0.2685547 0.9633789 -0.0007209778
vn -0.2685547 0.9633789 -0.0007209778
vn -0.2685547 0.9633789 -0.0007209778
vn -0.2685547 0.9633789 -0.0007209778
vn -0.94189453 0.33618164 -0.0015239716
vn -0.94189453 0.33618164 -0.0015239716
vn -0.94189453 0.33618164 -0.0015239716
vn -0.94189453 0.33618164 -0.0015239716
vn -0.89697266 0.4423828 -0.0015830994
vn -0.89697266 0.4423828 -0.0015830994
vn -0.89697266 0.4423828 -0.0015830994
vn -0.89697266 0.4423828 -0.0015830994
vn -0.8466797 0.5317383 -0.001625061
vn -0.8466797 0.5317383 -0.001625061
vn -0.8466797 0.5317383 -0.001625061
vn -0.8466797 0.5317383 -0.001625061
vn -0.79296875 0.609375 -0.0016422272
vn -0.79296875 0.609375 -0.0016422272
vn -0.79296875 0.609375 -0.0016422272
vn -0.79296875 0.609375 -0.0016422272
vn -0.73535156 0.6777344 -0.0016298294
vn -0.73535156 0.6777344 -0.0016298294
vn -0.73535156 0.6777344 -0.0016298294
vn -0.73535156 0.6777344 -0.0016298294
vn -0.67285156 0.7397461 -0.0015821457
vn -0.67285156 0.7397461 -0.0015821457
vn -0.67285156 0.7397461 -0.0015821457
vn -0.67285156 0.7397461 -0.0015821457
vn -0.6040039 0.796875 -0.001490593
vn -0.6040039 0.796875 -0.001490593
vn -0.6040039 0.796875 -0.001490593
vn -0.6040039 0.796875 -0.001490593
vn -0.5263672 0.85009766 -0.0013494492
vn -0.5263672 0.85009766 -0.0013494492
vn -0.5263672 0.85009766 -0.0013494492
vn -0.5263672 0.85009766 -0.0013494492
vn -0.43652344 0.89990234 -0.0011491776
vn -0.43652344 0.89990234 -0.0011491776
vn -0.43652344 0.89990234 -0.0011491776
vn -0.43652344 0.89990234 -0.0011491776
vn -0.32983398 0.94384766 -0.0008816719
vn -0.32983398 0.94384766 -0.0008816719
vn -0.32983398 0.94384766 -0.0008816719
vn -0.32983398 0.94384766 -0.0008816719
g SM_Scene_A_Blockout00.031_0
f 3/3/3 2/2/2 1/1/1
f 5/5/5 4/4/4 1/1/1
f 8/8/8 7/7/7 6/6/6
f 9/9/9 8/8/8 6/6/6
f 12/12/12 11/11/11 10/10/10
f 10/10/10 13/13/13 12/12/12
f 13/13/13 14/14/14 12/12/12
f 15/15/15 14/14/14 13/13/13
f 16/16/16 14/14/14 15/15/15
f 17/17/17 14/14/14 16/16/16
f 18/18/18 14/14/14 17/17/17
f 19/19/19 14/14/14 18/18/18
f 12/12/12 14/14/14 20/20/20
f 20/20/20 21/21/21 12/12/12
f 20/20/20 22/22/22 21/21/21
f 20/20/20 14/14/14 23/23/23
f 23/23/23 25/25/25 24/24/24
f 24/24/24 25/25/25 26/26/26
f 26/26/26 25/25/25 27/27/27
f 27/27/27 25/25/25 28/28/28
f 31/31/31 30/30/30 29/29/29
f 32/32/32 31/31/31 29/29/29
f 35/35/35 34/34/34 33/33/33
f 34/34/34 36/36/36 33/33/33
f 33/33/33 36/36/36 37/37/37
f 36/36/36 38/38/38 37/37/37
f 37/37/37 38/38/38 39/39/39
f 38/38/38 40/40/40 39/39/39
f 43/43/43 42/42/42 41/41/41
f 44/44/44 43/43/43 41/41/41
f 47/47/47 46/46/46 45/45/45
f 48/48/48 47/47/47 45/45/45
f 51/51/51 50/50/50 49/49/49
f 52/52/52 51/51/51 49/49/49
f 55/55/55 54/54/54 53/53/53
f 56/56/56 55/55/55 53/53/53
f 59/59/59 58/58/58 57/57/57
f 60/60/60 59/59/59 57/57/57
f 63/63/63 62/62/62 61/61/61
f 64/64/64 63/63/63 61/61/61
f 67/67/67 66/66/66 65/65/65
f 68/68/68 67/67/67 65/65/65
f 71/71/71 70/70/70 69/69/69
f 72/72/72 71/71/71 69/69/69
f 75/75/75 74/74/74 73/73/73
f 76/76/76 75/75/75 73/73/73
f 79/79/79 78/78/78 77/77/77
f 80/80/80 79/79/79 77/77/77
f 83/83/83 82/82/82 81/81/81
f 84/84/84 83/83/83 81/81/81
f 87/87/87 86/86/86 85/85/85
f 88/88/88 87/87/87 85/85/85
f 91/91/91 90/90/90 89/89/89
f 92/92/92 91/91/91 89/89/89
