g SM_Scene_A_Blockout00.001
v -1224.1326 67.65495 468.22546
v -1387.5345 67.655106 481.5921
v -1242.0898 67.65498 479.056
v -1387.7178 67.655106 471.0778
v -1242.47 67.65498 457.255
v -1387.9147 67.655106 459.79105
v -1187.6375 84.378555 467.58905
v -1205.5946 84.37861 478.41968
v -1361.7114 84.37874 481.1418
v -1361.8948 84.37874 470.62756
v -1205.9749 84.37861 456.61865
v -1362.0916 84.37874 459.34076
v -1387.7178 67.655106 471.0778
v -1361.8948 84.37874 470.62756
v -1361.7114 84.37874 481.1418
v -1387.5345 67.655106 481.5921
v -1242.47 67.65498 457.255
v -1205.9749 84.37861 456.61865
v -1362.0916 84.37874 459.34076
v -1387.9147 67.655106 459.79105
v -1224.1326 67.65495 468.22546
v -1187.6375 84.378555 467.58905
v -1205.9749 84.37861 456.61865
v -1242.47 67.65498 457.255
v -1387.5345 67.655106 481.5921
v -1361.7114 84.37874 481.1418
v -1205.5946 84.37861 478.41968
v -1242.0898 67.65498 479.056
v -1239.5128 84.37861 461.89972
v -1328.3898 84.37871 463.44943
v -1328.1735 84.37871 475.86072
v -1239.2964 84.37861 474.311
v -1239.5128 89.70426 461.89972
v -1239.2964 89.70426 474.311
v -1328.1735 89.70432 475.86072
v -1328.3898 89.70432 463.44943
v -1239.2964 84.37861 474.311
v -1239.2964 89.70426 474.311
v -1239.5128 89.70426 461.89972
v -1239.5128 84.37861 461.89972
v -1328.1735 84.37871 475.86072
v -1328.1735 89.70432 475.86072
v -1239.2964 89.70426 474.311
v -1239.2964 84.37861 474.311
v -1328.3898 84.37871 463.44943
v -1328.3898 89.70432 463.44943
v -1328.1735 89.70432 475.86072
v -1328.1735 84.37871 475.86072
v -1239.5128 84.37861 461.89972
v -1239.5128 89.70426 461.89972
v -1328.3898 89.70432 463.44943
v -1328.3898 84.37871 463.44943
v -1233.5884 89.70426 460.96683
v -1334.3433 89.70432 462.72366
v -1334.0979 89.70432 476.7936
v -1233.343 89.70426 475.03677
v -1233.5884 92.61445 460.96683
v -1233.343 92.61445 475.03677
v -1334.0979 92.61455 476.7936
v -1334.3433 92.61455 462.72366
v -1334.3433 89.70432 462.72366
v -1334.3433 92.61455 462.72366
v -1334.0979 92.61455 476.7936
v -1334.0979 89.70432 476.7936
v -1233.5884 89.70426 460.96683
v -1233.5884 92.61445 460.96683
v -1334.3433 92.61455 462.72366
v -1334.3433 89.70432 462.72366
v -1233.343 89.70426 475.03677
v -1233.343 92.61445 475.03677
v -1233.5884 92.61445 460.96683
v -1233.5884 89.70426 460.96683
v -1334.0979 89.70432 476.7936
v -1334.0979 92.61455 476.7936
v -1233.343 92.61445 475.03677
v -1233.343 89.70426 475.03677
v -1242.0898 67.65498 479.056
v -1205.5946 84.37861 478.41968
v -1187.6375 84.378555 467.58905
v -1224.1326 67.65495 468.22546
v -1387.9147 67.655106 459.79105
v -1362.0916 84.37874 459.34076
v -1361.8948 84.37874 470.62756
v -1387.7178 67.655106 471.0778
v -1239.5128 92.75545 461.89972
v -1295.2751 92.75548 462.872
v -1295.0587 92.75548 475.2833
v -1239.2964 92.75545 474.311
v -1239.5126 98.0811 461.89972
v -1239.2964 98.0811 474.311
v -1295.0587 98.0811 475.2833
v -1295.2751 98.0811 462.872
v -1239.2964 92.75545 474.311
v -1239.2964 98.0811 474.311
v -1239.5126 98.0811 461.89972
v -1239.5128 92.75545 461.89972
v -1295.0587 92.75548 475.2833
v -1295.0587 98.0811 475.2833
v -1239.2964 98.0811 474.311
v -1239.2964 92.75545 474.311
v -1295.2751 92.75548 462.872
v -1295.2751 98.0811 462.872
v -1295.0587 98.0811 475.2833
v -1295.0587 92.75548 475.2833
v -1239.5128 92.75545 461.89972
v -1239.5126 98.0811 461.89972
v -1295.2751 98.0811 462.872
v -1295.2751 92.75548 462.872
v -1233.5884 98.0811 460.96683
v -1301.2285 98.0811 462.14624
v -1300.9832 98.0811 476.2162
v -1233.343 98.0811 475.03677
v -1233.5884 100.99129 460.96683
v -1233.343 100.99129 475.03677
v -1300.9832 100.99132 476.2162
v -1301.2285 100.99132 462.14624
v -1301.2285 98.0811 462.14624
v -1301.2285 100.99132 462.14624
v -1300.9832 100.99132 476.2162
v -1300.9832 98.0811 476.2162
v -1233.5884 98.0811 460.96683
v -1233.5884 100.99129 460.96683
v -1301.2285 100.99132 462.14624
v -1301.2285 98.0811 462.14624
v -1233.343 98.0811 475.03677
v -1233.343 100.99129 475.03677
v -1233.5884 100.99129 460.96683
v -1233.5884 98.0811 460.96683
v -1300.9832 98.0811 476.2162
v -1300.9832 100.99132 476.2162
v -1233.343 100.99129 475.03677
v -1233.343 98.0811 475.03677
v -1281.4646 100.991295 465.5356
v -1284.4216 100.991295 465.73578
v -1284.4109 100.991295 468.12326
v -1281.4539 100.991295 467.92316
v -1288.9369 110.2296 465.5356
v -1288.9261 110.2296 467.92316
v -1291.8832 110.2296 468.12326
v -1291.8939 110.2296 465.73578
v -1281.4539 100.991295 467.92316
v -1288.9261 110.2296 467.92316
v -1288.9369 110.2296 465.5356
v -1281.4646 100.991295 465.5356
v -1284.4109 100.991295 468.12326
v -1291.8832 110.2296 468.12326
v -1288.9261 110.2296 467.92316
v -1281.4539 100.991295 467.92316
v -1284.4216 100.991295 465.73578
v -1291.8939 110.2296 465.73578
v -1291.8832 110.2296 468.12326
v -1284.4109 100.991295 468.12326
v -1281.4646 100.991295 465.5356
v -1288.9369 110.2296 465.5356
v -1291.8939 110.2296 465.73578
v -1284.4216 100.991295 465.73578
v -1281.6638 100.991295 468.68546
v -1284.6208 100.991295 468.88562
v -1284.6101 100.991295 471.2731
v -1281.6531 100.991295 471.073
v -1289.1361 110.2296 468.6855
v -1289.1254 110.2296 471.073
v -1292.0824 110.2296 471.2731
v -1292.0931 110.2296 468.88562
v -1281.6531 100.991295 471.073
v -1289.1254 110.2296 471.073
v -1289.1361 110.2296 468.6855
v -1281.6638 100.991295 468.68546
v -1284.6101 100.991295 471.2731
v -1292.0824 110.2296 471.2731
v -1289.1254 110.2296 471.073
v -1281.6531 100.991295 471.073
v -1284.6208 100.991295 468.88562
v -1292.0931 110.2296 468.88562
v -1292.0824 110.2296 471.2731
v -1284.6101 100.991295 471.2731
v -1281.6638 100.991295 468.68546
v -1289.1361 110.2296 468.6855
v -1292.0931 110.2296 468.88562
v -1284.6208 100.991295 468.88562
v -1280.9666 100.99129 464.73138
v -1296.1403 100.991295 465.32846
v -1296.0447 100.991295 472.45163
v -1280.8712 100.99129 471.85452
v -1284.4897 105.02708 464.73138
v -1284.3943 105.02708 471.85452
v -1296.0447 105.0271 472.45163
v -1296.1403 105.0271 465.32846
v -1280.8712 100.99129 471.85452
v -1284.3943 105.02708 471.85452
v -1284.4897 105.02708 464.73138
v -1280.9666 100.99129 464.73138
v -1296.0447 100.991295 472.45163
v -1296.0447 105.0271 472.45163
v -1284.3943 105.02708 471.85452
v -1280.8712 100.99129 471.85452
v -1296.1403 100.991295 465.32846
v -1296.1403 105.0271 465.32846
v -1296.0447 105.0271 472.45163
v -1296.0447 100.991295 472.45163
v -1280.9666 100.99129 464.73138
v -1284.4897 105.02708 464.73138
v -1296.1403 105.0271 465.32846
v -1296.1403 100.991295 465.32846
vt 1.6650391 1.0810547
vt 1.8671875 1.0976562
vt 1.6875 1.09375
vt 1.8671875 1.0839844
vt 1.6875 1.0673828
vt 1.8671875 1.0703125
vt 1.6201172 1.0800781
vt 1.6416016 1.09375
vt 1.8349609 1.0966797
vt 1.8359375 1.0839844
vt 1.6425781 1.0664062
vt 1.8359375 1.0693359
vt 1.6933594 -0.3256836
vt 1.6621094 -0.3256836
vt 1.6611328 -0.3256836
vt 1.6933594 -0.3256836
vt 0.13098145 0.57373047
vt 0.13098145 0.5732422
vt 0.13098145 0.57666016
vt 0.13098145 0.57714844
vt 1.1279297 1.3886719
vt 1.0878906 1.3886719
vt 1.1005859 1.3886719
vt 1.140625 1.3886719
vt 0.5805664 0.6459961
vt 0.5805664 0.6455078
vt 0.5805664 0.64208984
vt 0.5805664 0.6430664
vt 1.6835938 1.0732422
vt 1.7939453 1.0751953
vt 1.7939453 1.0898438
vt 1.6835938 1.0878906
vt 1.6835938 1.0732422
vt 1.6835938 1.0878906
vt 1.7939453 1.0898438
vt 1.7939453 1.0751953
vt 0.2154541 1.4482422
vt 0.2154541 1.4482422
vt 0.21569824 1.4482422
vt 0.21569824 1.4482422
vt 0.48388672 0.6298828
vt 0.48388672 0.6298828
vt 0.48388672 0.6279297
vt 0.48388672 0.6279297
vt 0.4975586 -0.38500977
vt 0.4975586 -0.38500977
vt 0.49731445 -0.38500977
vt 0.49731445 -0.38500977
vt 0.2277832 0.5888672
vt 0.2277832 0.5883789
vt 0.2277832 0.59033203
vt 0.2277832 0.59033203
vt 1.6767578 1.0712891
vt 1.8017578 1.0742188
vt 1.8007812 1.0917969
vt 1.6767578 1.0888672
vt 1.6767578 1.0712891
vt 1.6767578 1.0888672
vt 1.8007812 1.0917969
vt 1.8017578 1.0742188
vt 0.51660156 -0.5078125
vt 0.51660156 -0.5078125
vt 0.5161133 -0.5078125
vt 0.5161133 -0.5078125
vt 0.21057129 0.5859375
vt 0.21057129 0.5859375
vt 0.21057129 0.5878906
vt 0.21057129 0.5878906
vt 0.19677734 1.5703125
vt 0.19677734 1.5703125
vt 0.19714355 1.5703125
vt 0.19714355 1.5703125
vt 0.50097656 0.6333008
vt 0.50097656 0.6333008
vt 0.50097656 0.6308594
vt 0.50097656 0.6308594
vt 1.3945312 1.3886719
vt 1.3740234 1.3886719
vt 1.3623047 1.3886719
vt 1.3828125 1.3886719
vt 1.6943359 -0.3256836
vt 1.6621094 -0.3256836
vt 1.6621094 -0.3256836
vt 1.6933594 -0.3256836
vt 1.6835938 1.0732422
vt 1.7529297 1.0742188
vt 1.7529297 1.0898438
vt 1.6835938 1.0878906
vt 1.6835938 1.0732422
vt 1.6835938 1.0878906
vt 1.7529297 1.0898438
vt 1.7529297 1.0742188
vt 0.2154541 1.4482422
vt 0.2154541 1.4482422
vt 0.21582031 1.4482422
vt 0.21582031 1.4482422
vt 0.48388672 0.62939453
vt 0.48388672 0.62939453
vt 0.48388672 0.62841797
vt 0.48388672 0.62841797
vt 0.39257812 -0.38500977
vt 0.39257812 -0.38500977
vt 0.39233398 -0.38500977
vt 0.39233398 -0.38500977
vt 0.2277832 0.5888672
vt 0.2277832 0.5888672
vt 0.2277832 0.58984375
vt 0.2277832 0.58984375
vt 1.6767578 1.0722656
vt 1.7607422 1.0732422
vt 1.7597656 1.0908203
vt 1.6767578 1.0888672
vt 1.6767578 1.0712891
vt 1.6767578 1.0888672
vt 1.7597656 1.0908203
vt 1.7607422 1.0732422
vt 0.41186523 -0.5078125
vt 0.41186523 -0.5078125
vt 0.41137695 -0.5078125
vt 0.41137695 -0.5078125
vt 0.21069336 0.5859375
vt 0.21069336 0.5859375
vt 0.21069336 0.58740234
vt 0.21069336 0.58740234
vt 0.19665527 1.5712891
vt 0.19665527 1.5712891
vt 0.19702148 1.5712891
vt 0.19702148 1.5712891
vt 0.50097656 0.63183594
vt 0.50097656 0.63183594
vt 0.50097656 0.6303711
vt 0.50097656 0.6303711
vt 1.7363281 1.0771484
vt 1.7392578 1.078125
vt 1.7392578 1.0810547
vt 1.7363281 1.0800781
vt 1.7451172 1.0771484
vt 1.7451172 1.0800781
vt 1.7490234 1.0810547
vt 1.7490234 1.078125
vt 1.7167969 1.0800781
vt 1.7167969 1.0800781
vt 1.7167969 1.0771484
vt 1.7167969 1.0771484
vt 1.7392578 1.0859375
vt 1.7480469 1.0869141
vt 1.7441406 1.0859375
vt 1.7353516 1.0849609
vt 1.7197266 1.0771484
vt 1.7197266 1.0771484
vt 1.7197266 1.0800781
vt 1.7197266 1.0800781
vt 1.7353516 1.0810547
vt 1.7451172 1.0820312
vt 1.7480469 1.0820312
vt 1.7392578 1.0810547
vt 1.7363281 1.0810547
vt 1.7402344 1.0820312
vt 1.7402344 1.0849609
vt 1.7363281 1.0839844
vt 1.7451172 1.0810547
vt 1.7451172 1.0839844
vt 1.7490234 1.0849609
vt 1.7490234 1.0820312
vt 1.7167969 1.0839844
vt 1.7167969 1.0839844
vt 1.7167969 1.0810547
vt 1.7167969 1.0810547
vt 1.7392578 1.0859375
vt 1.7490234 1.0869141
vt 1.7451172 1.0859375
vt 1.7363281 1.0849609
vt 1.7197266 1.0810547
vt 1.7197266 1.0810547
vt 1.7197266 1.0839844
vt 1.7197266 1.0839844
vt 1.7363281 1.0810547
vt 1.7451172 1.0820312
vt 1.7490234 1.0820312
vt 1.7402344 1.0810547
vt 1.7353516 1.0761719
vt 1.7539062 1.0771484
vt 1.7539062 1.0859375
vt 1.7353516 1.0849609
vt 1.7392578 1.0761719
vt 1.7392578 1.0849609
vt 1.7539062 1.0859375
vt 1.7539062 1.0771484
vt 1.7021484 1.0849609
vt 1.7021484 1.0849609
vt 1.7021484 1.0761719
vt 1.7021484 1.0761719
vt 1.7539062 1.0849609
vt 1.7539062 1.0849609
vt 1.7392578 1.0849609
vt 1.7353516 1.0849609
vt 1.734375 1.0771484
vt 1.734375 1.0771484
vt 1.734375 1.0859375
vt 1.734375 1.0859375
vt 1.7353516 1.078125
vt 1.7392578 1.078125
vt 1.7539062 1.078125
vt 1.7539062 1.078125
vn -8.34465E-07 -1 7.1525574E-07
vn -8.34465E-07 -1 7.1525574E-07
vn -8.34465E-07 -1 7.1525574E-07
vn -8.34465E-07 -1 7.1525574E-07
vn -8.940697E-07 -1 -5.9604645E-07
vn -8.940697E-07 -1 -5.9604645E-07
vn 8.940697E-07 1 -2.1457672E-06
vn 8.940697E-07 1 -2.1457672E-06
vn 8.940697E-07 1 -2.1457672E-06
vn 8.940697E-07 1 -2.1457672E-06
vn 9.536743E-07 1 1.9669533E-06
vn 9.536743E-07 1 1.9669533E-06
vn -0.54345703 0.83935547 0.009468079
vn -0.54345703 0.83935547 0.009468079
vn -0.54345703 0.83935547 0.009468079
vn -0.54345703 0.83935547 0.009468079
vn -0.017440796 0 -1
vn -0.017440796 0 -1
vn -0.017440796 0 -1
vn -0.017440796 0 -1
vn 0.33642578 -0.7553711 -0.5625
vn 0.33642578 -0.7553711 -0.5625
vn 0.33642578 -0.7553711 -0.5625
vn 0.33642578 -0.7553711 -0.5625
vn 0.017440796 0 1
vn 0.017440796 0 1
vn 0.017440796 0 1
vn 0.017440796 0 1
vn -1.013279E-06 -1 0
vn -1.013279E-06 -1 0
vn -1.013279E-06 -1 0
vn -1.013279E-06 -1 0
vn 7.1525574E-07 1 0
vn 7.1525574E-07 1 0
vn 7.1525574E-07 1 0
vn 7.1525574E-07 1 0
vn 1 0 -0.017440796
vn 1 0 -0.017440796
vn 1 0 -0.017440796
vn 1 0 -0.017440796
vn 0.017440796 0 1
vn 0.017440796 0 1
vn 0.017440796 0 1
vn 0.017440796 0 1
vn -1 0 0.017440796
vn -1 0 0.017440796
vn -1 0 0.017440796
vn -1 0 0.017440796
vn -0.017440796 0 -1
vn -0.017440796 0 -1
vn -0.017440796 0 -1
vn -0.017440796 0 -1
vn -5.9604645E-07 -1 0
vn -5.9604645E-07 -1 0
vn -5.9604645E-07 -1 0
vn -5.9604645E-07 -1 0
vn 9.536743E-07 1 0
vn 9.536743E-07 1 0
vn 9.536743E-07 1 0
vn 9.536743E-07 1 0
vn -1 0 0.017440796
vn -1 0 0.017440796
vn -1 0 0.017440796
vn -1 0 0.017440796
vn -0.017440796 0 -1
vn -0.017440796 0 -1
vn -0.017440796 0 -1
vn -0.017440796 0 -1
vn 1 0 -0.017440796
vn 1 0 -0.017440796
vn 1 0 -0.017440796
vn 1 0 -0.017440796
vn 0.017440796 0 1
vn 0.017440796 0 1
vn 0.017440796 0 1
vn 0.017440796 0 1
vn 0.34838867 -0.73828125 0.5776367
vn 0.34838867 -0.73828125 0.5776367
vn 0.34838867 -0.73828125 0.5776367
vn 0.34838867 -0.73828125 0.5776367
vn -0.54345703 0.83935547 0.009483337
vn -0.54345703 0.83935547 0.009483337
vn -0.54345703 0.83935547 0.009483337
vn -0.54345703 0.83935547 0.009483337
vn -5.364418E-07 -1 0
vn -5.364418E-07 -1 0
vn -5.364418E-07 -1 0
vn -5.364418E-07 -1 0
vn -0 1 0
vn -0 1 0
vn -0 1 0
vn -0 1 0
vn 1 -1.1444092E-05 -0.017425537
vn 1 -1.1444092E-05 -0.017425537
vn 1 -1.1444092E-05 -0.017425537
vn 1 -1.1444092E-05 -0.017425537
vn 0.017440796 0 1
vn 0.017440796 0 1
vn 0.017440796 0 1
vn 0.017440796 0 1
vn -1 0 0.017425537
vn -1 0 0.017425537
vn -1 0 0.017425537
vn -1 0 0.017425537
vn -0.017440796 0 -1
vn -0.017440796 0 -1
vn -0.017440796 0 -1
vn -0.017440796 0 -1
vn -0 -1 0
vn -0 -1 0
vn -0 -1 0
vn -0 -1 0
vn 5.364418E-07 1 0
vn 5.364418E-07 1 0
vn 5.364418E-07 1 0
vn 5.364418E-07 1 0
vn -1 0 0.017440796
vn -1 0 0.017440796
vn -1 0 0.017440796
vn -1 0 0.017440796
vn -0.017440796 0 -1
vn -0.017440796 0 -1
vn -0.017440796 0 -1
vn -0.017440796 0 -1
vn 1 0 -0.017440796
vn 1 0 -0.017440796
vn 1 0 -0.017440796
vn 1 0 -0.017440796
vn 0.017440796 0 1
vn 0.017440796 0 1
vn 0.017440796 0 1
vn 0.017440796 0 1
vn -0 -1 0
vn -0 -1 0
vn -0 -1 0
vn -0 -1 0
vn -8.34465E-07 1 0
vn -8.34465E-07 1 0
vn -8.34465E-07 1 0
vn -8.34465E-07 1 0
vn 0.77734375 0.62890625 -0.0035114288
vn 0.77734375 0.62890625 -0.0035114288
vn 0.77734375 0.62890625 -0.0035114288
vn 0.77734375 0.62890625 -0.0035114288
vn 0.06744385 0.054534912 0.99609375
vn 0.06744385 0.054534912 0.99609375
vn 0.06744385 0.054534912 0.99609375
vn 0.06744385 0.054534912 0.99609375
vn -0.77734375 -0.62890625 0.0035114288
vn -0.77734375 -0.62890625 0.0035114288
vn -0.77734375 -0.62890625 0.0035114288
vn -0.77734375 -0.62890625 0.0035114288
vn -0.06744385 -0.054534912 -0.99609375
vn -0.06744385 -0.054534912 -0.99609375
vn -0.06744385 -0.054534912 -0.99609375
vn -0.06744385 -0.054534912 -0.99609375
vn -0 -1 0
vn -0 -1 0
vn -0 -1 0
vn -0 -1 0
vn -8.34465E-07 1 0
vn -8.34465E-07 1 0
vn -8.34465E-07 1 0
vn -8.34465E-07 1 0
vn 0.77734375 0.62890625 -0.0034770966
vn 0.77734375 0.62890625 -0.0034770966
vn 0.77734375 0.62890625 -0.0034770966
vn 0.77734375 0.62890625 -0.0034770966
vn 0.06744385 0.054534912 0.99609375
vn 0.06744385 0.054534912 0.99609375
vn 0.06744385 0.054534912 0.99609375
vn 0.06744385 0.054534912 0.99609375
vn -0.77734375 -0.62890625 0.0035114288
vn -0.77734375 -0.62890625 0.0035114288
vn -0.77734375 -0.62890625 0.0035114288
vn -0.77734375 -0.62890625 0.0035114288
vn -0.06744385 -0.054534912 -0.99609375
vn -0.06744385 -0.054534912 -0.99609375
vn -0.06744385 -0.054534912 -0.99609375
vn -0.06744385 -0.054534912 -0.99609375
vn -5.364418E-07 -1 0
vn -5.364418E-07 -1 0
vn -5.364418E-07 -1 0
vn -5.364418E-07 -1 0
vn 1.4305115E-06 1 0
vn 1.4305115E-06 1 0
vn 1.4305115E-06 1 0
vn 1.4305115E-06 1 0
vn 0.75341797 0.65771484 -0.010093689
vn 0.75341797 0.65771484 -0.010093689
vn 0.75341797 0.65771484 -0.010093689
vn 0.75341797 0.65771484 -0.010093689
vn 0.04446411 0.019424438 0.99902344
vn 0.04446411 0.019424438 0.99902344
vn 0.04446411 0.019424438 0.99902344
vn 0.04446411 0.019424438 0.99902344
vn -1 0 0.013397217
vn -1 0 0.013397217
vn -1 0 0.013397217
vn -1 0 0.013397217
vn -0.04446411 -0.019424438 -0.99902344
vn -0.04446411 -0.019424438 -0.99902344
vn -0.04446411 -0.019424438 -0.99902344
vn -0.04446411 -0.019424438 -0.99902344
g SM_Scene_A_Blockout00.001_0
f 3/3/3 2/2/2 1/1/1
f 2/2/2 4/4/4 1/1/1
f 1/1/1 4/4/4 5/5/5
f 4/4/4 6/6/6 5/5/5
f 9/9/9 8/8/8 7/7/7
f 10/10/10 9/9/9 7/7/7
f 10/10/10 7/7/7 11/11/11
f 12/12/12 10/10/10 11/11/11
f 15/15/15 14/14/14 13/13/13
f 16/16/16 15/15/15 13/13/13
f 19/19/19 18/18/18 17/17/17
f 20/20/20 19/19/19 17/17/17
f 23/23/23 22/22/22 21/21/21
f 24/24/24 23/23/23 21/21/21
f 27/27/27 26/26/26 25/25/25
f 28/28/28 27/27/27 25/25/25
f 31/31/31 30/30/30 29/29/29
f 32/32/32 31/31/31 29/29/29
f 35/35/35 34/34/34 33/33/33
f 36/36/36 35/35/35 33/33/33
f 39/39/39 38/38/38 37/37/37
f 40/40/40 39/39/39 37/37/37
f 43/43/43 42/42/42 41/41/41
f 44/44/44 43/43/43 41/41/41
f 47/47/47 46/46/46 45/45/45
f 48/48/48 47/47/47 45/45/45
f 51/51/51 50/50/50 49/49/49
f 52/52/52 51/51/51 49/49/49
f 55/55/55 54/54/54 53/53/53
f 56/56/56 55/55/55 53/53/53
f 59/59/59 58/58/58 57/57/57
f 60/60/60 59/59/59 57/57/57
f 63/63/63 62/62/62 61/61/61
f 64/64/64 63/63/63 61/61/61
f 67/67/67 66/66/66 65/65/65
f 68/68/68 67/67/67 65/65/65
f 71/71/71 70/70/70 69/69/69
f 72/72/72 71/71/71 69/69/69
f 75/75/75 74/74/74 73/73/73
f 76/76/76 75/75/75 73/73/73
f 79/79/79 78/78/78 77/77/77
f 80/80/80 79/79/79 77/77/77
f 83/83/83 82/82/82 81/81/81
f 84/84/84 83/83/83 81/81/81
f 87/87/87 86/86/86 85/85/85
f 88/88/88 87/87/87 85/85/85
f 91/91/91 90/90/90 89/89/89
f 92/92/92 91/91/91 89/89/89
f 95/95/95 94/94/94 93/93/93
f 96/96/96 95/95/95 93/93/93
f 99/99/99 98/98/98 97/97/97
f 100/100/100 99/99/99 97/97/97
f 103/103/103 102/102/102 101/101/101
f 104/104/104 103/103/103 101/101/101
f 107/107/107 106/106/106 105/105/105
f 108/108/108 107/107/107 105/105/105
f 111/111/111 110/110/110 109/109/109
f 112/112/112 111/111/111 109/109/109
f 115/115/115 114/114/114 113/113/113
f 116/116/116 115/115/115 113/113/113
f 119/119/119 118/118/118 117/117/117
f 120/120/120 119/119/119 117/117/117
f 123/123/123 122/122/122 121/121/121
f 124/124/124 123/123/123 121/121/121
f 127/127/127 126/126/126 125/125/125
f 128/128/128 127/127/127 125/125/125
f 131/131/131 130/130/130 129/129/129
f 132/132/132 131/131/131 129/129/129
f 135/135/135 134/134/134 133/133/133
f 136/136/136 135/135/135 133/133/133
f 139/139/139 138/138/138 137/137/137
f 140/140/140 139/139/139 137/137/137
f 143/143/143 142/142/142 141/141/141
f 144/144/144 143/143/143 141/141/141
f 147/147/147 146/146/146 145/145/145
f 148/148/148 147/147/147 145/145/145
f 151/151/151 150/150/150 149/149/149
f 152/152/152 151/151/151 149/149/149
f 155/155/155 154/154/154 153/153/153
f 156/156/156 155/155/155 153/153/153
f 159/159/159 158/158/158 157/157/157
f 160/160/160 159/159/159 157/157/157
f 163/163/163 162/162/162 161/161/161
f 164/164/164 163/163/163 161/161/161
f 167/167/167 166/166/166 165/165/165
f 168/168/168 167/167/167 165/165/165
f 171/171/171 170/170/170 169/169/169
f 172/172/172 171/171/171 169/169/169
f 175/175/175 174/174/174 173/173/173
f 176/176/176 175/175/175 173/173/173
f 179/179/179 178/178/178 177/177/177
f 180/180/180 179/179/179 177/177/177
f 183/183/183 182/182/182 181/181/181
f 184/184/184 183/183/183 181/181/181
f 187/187/187 186/186/186 185/185/185
f 188/188/188 187/187/187 185/185/185
f 191/191/191 190/190/190 189/189/189
f 192/192/192 191/191/191 189/189/189
f 195/195/195 194/194/194 193/193/193
f 196/196/196 195/195/195 193/193/193
f 199/199/199 198/198/198 197/197/197
f 200/200/200 199/199/199 197/197/197
f 203/203/203 202/202/202 201/201/201
f 204/204/204 203/203/203 201/201/201
