g SM_Scene_A_WaterPlane05
v -2406.6128 71.60096 2345.622
v -13316.26 71.60096 6623.159
v -2595.5874 71.60096 1619.4176
v -12634.297 71.60096 9243.851
v -2360.2747 71.60096 2523.6943
v -12467.073 71.60096 9886.471
v 1266.3142 71.60096 4307.175
v 620.3877 71.60096 16322.609
v -7462.653 71.60096 15345.943
v -973.5293 71.60096 4036.5364
v -973.5293 71.60096 4036.5364
v -7462.653 71.60096 15345.943
v -10204.817 71.60096 14058.863
v -1733.394 71.60096 3679.8816
v -462.86783 71.60096 -4319.398
v 1709.6699 71.60096 -15453.808
v 1568.1587 71.60096 -4498.199
v -5619.8022 71.60096 -14808.558
v -1630.3116 71.60096 -3660.0115
v -9832.818 71.60096 -12428.995
v -2595.5874 71.60096 1619.4176
v -13316.26 71.60096 6623.159
v -13306.746 71.60096 2718.4219
v -2592.9512 71.60096 537.39886
v -2312.0037 71.60096 -2614.126
v -12292.876 71.60096 -8654.651
v -9832.818 71.60096 -12428.995
v -1630.3116 71.60096 -3660.0115
v -2485.167 71.60096 -1241.8792
v -12917.778 71.60096 -3702.5518
v -12292.876 71.60096 -8654.651
v -2312.0037 71.60096 -2614.126
v -2583.491 71.60096 -341.92398
v -13272.605 71.60096 -454.8379
v -12917.778 71.60096 -3702.5518
v -2485.167 71.60096 -1241.8792
v -1733.394 71.60096 3679.8816
v -10204.817 71.60096 14058.863
v -12467.073 71.60096 9886.471
v -2360.2747 71.60096 2523.6943
v -2592.9512 71.60096 537.39886
v -13306.746 71.60096 2718.4219
v -13272.605 71.60096 -454.8379
v -2583.491 71.60096 -341.92398
vt 5.0429688 -9.7109375
vt 0.2783203 -9.0078125
vt 0.2783203 -9.0078125
vt 5.0429688 -9.7109375
vt 6.2109375 -9.890625
vt 6.2109375 -9.890625
vt 29 -5.4375
vt 29 -5.4375
vt 19.5625 -9.5703125
vt 19.5625 -9.5703125
vt 19.578125 -9.6796875
vt 19.578125 -9.6796875
vt 14.8671875 -10.484375
vt 14.8671875 -10.484375
vt -27.984375 5.0078125
vt -22.09375 10.921875
vt -22.09375 10.921875
vt -27.984375 5.0078125
vt -28 0.90771484
vt -28 0.90771484
vt 0.39892578 -8.828125
vt 0.39892578 -8.828125
vt -6.0351562 -7.4140625
vt -6.0351562 -7.4140625
vt -23.984375 -2.3183594
vt -23.984375 -2.3183594
vt -28 0.90966797
vt -28 0.90966797
vt -16.234375 -4.5195312
vt -16.234375 -4.5195312
vt -23.96875 -2.3085938
vt -23.96875 -2.3085938
vt -10.96875 -5.7695312
vt -10.96875 -5.7695312
vt -16.171875 -4.453125
vt -16.171875 -4.453125
vt 15.1015625 -10.5390625
vt 15.1015625 -10.5390625
vt 6.1796875 -9.8203125
vt 6.1796875 -9.8203125
vt -5.8203125 -7.0742188
vt -5.8203125 -7.0742188
vt -11.328125 -6.1640625
vt -11.328125 -6.1640625
vn -0 1 0
vn -0 1 0
vn -0 1 0
vn -0 1 0
vn -0 1 0
vn -0 1 0
vn -0 1 0
vn -0 1 0
vn -0 1 0
vn -0 1 0
vn -0 1 0
vn -0 1 0
vn -0 1 0
vn -0 1 0
vn -0 1 0
vn -0 1 0
vn -0 1 0
vn -0 1 0
vn -0 1 0
vn -0 1 0
vn -0 1 0
vn -0 1 0
vn -0 1 0
vn -0 1 0
vn -0 1 0
vn -0 1 0
vn -0 1 0
vn -0 1 0
vn -0 1 0
vn -0 1 0
vn -0 1 0
vn -0 1 0
vn -0 1 0
vn -0 1 0
vn -0 1 0
vn -0 1 0
vn -0 1 0
vn -0 1 0
vn -0 1 0
vn -0 1 0
vn -0 1 0
vn -0 1 0
vn -0 1 0
vn -0 1 0
g SM_Scene_A_WaterPlane05_0
f 3/3/3 2/2/2 1/1/1
f 2/2/2 4/4/4 1/1/1
f 1/1/1 4/4/4 5/5/5
f 4/4/4 6/6/6 5/5/5
f 9/9/9 8/8/8 7/7/7
f 10/10/10 9/9/9 7/7/7
f 13/13/13 12/12/12 11/11/11
f 14/14/14 13/13/13 11/11/11
f 17/17/17 16/16/16 15/15/15
f 16/16/16 18/18/18 15/15/15
f 15/15/15 18/18/18 19/19/19
f 18/18/18 20/20/20 19/19/19
f 23/23/23 22/22/22 21/21/21
f 24/24/24 23/23/23 21/21/21
f 27/27/27 26/26/26 25/25/25
f 28/28/28 27/27/27 25/25/25
f 31/31/31 30/30/30 29/29/29
f 32/32/32 31/31/31 29/29/29
f 35/35/35 34/34/34 33/33/33
f 36/36/36 35/35/35 33/33/33
f 39/39/39 38/38/38 37/37/37
f 40/40/40 39/39/39 37/37/37
f 43/43/43 42/42/42 41/41/41
f 44/44/44 43/43/43 41/41/41
