g SM_Scene_A_Rugs00
v -15.829449 -18.14662 39.18961
v -15.953467 -18.14662 38.244987
v -14.078613 -18.146618 37.926254
v -13.931377 -18.13992 38.868435
v -15.781544 -18.14662 40.13423
v -15.829449 -18.14662 39.18961
v -13.830576 -18.146618 39.8155
v -15.425082 -18.14662 42.023476
v -15.781544 -18.14662 40.13423
v -13.830576 -18.146618 39.8155
v -13.542621 -18.155897 41.71705
v -14.317864 -18.142487 36.085247
v -12.519352 -18.15366 36.041027
v -12.306572 -18.153658 37.94455
v -14.127774 -18.142485 38.14556
v -16.116379 -18.142487 36.227077
v -14.317864 -18.142487 36.085247
v -15.9489765 -18.142485 38.28858
v -15.057214 -18.142487 53.7913
v -15.240637 -18.15366 52.00162
v -13.3593235 -18.153658 51.64201
v -13.017816 -18.142485 53.442165
v -14.776477 -18.142487 55.573425
v -15.057214 -18.142487 53.7913
v -12.73414 -18.142485 55.246815
v -14.43474 -18.144388 44.39841
v -15.942318 -18.146618 45.21678
v -15.877999 -18.13992 44.26212
v -14.516473 -18.146618 45.350437
v -13.713952 -18.14662 44.466473
v -13.804382 -18.14662 45.41719
v -14.19208 -18.139435 41.534115
v -15.761457 -18.146618 43.315346
v -15.6215315 -18.139435 41.391106
v -14.2798 -18.146618 43.46281
v -13.4781885 -18.152292 41.605537
v -13.539837 -18.14662 43.536453
v -14.2798 -18.146618 43.46281
v -15.877999 -18.13992 44.26212
v -15.761457 -18.146618 43.315346
v -14.43474 -18.144388 44.39841
v -13.539837 -18.14662 43.536453
v -13.713952 -18.14662 44.466473
v -14.008423 -18.144367 48.056767
v -15.270137 -18.14182 49.15351
v -15.420881 -18.139967 48.254814
v -13.869962 -18.141882 48.986614
v -13.303019 -18.146559 47.95786
v -13.173181 -18.156446 48.888435
v -14.428101 -18.139494 45.25993
v -15.524826 -18.146559 47.32207
v -15.828872 -18.139494 45.448406
v -14.073073 -18.146559 47.125977
v -13.728533 -18.13988 45.16581
v -13.3480425 -18.146559 47.02804
v -14.073073 -18.146559 47.125977
v -15.420881 -18.139967 48.254814
v -15.524826 -18.146559 47.32207
v -14.008423 -18.144367 48.056767
v -13.3480425 -18.146559 47.02804
v -13.303019 -18.146559 47.95786
v -14.145084 -18.144194 51.298645
v -15.430065 -18.157415 51.81031
v -15.355117 -18.140438 51.162273
v -14.211384 -18.158155 51.935627
v -13.528651 -18.146105 51.36812
v -13.584202 -18.158573 51.858047
v -13.892851 -18.150648 48.848606
v -15.211096 -18.146103 50.3566
v -15.069711 -18.150648 48.70935
v -13.997864 -18.146103 50.499535
v -13.282379 -18.150965 48.92085
v -13.3650875 -18.146105 50.57408
v -13.997864 -18.146103 50.499535
v -15.355117 -18.140438 51.162273
v -15.211096 -18.146103 50.3566
v -14.145084 -18.144194 51.298645
v -13.3650875 -18.146105 50.57408
v -13.528651 -18.146105 51.36812
v -15.365703 -18.127016 45.41863
v -15.798011 -18.138678 44.384678
v -15.27197 -18.124922 44.436428
v -15.882674 -18.138329 45.37373
v -15.413454 -18.128565 45.918995
v -15.811138 -18.138668 45.88077
v -13.377302 -18.132248 45.589066
v -14.617254 -18.137669 44.541958
v -13.280772 -18.141354 44.6337
v -14.716262 -18.128563 45.52684
v -13.42738 -18.132504 46.084637
v -14.767898 -18.128565 46.040516
v -14.716262 -18.128563 45.52684
v -15.27197 -18.124922 44.436428
v -14.617254 -18.137669 44.541958
v -15.365703 -18.127016 45.41863
v -14.767898 -18.128565 46.040516
v -15.413454 -18.128565 45.918995
vt 0.26586914 0.07086182
vt 0.0231781 0.07086182
vt 0.013717651 0.91748047
vt 0.25439453 0.91748047
vt 0.50878906 0.07086182
vt 0.26586914 0.07086182
vt 0.4951172 0.91748047
vt 0.9941406 0.07086182
vt 0.50878906 0.07086182
vt 0.4951172 0.91748047
vt 0.9765625 0.91748047
vt 0.5175781 -0.018585205
vt 0.013793945 -0.021636963
vt 0.00012922287 0.9941406
vt 0.51123047 0.9970703
vt 1.0214844 -0.0155181885
vt 0.5175781 -0.018585205
vt 1.0224609 0.9995117
vt 0.5175781 -0.018585205
vt 0.013793945 -0.021636963
vt 0.00012922287 0.9941406
vt 0.51123047 0.9970703
vt 1.0214844 -0.0155181885
vt 0.5175781 -0.018585205
vt 1.0224609 0.9995117
vt 0.26171875 0.34765625
vt 0.01524353 0.9355469
vt 0.25634766 0.93896484
vt 0.019348145 0.34472656
vt 0.2644043 0.052215576
vt 0.021408081 0.049743652
vt 0.98828125 0.35595703
vt 0.49682617 0.9404297
vt 0.9785156 0.94628906
vt 0.50390625 0.34887695
vt 0.99316406 0.061065674
vt 0.5073242 0.053588867
vt 0.50390625 0.34887695
vt 0.25610352 0.93847656
vt 0.4970703 0.94091797
vt 0.26171875 0.34765625
vt 0.5073242 0.05328369
vt 0.2644043 0.05255127
vt 0.26171875 0.34765625
vt 0.022964478 0.9355469
vt 0.25634766 0.93896484
vt 0.019348145 0.34472656
vt 0.2644043 0.052215576
vt 0.021408081 0.049743652
vt 0.98828125 0.35595703
vt 0.49682617 0.9404297
vt 0.9785156 0.94628906
vt 0.50390625 0.34887695
vt 0.99316406 0.061065674
vt 0.5073242 0.053588867
vt 0.50390625 0.34887695
vt 0.25610352 0.93847656
vt 0.4970703 0.94091797
vt 0.26171875 0.34765625
vt 0.5073242 0.05328369
vt 0.2644043 0.05255127
vt 0.26171875 0.34765625
vt 0.06439209 0.93408203
vt 0.25634766 0.9272461
vt 0.072143555 0.34545898
vt 0.2644043 0.052215576
vt 0.11791992 0.050720215
vt 0.98828125 0.35595703
vt 0.49731445 0.91552734
vt 0.9790039 0.9243164
vt 0.50390625 0.34887695
vt 0.99316406 0.061065674
vt 0.5073242 0.053588867
vt 0.50390625 0.34887695
vt 0.25634766 0.9272461
vt 0.49731445 0.91552734
vt 0.26171875 0.34765625
vt 0.5073242 0.05328369
vt 0.2644043 0.05255127
vt 0.26171875 0.34765625
vt 0.06439209 0.93408203
vt 0.25634766 0.9272461
vt 0.072143555 0.34545898
vt 0.2644043 0.052215576
vt 0.11791992 0.050720215
vt 0.90625 0.35595703
vt 0.49731445 0.91552734
vt 0.89697266 0.9243164
vt 0.50390625 0.34887695
vt 0.9111328 0.061065674
vt 0.5073242 0.053588867
vt 0.50390625 0.34887695
vt 0.25634766 0.9272461
vt 0.49731445 0.91552734
vt 0.26171875 0.34765625
vt 0.5073242 0.05328369
vt 0.2644043 0.05255127
vn -0.0023212433 1 -0.0032157898
vn -0.0023212433 1 -0.0032157898
vn -0.0023212433 1 -0.0032157898
vn -0.0023212433 1 -0.0032157898
vn -0.0011377335 1 0.0036296844
vn -0.0011377335 1 0.0036296844
vn -0.0011377335 1 0.0036296844
vn 0.0027427673 1 0.0019817352
vn 0.0027427673 1 0.0019817352
vn 0.0027427673 1 0.0019817352
vn 0.0027427673 1 0.0019817352
vn 0.006134033 1 -0.00062417984
vn 0.006134033 1 -0.00062417984
vn 0.006134033 1 -0.00062417984
vn 0.006134033 1 -0.00062417984
vn -0 1 -8.940697E-07
vn -0 1 -8.940697E-07
vn -0 1 -8.940697E-07
vn -0.0010967255 1 -0.0060653687
vn -0.0010967255 1 -0.0060653687
vn -0.0010967255 1 -0.0060653687
vn -0.0010967255 1 -0.0060653687
vn -1.5497208E-06 1 1.1920929E-07
vn -1.5497208E-06 1 1.1920929E-07
vn -1.5497208E-06 1 1.1920929E-07
vn 0.0011100769 1 0.0047683716
vn 0.0011100769 1 0.0047683716
vn 0.0011100769 1 0.0047683716
vn 0.0011100769 1 0.0047683716
vn 0.0014333725 1 0.0013017654
vn 0.0014333725 1 0.0013017654
vn -0.00036907196 1 0.0037059784
vn -0.00036907196 1 0.0037059784
vn -0.00036907196 1 0.0037059784
vn -0.00036907196 1 0.0037059784
vn 0.008773804 1 0.00073099136
vn 0.008773804 1 0.00073099136
vn 0.0019607544 1 -0.004459381
vn 0.0019607544 1 -0.004459381
vn 0.0019607544 1 -0.004459381
vn 0.0019607544 1 -0.004459381
vn 0.0016174316 1 -0.0009098053
vn 0.0016174316 1 -0.0009098053
vn 0.0015077591 1 -0.0005850792
vn 0.0015077591 1 -0.0005850792
vn 0.0015077591 1 -0.0005850792
vn 0.0015077591 1 -0.0005850792
vn 0.012268066 1 0.0022087097
vn 0.012268066 1 0.0022087097
vn 0.00049877167 1 0.0036907196
vn 0.00049877167 1 0.0036907196
vn 0.00049877167 1 0.0036907196
vn 0.00049877167 1 0.0036907196
vn 0.0007491112 1 0.003540039
vn 0.0007491112 1 0.003540039
vn 0.0008749962 1 -0.0047912598
vn 0.0008749962 1 -0.0047912598
vn 0.0008749962 1 -0.0047912598
vn 0.0008749962 1 -0.0047912598
vn 0.0013608932 1 -0.0012578964
vn 0.0013608932 1 -0.0012578964
vn -0.00073337555 0.9995117 0.023986816
vn -0.00073337555 0.9995117 0.023986816
vn -0.00073337555 0.9995117 0.023986816
vn -0.00073337555 0.9995117 0.023986816
vn 0.002029419 0.9995117 0.023666382
vn 0.002029419 0.9995117 0.023666382
vn 0.00032281876 1 -0.0027332306
vn 0.00032281876 1 -0.0027332306
vn 0.00032281876 1 -0.0027332306
vn 0.00032281876 1 -0.0027332306
vn 0.00058603287 1 -0.0028133392
vn 0.00058603287 1 -0.0028133392
vn 0.0020503998 1 -0.004348755
vn 0.0020503998 1 -0.004348755
vn 0.0020503998 1 -0.004348755
vn 0.0020503998 1 -0.004348755
vn 0.0016326904 1 -0.00087976456
vn 0.0016326904 1 -0.00087976456
vn -0.023910522 0.9995117 -0.0012788773
vn -0.023910522 0.9995117 -0.0012788773
vn -0.023910522 0.9995117 -0.0012788773
vn -0.023910522 0.9995117 -0.0012788773
vn -0.023635864 0.9995117 0.0024318695
vn -0.023635864 0.9995117 0.0024318695
vn 0.003276825 1 -0.009056091
vn 0.003276825 1 -0.009056091
vn 0.003276825 1 -0.009056091
vn 0.003276825 1 -0.009056091
vn 0.0028247833 1 0.00053977966
vn 0.0028247833 1 0.00053977966
vn 0.011360168 1 -0.002450943
vn 0.011360168 1 -0.002450943
vn 0.011360168 1 -0.002450943
vn 0.011360168 1 -0.002450943
vn 0.0009050369 1 0.0016183853
vn 0.0009050369 1 0.0016183853
g SM_Scene_A_Rugs00_0
f 3/3/3 2/2/2 1/1/1
f 4/4/4 3/3/3 1/1/1
f 4/4/4 6/6/6 5/5/5
f 7/7/7 4/4/4 5/5/5
f 10/10/10 9/9/9 8/8/8
f 11/11/11 10/10/10 8/8/8
g SM_Scene_A_Rugs00_1
f 14/14/14 13/13/13 12/12/12
f 15/15/15 14/14/14 12/12/12
f 15/15/15 17/17/17 16/16/16
f 18/18/18 15/15/15 16/16/16
f 21/21/21 20/20/20 19/19/19
f 22/22/22 21/21/21 19/19/19
f 22/22/22 24/24/24 23/23/23
f 25/25/25 22/22/22 23/23/23
g SM_Scene_A_Rugs00_2
f 28/28/28 27/27/27 26/26/26
f 27/27/27 29/29/29 26/26/26
f 26/26/26 29/29/29 30/30/30
f 29/29/29 31/31/31 30/30/30
f 34/34/34 33/33/33 32/32/32
f 33/33/33 35/35/35 32/32/32
f 32/32/32 35/35/35 36/36/36
f 35/35/35 37/37/37 36/36/36
f 40/40/40 39/39/39 38/38/38
f 39/39/39 41/41/41 38/38/38
f 38/38/38 41/41/41 42/42/42
f 41/41/41 43/43/43 42/42/42
g SM_Scene_A_Rugs00_3
f 46/46/46 45/45/45 44/44/44
f 45/45/45 47/47/47 44/44/44
f 44/44/44 47/47/47 48/48/48
f 47/47/47 49/49/49 48/48/48
f 52/52/52 51/51/51 50/50/50
f 51/51/51 53/53/53 50/50/50
f 50/50/50 53/53/53 54/54/54
f 53/53/53 55/55/55 54/54/54
f 58/58/58 57/57/57 56/56/56
f 57/57/57 59/59/59 56/56/56
f 56/56/56 59/59/59 60/60/60
f 59/59/59 61/61/61 60/60/60
g SM_Scene_A_Rugs00_4
f 64/64/64 63/63/63 62/62/62
f 63/63/63 65/65/65 62/62/62
f 62/62/62 65/65/65 66/66/66
f 65/65/65 67/67/67 66/66/66
f 70/70/70 69/69/69 68/68/68
f 69/69/69 71/71/71 68/68/68
f 68/68/68 71/71/71 72/72/72
f 71/71/71 73/73/73 72/72/72
f 76/76/76 75/75/75 74/74/74
f 75/75/75 77/77/77 74/74/74
f 74/74/74 77/77/77 78/78/78
f 77/77/77 79/79/79 78/78/78
g SM_Scene_A_Rugs00_5
f 82/82/82 81/81/81 80/80/80
f 81/81/81 83/83/83 80/80/80
f 80/80/80 83/83/83 84/84/84
f 83/83/83 85/85/85 84/84/84
f 88/88/88 87/87/87 86/86/86
f 87/87/87 89/89/89 86/86/86
f 86/86/86 89/89/89 90/90/90
f 89/89/89 91/91/91 90/90/90
f 94/94/94 93/93/93 92/92/92
f 93/93/93 95/95/95 92/92/92
f 92/92/92 95/95/95 96/96/96
f 95/95/95 97/97/97 96/96/96
