g SM_Scene_A_Passipass00
v -0.34756184 -0.16160583 -0.035247803
v -0.34878635 0.1589508 -0.035251617
v -0.34896278 0.1589508 0.03345108
v -0.34774017 -0.16160583 0.033454895
v 0.34896374 -0.15894318 -0.033447266
v 0.3487854 -0.15894318 0.035255432
v 0.3475628 0.16161346 0.035251617
v 0.34773922 0.16161346 -0.03345108
v -0.34774017 -0.16160583 0.033454895
v 0.3487854 -0.15894318 0.035255432
v 0.34896374 -0.15894318 -0.033447266
v -0.34756184 -0.16160583 -0.035247803
v -0.34756184 -0.16160583 -0.035247803
v 0.34896374 -0.15894318 -0.033447266
v 0.34773922 0.16161346 -0.03345108
v -0.34878635 0.1589508 -0.035251617
v -0.34878635 0.1589508 -0.035251617
v 0.34773922 0.16161346 -0.03345108
v 0.3475628 0.16161346 0.035251617
v -0.34896278 0.1589508 0.03345108
v -0.34896278 0.1589508 0.03345108
v 0.3475628 0.16161346 0.035251617
v 0.3487854 -0.15894318 0.035255432
v -0.34774017 -0.16160583 0.033454895
vt 0.7363281 0.6826172
vt 0.7363281 0.7832031
vt 0.71728516 0.7832031
vt 0.71728516 0.6826172
vt 0.73583984 0.68359375
vt 0.7167969 0.68359375
vt 0.7167969 0.7841797
vt 0.73583984 0.7841797
vt 0.6308594 0.72314453
vt 0.8227539 0.72216797
vt 0.8227539 0.74365234
vt 0.6308594 0.7446289
vt 0.6308594 0.6826172
vt 0.8227539 0.68359375
vt 0.8227539 0.7841797
vt 0.6303711 0.7832031
vt 0.6303711 0.7446289
vt 0.8227539 0.7441406
vt 0.8227539 0.72216797
vt 0.6303711 0.72314453
vt 0.6303711 0.7832031
vt 0.8227539 0.7841797
vt 0.8227539 0.68359375
vt 0.6308594 0.6826172
vn -1 -0.0038166046 -0.00258255
vn -1 -0.0038166046 -0.00258255
vn -1 -0.0038166046 -0.00258255
vn -1 -0.0038166046 -0.00258255
vn 1 0.0038166046 0.00258255
vn 1 0.0038166046 0.00258255
vn 1 0.0038166046 0.00258255
vn 1 0.0038166046 0.00258255
vn 0.0038223267 -1 9.894371E-06
vn 0.0038223267 -1 9.894371E-06
vn 0.0038223267 -1 9.894371E-06
vn 0.0038223267 -1 9.894371E-06
vn 0.0025844574 -2.026558E-06 -1
vn 0.0025844574 -2.026558E-06 -1
vn 0.0025844574 -2.026558E-06 -1
vn 0.0025844574 -2.026558E-06 -1
vn -0.0038223267 1 -9.834766E-06
vn -0.0038223267 1 -9.834766E-06
vn -0.0038223267 1 -9.834766E-06
vn -0.0038223267 1 -9.834766E-06
vn -0.0025844574 2.026558E-06 1
vn -0.0025844574 2.026558E-06 1
vn -0.0025844574 2.026558E-06 1
vn -0.0025844574 2.026558E-06 1
g SM_Scene_A_Passipass00_0
f 3/3/3 2/2/2 1/1/1
f 4/4/4 3/3/3 1/1/1
f 7/7/7 6/6/6 5/5/5
f 8/8/8 7/7/7 5/5/5
f 11/11/11 10/10/10 9/9/9
f 12/12/12 11/11/11 9/9/9
f 15/15/15 14/14/14 13/13/13
f 16/16/16 15/15/15 13/13/13
f 19/19/19 18/18/18 17/17/17
f 20/20/20 19/19/19 17/17/17
f 23/23/23 22/22/22 21/21/21
f 24/24/24 23/23/23 21/21/21
