g SM_Scene_A_WaterPlane04.002
v -1483.8585 71.60096 146.21442
v -2595.5874 71.60096 1619.4176
v -2592.9512 71.60096 537.39886
v -1455.6626 71.60096 837.4407
v -929.3122 71.60096 -49.377823
v -885.70013 71.60096 446.4522
v -432.04352 71.60096 -224.76785
v -374.60764 71.60096 95.84793
v -374.7659 71.60096 -244.97005
v -315.73773 71.60096 55.46376
v -1468.0789 71.60096 -444.82288
v -2592.9512 71.60096 537.39886
v -2583.491 71.60096 -341.92398
v -1483.8585 71.60096 146.21442
v -910.37286 71.60096 -496.27234
v -929.3122 71.60096 -49.377823
v -410.2708 71.60096 -542.4077
v -432.04352 71.60096 -224.76785
v -352.66678 71.60096 -547.7218
v -374.7659 71.60096 -244.97005
v -410.2708 71.60096 -542.4077
v -410.2708 71.60096 -542.4077
v -274.99042 71.60096 -841.67584
v -352.66678 71.60096 -547.7218
v -332.06125 71.60096 -852.0098
v -910.37286 71.60096 -496.27234
v -827.5344 71.60096 -941.7267
v -1468.0789 71.60096 -444.82288
v -1380.0786 71.60096 -1041.7775
v -2583.491 71.60096 -341.92398
v -2485.167 71.60096 -1241.8792
v -374.60764 71.60096 95.84793
v -315.73773 71.60096 55.46376
v -210.48515 71.60096 276.19702
v -282.31888 71.60096 296.71268
v -885.70013 71.60096 446.4522
v -240.82593 71.60096 304.78732
v -184.67621 71.60096 330.32297
v -282.2809 71.60096 314.49353
v -268.00632 71.60096 308.4971
v -287.90662 71.60096 325.6213
v -263.21497 71.60096 309.19043
v -254.75385 71.60096 315.22125
v -250.1686 71.60096 322.5683
v -250.78253 71.60096 332.27988
v -240.85419 71.60096 386.95987
v -254.85017 71.60096 341.77216
v -286.0139 71.60096 337.46826
v -252.0676 71.60096 362.55417
v -293.56052 71.60096 354.47952
v -277.8366 71.60096 346.0982
v -270.20935 71.60096 347.4465
v -264.763 71.60096 347.12714
v -759.5171 71.60096 793.5533
v -728.57574 71.60096 878.66583
v -1272.4755 71.60096 1427.0085
v -1308.5491 71.60096 1310.9095
v -2360.2747 71.60096 2523.6943
v -1455.6626 71.60096 837.4407
v -2406.6128 71.60096 2345.622
v -2595.5874 71.60096 1619.4176
vt -4.4375 -3.5859375
vt 0.39892578 -8.828125
vt -6.0351562 -7.4140625
vt -0.1829834 -4.3476562
vt -3.6386719 -1.6728516
vt -0.4741211 -2.1054688
vt -2.9238281 0.043518066
vt -0.7348633 -0.093811035
vt -2.8398438 0.24121094
vt -0.7651367 0.13781738
vt -8.125 -2.9082031
vt -5.8203125 -7.0742188
vt -11.328125 -6.1640625
vt -4.328125 -3.4160156
vt -6.5195312 -1.2822266
vt -3.5859375 -1.5878906
vt -5.0820312 0.17651367
vt -2.9179688 0.05227661
vt -4.9179688 0.34448242
vt -2.8398438 0.24121094
vt -5.0820312 0.17651367
vt -5.0742188 0.18664551
vt -6.2539062 1.1259766
vt -4.9179688 0.34448242
vt -6.5117188 0.9819336
vt -6.4296875 -1.1845703
vt -8.734375 -0.26879883
vt -7.9414062 -2.7128906
vt -11.21875 -1.6640625
vt -10.96875 -5.7695312
vt -16.171875 -4.453125
vt -0.73828125 -0.09832764
vt -0.7651367 0.13781738
vt 0.84716797 0.0574646
vt 0.7167969 -0.18127441
vt -0.50439453 -2.1484375
vt 0.90478516 -0.07757568
vt 1.2421875 0.037750244
vt 0.8178711 -0.21166992
vt 0.83251953 -0.16088867
vt 0.8613281 -0.2467041
vt 0.85302734 -0.14855957
vt 0.9165039 -0.1348877
vt 0.9736328 -0.13452148
vt 1.0263672 -0.1529541
vt 1.3701172 -0.21850586
vt 1.0664062 -0.18066406
vt 0.9350586 -0.26171875
vt 1.1933594 -0.2084961
vt 1.0058594 -0.31225586
vt 1.0117188 -0.25317383
vt 1.0458984 -0.23400879
vt 1.0625 -0.21801758
vt 1.8955078 -2.3847656
vt 2.484375 -2.4433594
vt 3.7265625 -4.9257812
vt 2.9453125 -4.828125
vt 6.2109375 -9.890625
vt -0.24328613 -4.4335938
vt 5.0429688 -9.7109375
vt 0.2783203 -9.0078125
vn -0 1 0
vn -0 1 0
vn -0 1 0
vn -0 1 0
vn -0 1 0
vn -0 1 0
vn -0 1 0
vn -0 1 0
vn -0 1 0
vn -0 1 0
vn -0 1 0
vn -0 1 0
vn -0 1 0
vn -0 1 0
vn -0 1 0
vn -0 1 0
vn -0 1 0
vn -0 1 0
vn -0 1 0
vn -0 1 0
vn -0 1 0
vn -0 1 0
vn -0 1 0
vn -0 1 0
vn -0 1 0
vn -0 1 0
vn -0 1 0
vn -0 1 0
vn -0 1 0
vn -0 1 0
vn -0 1 0
vn -0 1 0
vn -0 1 0
vn -0 1 0
vn -0 1 0
vn -0 1 0
vn -0 1 0
vn -0 1 0
vn -0 1 0
vn -0 1 0
vn -0 1 0
vn -0 1 0
vn -0 1 0
vn -0 1 0
vn -0 1 0
vn -0 1 0
vn -0 1 0
vn -0 1 0
vn -0 1 0
vn -0 1 0
vn -0 1 0
vn -0 1 0
vn -0 1 0
vn -0 1 0
vn -0 1 0
vn -0 1 0
vn -0 1 0
vn -0 1 0
vn -0 1 0
vn -0 1 0
vn -0 1 0
g SM_Scene_A_WaterPlane04.002_0
f 3/3/3 2/2/2 1/1/1
f 2/2/2 4/4/4 1/1/1
f 1/1/1 4/4/4 5/5/5
f 4/4/4 6/6/6 5/5/5
f 5/5/5 6/6/6 7/7/7
f 6/6/6 8/8/8 7/7/7
f 7/7/7 8/8/8 9/9/9
f 8/8/8 10/10/10 9/9/9
f 13/13/13 12/12/12 11/11/11
f 12/12/12 14/14/14 11/11/11
f 11/11/11 14/14/14 15/15/15
f 14/14/14 16/16/16 15/15/15
f 15/15/15 16/16/16 17/17/17
f 16/16/16 18/18/18 17/17/17
f 18/18/18 20/20/20 19/19/19
f 21/21/21 18/18/18 19/19/19
f 24/24/24 23/23/23 22/22/22
f 23/23/23 25/25/25 22/22/22
f 22/22/22 25/25/25 26/26/26
f 25/25/25 27/27/27 26/26/26
f 26/26/26 27/27/27 28/28/28
f 27/27/27 29/29/29 28/28/28
f 28/28/28 29/29/29 30/30/30
f 29/29/29 31/31/31 30/30/30
f 34/34/34 33/33/33 32/32/32
f 32/32/32 35/35/35 34/34/34
f 35/35/35 32/32/32 36/36/36
f 35/35/35 37/37/37 34/34/34
f 38/38/38 34/34/34 37/37/37
f 36/36/36 39/39/39 35/35/35
f 39/39/39 40/40/40 35/35/35
f 35/35/35 40/40/40 37/37/37
f 36/36/36 41/41/41 39/39/39
f 40/40/40 42/42/42 37/37/37
f 42/42/42 43/43/43 37/37/37
f 43/43/43 44/44/44 37/37/37
f 37/37/37 44/44/44 38/38/38
f 44/44/44 45/45/45 38/38/38
f 45/45/45 46/46/46 38/38/38
f 45/45/45 47/47/47 46/46/46
f 36/36/36 48/48/48 41/41/41
f 47/47/47 49/49/49 46/46/46
f 36/36/36 50/50/50 48/48/48
f 48/48/48 50/50/50 51/51/51
f 52/52/52 51/51/51 50/50/50
f 52/52/52 50/50/50 49/49/49
f 49/49/49 53/53/53 52/52/52
f 54/54/54 46/46/46 49/49/49
f 50/50/50 54/54/54 49/49/49
f 36/36/36 54/54/54 50/50/50
f 54/54/54 55/55/55 46/46/46
f 56/56/56 55/55/55 54/54/54
f 57/57/57 54/54/54 36/36/36
f 57/57/57 56/56/56 54/54/54
f 58/58/58 56/56/56 57/57/57
f 59/59/59 57/57/57 36/36/36
f 60/60/60 58/58/58 57/57/57
f 60/60/60 57/57/57 59/59/59
f 61/61/61 60/60/60 59/59/59
