g SM_Scene_A_Grass00.003
v 36.439198 -33.06272 -80.70741
v 36.439198 -33.06272 -85.62333
v 65.31475 -33.07589 -85.6116
v 65.31475 -33.07589 -80.69569
v 65.29888 -33.03938 -77.24364
v 76.292725 -33.0809 -80.691216
v 76.16558 -33.038067 -77.24662
v 36.429913 -33.042862 -77.23573
v 25.11964 -33.044094 -77.23293
v 25.024323 -33.058018 -80.71161
v 58.799953 -33.06272 -67.20852
v 91.7561 -33.07589 -67.19679
v 91.740234 -33.03938 -63.74475
v 58.790672 -33.042862 -63.73684
vt 0.1027832 0.06335449
vt 0.24816895 0.06329346
vt 0.24829102 0.9169922
vt 0.10296631 0.91748047
vt 0.0008621216 0.9169922
vt 0.103027344 1.2421875
vt 0.0011415482 1.2382812
vt 0.000119030476 0.06317139
vt -0.00016331673 -0.27124023
vt 0.10272217 -0.27416992
vt -0.29589844 0.72509766
vt -0.2956543 1.6992188
vt -0.39794922 1.6992188
vt -0.39868164 0.7246094
vn 0.000259161 1 -0.004337311
vn 0.00045609474 1 0
vn 0.00045609474 1 0
vn 0.00026488304 1 -0.006549835
vn 0.00016927719 1 -0.009811401
vn 0.00017011166 1 -0.011497498
vn 0.00017011166 1 -0.011497498
vn 0.00016069412 1 -0.006500244
vn 0.00015306473 1 -0.004863739
vn 0.00015306473 1 -0.004863739
vn 0.00014746189 1 -0.008140564
vn 0.00014746189 1 -0.008140564
vn 0.00014746189 1 -0.008140564
vn 0.00014746189 1 -0.008140564
g SM_Scene_A_Grass00.003_0
f 3/3/3 2/2/2 1/1/1
f 4/4/4 3/3/3 1/1/1
f 5/5/5 4/4/4 1/1/1
f 4/4/4 5/5/5 6/6/6
f 5/5/5 7/7/7 6/6/6
f 8/8/8 5/5/5 1/1/1
f 9/9/9 8/8/8 1/1/1
f 10/10/10 9/9/9 1/1/1
f 13/13/13 12/12/12 11/11/11
f 14/14/14 13/13/13 11/11/11
