g SM_Scene_A_Blockout00.027
v 732.5277 177.83105 123.35925
v 493.6171 115.51247 197.49553
v 493.6171 115.51247 123.35925
v 732.5277 177.83105 197.49553
v 493.6171 115.51247 313.65497
v 732.5277 177.83105 313.65497
v 732.59973 176.41765 60.02027
v 732.6011 176.39183 69.65619
v 493.69058 114.07326 69.65619
v 493.68924 114.09909 60.02027
v 732.5692 177.01566 -163.02332
v 493.6587 114.69707 -163.02332
v 732.6011 176.39183 69.65619
v 732.5277 177.83105 123.35925
v 493.6171 115.51247 123.35925
v 493.69058 114.07326 69.65619
v 733.46545 159.44763 197.49553
v 484.10388 88.9831 313.63025
v 733.46545 159.44763 313.63025
v 484.10388 88.9831 197.49553
v 733.46545 159.44763 123.60617
v 484.10388 88.9831 123.60617
v 733.5388 158.00775 69.87842
v 733.46545 159.44763 123.60617
v 484.17737 87.54324 69.87842
v 733.53754 158.03432 59.97085
v 733.5388 158.00775 69.87842
v 484.17593 87.5698 59.97085
v 733.5071 158.6323 -163.07272
v 484.14542 88.16778 -163.07272
v 493.6171 115.51247 197.49553
v 493.6171 115.51247 313.65497
v 484.10388 88.9831 313.63025
v 484.10388 88.9831 197.49553
v 493.6171 115.51247 123.35925
v 484.10388 88.9831 123.60617
v 493.69058 114.07326 69.65619
v 493.6171 115.51247 123.35925
v 484.17737 87.54324 69.87842
v 493.68924 114.09909 60.02027
v 493.69058 114.07326 69.65619
v 484.17593 87.5698 59.97085
v 493.6587 114.69707 -163.02332
v 484.14542 88.16778 -163.07272
v 732.5277 177.83105 313.65497
v 733.46545 159.44763 197.49553
v 733.46545 159.44763 313.63025
v 732.5277 177.83105 197.49553
v 733.46545 159.44763 123.60617
v 732.5277 177.83105 123.35925
v 733.5388 158.00775 69.87842
v 732.6011 176.39183 69.65619
v 733.53754 158.03432 59.97085
v 732.59973 176.41765 60.02027
v 733.5071 158.6323 -163.07272
v 732.5692 177.01566 -163.02332
vt 1.359375 -2.4667969
vt -1.8867188 -2.9746094
vt -1.8867188 -2.4667969
vt 1.359375 -2.9746094
vt -1.8867188 -3.7714844
vt 1.359375 -3.7714844
vt 1.3603516 -2.0332031
vt 1.3603516 -2.0976562
vt -1.8857422 -2.0996094
vt -1.8857422 -2.0332031
vt 1.3603516 -0.5053711
vt -1.8857422 -0.50634766
vt 1.3603516 -2.1132812
vt 1.359375 -2.4804688
vt -1.8867188 -2.46875
vt -1.8857422 -2.1015625
vt 1.3720703 -2.9746094
vt -2.0371094 -3.7695312
vt 1.3720703 -3.7695312
vt -2.0371094 -2.9746094
vt 1.3720703 -2.46875
vt -2.0371094 -2.46875
vt 1.3730469 -2.1132812
vt 1.3720703 -2.4824219
vt -2.0351562 -2.1015625
vt 1.3730469 -2.03125
vt 1.3730469 -2.0996094
vt -2.0351562 -2.0332031
vt 1.3730469 -0.5048828
vt -2.0371094 -0.5058594
vt -6.4492188 0.015174866
vt -8.0390625 0.015174866
vt -8.0390625 -0.15344238
vt -6.4492188 -0.15344238
vt -5.4335938 0.015174866
vt -5.4375 -0.15344238
vt -4.6992188 0.0053367615
vt -5.4375 0.0151901245
vt -4.703125 -0.16333008
vt -4.5664062 0.0054969788
vt -4.6992188 0.005317688
vt -4.5664062 -0.16308594
vt -1.5126953 0.009590149
vt -1.5117188 -0.15905762
vt -8.0390625 0.46118164
vt -6.4492188 0.33520508
vt -8.0390625 0.33520508
vt -6.4492188 0.46118164
vt -5.4375 0.33520508
vt -5.4335938 0.46118164
vt -4.703125 0.32543945
vt -4.6992188 0.45141602
vt -4.5664062 0.3256836
vt -4.5664062 0.45141602
vt -1.5117188 0.32958984
vt -1.5126953 0.4555664
vn -0.2524414 0.96777344 0
vn -0.2524414 0.96777344 0
vn -0.2524414 0.96777344 0
vn -0.2524414 0.96777344 0
vn -0.2524414 0.96777344 0
vn -0.2524414 0.96777344 0
vn -0.2524414 0.96777344 0.0026283264
vn -0.2524414 0.96777344 0.0026283264
vn -0.2524414 0.96777344 0.0026283264
vn -0.2524414 0.96777344 0.0026283264
vn -0.2524414 0.96777344 0.0026283264
vn -0.2524414 0.96777344 0.0026283264
vn -0.25219727 0.96728516 -0.026260376
vn -0.25219727 0.96728516 -0.026260376
vn -0.25219727 0.96728516 -0.026260376
vn -0.25219727 0.96728516 -0.026260376
vn 0.27197266 -0.96240234 0
vn 0.27197266 -0.96240234 0
vn 0.27197266 -0.96240234 0
vn 0.27197266 -0.96240234 0
vn 0.27197266 -0.96240234 0
vn 0.27197266 -0.96240234 0
vn 0.27172852 -0.96191406 0.026153564
vn 0.27172852 -0.96191406 0.026153564
vn 0.27197266 -0.96240234 -0.0026168823
vn 0.27197266 -0.96240234 -0.0026168823
vn 0.27197266 -0.96240234 -0.0026168823
vn 0.27197266 -0.96240234 -0.0026168823
vn 0.27197266 -0.96240234 -0.0026168823
vn 0.27197266 -0.96240234 -0.0026168823
vn -0.94140625 0.33764648 0
vn -0.94140625 0.33764648 0
vn -0.94140625 0.33764648 0
vn -0.94140625 0.33764648 0
vn -0.94140625 0.33764648 0
vn -0.94140625 0.33740234 -0.0103302
vn -0.94140625 0.33740234 -0.0103302
vn -0.94140625 0.33740234 -0.0103302
vn -0.94140625 0.33740234 -0.0103302
vn -0.94140625 0.33764648 0.001033783
vn -0.94140625 0.33764648 0.001042366
vn -0.94140625 0.33764648 0.001033783
vn -0.94140625 0.33764648 0.001033783
vn -0.94140625 0.33764648 0.001033783
vn 0.99853516 0.050933838 0
vn 0.99853516 0.050933838 0
vn 0.99853516 0.050933838 0
vn 0.99853516 0.050933838 0
vn 0.99853516 0.050933838 -1.013279E-06
vn 0.99853516 0.050933838 -1.013279E-06
vn 0.99853516 0.050933838 -1.013279E-06
vn 0.99853516 0.050933838 -1.013279E-06
vn 0.99853516 0.050964355 -2.3841858E-07
vn 0.99853516 0.050964355 -2.3841858E-07
vn 0.99853516 0.050964355 -2.3841858E-07
vn 0.99853516 0.050964355 -2.3841858E-07
g SM_Scene_A_Blockout00.027_0
f 3/3/3 2/2/2 1/1/1
f 2/2/2 4/4/4 1/1/1
f 2/2/2 5/5/5 4/4/4
f 5/5/5 6/6/6 4/4/4
f 9/9/9 8/8/8 7/7/7
f 10/10/10 9/9/9 7/7/7
f 10/10/10 7/7/7 11/11/11
f 12/12/12 10/10/10 11/11/11
f 15/15/15 14/14/14 13/13/13
f 16/16/16 15/15/15 13/13/13
f 19/19/19 18/18/18 17/17/17
f 18/18/18 20/20/20 17/17/17
f 17/17/17 20/20/20 21/21/21
f 20/20/20 22/22/22 21/21/21
f 24/24/24 22/22/22 23/23/23
f 22/22/22 25/25/25 23/23/23
f 27/27/27 25/25/25 26/26/26
f 25/25/25 28/28/28 26/26/26
f 26/26/26 28/28/28 29/29/29
f 28/28/28 30/30/30 29/29/29
f 33/33/33 32/32/32 31/31/31
f 34/34/34 33/33/33 31/31/31
f 34/34/34 31/31/31 35/35/35
f 36/36/36 34/34/34 35/35/35
f 36/36/36 38/38/38 37/37/37
f 39/39/39 36/36/36 37/37/37
f 39/39/39 41/41/41 40/40/40
f 42/42/42 39/39/39 40/40/40
f 42/42/42 40/40/40 43/43/43
f 44/44/44 42/42/42 43/43/43
f 47/47/47 46/46/46 45/45/45
f 46/46/46 48/48/48 45/45/45
f 46/46/46 49/49/49 48/48/48
f 49/49/49 50/50/50 48/48/48
f 49/49/49 51/51/51 50/50/50
f 51/51/51 52/52/52 50/50/50
f 51/51/51 53/53/53 52/52/52
f 53/53/53 54/54/54 52/52/52
f 53/53/53 55/55/55 54/54/54
f 55/55/55 56/56/56 54/54/54
