g SM_Scene_A_Blockout02.001
v 69.37074 -67.11829 46.15581
v 69.37074 -65.25737 46.15581
v 68.28085 -65.25737 46.15581
v 68.28085 -67.11829 46.15581
v 69.37074 -68.40696 46.15581
v 68.28085 -68.40696 46.15581
vt 0.9091797 0.5991211
vt 0.90771484 0.7373047
vt 0.92041016 0.7402344
vt 0.9223633 0.6064453
vt 0.9082031 0.5029297
vt 0.9213867 0.5136719
vn -0 0 -1
vn -0 0 -1
vn -0 0 -1
vn -0 0 -1
vn -0 0 -1
vn -0 0 -1
g SM_Scene_A_Blockout02.001_0
f 3/3/3 2/2/2 1/1/1
f 4/4/4 3/3/3 1/1/1
f 4/4/4 1/1/1 5/5/5
f 6/6/6 4/4/4 5/5/5
