g SM_Scene_A_Blockout02.002
v 64.71627 -67.11829 46.15581
v 64.71627 -65.25737 46.15581
v 63.562107 -65.25737 46.15581
v 63.562107 -67.11829 46.15581
v 64.71627 -68.40696 46.15581
v 63.562107 -68.40696 46.15581
vt 0.96533203 0.6308594
vt 0.9633789 0.75
vt 0.97753906 0.7529297
vt 0.9790039 0.6386719
vt 0.96435547 0.5488281
vt 0.97802734 0.5600586
vn -0 0 -1
vn -0 0 -1
vn -0 0 -1
vn -0 0 -1
vn -0 0 -1
vn -0 0 -1
g SM_Scene_A_Blockout02.002_0
f 3/3/3 2/2/2 1/1/1
f 4/4/4 3/3/3 1/1/1
f 4/4/4 1/1/1 5/5/5
f 6/6/6 4/4/4 5/5/5
