g SM_WoodBars00.004
v 0.0005239105 0.008216591 0.0026833725
v -0.0005239105 0.008216591 0.0026833725
v -0.0005239105 0.0070330044 0.0010612487
v 0.0005239105 0.0070330044 0.0010612487
v 0.0005239105 -0.007288246 -0.0063711544
v 0.00052394863 -0.008402748 -0.0060230633
v 0.0005239105 -0.004251289 -0.0017355346
v 0.0005239105 0.0070330044 0.0010612487
v 0.0005239105 0.0022012328 0.0010315323
v 0.0005239105 0.008216591 0.0026833725
v 0.0005239105 0.002515831 0.0044182204
v 0.0005239105 -0.008914604 -0.0015139389
v 0.0005239105 0.009145775 0.0067416
v 0.0005239105 0.0022012328 0.0010315323
v -0.0005239105 0.0022012328 0.0010315323
v -0.0005239105 0.008216591 0.0026833725
v 0.0005239105 0.008216591 0.0026833725
v 0.0005239105 0.009145775 0.0067416
v -0.0005239105 0.009145775 0.0067416
v -0.0005239105 0.0022012328 0.0010315323
v 0.0005239105 0.0022012328 0.0010315323
v 0.0005239105 0.002515831 0.0044182204
v 0.0005239105 -0.008914604 -0.0015139389
v -0.0005239105 -0.009205322 -0.0016648101
v -0.0005239105 0.002515831 0.004418182
v -0.0005239105 0.002515831 0.004418182
v -0.0005239105 -0.009205322 -0.0016648101
v -0.0005239105 -0.0042609023 -0.0018997573
v -0.0005239105 0.0022012328 0.0010315323
v -0.0005239105 0.009145775 0.0067416
v -0.0005239105 0.0070330044 0.0010612487
v -0.0005239105 0.008216591 0.0026833725
v -0.0005239105 -0.007489433 -0.0064755627
v -0.0005238724 -0.008412361 -0.0061873244
v 0.0005239105 -0.004251289 -0.0017355346
v -0.0005239105 -0.0042609023 -0.0018997573
v -0.0005239105 -0.009205322 -0.0016648101
v 0.0005239105 -0.008914604 -0.0015139389
v -0.0005239105 0.0070330044 0.0010612487
v -0.0005239105 -0.007489433 -0.0064755627
v 0.0005239105 -0.007288246 -0.0063711544
v 0.0005239105 0.0070330044 0.0010612487
v 0.00052394863 -0.008402748 -0.0060230633
v -0.0005238724 -0.008412361 -0.0061873244
v -0.0005239105 -0.0042609023 -0.0018997573
v 0.0005239105 -0.004251289 -0.0017355346
v 0.0005239105 -0.007288246 -0.0063711544
v -0.0005239105 -0.007489433 -0.0064755627
v -0.0005238724 -0.008412361 -0.0061873244
v 0.00052394863 -0.008402748 -0.0060230633
v 0.0005239105 0.002515831 0.0044182204
v -0.0005239105 0.002515831 0.004418182
v -0.0005239105 0.009145775 0.0067416
v 0.0005239105 0.009145775 0.0067416
vt 0.27612305 0.6171875
vt 0.27612305 0.6171875
vt 0.3395996 0.5751953
vt 0.3395996 0.5751953
vt 0.3395996 0.19592285
vt 0.28125 0.1763916
vt 0.14660645 0.30932617
vt 0.3395996 0.5751953
vt 0.18334961 0.47387695
vt 0.27612305 0.6171875
vt -0.01991272 0.51708984
vt -0.01991272 0.21447754
vt 0.05053711 0.68066406
vt 0.18334961 0.47387695
vt 0.18334961 0.47387695
vt 0.27612305 0.6171875
vt 0.27612305 0.6171875
vt 0.05053711 0.68066406
vt 0.05053711 0.68066406
vt 0.18334961 0.47387695
vt 0.18334961 0.47387695
vt 0.3034668 0.48291016
vt 0.3034668 0.78564453
vt 0.3330078 0.79296875
vt 0.3330078 0.48291016
vt -0.01991272 0.51708984
vt -0.01991272 0.20678711
vt 0.15673828 0.30737305
vt 0.18334961 0.47387695
vt 0.05053711 0.68066406
vt 0.3395996 0.5751953
vt 0.27612305 0.6171875
vt 0.3395996 0.19055176
vt 0.29125977 0.17443848
vt 0.14660645 0.30932617
vt 0.15673828 0.30737305
vt -0.01991272 0.20678711
vt -0.01991272 0.21447754
vt 0.3330078 0.42504883
vt 0.3330078 0.8095703
vt 0.3034668 0.8041992
vt 0.3034668 0.42504883
vt 0.28125 0.1763916
vt 0.29125977 0.17443848
vt 0.15673828 0.30737305
vt 0.14660645 0.30932617
vt 0.3395996 0.19592285
vt 0.3395996 0.19055176
vt 0.29125977 0.17443848
vt 0.28125 0.1763916
vt -0.01991272 0.51708984
vt -0.01991272 0.51708984
vt 0.05053711 0.68066406
vt 0.05053711 0.68066406
vn -0 0.8076172 -0.58935547
vn -0 0.8076172 -0.58935547
vn -0 0.8076172 -0.58935547
vn -0 0.8076172 -0.58935547
vn 1 1.2516975E-06 -8.34465E-07
vn 1 1.2516975E-06 -8.34465E-07
vn 1 1.2516975E-06 -8.34465E-07
vn 1 1.2516975E-06 -8.34465E-07
vn 1 1.2516975E-06 -8.34465E-07
vn 1 1.2516975E-06 -8.34465E-07
vn 1 1.2516975E-06 -8.34465E-07
vn 1 1.2516975E-06 -8.34465E-07
vn 1 1.2516975E-06 -8.34465E-07
vn -0 -0.26489258 0.96435547
vn -0 -0.26489258 0.96435547
vn -0 -0.26489258 0.96435547
vn -0 -0.26489258 0.96435547
vn -0 0.6352539 -0.77246094
vn -0 0.6352539 -0.77246094
vn -0 0.6352539 -0.77246094
vn -0 0.6352539 -0.77246094
vn -1.41859055E-05 -0.46069336 0.8876953
vn -1.41859055E-05 -0.46069336 0.8876953
vn -1.41859055E-05 -0.46069336 0.8876953
vn -1.41859055E-05 -0.46069336 0.8876953
vn -1 -1.1920929E-06 8.34465E-07
vn -1 -1.1920929E-06 8.34465E-07
vn -1 -1.1920929E-06 8.34465E-07
vn -1 -1.1920929E-06 8.34465E-07
vn -1 -1.1920929E-06 8.34465E-07
vn -1 -1.1920929E-06 8.34465E-07
vn -1 -1.1920929E-06 8.34465E-07
vn -1 -1.1920929E-06 8.34465E-07
vn -1 -1.1920929E-06 8.34465E-07
vn 0.1550293 -0.046905518 -0.9868164
vn 0.1550293 -0.046905518 -0.9868164
vn 0.1550293 -0.046905518 -0.9868164
vn 0.1550293 -0.046905518 -0.9868164
vn -1.3709068E-06 0.46069336 -0.8876953
vn -1.3709068E-06 0.46069336 -0.8876953
vn -1.3709068E-06 0.46069336 -0.8876953
vn -1.3709068E-06 0.46069336 -0.8876953
vn -0.10192871 -0.71484375 0.69189453
vn -0.10192871 -0.71484375 0.69189453
vn -0.10192871 -0.71484375 0.69189453
vn -0.10192871 -0.71484375 0.69189453
vn 0.15063477 -0.29467773 -0.94384766
vn 0.15063477 -0.29467773 -0.94384766
vn 0.15063477 -0.29467773 -0.94384766
vn 0.15063477 -0.29467773 -0.94384766
vn -1.7404556E-05 -0.33081055 0.94384766
vn -1.7404556E-05 -0.33081055 0.94384766
vn -1.7404556E-05 -0.33081055 0.94384766
vn -1.7404556E-05 -0.33081055 0.94384766
g SM_WoodBars00.004_0
f 3/3/3 2/2/2 1/1/1
f 4/4/4 3/3/3 1/1/1
f 7/7/7 6/6/6 5/5/5
f 5/5/5 8/8/8 7/7/7
f 8/8/8 9/9/9 7/7/7
f 8/8/8 10/10/10 9/9/9
f 7/7/7 9/9/9 11/11/11
f 11/11/11 12/12/12 7/7/7
f 9/9/9 13/13/13 11/11/11
f 16/16/16 15/15/15 14/14/14
f 17/17/17 16/16/16 14/14/14
f 20/20/20 19/19/19 18/18/18
f 21/21/21 20/20/20 18/18/18
f 24/24/24 23/23/23 22/22/22
f 25/25/25 24/24/24 22/22/22
f 28/28/28 27/27/27 26/26/26
f 26/26/26 29/29/29 28/28/28
f 26/26/26 30/30/30 29/29/29
f 28/28/28 29/29/29 31/31/31
f 29/29/29 32/32/32 31/31/31
f 28/28/28 31/31/31 33/33/33
f 33/33/33 34/34/34 28/28/28
f 37/37/37 36/36/36 35/35/35
f 38/38/38 37/37/37 35/35/35
f 41/41/41 40/40/40 39/39/39
f 42/42/42 41/41/41 39/39/39
f 45/45/45 44/44/44 43/43/43
f 46/46/46 45/45/45 43/43/43
f 49/49/49 48/48/48 47/47/47
f 50/50/50 49/49/49 47/47/47
f 53/53/53 52/52/52 51/51/51
f 54/54/54 53/53/53 51/51/51
