g SM_WoodBars00.018
v -0.0005239105 0.013481102 -0.003219261
v -0.00052394863 -0.005440254 -0.0021700668
v 0.0005239105 -0.0055102156 -0.0020924758
v 0.0005239105 0.013481102 -0.003219261
v -0.0005239105 0.013761291 0.0018334198
v 0.0005239105 0.013761291 0.0018334198
v 0.0005239105 -0.009104767 0.0031011961
v -0.0005239105 -0.009245796 0.0031090544
v -0.0005239105 0.013761291 0.0018334198
v -0.0005239105 -0.009245796 0.0031090544
v -0.0005239105 -0.0015599441 -0.0005495834
v -0.0005239105 0.013481102 -0.003219261
v -0.00052394863 -0.005440254 -0.0021700668
v -0.0005239105 -0.010767326 0.00077636715
v 0.0005239105 0.013481102 -0.003219261
v 0.0005239105 0.013761291 0.0018334198
v -0.0005239105 0.013761291 0.0018334198
v -0.0005239105 0.013481102 -0.003219261
v 0.0005239105 -0.0018245315 -0.00036437987
v -0.0005239105 -0.0015599441 -0.0005495834
v -0.0005239105 -0.009245796 0.0031090544
v 0.0005239105 -0.009104767 0.0031011961
v -0.0005239105 -0.0015599441 -0.0005495834
v 0.0005239105 -0.0018245315 -0.00036437987
v 0.0005239105 -0.011031875 0.0009616089
v -0.0005239105 -0.010767326 0.00077636715
v -0.0005239105 -0.010767326 0.00077636715
v 0.0005239105 -0.011031875 0.0009616089
v 0.0005239105 -0.0055102156 -0.0020924758
v -0.00052394863 -0.005440254 -0.0021700668
v 0.0005239105 -0.0055102156 -0.0020924758
v 0.0005239105 -0.011031875 0.0009616089
v 0.0005239105 -0.0018245315 -0.00036437987
v 0.0005239105 0.013481102 -0.003219261
v 0.0005239105 0.013761291 0.0018334198
v 0.0005239105 -0.009104767 0.0031011961
vt 0.98779297 -7.748604E-07
vt 0.98779297 0.4453125
vt 0.9746094 0.44702148
vt 0.9746094 -8.34465E-07
vt 0.98779297 -7.748604E-07
vt 0.9746094 -8.34465E-07
vt 0.9746094 0.53808594
vt 0.98779297 0.5415039
vt 0.828125 1
vt 0.828125 0.4584961
vt 0.9321289 0.6435547
vt 0.99072266 1
vt 0.99072266 0.5546875
vt 0.9057617 0.42578125
vt 0.9746094 0.6503906
vt 0.9746094 0.34985352
vt 0.98779297 0.34985352
vt 0.98779297 0.6503906
vt 0.14892578 0.1237793
vt 0.17175293 0.12854004
vt 0.23632812 -0.06689453
vt 0.21008301 -0.061340332
vt 0.20251465 0.43579102
vt 0.17797852 0.43603516
vt 0.23571777 0.48364258
vt 0.2602539 0.48364258
vt 0.24975586 0.10626221
vt 0.22705078 0.101623535
vt 0.1784668 0.2244873
vt 0.20288086 0.22485352
vt 0.98828125 0.5527344
vt 0.9003906 0.4194336
vt 0.92626953 0.63720703
vt 0.99072266 1
vt 0.828125 1
vt 0.828125 0.46191406
vn 0.03503418 -0.057250977 -0.9975586
vn 0.03503418 -0.057250977 -0.9975586
vn 0.03503418 -0.057250977 -0.9975586
vn 0.03503418 -0.057250977 -0.9975586
vn 1.859665E-05 0.055358887 0.99853516
vn 1.859665E-05 0.055358887 0.99853516
vn 1.859665E-05 0.055358887 0.99853516
vn 1.859665E-05 0.055358887 0.99853516
vn -1 7.1525574E-07 4.4703484E-06
vn -1 7.1525574E-07 4.4703484E-06
vn -1 7.1525574E-07 4.4703484E-06
vn -1 7.1525574E-07 4.4703484E-06
vn -1 7.1525574E-07 4.4703484E-06
vn -1 7.1525574E-07 4.4703484E-06
vn -0 0.99853516 -0.055358887
vn -0 0.99853516 -0.055358887
vn -0 0.99853516 -0.055358887
vn -0 0.99853516 -0.055358887
vn 0.050994873 -0.42919922 -0.90185547
vn 0.050994873 -0.42919922 -0.90185547
vn 0.050994873 -0.42919922 -0.90185547
vn 0.050994873 -0.42919922 -0.90185547
vn -0.13769531 0.14123535 0.98046875
vn -0.13769531 0.14123535 0.98046875
vn -0.13769531 0.14123535 0.98046875
vn -0.13769531 0.14123535 0.98046875
vn 0.032470703 -0.48364258 -0.8745117
vn 0.032470703 -0.48364258 -0.8745117
vn 0.032470703 -0.48364258 -0.8745117
vn 0.032470703 -0.48364258 -0.8745117
vn 1 0 0
vn 1 0 0
vn 1 0 0
vn 1 0 0
vn 1 0 0
vn 1 0 0
g SM_WoodBars00.018_0
f 3/3/3 2/2/2 1/1/1
f 4/4/4 3/3/3 1/1/1
f 7/7/7 6/6/6 5/5/5
f 8/8/8 7/7/7 5/5/5
f 11/11/11 10/10/10 9/9/9
f 9/9/9 12/12/12 11/11/11
f 11/11/11 12/12/12 13/13/13
f 13/13/13 14/14/14 11/11/11
f 17/17/17 16/16/16 15/15/15
f 18/18/18 17/17/17 15/15/15
f 21/21/21 20/20/20 19/19/19
f 22/22/22 21/21/21 19/19/19
f 25/25/25 24/24/24 23/23/23
f 26/26/26 25/25/25 23/23/23
f 29/29/29 28/28/28 27/27/27
f 30/30/30 29/29/29 27/27/27
f 33/33/33 32/32/32 31/31/31
f 31/31/31 34/34/34 33/33/33
f 33/33/33 34/34/34 35/35/35
f 35/35/35 36/36/36 33/33/33
