g SM_WoodBars00.010
v -0.00052394863 0.01266323 0.0037901688
v -0.00052394863 -0.0033885574 -0.004540329
v 0.0005238724 -0.0033885574 -0.004540329
v 0.0005238724 0.01266323 0.0037901688
v -0.00052394863 0.010332222 0.008281708
v 0.0005238724 0.010332222 0.008281708
v 0.0005238724 -0.007905731 -0.0011833572
v -0.00052394863 -0.007905731 -0.0011833954
v -0.00052394863 -0.0012757874 0.0011400223
v -0.00052394863 -0.008220329 -0.0045700455
v -0.00052394863 -0.0022049712 -0.0029182052
v -0.00052394863 0.01266323 0.0037901688
v -0.00052394863 -0.0033885574 -0.004540329
v -0.00052394863 0.010332222 0.008281708
v -0.00052394863 -0.007905731 -0.0011833954
v 0.0005238724 0.01266323 0.0037901688
v 0.0005238724 0.010332222 0.008281708
v -0.00052394863 0.010332222 0.008281708
v -0.00052394863 0.01266323 0.0037901688
v 0.0005238724 0.01266323 0.0037901688
v 0.0005238724 -0.0033885574 -0.004540329
v 0.0005238724 -0.0022049712 -0.0029182052
v 0.0005238724 -0.0012757874 0.0011400223
v 0.0005238724 -0.008220329 -0.0045700455
v 0.0005238724 0.010332222 0.008281708
v 0.0005238724 -0.007905731 -0.0011833572
v 0.0005238724 -0.008220329 -0.0045700455
v -0.00052394863 -0.008220329 -0.0045700455
v -0.00052394863 -0.0012757874 0.0011400223
v 0.0005238724 -0.0012757874 0.0011400223
v 0.0005238724 -0.0012757874 0.0011400223
v -0.00052394863 -0.0012757874 0.0011400223
v -0.00052394863 -0.007905731 -0.0011833954
v 0.0005238724 -0.007905731 -0.0011833572
v 0.0005238724 -0.0022049712 -0.0029182052
v -0.00052394863 -0.0022049712 -0.0029182052
v -0.00052394863 -0.008220329 -0.0045700455
v 0.0005238724 -0.008220329 -0.0045700455
v 0.0005238724 -0.0033885574 -0.004540329
v -0.00052394863 -0.0033885574 -0.004540329
v -0.00052394863 -0.0022049712 -0.0029182052
v 0.0005238724 -0.0022049712 -0.0029182052
vt 0.3330078 -7.748604E-07
vt 0.3330078 0.42504883
vt 0.3034668 0.42504883
vt 0.3034668 -8.34465E-07
vt 0.3330078 -7.748604E-07
vt 0.3034668 -8.34465E-07
vt 0.3034668 0.48291016
vt 0.3330078 0.48291016
vt 0.05053711 0.68066406
vt 0.18334961 0.47387695
vt 0.27612305 0.6171875
vt 0.3395996 1
vt 0.3395996 0.5751953
vt -0.01991272 1
vt -0.01991272 0.51708984
vt 0.3034668 0.6503906
vt 0.3034668 0.34985352
vt 0.3330078 0.34985352
vt 0.3330078 0.6503906
vt 0.3395996 1
vt 0.3395996 0.5751953
vt 0.27612305 0.6171875
vt 0.05053711 0.68066406
vt 0.18334961 0.47387695
vt -0.01991272 1
vt -0.01991272 0.51708984
vt 0.18334961 0.47387695
vt 0.18334961 0.47387695
vt 0.05053711 0.68066406
vt 0.05053711 0.68066406
vt 0.05053711 0.68066406
vt 0.05053711 0.68066406
vt -0.01991272 0.51708984
vt -0.01991272 0.51708984
vt 0.27612305 0.6171875
vt 0.27612305 0.6171875
vt 0.18334961 0.47387695
vt 0.18334961 0.47387695
vt 0.3395996 0.5751953
vt 0.3395996 0.5751953
vt 0.27612305 0.6171875
vt 0.27612305 0.6171875
vn -0 0.46069336 -0.8876953
vn -0 0.46069336 -0.8876953
vn -0 0.46069336 -0.8876953
vn -0 0.46069336 -0.8876953
vn -1.603365E-05 -0.46069336 0.8876953
vn -1.603365E-05 -0.46069336 0.8876953
vn -1.603365E-05 -0.46069336 0.8876953
vn -1.603365E-05 -0.46069336 0.8876953
vn -1 0 0
vn -1 0 0
vn -1 0 0
vn -1 0 0
vn -1 0 0
vn -1 0 0
vn -1 0 0
vn -0 0.8876953 0.46069336
vn -0 0.8876953 0.46069336
vn -0 0.8876953 0.46069336
vn -0 0.8876953 0.46069336
vn 1 0 0
vn 1 0 0
vn 1 0 0
vn 1 0 0
vn 1 0 0
vn 1 0 0
vn 1 0 0
vn -0 -0.6352539 0.77246094
vn -0 -0.6352539 0.77246094
vn -0 -0.6352539 0.77246094
vn -0 -0.6352539 0.77246094
vn 1.7166138E-05 0.33081055 -0.94384766
vn 1.7166138E-05 0.33081055 -0.94384766
vn 1.7166138E-05 0.33081055 -0.94384766
vn 1.7166138E-05 0.33081055 -0.94384766
vn -0 0.26489258 -0.96435547
vn -0 0.26489258 -0.96435547
vn -0 0.26489258 -0.96435547
vn -0 0.26489258 -0.96435547
vn -0 -0.8076172 0.58935547
vn -0 -0.8076172 0.58935547
vn -0 -0.8076172 0.58935547
vn -0 -0.8076172 0.58935547
g SM_WoodBars00.010_0
f 3/3/3 2/2/2 1/1/1
f 4/4/4 3/3/3 1/1/1
f 7/7/7 6/6/6 5/5/5
f 8/8/8 7/7/7 5/5/5
f 11/11/11 10/10/10 9/9/9
f 11/11/11 9/9/9 12/12/12
f 12/12/12 13/13/13 11/11/11
f 9/9/9 14/14/14 12/12/12
f 9/9/9 15/15/15 14/14/14
f 18/18/18 17/17/17 16/16/16
f 19/19/19 18/18/18 16/16/16
f 22/22/22 21/21/21 20/20/20
f 20/20/20 23/23/23 22/22/22
f 24/24/24 22/22/22 23/23/23
f 20/20/20 25/25/25 23/23/23
f 26/26/26 23/23/23 25/25/25
f 29/29/29 28/28/28 27/27/27
f 30/30/30 29/29/29 27/27/27
f 33/33/33 32/32/32 31/31/31
f 34/34/34 33/33/33 31/31/31
f 37/37/37 36/36/36 35/35/35
f 38/38/38 37/37/37 35/35/35
f 41/41/41 40/40/40 39/39/39
f 42/42/42 41/41/41 39/39/39
