g SM_WoodBars00.011
v -0.0005239105 0.012455902 -0.0070660016
v -0.0005239105 -0.0063872146 -0.0003730011
v 0.00052394863 -0.007084007 -0.00012550353
v 0.0005239105 0.012455902 -0.0070660016
v -0.0005239105 0.014149666 -0.0022975157
v 0.0005239105 0.014149666 -0.0022975157
v 0.0005239105 -0.010489311 0.0064541623
v -0.0005239105 -0.010185699 0.0063463207
v -0.0005239105 -0.010185699 0.0063463207
v -0.0005239105 -0.011076965 0.0045807646
v -0.0005238724 0.0018090438 -0.0015533447
v -0.0005239105 0.014149666 -0.0022975157
v -0.0005239105 0.012455902 -0.0070660016
v -0.0005239105 -0.0063872146 -0.0003730011
v 0.0005239105 0.012455902 -0.0070660016
v 0.0005239105 0.014149666 -0.0022975157
v -0.0005239105 0.014149666 -0.0022975157
v -0.0005239105 0.012455902 -0.0070660016
v -0.0005239105 -0.011076965 0.0045807646
v -0.0005238724 0.0018090438 -0.0015533447
v 0.0005239105 0.0015444946 -0.001368103
v 0.0005239105 -0.011341514 0.0047660065
v 0.0005239105 0.012455902 -0.0070660016
v 0.00052394863 -0.007084007 -0.00012550353
v 0.0005239105 0.0015444946 -0.001368103
v 0.0005239105 0.014149666 -0.0022975157
v 0.0005239105 -0.010489311 0.0064541623
v 0.0005239105 -0.011341514 0.0047660065
v 0.0005239105 -0.010489311 0.0064541623
v 0.0005239105 -0.011341514 0.0047660065
v -0.0005239105 -0.011076965 0.0045807646
v -0.0005239105 -0.010185699 0.0063463207
v 0.00052394863 -0.007084007 -0.00012550353
v -0.0005239105 -0.0063872146 -0.0003730011
v -0.0005238724 0.0018090438 -0.0015533447
v 0.0005239105 0.0015444946 -0.001368103
vt 0.3330078 -7.748604E-07
vt 0.3330078 0.4699707
vt 0.3034668 0.4873047
vt 0.3034668 -8.34465E-07
vt 0.3330078 -7.748604E-07
vt 0.3034668 -8.34465E-07
vt 0.3034668 0.6142578
vt 0.3330078 0.6069336
vt -0.01991272 0.3930664
vt 0.1194458 0.38720703
vt 0.22363281 0.7207031
vt -0.01991272 1
vt 0.3395996 1
vt 0.3395996 0.53027344
vt 0.3034668 0.6503906
vt 0.3034668 0.34985352
vt 0.3330078 0.34985352
vt 0.3330078 0.6503906
vt 0.28051758 -0.23376465
vt 0.17236328 0.093933105
vt 0.1496582 0.08917236
vt 0.2578125 -0.23852539
vt 0.3395996 1
vt 0.3395996 0.5126953
vt 0.2175293 0.7133789
vt -0.01991272 1
vt -0.01991272 0.38549805
vt 0.113342285 0.3798828
vt -0.01991272 0.38549805
vt 0.113342285 0.3798828
vt 0.1194458 0.38720703
vt 0.3330078 0.6069336
vt 0.3034668 0.4873047
vt 0.3330078 0.4699707
vt 0.22363281 0.7207031
vt 0.1496582 0.08917236
vn -0 -0.3347168 -0.9423828
vn -0 -0.3347168 -0.9423828
vn -0 -0.3347168 -0.9423828
vn -0 -0.3347168 -0.9423828
vn -0 0.3347168 0.9423828
vn -0 0.3347168 0.9423828
vn -0 0.3347168 0.9423828
vn -0 0.3347168 0.9423828
vn -1 -8.940697E-07 -8.34465E-07
vn -1 -8.940697E-07 -8.34465E-07
vn -1 -8.940697E-07 -8.34465E-07
vn -1 -8.940697E-07 -8.34465E-07
vn -1 -8.940697E-07 -8.34465E-07
vn -1 -8.940697E-07 -8.34465E-07
vn -0 0.9423828 -0.3347168
vn -0 0.9423828 -0.3347168
vn -0 0.9423828 -0.3347168
vn -0 0.9423828 -0.3347168
vn -0.05105591 0.42919922 0.90185547
vn -0.05105591 0.42919922 0.90185547
vn -0.05105591 0.42919922 0.90185547
vn -0.05105591 0.42919922 0.90185547
vn 1 1.013279E-06 1.9669533E-06
vn 1 1.013279E-06 1.9669533E-06
vn 1 1.013279E-06 1.9669533E-06
vn 1 1.013279E-06 1.9669533E-06
vn 1 1.013279E-06 1.9669533E-06
vn 1 1.013279E-06 1.9669533E-06
vn -0.29174805 -0.8540039 0.43115234
vn -0.29174805 -0.8540039 0.43115234
vn -0.29174805 -0.8540039 0.43115234
vn -0.29174805 -0.8540039 0.43115234
vn -0.13769531 0.14123535 0.98046875
vn -0.13769531 0.14123535 0.98046875
vn -0.13769531 0.14123535 0.98046875
vn -0.13769531 0.14123535 0.98046875
g SM_WoodBars00.011_0
f 3/3/3 2/2/2 1/1/1
f 4/4/4 3/3/3 1/1/1
f 7/7/7 6/6/6 5/5/5
f 8/8/8 7/7/7 5/5/5
f 11/11/11 10/10/10 9/9/9
f 9/9/9 12/12/12 11/11/11
f 12/12/12 13/13/13 11/11/11
f 14/14/14 11/11/11 13/13/13
f 17/17/17 16/16/16 15/15/15
f 18/18/18 17/17/17 15/15/15
f 21/21/21 20/20/20 19/19/19
f 22/22/22 21/21/21 19/19/19
f 25/25/25 24/24/24 23/23/23
f 25/25/25 23/23/23 26/26/26
f 25/25/25 26/26/26 27/27/27
f 27/27/27 28/28/28 25/25/25
f 31/31/31 30/30/30 29/29/29
f 32/32/32 31/31/31 29/29/29
f 35/35/35 34/34/34 33/33/33
f 36/36/36 35/35/35 33/33/33
