g SM_WoodBars00.002
v 0.00052394863 0.0040407563 -0.005777855
v 0.00052394863 0.00012165069 0.013415069
v -0.0005238724 0.00012165069 0.013415069
v -0.0005238724 0.0040209196 -0.0056809234
v -0.0005238724 0.0040209196 -0.0056809234
v -0.0005238724 0.00012165069 0.013415069
v -0.0005238724 0.00039501188 2.0980835E-05
v -0.0005238724 -0.0005193329 -0.004461365
v -0.0005238724 0.0013533019 -0.0062305066
v -0.0005238724 -0.004836464 0.012402687
v -0.0005238724 -0.00024513245 -0.010082321
v -0.0005238724 -0.00024513245 -0.010082321
v -0.0005238724 -0.004836464 0.012402687
v 0.00052394863 -0.004836464 0.012402687
v 0.00052394863 -0.0004208374 -0.00922184
v 0.00052394863 -0.0004208374 -0.00922184
v 0.00052394863 -0.004836464 0.012402687
v 0.00052394863 -0.00066070555 -0.0043048477
v 0.00052394863 0.00012165069 0.013415069
v 0.00052394863 0.00025367737 0.00017745972
v 0.00052394863 0.0040407563 -0.005777855
v 0.00052394863 0.0012119293 -0.00607399
v -0.0005238724 -0.004836464 0.012402687
v -0.0005238724 0.00012165069 0.013415069
v 0.00052394863 0.00012165069 0.013415069
v 0.00052394863 -0.004836464 0.012402687
v 0.00052394863 0.0040407563 -0.005777855
v -0.0005238724 0.0040209196 -0.0056809234
v -0.0005238724 0.00039501188 2.0980835E-05
v 0.00052394863 0.00025367737 0.00017745972
v 0.00052394863 0.00025367737 0.00017745972
v -0.0005238724 0.00039501188 2.0980835E-05
v -0.0005238724 0.0013533019 -0.0062305066
v 0.00052394863 0.0012119293 -0.00607399
v 0.00052394863 0.0012119293 -0.00607399
v -0.0005238724 0.0013533019 -0.0062305066
v -0.0005238724 -0.0005193329 -0.004461365
v 0.00052394863 -0.00066070555 -0.0043048477
v 0.00052394863 -0.00066070555 -0.0043048477
v -0.0005238724 -0.0005193329 -0.004461365
v -0.0005238724 -0.00024513245 -0.010082321
v 0.00052394863 -0.0004208374 -0.00922184
vt 0.48901367 0.3557129
vt 0.48901367 1
vt 0.50097656 1
vt 0.50097656 0.35888672
vt 0.35766602 0.6411133
vt 0.35766602 5.9604645E-08
vt 0.4272461 0.4333496
vt 0.4790039 0.57177734
vt 0.4362793 0.6411133
vt 0.50390625 -5.9604645E-08
vt 0.50390625 0.7548828
vt 0.50097656 0.24523926
vt 0.50097656 1
vt 0.48901367 1
vt 0.48901367 0.27416992
vt 0.50390625 0.7260742
vt 0.50390625 -5.9604645E-08
vt 0.48217773 0.56591797
vt 0.35766602 5.9604645E-08
vt 0.43041992 0.42749023
vt 0.35766602 0.64404297
vt 0.43945312 0.6352539
vt 0.50097656 0.6503906
vt 0.50097656 0.34985352
vt 0.48901367 0.34985352
vt 0.48901367 0.6503906
vt 0.35766602 0.64404297
vt 0.35766602 0.6411133
vt 0.4272461 0.4333496
vt 0.43041992 0.42749023
vt 0.43041992 0.42749023
vt 0.4272461 0.4333496
vt 0.4362793 0.6411133
vt 0.43945312 0.6352539
vt 0.43945312 0.6352539
vt 0.4362793 0.6411133
vt 0.4790039 0.57177734
vt 0.48217773 0.56591797
vt 0.48217773 0.56591797
vt 0.4790039 0.57177734
vt 0.50390625 0.7548828
vt 0.50390625 0.7260742
vn -2.0384789E-05 0.97998047 0.20007324
vn -2.0384789E-05 0.97998047 0.20007324
vn -2.0384789E-05 0.97998047 0.20007324
vn -2.0384789E-05 0.97998047 0.20007324
vn -1 0 0
vn -1 0 0
vn -1 0 0
vn -1 0 0
vn -1 0 0
vn -1 0 0
vn -1 0 0
vn 5.9604645E-07 -0.97998047 -0.20007324
vn 5.9604645E-07 -0.97998047 -0.20007324
vn 5.9604645E-07 -0.97998047 -0.20007324
vn 5.9604645E-07 -0.97998047 -0.20007324
vn 1 0 0
vn 1 0 0
vn 1 0 0
vn 1 0 0
vn 1 0 0
vn 1 0 0
vn 1 0 0
vn -0 -0.20007324 0.97998047
vn -0 -0.20007324 0.97998047
vn -0 -0.20007324 0.97998047
vn -0 -0.20007324 0.97998047
vn -0.03366089 -0.8432617 -0.5361328
vn -0.03366089 -0.8432617 -0.5361328
vn -0.03366089 -0.8432617 -0.5361328
vn -0.03366089 -0.8432617 -0.5361328
vn 0.11004639 0.9824219 0.15063477
vn 0.11004639 0.9824219 0.15063477
vn 0.11004639 0.9824219 0.15063477
vn 0.11004639 0.9824219 0.15063477
vn 0.015930176 -0.68652344 -0.7270508
vn 0.015930176 -0.68652344 -0.7270508
vn 0.015930176 -0.68652344 -0.7270508
vn 0.015930176 -0.68652344 -0.7270508
vn 0.12646484 0.99072266 0.048339844
vn 0.12646484 0.99072266 0.048339844
vn 0.12646484 0.99072266 0.048339844
vn 0.12646484 0.99072266 0.048339844
g SM_WoodBars00.002_0
f 3/3/3 2/2/2 1/1/1
f 4/4/4 3/3/3 1/1/1
f 7/7/7 6/6/6 5/5/5
f 6/6/6 7/7/7 8/8/8
f 7/7/7 9/9/9 8/8/8
f 8/8/8 10/10/10 6/6/6
f 10/10/10 8/8/8 11/11/11
f 14/14/14 13/13/13 12/12/12
f 15/15/15 14/14/14 12/12/12
f 18/18/18 17/17/17 16/16/16
f 19/19/19 17/17/17 18/18/18
f 18/18/18 20/20/20 19/19/19
f 19/19/19 20/20/20 21/21/21
f 18/18/18 22/22/22 20/20/20
f 25/25/25 24/24/24 23/23/23
f 26/26/26 25/25/25 23/23/23
f 29/29/29 28/28/28 27/27/27
f 30/30/30 29/29/29 27/27/27
f 33/33/33 32/32/32 31/31/31
f 34/34/34 33/33/33 31/31/31
f 37/37/37 36/36/36 35/35/35
f 38/38/38 37/37/37 35/35/35
f 41/41/41 40/40/40 39/39/39
f 42/42/42 41/41/41 39/39/39
