g SM_WoodBars00
v 0.0005238724 0.009021301 0.0001977539
v -0.00052394863 0.008978309 0.0002909851
v -0.0005239868 0.00801281 -0.0017818069
v 0.0005238724 0.008103713 -0.0017722702
v 0.0005238724 0.0015604781 -0.00043922424
v -0.00052394863 0.0015174865 -0.00034599303
v -0.00052394863 0.008978309 0.0002909851
v 0.0005238724 0.009021301 0.0001977539
v 0.0005238724 0.006888771 0.0023038865
v -0.00052394863 0.0067594144 0.0023242186
v -0.00052394863 0.0015174865 -0.00034599303
v 0.0005238724 0.0015604781 -0.00043922424
v 0.0005238342 0.0073071667 0.003232193
v -0.0005239868 0.0071617123 0.0032168196
v -0.00052394863 0.0067594144 0.0023242186
v 0.0005238724 0.006888771 0.0023038865
v -0.00052394863 -0.016062126 -0.0043229293
v -0.00052394863 -0.016593285 0.0007094955
v 0.0005238724 -0.016593285 0.0007094955
v 0.0005238724 -0.016062126 -0.0043229293
v 0.0005238724 0.0015604781 -0.00043922424
v 0.0005238724 0.009021301 0.0001977539
v 0.0005238724 0.008103713 -0.0017722702
v 0.0005238724 -0.016062126 -0.0043229293
v 0.0005238342 0.0073071667 0.003232193
v 0.0005238724 -0.016593285 0.0007094955
v 0.0005238724 0.006888771 0.0023038865
v -0.0005239868 0.00801281 -0.0017818069
v -0.00052394863 -0.016062126 -0.0043229293
v 0.0005238724 -0.016062126 -0.0043229293
v 0.0005238724 0.008103713 -0.0017722702
v 0.0005238342 0.0073071667 0.003232193
v 0.0005238724 -0.016593285 0.0007094955
v -0.00052394863 -0.016593285 0.0007094955
v -0.0005239868 0.0071617123 0.0032168196
v -0.0005239868 0.0071617123 0.0032168196
v -0.00052394863 -0.016593285 0.0007094955
v -0.00052394863 -0.016062126 -0.0043229293
v -0.00052394863 0.0015174865 -0.00034599303
v -0.00052394863 0.0067594144 0.0023242186
v -0.0005239868 0.00801281 -0.0017818069
v -0.00052394863 0.008978309 0.0002909851
vt 0.20727539 0.59716797
vt 0.20031738 0.5966797
vt 0.3395996 0.56884766
vt 0.3395996 0.5708008
vt 0.19665527 0.42138672
vt 0.18969727 0.4206543
vt 0.20031738 0.5966797
vt 0.20727539 0.59716797
vt 0.042541504 0.5527344
vt 0.040130615 0.5498047
vt 0.18969727 0.4206543
vt 0.19665527 0.42138672
vt -0.01991272 0.5649414
vt -0.01991272 0.56152344
vt 0.040130615 0.5498047
vt 0.042541504 0.5527344
vt 0.3330078 0.6503906
vt 0.3330078 0.34985352
vt 0.3034668 0.34985352
vt 0.3034668 0.6503906
vt 0.19665527 0.42138672
vt 0.20727539 0.59716797
vt 0.3395996 0.5708008
vt 0.3395996 -5.9604645E-08
vt -0.01991272 0.5649414
vt -0.01991272 5.9604645E-08
vt 0.042541504 0.5527344
vt 0.3330078 0.43115234
vt 0.3330078 1
vt 0.3034668 1
vt 0.3034668 0.42895508
vt 0.3034668 0.43530273
vt 0.3034668 1
vt 0.3330078 1
vt 0.3330078 0.4387207
vt -0.01991272 0.56152344
vt -0.01991272 5.9604645E-08
vt 0.3395996 -5.9604645E-08
vt 0.18969727 0.4206543
vt 0.040130615 0.5498047
vt 0.3395996 0.56884766
vt 0.20031738 0.5966797
vn -0.07458496 0.9038086 -0.42114258
vn -0.07458496 0.9038086 -0.42114258
vn -0.07458496 0.9038086 -0.42114258
vn -0.07458496 0.9038086 -0.42114258
vn 0.09173584 -0.0847168 0.9921875
vn 0.09173584 -0.0847168 0.9921875
vn 0.09173584 -0.0847168 0.9921875
vn 0.09173584 -0.0847168 0.9921875
vn -0.08538818 0.45410156 -0.88671875
vn -0.08538818 0.45410156 -0.88671875
vn -0.08538818 0.45410156 -0.88671875
vn -0.08538818 0.45410156 -0.88671875
vn -0.119628906 0.90527344 -0.40795898
vn -0.119628906 0.90527344 -0.40795898
vn -0.119628906 0.90527344 -0.40795898
vn -0.119628906 0.90527344 -0.40795898
vn -0 -0.9946289 -0.10498047
vn -0 -0.9946289 -0.10498047
vn -0 -0.9946289 -0.10498047
vn -0 -0.9946289 -0.10498047
vn 1 -2.3841858E-07 3.874302E-06
vn 1 -2.3841858E-07 3.874302E-06
vn 1 -2.3841858E-07 3.874302E-06
vn 1 -2.3841858E-07 3.874302E-06
vn 1 -2.3841858E-07 3.874302E-06
vn 1 -2.3841858E-07 3.874302E-06
vn 1 -2.3841858E-07 3.874302E-06
vn -2.7656555E-05 0.10498047 -0.9946289
vn -2.7656555E-05 0.10498047 -0.9946289
vn -2.7656555E-05 0.10498047 -0.9946289
vn -2.7656555E-05 0.10498047 -0.9946289
vn -9.715557E-06 -0.10498047 0.9946289
vn -9.715557E-06 -0.10498047 0.9946289
vn -9.715557E-06 -0.10498047 0.9946289
vn -9.715557E-06 -0.10498047 0.9946289
vn -1 -4.7683716E-07 2.9802322E-07
vn -1 -4.7683716E-07 2.9802322E-07
vn -1 -4.7683716E-07 2.9802322E-07
vn -1 -4.7683716E-07 2.9802322E-07
vn -1 -4.7683716E-07 2.9802322E-07
vn -1 -4.7683716E-07 2.9802322E-07
vn -1 -4.7683716E-07 2.9802322E-07
g SM_WoodBars00_0
f 3/3/3 2/2/2 1/1/1
f 4/4/4 3/3/3 1/1/1
f 7/7/7 6/6/6 5/5/5
f 8/8/8 7/7/7 5/5/5
f 11/11/11 10/10/10 9/9/9
f 12/12/12 11/11/11 9/9/9
f 15/15/15 14/14/14 13/13/13
f 16/16/16 15/15/15 13/13/13
f 19/19/19 18/18/18 17/17/17
f 20/20/20 19/19/19 17/17/17
f 23/23/23 22/22/22 21/21/21
f 21/21/21 24/24/24 23/23/23
f 24/24/24 21/21/21 25/25/25
f 25/25/25 26/26/26 24/24/24
f 21/21/21 27/27/27 25/25/25
f 30/30/30 29/29/29 28/28/28
f 31/31/31 30/30/30 28/28/28
f 34/34/34 33/33/33 32/32/32
f 35/35/35 34/34/34 32/32/32
f 38/38/38 37/37/37 36/36/36
f 36/36/36 39/39/39 38/38/38
f 36/36/36 40/40/40 39/39/39
f 41/41/41 38/38/38 39/39/39
f 39/39/39 42/42/42 41/41/41
