g SM_WoodBars00.013
v -0.0005239105 0.0075136563 0.0024293517
v -0.0005239105 -0.0047432706 0.0003427124
v -0.0005239105 -0.002432289 -0.0026335907
v 0.0005239105 -0.0052017593 0.0002646637
v 0.0005239105 0.0076434324 0.002451477
v 0.0005239105 -0.0027798843 -0.002854538
v 0.0005239105 0.0076434324 0.002451477
v 0.0005239105 -0.0052017593 0.0002646637
v -0.0005239105 -0.0047432706 0.0003427124
v -0.0005239105 0.0075136563 0.0024293517
v 0.0005239105 0.0076434324 0.002451477
v -0.0005239105 0.0075136563 0.0024293517
v -0.0005239105 -0.002432289 -0.0026335907
v 0.0005239105 -0.0027798843 -0.002854538
v -0.0005239105 -0.0047432706 0.0003427124
v 0.0005239105 -0.0052017593 0.0002646637
v 0.0005239105 -0.0027798843 -0.002854538
v -0.0005239105 -0.002432289 -0.0026335907
vt -0.01991272 0.56347656
vt -0.01991272 0.27124023
vt 0.21606445 0.31298828
vt -0.01991272 0.26049805
vt -0.01991272 0.56640625
vt 0.22741699 0.30419922
vt 0.3034668 0.4333496
vt 0.3034668 0.7397461
vt 0.3330078 0.7285156
vt 0.3330078 0.43652344
vt -0.01991272 0.56640625
vt -0.01991272 0.56347656
vt 0.21606445 0.31298828
vt 0.22741699 0.30419922
vt 0.3330078 0.7285156
vt 0.3034668 0.7397461
vt 0.22741699 0.30419922
vt 0.21606445 0.31298828
vn -1 0 0
vn -1 0 0
vn -1 0 0
vn 1 0 0
vn 1 0 0
vn 1 0 0
vn -1.758337E-05 -0.16784668 0.98583984
vn -1.758337E-05 -0.16784668 0.98583984
vn -1.758337E-05 -0.16784668 0.98583984
vn -1.758337E-05 -0.16784668 0.98583984
vn -0.037384033 0.45336914 -0.890625
vn -0.037384033 0.45336914 -0.890625
vn -0.037384033 0.45336914 -0.890625
vn -0.037384033 0.45336914 -0.890625
vn -0.36450195 -0.73535156 -0.57128906
vn -0.36450195 -0.73535156 -0.57128906
vn -0.36450195 -0.73535156 -0.57128906
vn -0.36450195 -0.73535156 -0.57128906
g SM_WoodBars00.013_0
f 3/3/3 2/2/2 1/1/1
f 6/6/6 5/5/5 4/4/4
f 9/9/9 8/8/8 7/7/7
f 10/10/10 9/9/9 7/7/7
f 13/13/13 12/12/12 11/11/11
f 14/14/14 13/13/13 11/11/11
f 17/17/17 16/16/16 15/15/15
f 18/18/18 17/17/17 15/15/15
