g SM_WoodBars00.006
v 0.0005239105 0.0039162063 0.0032641601
v 0.0005239105 -0.01356041 0.0014273834
v -0.0005239105 -0.01356041 0.0014273834
v -0.0005239105 0.0041176225 0.0032853698
v -0.0005239105 0.0073651886 -0.001461563
v -0.0005239105 -0.0130315395 -0.003605232
v 0.0005239105 -0.0130315395 -0.003605232
v 0.0005239105 0.0071619796 -0.0014829254
v -0.0005239105 0.0041176225 0.0032853698
v -0.0005239105 -0.01356041 0.0014273834
v -0.0005239105 -0.0130315395 -0.003605232
v -0.0005239105 0.0032081986 0.00066150667
v -0.0005239105 0.0073651886 -0.001461563
v -0.0005239105 0.01231903 -0.00027160643
v 0.0005239105 0.0071619796 -0.0014829254
v 0.0005239105 -0.0130315395 -0.003605232
v 0.0005239105 0.0029925918 0.0006465149
v 0.0005239105 0.0039162063 0.0032641601
v 0.0005239105 -0.01356041 0.0014273834
v 0.0005239105 0.012103385 -0.0002865982
v -0.0005239105 -0.0130315395 -0.003605232
v -0.0005239105 -0.01356041 0.0014273834
v 0.0005239105 -0.01356041 0.0014273834
v 0.0005239105 -0.0130315395 -0.003605232
v 0.0005239105 0.0039162063 0.0032641601
v -0.0005239105 0.0041176225 0.0032853698
v -0.0005239105 0.01231903 -0.00027160643
v 0.0005239105 0.012103385 -0.0002865982
v 0.0005239105 0.012103385 -0.0002865982
v -0.0005239105 0.01231903 -0.00027160643
v -0.0005239105 0.0032081986 0.00066150667
v 0.0005239105 0.0029925918 0.0006465149
v 0.0005239105 0.0029925918 0.0006465149
v -0.0005239105 0.0032081986 0.00066150667
v -0.0005239105 0.0073651886 -0.001461563
v 0.0005239105 0.0071619796 -0.0014829254
vt 0.9746094 0.58691406
vt 0.9746094 1
vt 0.98779297 1
vt 0.98779297 0.58251953
vt 0.98779297 0.5180664
vt 0.98779297 1
vt 0.9746094 1
vt 0.9746094 0.5229492
vt 0.828125 0.4177246
vt 0.828125 5.9604645E-08
vt 0.99072266 -5.9604645E-08
vt 0.9091797 0.38989258
vt 0.99072266 0.4819336
vt 0.9692383 0.60058594
vt 0.99072266 0.47705078
vt 0.99072266 -5.9604645E-08
vt 0.9086914 0.38500977
vt 0.828125 0.4128418
vt 0.828125 5.9604645E-08
vt 0.9692383 0.5957031
vt 0.98779297 0.6503906
vt 0.98779297 0.34985352
vt 0.9746094 0.34985352
vt 0.9746094 0.6503906
vt 0.828125 0.4128418
vt 0.828125 0.4177246
vt 0.9692383 0.60058594
vt 0.9692383 0.5957031
vt 0.9692383 0.5957031
vt 0.9692383 0.60058594
vt 0.9091797 0.38989258
vt 0.9086914 0.38500977
vt 0.9086914 0.38500977
vt 0.9091797 0.38989258
vt 0.99072266 0.4819336
vt 0.99072266 0.47705078
vn 1.9311905E-05 -0.10455322 0.9946289
vn 1.9311905E-05 -0.10455322 0.9946289
vn 1.9311905E-05 -0.10455322 0.9946289
vn 1.9311905E-05 -0.10455322 0.9946289
vn -2.503395E-06 0.10455322 -0.9946289
vn -2.503395E-06 0.10455322 -0.9946289
vn -2.503395E-06 0.10455322 -0.9946289
vn -2.503395E-06 0.10455322 -0.9946289
vn -1 0 0
vn -1 0 0
vn -1 0 0
vn -1 0 0
vn -1 0 0
vn -1 0 0
vn 1 0 0
vn 1 0 0
vn 1 0 0
vn 1 0 0
vn 1 0 0
vn 1 0 0
vn -0 -0.9946289 -0.10449219
vn -0 -0.9946289 -0.10449219
vn -0 -0.9946289 -0.10449219
vn -0 -0.9946289 -0.10449219
vn 0.09460449 0.3959961 0.91308594
vn 0.09460449 0.3959961 0.91308594
vn 0.09460449 0.3959961 0.91308594
vn 0.09460449 0.3959961 0.91308594
vn -0.035186768 -0.10180664 -0.9941406
vn -0.035186768 -0.10180664 -0.9941406
vn -0.035186768 -0.10180664 -0.9941406
vn -0.035186768 -0.10180664 -0.9941406
vn 0.105773926 0.45239258 0.8857422
vn 0.105773926 0.45239258 0.8857422
vn 0.105773926 0.45239258 0.8857422
vn 0.105773926 0.45239258 0.8857422
g SM_WoodBars00.006_0
f 3/3/3 2/2/2 1/1/1
f 4/4/4 3/3/3 1/1/1
f 7/7/7 6/6/6 5/5/5
f 8/8/8 7/7/7 5/5/5
f 11/11/11 10/10/10 9/9/9
f 9/9/9 12/12/12 11/11/11
f 11/11/11 12/12/12 13/13/13
f 9/9/9 14/14/14 12/12/12
f 17/17/17 16/16/16 15/15/15
f 16/16/16 17/17/17 18/18/18
f 18/18/18 19/19/19 16/16/16
f 17/17/17 20/20/20 18/18/18
f 23/23/23 22/22/22 21/21/21
f 24/24/24 23/23/23 21/21/21
f 27/27/27 26/26/26 25/25/25
f 28/28/28 27/27/27 25/25/25
f 31/31/31 30/30/30 29/29/29
f 32/32/32 31/31/31 29/29/29
f 35/35/35 34/34/34 33/33/33
f 36/36/36 35/35/35 33/33/33
