g SM_WoodBars00.017
v -0.0005239868 0.008771057 -0.002951889
v 0.0005239105 0.008125953 -0.0029161454
v 0.0005238724 0.0031794356 0.00017978667
v -0.0005239868 0.008771057 -0.002951889
v 0.0005238724 0.0031794356 0.00017978667
v -0.00052394863 0.003443985 -5.455017E-06
v 0.0005238724 0.0051065446 0.0023193741
v 0.0005238724 -0.01451744 0.0034074783
v -0.00052394863 -0.01451744 0.0034074783
v -0.00052394863 0.004965515 0.0023272324
v -0.0005239868 0.008771057 -0.002951889
v -0.00052394863 -0.01479763 -0.0016450882
v 0.0005238724 -0.01479763 -0.0016450882
v 0.0005239105 0.008125953 -0.0029161454
v -0.00052394863 0.003443985 -5.455017E-06
v -0.00052394863 0.012651367 -0.0013314056
v -0.00052394863 0.004965515 0.0023272324
v -0.00052394863 -0.01451744 0.0034074783
v -0.0005239868 0.008771057 -0.002951889
v -0.00052394863 -0.01479763 -0.0016450882
v 0.0005239105 0.008125953 -0.0029161454
v 0.0005238724 -0.01479763 -0.0016450882
v 0.0005238724 -0.01451744 0.0034074783
v 0.0005238724 0.0031794356 0.00017978667
v 0.0005238724 0.0051065446 0.0023193741
v 0.0005238724 0.012386779 -0.0011462021
v -0.00052394863 -0.01479763 -0.0016450882
v -0.00052394863 -0.01451744 0.0034074783
v 0.0005238724 -0.01451744 0.0034074783
v 0.0005238724 -0.01479763 -0.0016450882
v -0.00052394863 0.003443985 -5.455017E-06
v 0.0005238724 0.0031794356 0.00017978667
v 0.0005238724 0.012386779 -0.0011462021
v -0.00052394863 0.012651367 -0.0013314056
v -0.00052394863 0.012651367 -0.0013314056
v 0.0005238724 0.012386779 -0.0011462021
v 0.0005238724 0.0051065446 0.0023193741
v -0.00052394863 0.004965515 0.0023272324
vt 0.99072266 0.5546875
vt 0.99072266 0.5395508
vt 0.9003906 0.4194336
vt 0.99072266 0.5546875
vt 0.9003906 0.4194336
vt 0.9057617 0.42578125
vt 0.9746094 0.53808594
vt 0.9746094 1
vt 0.98779297 1
vt 0.98779297 0.5415039
vt 0.98779297 0.4453125
vt 0.98779297 1
vt 0.9746094 1
vt 0.9746094 0.46044922
vt 0.9057617 0.42578125
vt 0.9321289 0.6435547
vt 0.828125 0.4584961
vt 0.828125 5.9604645E-08
vt 0.99072266 0.5546875
vt 0.99072266 -5.9604645E-08
vt 0.99072266 0.5395508
vt 0.99072266 -5.9604645E-08
vt 0.828125 5.9604645E-08
vt 0.9003906 0.4194336
vt 0.828125 0.46191406
vt 0.92626953 0.63720703
vt 0.98779297 0.6503906
vt 0.98779297 0.34985352
vt 0.9746094 0.34985352
vt 0.9746094 0.6503906
vt 0.9057617 0.42578125
vt 0.9003906 0.4194336
vt 0.92626953 0.63720703
vt 0.9321289 0.6435547
vt 0.9321289 0.6435547
vt 0.92626953 0.63720703
vt 0.828125 0.46191406
vt 0.828125 0.4584961
vn 0.12805176 0.5029297 0.85498047
vn 0.12805176 0.5029297 0.85498047
vn 0.12805176 0.5029297 0.85498047
vn 0.12805176 0.5029297 0.85498047
vn 0.12805176 0.5029297 0.85498047
vn 0.12805176 0.5029297 0.85498047
vn 1.859665E-05 0.055358887 0.99853516
vn 1.859665E-05 0.055358887 0.99853516
vn 1.859665E-05 0.055358887 0.99853516
vn 1.859665E-05 0.055358887 0.99853516
vn -1.1980534E-05 -0.055358887 -0.99853516
vn -1.1980534E-05 -0.055358887 -0.99853516
vn -1.1980534E-05 -0.055358887 -0.99853516
vn -1.1980534E-05 -0.055358887 -0.99853516
vn -1 -2.9802322E-07 3.0994415E-06
vn -1 -2.9802322E-07 3.0994415E-06
vn -1 -2.9802322E-07 3.0994415E-06
vn -1 -2.9802322E-07 3.0994415E-06
vn -1 -2.9802322E-07 3.0994415E-06
vn -1 -2.9802322E-07 3.0994415E-06
vn 1 -2.9802322E-07 3.0994415E-06
vn 1 -2.9802322E-07 3.0994415E-06
vn 1 -2.9802322E-07 3.0994415E-06
vn 1 -2.9802322E-07 3.0994415E-06
vn 1 -2.9802322E-07 3.0994415E-06
vn 1 -2.9802322E-07 3.0994415E-06
vn -0 -0.99853516 0.055358887
vn -0 -0.99853516 0.055358887
vn -0 -0.99853516 0.055358887
vn -0 -0.99853516 0.055358887
vn 0.13769531 -0.14123535 -0.98046875
vn 0.13769531 -0.14123535 -0.98046875
vn 0.13769531 -0.14123535 -0.98046875
vn 0.13769531 -0.14123535 -0.98046875
vn -0.050994873 0.42919922 0.90185547
vn -0.050994873 0.42919922 0.90185547
vn -0.050994873 0.42919922 0.90185547
vn -0.050994873 0.42919922 0.90185547
g SM_WoodBars00.017_0
f 3/3/3 2/2/2 1/1/1
f 6/6/6 5/5/5 4/4/4
f 9/9/9 8/8/8 7/7/7
f 10/10/10 9/9/9 7/7/7
f 13/13/13 12/12/12 11/11/11
f 14/14/14 13/13/13 11/11/11
f 17/17/17 16/16/16 15/15/15
f 15/15/15 18/18/18 17/17/17
f 18/18/18 15/15/15 19/19/19
f 19/19/19 20/20/20 18/18/18
f 23/23/23 22/22/22 21/21/21
f 21/21/21 24/24/24 23/23/23
f 25/25/25 23/23/23 24/24/24
f 24/24/24 26/26/26 25/25/25
f 29/29/29 28/28/28 27/27/27
f 30/30/30 29/29/29 27/27/27
f 33/33/33 32/32/32 31/31/31
f 34/34/34 33/33/33 31/31/31
f 37/37/37 36/36/36 35/35/35
f 38/38/38 37/37/37 35/35/35
